ISO-10303-21;
HEADER;
FILE_DESCRIPTION(('Zoo Text-to-CAD'),'1');
FILE_NAME('dump.step', '2025-11-20T07:11:35.812870206+00:00', ('Author unknown'), ('Organization unknown'), 'zoo.dev beta', 'zoo.dev', 'Authorization unknown');
FILE_SCHEMA(('AP203_CONFIGURATION_CONTROLLED_3D_DESIGN_OF_MECHANICAL_PARTS_AND_ASSEMBLIES_MIM_LF'));
ENDSEC;
DATA;
#1 = (
  LENGTH_UNIT()
  NAMED_UNIT(*)
  SI_UNIT($, .METRE.)
);
#2 = (
  NAMED_UNIT(*)
  PLANE_ANGLE_UNIT()
  SI_UNIT($, .RADIAN.)
);
#3 = UNCERTAINTY_MEASURE_WITH_UNIT(LENGTH_MEASURE(0.00001), #1, 'DISTANCE_ACCURACY_VALUE', $);
#4 = (
  GEOMETRIC_REPRESENTATION_CONTEXT(3)
  GLOBAL_UNCERTAINTY_ASSIGNED_CONTEXT((#3))
  GLOBAL_UNIT_ASSIGNED_CONTEXT((#1, #2))
  REPRESENTATION_CONTEXT('', '3D')
);
#5 = CARTESIAN_POINT('NONE', (0.045, 0.002, -0));
#6 = VERTEX_POINT('NONE', #5);
#7 = CARTESIAN_POINT('NONE', (0.043, 0.000000000000000003552713678800501, 0.00000000000000000011165101928417995));
#8 = VERTEX_POINT('NONE', #7);
#9 = CARTESIAN_POINT('NONE', (0.045, 0.033, -0));
#10 = VERTEX_POINT('NONE', #9);
#11 = CARTESIAN_POINT('NONE', (0.043, 0.03499999999999999, 0.0000000000000000001116510192841797));
#12 = VERTEX_POINT('NONE', #11);
#13 = CARTESIAN_POINT('NONE', (0.03, 0.035, -0));
#14 = VERTEX_POINT('NONE', #13);
#15 = CARTESIAN_POINT('NONE', (0.03, 0.039, -0));
#16 = VERTEX_POINT('NONE', #15);
#17 = CARTESIAN_POINT('NONE', (0.029, 0.04, -0));
#18 = VERTEX_POINT('NONE', #17);
#19 = CARTESIAN_POINT('NONE', (0.006, 0.04, -0));
#20 = VERTEX_POINT('NONE', #19);
#21 = CARTESIAN_POINT('NONE', (0.006, 0.0592, -0));
#22 = VERTEX_POINT('NONE', #21);
#23 = CARTESIAN_POINT('NONE', (0.0052, 0.060000000000000005, -0.000000000000000000041869132231567083));
#24 = VERTEX_POINT('NONE', #23);
#25 = CARTESIAN_POINT('NONE', (0.03825, 0.030999000000000002, -0));
#26 = VERTEX_POINT('NONE', #25);
#27 = CARTESIAN_POINT('NONE', (0.03825, 0.04, -0));
#28 = VERTEX_POINT('NONE', #27);
#29 = CARTESIAN_POINT('NONE', (0.0000000000000000023421370033693132, 0.030999000000000002, -0.03825));
#30 = VERTEX_POINT('NONE', #29);
#31 = CARTESIAN_POINT('NONE', (0.0000000000000000023421370033693132, 0.04, -0.03825));
#32 = VERTEX_POINT('NONE', #31);
#33 = CARTESIAN_POINT('NONE', (-0.03825, 0.030999000000000002, -0.0000000000000000046842740067386264));
#34 = VERTEX_POINT('NONE', #33);
#35 = CARTESIAN_POINT('NONE', (-0.03825, 0.04, -0.0000000000000000046842740067386264));
#36 = VERTEX_POINT('NONE', #35);
#37 = CARTESIAN_POINT('NONE', (-0.000000000000000007026411010107939, 0.030999000000000002, 0.03825));
#38 = VERTEX_POINT('NONE', #37);
#39 = CARTESIAN_POINT('NONE', (-0.000000000000000007026411010107939, 0.04, 0.03825));
#40 = VERTEX_POINT('NONE', #39);
#41 = CARTESIAN_POINT('NONE', (-0.02, 0.0030009999999999998, -0));
#42 = VERTEX_POINT('NONE', #41);
#43 = CARTESIAN_POINT('NONE', (-0.02, 0, -0));
#44 = VERTEX_POINT('NONE', #43);
#45 = DIRECTION('NONE', (1, 0, -0));
#46 = DIRECTION('NONE', (0, -1, 0));
#47 = CARTESIAN_POINT('NONE', (0, 0.002, -0));
#48 = AXIS2_PLACEMENT_3D('NONE', #47, #46, #45);
#49 = CIRCLE('NONE', #48, 0.045);
#50 = DIRECTION('NONE', (1, -0.000000000000009325873406851249, -0.00000000000000005582550964209078));
#51 = DIRECTION('NONE', (-0.00000000000000005582550964209078, 0.0000000000000000000000000000006918614013577251, -1));
#52 = CARTESIAN_POINT('NONE', (0.04299999999999998, 0.0020000000000000187, 0.00000000000000000011165101928418235));
#53 = AXIS2_PLACEMENT_3D('NONE', #52, #51, #50);
#54 = CIRCLE('NONE', #53, 0.0020000000000000144);
#55 = DIRECTION('NONE', (1, 0, 0.000000000000000002596535332190231));
#56 = DIRECTION('NONE', (-0, 1, 0));
#57 = CARTESIAN_POINT('NONE', (0, 0.000000000000000003552713678800501, 0));
#58 = AXIS2_PLACEMENT_3D('NONE', #57, #56, #55);
#59 = CIRCLE('NONE', #58, 0.043);
#60 = DIRECTION('NONE', (1, 0, -0));
#61 = DIRECTION('NONE', (0, 1, 0));
#62 = CARTESIAN_POINT('NONE', (0, 0.033, 0));
#63 = AXIS2_PLACEMENT_3D('NONE', #62, #61, #60);
#64 = CIRCLE('NONE', #63, 0.045);
#65 = DIRECTION('NONE', (1, 0.000000000000017763568394002252, -0.00000000000000005582550964209068));
#66 = DIRECTION('NONE', (0.00000000000000005582550964209068, 0.0000000000000000000000000000007513763606143098, 1));
#67 = CARTESIAN_POINT('NONE', (0.04299999999999997, 0.03299999999999997, 0.00000000000000000011165101928418293));
#68 = AXIS2_PLACEMENT_3D('NONE', #67, #66, #65);
#69 = CIRCLE('NONE', #68, 0.0020000000000000282);
#70 = DIRECTION('NONE', (1, 0, 0.000000000000000002596535332190226));
#71 = DIRECTION('NONE', (0, -1, 0));
#72 = CARTESIAN_POINT('NONE', (0, 0.03499999999999999, -0));
#73 = AXIS2_PLACEMENT_3D('NONE', #72, #71, #70);
#74 = CIRCLE('NONE', #73, 0.043);
#75 = DIRECTION('NONE', (0, 1, 0));
#76 = VECTOR('NONE', #75, 1);
#77 = CARTESIAN_POINT('NONE', (0.045, 0.002000000000000001, -0));
#78 = LINE('NONE', #77, #76);
#79 = DIRECTION('NONE', (1, 0, -0));
#80 = DIRECTION('NONE', (0, 1, 0));
#81 = CARTESIAN_POINT('NONE', (0.00000000000000000251214793389404, 0.035, -0));
#82 = AXIS2_PLACEMENT_3D('NONE', #81, #80, #79);
#83 = CIRCLE('NONE', #82, 0.029999999999999995);
#84 = DIRECTION('NONE', (1, 0, -0.000000000000000041869132231567334));
#85 = DIRECTION('NONE', (0, 1, 0));
#86 = CARTESIAN_POINT('NONE', (0.00000000000000000376822190084106, 0.039, 0.00000000000000000125607396694702));
#87 = AXIS2_PLACEMENT_3D('NONE', #86, #85, #84);
#88 = CIRCLE('NONE', #87, 0.029999999999999995);
#89 = DIRECTION('NONE', (1, 0, -0));
#90 = DIRECTION('NONE', (0, 0, 1));
#91 = CARTESIAN_POINT('NONE', (0.028999999999999998, 0.039, 0));
#92 = AXIS2_PLACEMENT_3D('NONE', #91, #90, #89);
#93 = CIRCLE('NONE', #92, 0.0010000000000000035);
#94 = DIRECTION('NONE', (1, 0, 0.000000000000000043312895411966194));
#95 = DIRECTION('NONE', (0, -1, 0));
#96 = CARTESIAN_POINT('NONE', (0.000000000000000003768221900841061, 0.04, -0.0000000000000000012560739669470194));
#97 = AXIS2_PLACEMENT_3D('NONE', #96, #95, #94);
#98 = CIRCLE('NONE', #97, 0.028999999999999998);
#99 = DIRECTION('NONE', (0, 1, 0));
#100 = VECTOR('NONE', #99, 1);
#101 = CARTESIAN_POINT('NONE', (0.03, 0.035, -0));
#102 = LINE('NONE', #101, #100);
#103 = DIRECTION('NONE', (1, 0, -0));
#104 = DIRECTION('NONE', (0, 1, 0));
#105 = CARTESIAN_POINT('NONE', (0, 0.04, 0));
#106 = AXIS2_PLACEMENT_3D('NONE', #105, #104, #103);
#107 = CIRCLE('NONE', #106, 0.006);
#108 = DIRECTION('NONE', (1, 0, -0));
#109 = DIRECTION('NONE', (0, 1, 0));
#110 = CARTESIAN_POINT('NONE', (0, 0.0592, 0));
#111 = AXIS2_PLACEMENT_3D('NONE', #110, #109, #108);
#112 = CIRCLE('NONE', #111, 0.006);
#113 = DIRECTION('NONE', (1, -0.000000000000017763568394002785, 0.0000000000000000523364152894579));
#114 = DIRECTION('NONE', (-0.0000000000000000523364152894579, 0.000000000000000000000000000000912485215164299, 1));
#115 = CARTESIAN_POINT('NONE', (0.005200000000000013, 0.059200000000000016, -0.000000000000000000041869132231565657));
#116 = AXIS2_PLACEMENT_3D('NONE', #115, #114, #113);
#117 = CIRCLE('NONE', #116, 0.0007999999999999874);
#118 = DIRECTION('NONE', (1, 0, -0.000000000000000008051756198378285));
#119 = DIRECTION('NONE', (0, -1, 0));
#120 = CARTESIAN_POINT('NONE', (0, 0.060000000000000005, -0));
#121 = AXIS2_PLACEMENT_3D('NONE', #120, #119, #118);
#122 = CIRCLE('NONE', #121, 0.0052);
#123 = DIRECTION('NONE', (0.00000000000000004517509052022935, 1, 0));
#124 = VECTOR('NONE', #123, 1);
#125 = CARTESIAN_POINT('NONE', (0.006, 0.04, -0));
#126 = LINE('NONE', #125, #124);
#127 = DIRECTION('NONE', (1, 0, -0));
#128 = DIRECTION('NONE', (0, 1, 0));
#129 = CARTESIAN_POINT('NONE', (0.035, 0.030999000000000002, 0));
#130 = AXIS2_PLACEMENT_3D('NONE', #129, #128, #127);
#131 = CIRCLE('NONE', #130, 0.00325);
#132 = DIRECTION('NONE', (0, 1, 0));
#133 = VECTOR('NONE', #132, 1);
#134 = CARTESIAN_POINT('NONE', (0.03825, 0.030999000000000002, -0));
#135 = LINE('NONE', #134, #133);
#136 = DIRECTION('NONE', (1, 0, -0));
#137 = DIRECTION('NONE', (0, 1, 0));
#138 = CARTESIAN_POINT('NONE', (0.035, 0.04, 0));
#139 = AXIS2_PLACEMENT_3D('NONE', #138, #137, #136);
#140 = CIRCLE('NONE', #139, 0.00325);
#141 = DIRECTION('NONE', (0.0000000000000007206575394982503, 0, -1));
#142 = DIRECTION('NONE', (0, 1, 0));
#143 = CARTESIAN_POINT('NONE', (0, 0.030999000000000002, -0.035));
#144 = AXIS2_PLACEMENT_3D('NONE', #143, #142, #141);
#145 = CIRCLE('NONE', #144, 0.00325);
#146 = DIRECTION('NONE', (0, 1, 0));
#147 = VECTOR('NONE', #146, 1);
#148 = CARTESIAN_POINT('NONE', (0.0000000000000000023421370033693132, 0.030999000000000002, -0.03825));
#149 = LINE('NONE', #148, #147);
#150 = DIRECTION('NONE', (0.0000000000000007206575394982503, 0, -1));
#151 = DIRECTION('NONE', (0, 1, 0));
#152 = CARTESIAN_POINT('NONE', (0, 0.04, -0.035));
#153 = AXIS2_PLACEMENT_3D('NONE', #152, #151, #150);
#154 = CIRCLE('NONE', #153, 0.00325);
#155 = DIRECTION('NONE', (-1, 0, 0.0000000000000007449702618038078));
#156 = DIRECTION('NONE', (0, 1, -0));
#157 = CARTESIAN_POINT('NONE', (-0.035, 0.030999000000000002, -0.000000000000000007105427357601002));
#158 = AXIS2_PLACEMENT_3D('NONE', #157, #156, #155);
#159 = CIRCLE('NONE', #158, 0.00325);
#160 = DIRECTION('NONE', (0, 1, 0));
#161 = VECTOR('NONE', #160, 1);
#162 = CARTESIAN_POINT('NONE', (-0.03825, 0.030999000000000002, -0.0000000000000000046842740067386264));
#163 = LINE('NONE', #162, #161);
#164 = DIRECTION('NONE', (-1, 0, 0.0000000000000007449702618038078));
#165 = DIRECTION('NONE', (0, 1, -0));
#166 = CARTESIAN_POINT('NONE', (-0.035, 0.04, -0.000000000000000007105427357601002));
#167 = AXIS2_PLACEMENT_3D('NONE', #166, #165, #164);
#168 = CIRCLE('NONE', #167, 0.00325);
#169 = DIRECTION('NONE', (0.0000000000000022105980631058614, 0, 1));
#170 = DIRECTION('NONE', (-0, 1, 0));
#171 = CARTESIAN_POINT('NONE', (-0.000000000000000014210854715202004, 0.030999000000000002, 0.03499999999999999));
#172 = AXIS2_PLACEMENT_3D('NONE', #171, #170, #169);
#173 = CIRCLE('NONE', #172, 0.0032500000000000072);
#174 = DIRECTION('NONE', (0, 1, 0));
#175 = VECTOR('NONE', #174, 1);
#176 = CARTESIAN_POINT('NONE', (-0.000000000000000007026411010107939, 0.030999000000000002, 0.03825));
#177 = LINE('NONE', #176, #175);
#178 = DIRECTION('NONE', (0.0000000000000022105980631058614, 0, 1));
#179 = DIRECTION('NONE', (-0, 1, 0));
#180 = CARTESIAN_POINT('NONE', (-0.000000000000000014210854715202004, 0.04, 0.03499999999999999));
#181 = AXIS2_PLACEMENT_3D('NONE', #180, #179, #178);
#182 = CIRCLE('NONE', #181, 0.0032500000000000072);
#183 = DIRECTION('NONE', (-1, 0, -0));
#184 = DIRECTION('NONE', (0, -1, -0));
#185 = CARTESIAN_POINT('NONE', (0, 0.0030009999999999998, 0));
#186 = AXIS2_PLACEMENT_3D('NONE', #185, #184, #183);
#187 = CIRCLE('NONE', #186, 0.02);
#188 = DIRECTION('NONE', (0, -1, 0));
#189 = VECTOR('NONE', #188, 1);
#190 = CARTESIAN_POINT('NONE', (-0.02, 0.0030009999999999998, -0));
#191 = LINE('NONE', #190, #189);
#192 = DIRECTION('NONE', (-1, 0, -0));
#193 = DIRECTION('NONE', (0, -1, -0));
#194 = CARTESIAN_POINT('NONE', (0, -0, 0));
#195 = AXIS2_PLACEMENT_3D('NONE', #194, #193, #192);
#196 = CIRCLE('NONE', #195, 0.02);
#197 = EDGE_CURVE('NONE', #6, #6, #49, .T.);
#198 = EDGE_CURVE('NONE', #6, #8, #54, .T.);
#199 = EDGE_CURVE('NONE', #8, #8, #59, .T.);
#200 = EDGE_CURVE('NONE', #10, #10, #64, .T.);
#201 = EDGE_CURVE('NONE', #10, #12, #69, .T.);
#202 = EDGE_CURVE('NONE', #12, #12, #74, .T.);
#203 = EDGE_CURVE('NONE', #6, #10, #78, .T.);
#204 = EDGE_CURVE('NONE', #14, #14, #83, .T.);
#205 = EDGE_CURVE('NONE', #16, #16, #88, .T.);
#206 = EDGE_CURVE('NONE', #16, #18, #93, .T.);
#207 = EDGE_CURVE('NONE', #18, #18, #98, .T.);
#208 = EDGE_CURVE('NONE', #14, #16, #102, .T.);
#209 = EDGE_CURVE('NONE', #20, #20, #107, .T.);
#210 = EDGE_CURVE('NONE', #22, #22, #112, .T.);
#211 = EDGE_CURVE('NONE', #22, #24, #117, .T.);
#212 = EDGE_CURVE('NONE', #24, #24, #122, .T.);
#213 = EDGE_CURVE('NONE', #20, #22, #126, .T.);
#214 = EDGE_CURVE('NONE', #26, #26, #131, .T.);
#215 = EDGE_CURVE('NONE', #26, #28, #135, .T.);
#216 = EDGE_CURVE('NONE', #28, #28, #140, .T.);
#217 = EDGE_CURVE('NONE', #30, #30, #145, .T.);
#218 = EDGE_CURVE('NONE', #30, #32, #149, .T.);
#219 = EDGE_CURVE('NONE', #32, #32, #154, .T.);
#220 = EDGE_CURVE('NONE', #34, #34, #159, .T.);
#221 = EDGE_CURVE('NONE', #34, #36, #163, .T.);
#222 = EDGE_CURVE('NONE', #36, #36, #168, .T.);
#223 = EDGE_CURVE('NONE', #38, #38, #173, .T.);
#224 = EDGE_CURVE('NONE', #38, #40, #177, .T.);
#225 = EDGE_CURVE('NONE', #40, #40, #182, .T.);
#226 = EDGE_CURVE('NONE', #42, #42, #187, .T.);
#227 = EDGE_CURVE('NONE', #42, #44, #191, .T.);
#228 = EDGE_CURVE('NONE', #44, #44, #196, .T.);
#229 = CARTESIAN_POINT('NONE', (0, 0.0175, 0));
#230 = DIRECTION('NONE', (0, 1, 0));
#231 = DIRECTION('NONE', (1, 0, -0));
#232 = AXIS2_PLACEMENT_3D('NONE', #229, #230, #231);
#233 = CYLINDRICAL_SURFACE('NONE', #232, 0.045);
#234 = CARTESIAN_POINT('NONE', (0, 0, -0));
#235 = DIRECTION('NONE', (0, 1, 0));
#236 = AXIS2_PLACEMENT_3D('NONE', #234, #235, $);
#237 = PLANE('NONE', #236);
#238 = CARTESIAN_POINT('NONE', (0, 0.035, -0));
#239 = DIRECTION('NONE', (0, 1, 0));
#240 = AXIS2_PLACEMENT_3D('NONE', #238, #239, $);
#241 = PLANE('NONE', #240);
#242 = CARTESIAN_POINT('NONE', (0, 0.0020000000000000187, -0));
#243 = DIRECTION('NONE', (0, -1, 0));
#244 = DIRECTION('NONE', (1, 0, 0.0000000000000000007362919164609658));
#245 = AXIS2_PLACEMENT_3D('NONE', #242, #243, #244);
#246 = TOROIDAL_SURFACE('NONE', #245, 0.04299999999999998, 0.0020000000000000144);
#247 = CARTESIAN_POINT('NONE', (0, 0.03299999999999997, -0));
#248 = DIRECTION('NONE', (-0, 1, 0));
#249 = DIRECTION('NONE', (1, 0, 0.0000000000000000007362919164609631));
#250 = AXIS2_PLACEMENT_3D('NONE', #247, #248, #249);
#251 = TOROIDAL_SURFACE('NONE', #250, 0.04299999999999997, 0.0020000000000000282);
#252 = CARTESIAN_POINT('NONE', (0.00000000000000000251214793389404, 0.0375, -0));
#253 = DIRECTION('NONE', (0, 1, 0));
#254 = DIRECTION('NONE', (1, 0, -0));
#255 = AXIS2_PLACEMENT_3D('NONE', #252, #253, #254);
#256 = CYLINDRICAL_SURFACE('NONE', #255, 0.029999999999999995);
#257 = CARTESIAN_POINT('NONE', (0, 0.04, -0));
#258 = DIRECTION('NONE', (0, 1, 0));
#259 = AXIS2_PLACEMENT_3D('NONE', #257, #258, $);
#260 = PLANE('NONE', #259);
#261 = CARTESIAN_POINT('NONE', (0.000000000000000003768221900841061, 0.039, -0.0000000000000000012560739669470194));
#262 = DIRECTION('NONE', (-0, 1, 0));
#263 = DIRECTION('NONE', (1, 0, 0.000000000000000042281935302514515));
#264 = AXIS2_PLACEMENT_3D('NONE', #261, #262, #263);
#265 = TOROIDAL_SURFACE('NONE', #264, 0.028999999999999995, 0.0010000000000000035);
#266 = CARTESIAN_POINT('NONE', (0, 0.05, 0));
#267 = DIRECTION('NONE', (0, 1, 0));
#268 = DIRECTION('NONE', (1, 0, -0));
#269 = AXIS2_PLACEMENT_3D('NONE', #266, #267, #268);
#270 = CYLINDRICAL_SURFACE('NONE', #269, 0.006);
#271 = CARTESIAN_POINT('NONE', (0, 0.06, -0));
#272 = DIRECTION('NONE', (0, 1, 0));
#273 = AXIS2_PLACEMENT_3D('NONE', #271, #272, $);
#274 = PLANE('NONE', #273);
#275 = CARTESIAN_POINT('NONE', (0, 0.059200000000000016, -0));
#276 = DIRECTION('NONE', (0, 1, 0));
#277 = DIRECTION('NONE', (1, 0, -0.0000000000000000021269257693395206));
#278 = AXIS2_PLACEMENT_3D('NONE', #275, #276, #277);
#279 = TOROIDAL_SURFACE('NONE', #278, 0.005200000000000013, 0.0007999999999999874);
#280 = CARTESIAN_POINT('NONE', (0.035, 0.035499499999999996, 0));
#281 = DIRECTION('NONE', (0, 1, 0));
#282 = DIRECTION('NONE', (1, 0, -0));
#283 = AXIS2_PLACEMENT_3D('NONE', #280, #281, #282);
#284 = CYLINDRICAL_SURFACE('NONE', #283, 0.00325);
#285 = CARTESIAN_POINT('NONE', (0, 0.030999000000000002, -0));
#286 = DIRECTION('NONE', (0, 1, 0));
#287 = AXIS2_PLACEMENT_3D('NONE', #285, #286, $);
#288 = PLANE('NONE', #287);
#289 = CARTESIAN_POINT('NONE', (0, 0.04, -0));
#290 = DIRECTION('NONE', (0, 1, 0));
#291 = AXIS2_PLACEMENT_3D('NONE', #289, #290, $);
#292 = PLANE('NONE', #291);
#293 = CARTESIAN_POINT('NONE', (0, 0.035499499999999996, -0.035));
#294 = DIRECTION('NONE', (0, 1, 0));
#295 = DIRECTION('NONE', (0.0000000000000007206575394982503, 0, -1));
#296 = AXIS2_PLACEMENT_3D('NONE', #293, #294, #295);
#297 = CYLINDRICAL_SURFACE('NONE', #296, 0.00325);
#298 = CARTESIAN_POINT('NONE', (0, 0.030999000000000002, -0));
#299 = DIRECTION('NONE', (0, 1, 0));
#300 = AXIS2_PLACEMENT_3D('NONE', #298, #299, $);
#301 = PLANE('NONE', #300);
#302 = CARTESIAN_POINT('NONE', (0, 0.04, -0));
#303 = DIRECTION('NONE', (0, 1, 0));
#304 = AXIS2_PLACEMENT_3D('NONE', #302, #303, $);
#305 = PLANE('NONE', #304);
#306 = CARTESIAN_POINT('NONE', (-0.035, 0.035499499999999996, -0.000000000000000007105427357601002));
#307 = DIRECTION('NONE', (0, 1, -0));
#308 = DIRECTION('NONE', (-1, 0, 0.0000000000000007449702618038078));
#309 = AXIS2_PLACEMENT_3D('NONE', #306, #307, #308);
#310 = CYLINDRICAL_SURFACE('NONE', #309, 0.00325);
#311 = CARTESIAN_POINT('NONE', (0, 0.030999000000000002, -0));
#312 = DIRECTION('NONE', (0, 1, 0));
#313 = AXIS2_PLACEMENT_3D('NONE', #311, #312, $);
#314 = PLANE('NONE', #313);
#315 = CARTESIAN_POINT('NONE', (0, 0.04, -0));
#316 = DIRECTION('NONE', (0, 1, 0));
#317 = AXIS2_PLACEMENT_3D('NONE', #315, #316, $);
#318 = PLANE('NONE', #317);
#319 = CARTESIAN_POINT('NONE', (-0.000000000000000014210854715202004, 0.035499499999999996, 0.03499999999999999));
#320 = DIRECTION('NONE', (-0, 1, 0));
#321 = DIRECTION('NONE', (0.0000000000000022105980631058614, 0, 1));
#322 = AXIS2_PLACEMENT_3D('NONE', #319, #320, #321);
#323 = CYLINDRICAL_SURFACE('NONE', #322, 0.0032500000000000072);
#324 = CARTESIAN_POINT('NONE', (0, 0.030999000000000002, -0));
#325 = DIRECTION('NONE', (0, 1, 0));
#326 = AXIS2_PLACEMENT_3D('NONE', #324, #325, $);
#327 = PLANE('NONE', #326);
#328 = CARTESIAN_POINT('NONE', (0, 0.04, -0));
#329 = DIRECTION('NONE', (0, 1, 0));
#330 = AXIS2_PLACEMENT_3D('NONE', #328, #329, $);
#331 = PLANE('NONE', #330);
#332 = CARTESIAN_POINT('NONE', (0, 0.0015004999999999999, 0));
#333 = DIRECTION('NONE', (0, -1, -0));
#334 = DIRECTION('NONE', (-1, 0, -0));
#335 = AXIS2_PLACEMENT_3D('NONE', #332, #333, #334);
#336 = CYLINDRICAL_SURFACE('NONE', #335, 0.02);
#337 = CARTESIAN_POINT('NONE', (0, 0.0030009999999999998, -0));
#338 = DIRECTION('NONE', (0, -1, -0));
#339 = AXIS2_PLACEMENT_3D('NONE', #337, #338, $);
#340 = PLANE('NONE', #339);
#341 = ORIENTED_EDGE('NONE', *, *, #197, .F.);
#342 = ORIENTED_EDGE('NONE', *, *, #200, .F.);
#343 = EDGE_LOOP('NONE', (#341));
#344 = FACE_BOUND('NONE', #343, .T.);
#345 = EDGE_LOOP('NONE', (#342));
#346 = FACE_BOUND('NONE', #345, .T.);
#347 = ADVANCED_FACE('NONE', (#344, #346), #233, .T.);
#348 = ORIENTED_EDGE('NONE', *, *, #199, .F.);
#349 = ORIENTED_EDGE('NONE', *, *, #228, .F.);
#350 = EDGE_LOOP('NONE', (#348));
#351 = FACE_BOUND('NONE', #350, .T.);
#352 = EDGE_LOOP('NONE', (#349));
#353 = FACE_BOUND('NONE', #352, .T.);
#354 = ADVANCED_FACE('NONE', (#351, #353), #237, .F.);
#355 = ORIENTED_EDGE('NONE', *, *, #202, .F.);
#356 = ORIENTED_EDGE('NONE', *, *, #204, .F.);
#357 = EDGE_LOOP('NONE', (#355));
#358 = FACE_BOUND('NONE', #357, .T.);
#359 = EDGE_LOOP('NONE', (#356));
#360 = FACE_BOUND('NONE', #359, .T.);
#361 = ADVANCED_FACE('NONE', (#358, #360), #241, .T.);
#362 = ORIENTED_EDGE('NONE', *, *, #197, .T.);
#363 = ORIENTED_EDGE('NONE', *, *, #199, .T.);
#364 = EDGE_LOOP('NONE', (#362));
#365 = FACE_BOUND('NONE', #364, .T.);
#366 = EDGE_LOOP('NONE', (#363));
#367 = FACE_BOUND('NONE', #366, .T.);
#368 = ADVANCED_FACE('NONE', (#365, #367), #246, .T.);
#369 = ORIENTED_EDGE('NONE', *, *, #200, .T.);
#370 = ORIENTED_EDGE('NONE', *, *, #202, .T.);
#371 = EDGE_LOOP('NONE', (#369));
#372 = FACE_BOUND('NONE', #371, .T.);
#373 = EDGE_LOOP('NONE', (#370));
#374 = FACE_BOUND('NONE', #373, .T.);
#375 = ADVANCED_FACE('NONE', (#372, #374), #251, .T.);
#376 = ORIENTED_EDGE('NONE', *, *, #204, .T.);
#377 = ORIENTED_EDGE('NONE', *, *, #205, .F.);
#378 = EDGE_LOOP('NONE', (#376));
#379 = FACE_BOUND('NONE', #378, .T.);
#380 = EDGE_LOOP('NONE', (#377));
#381 = FACE_BOUND('NONE', #380, .T.);
#382 = ADVANCED_FACE('NONE', (#379, #381), #256, .T.);
#383 = ORIENTED_EDGE('NONE', *, *, #207, .F.);
#384 = ORIENTED_EDGE('NONE', *, *, #209, .F.);
#385 = EDGE_LOOP('NONE', (#383));
#386 = FACE_BOUND('NONE', #385, .T.);
#387 = EDGE_LOOP('NONE', (#384));
#388 = FACE_BOUND('NONE', #387, .T.);
#389 = ADVANCED_FACE('NONE', (#386, #388), #260, .T.);
#390 = ORIENTED_EDGE('NONE', *, *, #205, .T.);
#391 = ORIENTED_EDGE('NONE', *, *, #207, .T.);
#392 = EDGE_LOOP('NONE', (#390));
#393 = FACE_BOUND('NONE', #392, .T.);
#394 = EDGE_LOOP('NONE', (#391));
#395 = FACE_BOUND('NONE', #394, .T.);
#396 = ADVANCED_FACE('NONE', (#393, #395), #265, .T.);
#397 = ORIENTED_EDGE('NONE', *, *, #209, .T.);
#398 = ORIENTED_EDGE('NONE', *, *, #210, .F.);
#399 = EDGE_LOOP('NONE', (#397));
#400 = FACE_BOUND('NONE', #399, .T.);
#401 = EDGE_LOOP('NONE', (#398));
#402 = FACE_BOUND('NONE', #401, .T.);
#403 = ADVANCED_FACE('NONE', (#400, #402), #270, .T.);
#404 = ORIENTED_EDGE('NONE', *, *, #212, .F.);
#405 = EDGE_LOOP('NONE', (#404));
#406 = FACE_BOUND('NONE', #405, .T.);
#407 = ADVANCED_FACE('NONE', (#406), #274, .T.);
#408 = ORIENTED_EDGE('NONE', *, *, #210, .T.);
#409 = ORIENTED_EDGE('NONE', *, *, #212, .T.);
#410 = EDGE_LOOP('NONE', (#408));
#411 = FACE_BOUND('NONE', #410, .T.);
#412 = EDGE_LOOP('NONE', (#409));
#413 = FACE_BOUND('NONE', #412, .T.);
#414 = ADVANCED_FACE('NONE', (#411, #413), #279, .T.);
#415 = ORIENTED_EDGE('NONE', *, *, #214, .T.);
#416 = ORIENTED_EDGE('NONE', *, *, #216, .F.);
#417 = EDGE_LOOP('NONE', (#415));
#418 = FACE_BOUND('NONE', #417, .T.);
#419 = EDGE_LOOP('NONE', (#416));
#420 = FACE_BOUND('NONE', #419, .T.);
#421 = ADVANCED_FACE('NONE', (#418, #420), #284, .T.);
#422 = ORIENTED_EDGE('NONE', *, *, #214, .F.);
#423 = EDGE_LOOP('NONE', (#422));
#424 = FACE_BOUND('NONE', #423, .T.);
#425 = ADVANCED_FACE('NONE', (#424), #288, .F.);
#426 = ORIENTED_EDGE('NONE', *, *, #216, .T.);
#427 = EDGE_LOOP('NONE', (#426));
#428 = FACE_BOUND('NONE', #427, .T.);
#429 = ADVANCED_FACE('NONE', (#428), #292, .T.);
#430 = ORIENTED_EDGE('NONE', *, *, #217, .T.);
#431 = ORIENTED_EDGE('NONE', *, *, #219, .F.);
#432 = EDGE_LOOP('NONE', (#430));
#433 = FACE_BOUND('NONE', #432, .T.);
#434 = EDGE_LOOP('NONE', (#431));
#435 = FACE_BOUND('NONE', #434, .T.);
#436 = ADVANCED_FACE('NONE', (#433, #435), #297, .T.);
#437 = ORIENTED_EDGE('NONE', *, *, #217, .F.);
#438 = EDGE_LOOP('NONE', (#437));
#439 = FACE_BOUND('NONE', #438, .T.);
#440 = ADVANCED_FACE('NONE', (#439), #301, .F.);
#441 = ORIENTED_EDGE('NONE', *, *, #219, .T.);
#442 = EDGE_LOOP('NONE', (#441));
#443 = FACE_BOUND('NONE', #442, .T.);
#444 = ADVANCED_FACE('NONE', (#443), #305, .T.);
#445 = ORIENTED_EDGE('NONE', *, *, #220, .T.);
#446 = ORIENTED_EDGE('NONE', *, *, #222, .F.);
#447 = EDGE_LOOP('NONE', (#445));
#448 = FACE_BOUND('NONE', #447, .T.);
#449 = EDGE_LOOP('NONE', (#446));
#450 = FACE_BOUND('NONE', #449, .T.);
#451 = ADVANCED_FACE('NONE', (#448, #450), #310, .T.);
#452 = ORIENTED_EDGE('NONE', *, *, #220, .F.);
#453 = EDGE_LOOP('NONE', (#452));
#454 = FACE_BOUND('NONE', #453, .T.);
#455 = ADVANCED_FACE('NONE', (#454), #314, .F.);
#456 = ORIENTED_EDGE('NONE', *, *, #222, .T.);
#457 = EDGE_LOOP('NONE', (#456));
#458 = FACE_BOUND('NONE', #457, .T.);
#459 = ADVANCED_FACE('NONE', (#458), #318, .T.);
#460 = ORIENTED_EDGE('NONE', *, *, #223, .T.);
#461 = ORIENTED_EDGE('NONE', *, *, #225, .F.);
#462 = EDGE_LOOP('NONE', (#460));
#463 = FACE_BOUND('NONE', #462, .T.);
#464 = EDGE_LOOP('NONE', (#461));
#465 = FACE_BOUND('NONE', #464, .T.);
#466 = ADVANCED_FACE('NONE', (#463, #465), #323, .T.);
#467 = ORIENTED_EDGE('NONE', *, *, #223, .F.);
#468 = EDGE_LOOP('NONE', (#467));
#469 = FACE_BOUND('NONE', #468, .T.);
#470 = ADVANCED_FACE('NONE', (#469), #327, .F.);
#471 = ORIENTED_EDGE('NONE', *, *, #225, .T.);
#472 = EDGE_LOOP('NONE', (#471));
#473 = FACE_BOUND('NONE', #472, .T.);
#474 = ADVANCED_FACE('NONE', (#473), #331, .T.);
#475 = ORIENTED_EDGE('NONE', *, *, #226, .F.);
#476 = ORIENTED_EDGE('NONE', *, *, #228, .T.);
#477 = EDGE_LOOP('NONE', (#475));
#478 = FACE_BOUND('NONE', #477, .T.);
#479 = EDGE_LOOP('NONE', (#476));
#480 = FACE_BOUND('NONE', #479, .T.);
#481 = ADVANCED_FACE('NONE', (#478, #480), #336, .F.);
#482 = ORIENTED_EDGE('NONE', *, *, #226, .T.);
#483 = EDGE_LOOP('NONE', (#482));
#484 = FACE_BOUND('NONE', #483, .T.);
#485 = ADVANCED_FACE('NONE', (#484), #340, .T.);
#486 = CLOSED_SHELL('NONE', (#347, #354, #361, #368, #375, #382, #389, #396, #403, #407, #414, #421, #425, #429, #436, #440, #444, #451, #455, #459, #466, #470, #474, #481, #485));
#487 = MANIFOLD_SOLID_BREP('NONE', #486);
#488 = APPLICATION_CONTEXT('configuration controlled 3D design of mechanical parts and assemblies');
#489 = PRODUCT_DEFINITION_CONTEXT('part definition', #488, 'design');
#490 = PRODUCT('UNIDENTIFIED_PRODUCT', 'NONE', $, ());
#491 = PRODUCT_DEFINITION_FORMATION('', $, #490);
#492 = PRODUCT_DEFINITION('design', $, #491, #489);
#493 = PRODUCT_DEFINITION_SHAPE('NONE', $, #492);
#494 = ADVANCED_BREP_SHAPE_REPRESENTATION('NONE', (#487), #4);
#495 = SHAPE_DEFINITION_REPRESENTATION(#493, #494);
#496 = COLOUR_RGB('NONE', 0.6901960968971252, 0.6901960968971252, 0.6901960968971252);
#497 = FILL_AREA_STYLE_COLOUR('NONE', #496);
#498 = FILL_AREA_STYLE('NONE', (#497));
#499 = SURFACE_STYLE_FILL_AREA(#498);
#500 = SURFACE_SIDE_STYLE('NONE', (#499));
#501 = SURFACE_STYLE_USAGE(.BOTH., #500);
#502 = PRESENTATION_STYLE_ASSIGNMENT((#501));
#503 = STYLED_ITEM('NONE', (#502), #487);
#504 = MECHANICAL_DESIGN_GEOMETRIC_PRESENTATION_REPRESENTATION('NONE', (#503), #4);
ENDSEC;
END-ISO-10303-21;
