ISO-10303-21;
HEADER;
FILE_DESCRIPTION(('Zoo Text-to-CAD'),'1');
FILE_NAME('dump.step', '2025-11-20T03:48:44.028437699+00:00', ('Author unknown'), ('Organization unknown'), 'zoo.dev beta', 'zoo.dev', 'Authorization unknown');
FILE_SCHEMA(('AP203_CONFIGURATION_CONTROLLED_3D_DESIGN_OF_MECHANICAL_PARTS_AND_ASSEMBLIES_MIM_LF'));
ENDSEC;
DATA;
#1 = (
  LENGTH_UNIT()
  NAMED_UNIT(*)
  SI_UNIT($, .METRE.)
);
#2 = (
  NAMED_UNIT(*)
  PLANE_ANGLE_UNIT()
  SI_UNIT($, .RADIAN.)
);
#3 = UNCERTAINTY_MEASURE_WITH_UNIT(LENGTH_MEASURE(0.00001), #1, 'DISTANCE_ACCURACY_VALUE', $);
#4 = (
  GEOMETRIC_REPRESENTATION_CONTEXT(3)
  GLOBAL_UNCERTAINTY_ASSIGNED_CONTEXT((#3))
  GLOBAL_UNIT_ASSIGNED_CONTEXT((#1, #2))
  REPRESENTATION_CONTEXT('', '3D')
);
#5 = CARTESIAN_POINT('NONE', (0.0922782, 0, -0.038099999999999995));
#6 = VERTEX_POINT('NONE', #5);
#7 = CARTESIAN_POINT('NONE', (0.0922782, 0.009525, -0.038099999999999995));
#8 = VERTEX_POINT('NONE', #7);
#9 = CARTESIAN_POINT('NONE', (-0.08552179999999998, 0, -0.038099999999999995));
#10 = VERTEX_POINT('NONE', #9);
#11 = CARTESIAN_POINT('NONE', (-0.08552179999999998, 0.009525, -0.038099999999999995));
#12 = VERTEX_POINT('NONE', #11);
#13 = CARTESIAN_POINT('NONE', (0.0922782, 0, 0.038099999999999995));
#14 = VERTEX_POINT('NONE', #13);
#15 = CARTESIAN_POINT('NONE', (0.0922782, 0.009525, 0.038099999999999995));
#16 = VERTEX_POINT('NONE', #15);
#17 = CARTESIAN_POINT('NONE', (-0.08552179999999998, 0, 0.038099999999999995));
#18 = VERTEX_POINT('NONE', #17);
#19 = CARTESIAN_POINT('NONE', (-0.08552179999999998, 0.009525, 0.038099999999999995));
#20 = VERTEX_POINT('NONE', #19);
#21 = CARTESIAN_POINT('NONE', (0.09525, 0, 0.0508));
#22 = VERTEX_POINT('NONE', #21);
#23 = CARTESIAN_POINT('NONE', (0.09525, 0.009525, 0.0508));
#24 = VERTEX_POINT('NONE', #23);
#25 = CARTESIAN_POINT('NONE', (0.1016, 0.009525, 0.044449999999999996));
#26 = VERTEX_POINT('NONE', #25);
#27 = CARTESIAN_POINT('NONE', (0.1016, 0, 0.044449999999999996));
#28 = VERTEX_POINT('NONE', #27);
#29 = CARTESIAN_POINT('NONE', (0.1016, 0, -0.044449999999999996));
#30 = VERTEX_POINT('NONE', #29);
#31 = CARTESIAN_POINT('NONE', (0.1016, 0.009525, -0.044449999999999996));
#32 = VERTEX_POINT('NONE', #31);
#33 = CARTESIAN_POINT('NONE', (0.09525, 0.009525, -0.0508));
#34 = VERTEX_POINT('NONE', #33);
#35 = CARTESIAN_POINT('NONE', (0.09525, 0, -0.0508));
#36 = VERTEX_POINT('NONE', #35);
#37 = CARTESIAN_POINT('NONE', (-0.09525, 0, -0.050800000000000026));
#38 = VERTEX_POINT('NONE', #37);
#39 = CARTESIAN_POINT('NONE', (-0.09525, 0.009525, -0.050800000000000026));
#40 = VERTEX_POINT('NONE', #39);
#41 = CARTESIAN_POINT('NONE', (-0.1016, 0.009525, -0.044450000000000024));
#42 = VERTEX_POINT('NONE', #41);
#43 = CARTESIAN_POINT('NONE', (-0.1016, 0, -0.044450000000000024));
#44 = VERTEX_POINT('NONE', #43);
#45 = CARTESIAN_POINT('NONE', (-0.09525, 0, 0.0508));
#46 = VERTEX_POINT('NONE', #45);
#47 = CARTESIAN_POINT('NONE', (-0.09525, 0.009525, 0.0508));
#48 = VERTEX_POINT('NONE', #47);
#49 = CARTESIAN_POINT('NONE', (-0.1016, 0.009525, 0.044449999999999996));
#50 = VERTEX_POINT('NONE', #49);
#51 = CARTESIAN_POINT('NONE', (-0.1016, 0, 0.044449999999999996));
#52 = VERTEX_POINT('NONE', #51);
#53 = DIRECTION('NONE', (1, 0, 0.0000000000000042066351060333835));
#54 = DIRECTION('NONE', (0, -1, 0));
#55 = CARTESIAN_POINT('NONE', (0.08889999999999999, -0, -0.03810000000000001));
#56 = AXIS2_PLACEMENT_3D('NONE', #55, #54, #53);
#57 = CIRCLE('NONE', #56, 0.0033782000000000065);
#58 = DIRECTION('NONE', (0, 1, 0));
#59 = VECTOR('NONE', #58, 1);
#60 = CARTESIAN_POINT('NONE', (0.0922782, 0, -0.038099999999999995));
#61 = LINE('NONE', #60, #59);
#62 = DIRECTION('NONE', (1, 0, 0.0000000000000042066351060333835));
#63 = DIRECTION('NONE', (0, -1, 0));
#64 = CARTESIAN_POINT('NONE', (0.08889999999999999, 0.009525, -0.03810000000000001));
#65 = AXIS2_PLACEMENT_3D('NONE', #64, #63, #62);
#66 = CIRCLE('NONE', #65, 0.0033782000000000065);
#67 = DIRECTION('NONE', (1, 0, 0.000000000000004206635106033401));
#68 = DIRECTION('NONE', (0, -1, 0));
#69 = CARTESIAN_POINT('NONE', (-0.08889999999999998, 0, -0.03810000000000001));
#70 = AXIS2_PLACEMENT_3D('NONE', #69, #68, #67);
#71 = CIRCLE('NONE', #70, 0.0033781999999999927);
#72 = DIRECTION('NONE', (0, 1, 0));
#73 = VECTOR('NONE', #72, 1);
#74 = CARTESIAN_POINT('NONE', (-0.08552179999999998, 0, -0.038099999999999995));
#75 = LINE('NONE', #74, #73);
#76 = DIRECTION('NONE', (1, 0, 0.000000000000004206635106033401));
#77 = DIRECTION('NONE', (0, -1, 0));
#78 = CARTESIAN_POINT('NONE', (-0.08889999999999998, 0.009525, -0.03810000000000001));
#79 = AXIS2_PLACEMENT_3D('NONE', #78, #77, #76);
#80 = CIRCLE('NONE', #79, 0.0033781999999999927);
#81 = DIRECTION('NONE', (1, 0, 0.00000000000000841327021206673));
#82 = DIRECTION('NONE', (0, -1, 0));
#83 = CARTESIAN_POINT('NONE', (0.08889999999999998, -0, 0.03809999999999997));
#84 = AXIS2_PLACEMENT_3D('NONE', #83, #82, #81);
#85 = CIRCLE('NONE', #84, 0.003378200000000021);
#86 = DIRECTION('NONE', (0, 1, 0));
#87 = VECTOR('NONE', #86, 1);
#88 = CARTESIAN_POINT('NONE', (0.0922782, 0, 0.038099999999999995));
#89 = LINE('NONE', #88, #87);
#90 = DIRECTION('NONE', (1, 0, 0.00000000000000841327021206673));
#91 = DIRECTION('NONE', (0, -1, 0));
#92 = CARTESIAN_POINT('NONE', (0.08889999999999998, 0.009525, 0.03809999999999997));
#93 = AXIS2_PLACEMENT_3D('NONE', #92, #91, #90);
#94 = CIRCLE('NONE', #93, 0.003378200000000021);
#95 = DIRECTION('NONE', (1, 0, 0.000000000000008413270212066767));
#96 = DIRECTION('NONE', (0, -1, 0));
#97 = CARTESIAN_POINT('NONE', (-0.08889999999999999, -0, 0.03809999999999997));
#98 = AXIS2_PLACEMENT_3D('NONE', #97, #96, #95);
#99 = CIRCLE('NONE', #98, 0.0033782000000000065);
#100 = DIRECTION('NONE', (0, 1, 0));
#101 = VECTOR('NONE', #100, 1);
#102 = CARTESIAN_POINT('NONE', (-0.08552179999999998, 0, 0.038099999999999995));
#103 = LINE('NONE', #102, #101);
#104 = DIRECTION('NONE', (1, 0, 0.000000000000008413270212066767));
#105 = DIRECTION('NONE', (0, -1, 0));
#106 = CARTESIAN_POINT('NONE', (-0.08889999999999999, 0.009525, 0.03809999999999997));
#107 = AXIS2_PLACEMENT_3D('NONE', #106, #105, #104);
#108 = CIRCLE('NONE', #107, 0.0033782000000000065);
#109 = DIRECTION('NONE', (0, 1, 0));
#110 = VECTOR('NONE', #109, 1);
#111 = CARTESIAN_POINT('NONE', (0.09525, 0, 0.0508));
#112 = LINE('NONE', #111, #110);
#113 = DIRECTION('NONE', (-0.0000000000000022379298764097738, 0, 1));
#114 = DIRECTION('NONE', (0, 1, -0));
#115 = CARTESIAN_POINT('NONE', (0.09525000000000002, 0.009525, 0.044450000000000024));
#116 = AXIS2_PLACEMENT_3D('NONE', #115, #114, #113);
#117 = CIRCLE('NONE', #116, 0.006349999999999973);
#118 = DIRECTION('NONE', (0, -1, 0));
#119 = VECTOR('NONE', #118, 1);
#120 = CARTESIAN_POINT('NONE', (0.1016, 0.009525, 0.044449999999999996));
#121 = LINE('NONE', #120, #119);
#122 = DIRECTION('NONE', (1, 0, -0.000000000000004475859752819543));
#123 = DIRECTION('NONE', (0, -1, 0));
#124 = CARTESIAN_POINT('NONE', (0.09525000000000002, -0, 0.044450000000000024));
#125 = AXIS2_PLACEMENT_3D('NONE', #124, #123, #122);
#126 = CIRCLE('NONE', #125, 0.00634999999999998);
#127 = DIRECTION('NONE', (0, 1, 0));
#128 = VECTOR('NONE', #127, 1);
#129 = CARTESIAN_POINT('NONE', (0.1016, 0, -0.044449999999999996));
#130 = LINE('NONE', #129, #128);
#131 = DIRECTION('NONE', (1, 0, 0.000000000000004475859752819543));
#132 = DIRECTION('NONE', (-0, 1, 0));
#133 = CARTESIAN_POINT('NONE', (0.09525000000000002, 0.009525, -0.044450000000000024));
#134 = AXIS2_PLACEMENT_3D('NONE', #133, #132, #131);
#135 = CIRCLE('NONE', #134, 0.00634999999999998);
#136 = DIRECTION('NONE', (0, -1, 0));
#137 = VECTOR('NONE', #136, 1);
#138 = CARTESIAN_POINT('NONE', (0.09525, 0.009525, -0.0508));
#139 = LINE('NONE', #138, #137);
#140 = DIRECTION('NONE', (-0.0000000000000022379298764097738, 0, -1));
#141 = DIRECTION('NONE', (0, -1, -0));
#142 = CARTESIAN_POINT('NONE', (0.09525000000000002, -0, -0.044450000000000024));
#143 = AXIS2_PLACEMENT_3D('NONE', #142, #141, #140);
#144 = CIRCLE('NONE', #143, 0.006349999999999973);
#145 = DIRECTION('NONE', (0, 0, -1));
#146 = VECTOR('NONE', #145, 1);
#147 = CARTESIAN_POINT('NONE', (0.1016, 0, 0.04444999999999992));
#148 = LINE('NONE', #147, #146);
#149 = DIRECTION('NONE', (0, 0, 1));
#150 = VECTOR('NONE', #149, 1);
#151 = CARTESIAN_POINT('NONE', (0.1016, 0.009525, -0.04445000000000009));
#152 = LINE('NONE', #151, #150);
#153 = DIRECTION('NONE', (0, 1, 0));
#154 = VECTOR('NONE', #153, 1);
#155 = CARTESIAN_POINT('NONE', (-0.09525, 0, -0.050800000000000026));
#156 = LINE('NONE', #155, #154);
#157 = DIRECTION('NONE', (0, 0, -1));
#158 = DIRECTION('NONE', (0, 1, 0));
#159 = CARTESIAN_POINT('NONE', (-0.09525, 0.009525, -0.04445000000000004));
#160 = AXIS2_PLACEMENT_3D('NONE', #159, #158, #157);
#161 = CIRCLE('NONE', #160, 0.006349999999999988);
#162 = DIRECTION('NONE', (0, -1, 0));
#163 = VECTOR('NONE', #162, 1);
#164 = CARTESIAN_POINT('NONE', (-0.1016, 0.009525, -0.044450000000000024));
#165 = LINE('NONE', #164, #163);
#166 = DIRECTION('NONE', (-1, 0, 0.0000000000000022379298764097663));
#167 = DIRECTION('NONE', (-0, -1, 0));
#168 = CARTESIAN_POINT('NONE', (-0.09525, -0, -0.04445000000000004));
#169 = AXIS2_PLACEMENT_3D('NONE', #168, #167, #166);
#170 = CIRCLE('NONE', #169, 0.0063499999999999945);
#171 = DIRECTION('NONE', (-1, 0, -0.00000000000000014569855966208573));
#172 = VECTOR('NONE', #171, 1);
#173 = CARTESIAN_POINT('NONE', (0.0952499999999823, 0, -0.0508));
#174 = LINE('NONE', #173, #172);
#175 = DIRECTION('NONE', (1, 0, 0.00000000000000014569855966208573));
#176 = VECTOR('NONE', #175, 1);
#177 = CARTESIAN_POINT('NONE', (-0.09525000000002856, 0.009524999999999999, -0.050800000000000026));
#178 = LINE('NONE', #177, #176);
#179 = DIRECTION('NONE', (0, 1, 0));
#180 = VECTOR('NONE', #179, 1);
#181 = CARTESIAN_POINT('NONE', (-0.09525, 0, 0.0508));
#182 = LINE('NONE', #181, #180);
#183 = DIRECTION('NONE', (0.0000000000000022379298764097738, 0, 1));
#184 = DIRECTION('NONE', (0, -1, 0));
#185 = CARTESIAN_POINT('NONE', (-0.09525000000000002, 0.009525, 0.044450000000000024));
#186 = AXIS2_PLACEMENT_3D('NONE', #185, #184, #183);
#187 = CIRCLE('NONE', #186, 0.006349999999999973);
#188 = DIRECTION('NONE', (0, -1, 0));
#189 = VECTOR('NONE', #188, 1);
#190 = CARTESIAN_POINT('NONE', (-0.1016, 0.009525, 0.044449999999999996));
#191 = LINE('NONE', #190, #189);
#192 = DIRECTION('NONE', (-1, 0, -0.000000000000004475859752819543));
#193 = DIRECTION('NONE', (0, 1, 0));
#194 = CARTESIAN_POINT('NONE', (-0.09525000000000002, 0, 0.044450000000000024));
#195 = AXIS2_PLACEMENT_3D('NONE', #194, #193, #192);
#196 = CIRCLE('NONE', #195, 0.00634999999999998);
#197 = DIRECTION('NONE', (1, 0, 0.000000000000000036424639915524033));
#198 = VECTOR('NONE', #197, 1);
#199 = CARTESIAN_POINT('NONE', (-0.09525000000000007, 0, 0.05079999999999999));
#200 = LINE('NONE', #199, #198);
#201 = DIRECTION('NONE', (-1, 0, 0));
#202 = VECTOR('NONE', #201, 1);
#203 = CARTESIAN_POINT('NONE', (0.0952499999999972, 0.009525, 0.05079999999999999));
#204 = LINE('NONE', #203, #202);
#205 = DIRECTION('NONE', (0, 0, 1));
#206 = VECTOR('NONE', #205, 1);
#207 = CARTESIAN_POINT('NONE', (-0.1016, 0, -0.04444999999994139));
#208 = LINE('NONE', #207, #206);
#209 = DIRECTION('NONE', (0, 0, -1));
#210 = VECTOR('NONE', #209, 1);
#211 = CARTESIAN_POINT('NONE', (-0.1016, 0.009525, 0.044450000000068754));
#212 = LINE('NONE', #211, #210);
#213 = EDGE_CURVE('NONE', #6, #6, #57, .T.);
#214 = EDGE_CURVE('NONE', #6, #8, #61, .T.);
#215 = EDGE_CURVE('NONE', #8, #8, #66, .T.);
#216 = EDGE_CURVE('NONE', #10, #10, #71, .T.);
#217 = EDGE_CURVE('NONE', #10, #12, #75, .T.);
#218 = EDGE_CURVE('NONE', #12, #12, #80, .T.);
#219 = EDGE_CURVE('NONE', #14, #14, #85, .T.);
#220 = EDGE_CURVE('NONE', #14, #16, #89, .T.);
#221 = EDGE_CURVE('NONE', #16, #16, #94, .T.);
#222 = EDGE_CURVE('NONE', #18, #18, #99, .T.);
#223 = EDGE_CURVE('NONE', #18, #20, #103, .T.);
#224 = EDGE_CURVE('NONE', #20, #20, #108, .T.);
#225 = EDGE_CURVE('NONE', #22, #24, #112, .T.);
#226 = EDGE_CURVE('NONE', #24, #26, #117, .T.);
#227 = EDGE_CURVE('NONE', #26, #28, #121, .T.);
#228 = EDGE_CURVE('NONE', #28, #22, #126, .T.);
#229 = EDGE_CURVE('NONE', #30, #32, #130, .T.);
#230 = EDGE_CURVE('NONE', #32, #34, #135, .T.);
#231 = EDGE_CURVE('NONE', #34, #36, #139, .T.);
#232 = EDGE_CURVE('NONE', #36, #30, #144, .T.);
#233 = EDGE_CURVE('NONE', #28, #30, #148, .T.);
#234 = EDGE_CURVE('NONE', #32, #26, #152, .T.);
#235 = EDGE_CURVE('NONE', #38, #40, #156, .T.);
#236 = EDGE_CURVE('NONE', #40, #42, #161, .T.);
#237 = EDGE_CURVE('NONE', #42, #44, #165, .T.);
#238 = EDGE_CURVE('NONE', #44, #38, #170, .T.);
#239 = EDGE_CURVE('NONE', #36, #38, #174, .T.);
#240 = EDGE_CURVE('NONE', #40, #34, #178, .T.);
#241 = EDGE_CURVE('NONE', #46, #48, #182, .T.);
#242 = EDGE_CURVE('NONE', #48, #50, #187, .T.);
#243 = EDGE_CURVE('NONE', #50, #52, #191, .T.);
#244 = EDGE_CURVE('NONE', #52, #46, #196, .T.);
#245 = EDGE_CURVE('NONE', #46, #22, #200, .T.);
#246 = EDGE_CURVE('NONE', #24, #48, #204, .T.);
#247 = EDGE_CURVE('NONE', #44, #52, #208, .T.);
#248 = EDGE_CURVE('NONE', #50, #42, #212, .T.);
#249 = CARTESIAN_POINT('NONE', (0, 0.004762499999999999, 0.05079999999999999));
#250 = DIRECTION('NONE', (0, 0, 1));
#251 = AXIS2_PLACEMENT_3D('NONE', #249, #250, $);
#252 = PLANE('NONE', #251);
#253 = CARTESIAN_POINT('NONE', (0.1016, 0.0047625, -0));
#254 = DIRECTION('NONE', (1, 0, 0));
#255 = AXIS2_PLACEMENT_3D('NONE', #253, #254, $);
#256 = PLANE('NONE', #255);
#257 = CARTESIAN_POINT('NONE', (-0.00000000000000002842170943040401, 0.004762499999999999, -0.05080000000000001));
#258 = DIRECTION('NONE', (0, -0, -1));
#259 = AXIS2_PLACEMENT_3D('NONE', #257, #258, $);
#260 = PLANE('NONE', #259);
#261 = CARTESIAN_POINT('NONE', (-0.10160000000000001, 0.004762500000000001, 0.000000000000000017763568394002505));
#262 = DIRECTION('NONE', (-1, 0, 0));
#263 = AXIS2_PLACEMENT_3D('NONE', #261, #262, $);
#264 = PLANE('NONE', #263);
#265 = CARTESIAN_POINT('NONE', (0.08889999999999999, 0.0047625, -0.03810000000000001));
#266 = DIRECTION('NONE', (0, -1, 0));
#267 = DIRECTION('NONE', (1, 0, 0.0000000000000042066351060333835));
#268 = AXIS2_PLACEMENT_3D('NONE', #265, #266, #267);
#269 = CYLINDRICAL_SURFACE('NONE', #268, 0.0033782000000000065);
#270 = CARTESIAN_POINT('NONE', (-0.08889999999999998, 0.0047625, -0.03810000000000001));
#271 = DIRECTION('NONE', (0, -1, 0));
#272 = DIRECTION('NONE', (1, 0, 0.000000000000004206635106033401));
#273 = AXIS2_PLACEMENT_3D('NONE', #270, #271, #272);
#274 = CYLINDRICAL_SURFACE('NONE', #273, 0.0033781999999999927);
#275 = CARTESIAN_POINT('NONE', (0.08889999999999998, 0.0047625, 0.03809999999999997));
#276 = DIRECTION('NONE', (0, -1, 0));
#277 = DIRECTION('NONE', (1, 0, 0.00000000000000841327021206673));
#278 = AXIS2_PLACEMENT_3D('NONE', #275, #276, #277);
#279 = CYLINDRICAL_SURFACE('NONE', #278, 0.003378200000000021);
#280 = CARTESIAN_POINT('NONE', (-0.08889999999999999, 0.0047625, 0.03809999999999997));
#281 = DIRECTION('NONE', (0, -1, 0));
#282 = DIRECTION('NONE', (1, 0, 0.000000000000008413270212066767));
#283 = AXIS2_PLACEMENT_3D('NONE', #280, #281, #282);
#284 = CYLINDRICAL_SURFACE('NONE', #283, 0.0033782000000000065);
#285 = CARTESIAN_POINT('NONE', (0, 0, -0));
#286 = DIRECTION('NONE', (0, 1, 0));
#287 = AXIS2_PLACEMENT_3D('NONE', #285, #286, $);
#288 = PLANE('NONE', #287);
#289 = CARTESIAN_POINT('NONE', (0, 0.009525, -0));
#290 = DIRECTION('NONE', (0, 1, 0));
#291 = AXIS2_PLACEMENT_3D('NONE', #289, #290, $);
#292 = PLANE('NONE', #291);
#293 = CARTESIAN_POINT('NONE', (0.09525000000000002, 0.0047625, 0.044450000000000024));
#294 = DIRECTION('NONE', (0, 1, -0));
#295 = DIRECTION('NONE', (-0.0000000000000022379298764097738, 0, 1));
#296 = AXIS2_PLACEMENT_3D('NONE', #293, #294, #295);
#297 = CYLINDRICAL_SURFACE('NONE', #296, 0.006349999999999973);
#298 = CARTESIAN_POINT('NONE', (0.09525000000000002, 0.0047625, -0.044450000000000024));
#299 = DIRECTION('NONE', (-0, 1, 0));
#300 = DIRECTION('NONE', (1, 0, 0.000000000000004475859752819543));
#301 = AXIS2_PLACEMENT_3D('NONE', #298, #299, #300);
#302 = CYLINDRICAL_SURFACE('NONE', #301, 0.00634999999999998);
#303 = CARTESIAN_POINT('NONE', (-0.09525, 0.0047625, -0.04445000000000004));
#304 = DIRECTION('NONE', (0, 1, 0));
#305 = DIRECTION('NONE', (0, 0, -1));
#306 = AXIS2_PLACEMENT_3D('NONE', #303, #304, #305);
#307 = CYLINDRICAL_SURFACE('NONE', #306, 0.006349999999999988);
#308 = CARTESIAN_POINT('NONE', (-0.09525000000000002, 0.0047625, 0.044450000000000024));
#309 = DIRECTION('NONE', (0, -1, 0));
#310 = DIRECTION('NONE', (0.0000000000000022379298764097738, 0, 1));
#311 = AXIS2_PLACEMENT_3D('NONE', #308, #309, #310);
#312 = CYLINDRICAL_SURFACE('NONE', #311, 0.006349999999999973);
#313 = ORIENTED_EDGE('NONE', *, *, #245, .T.);
#314 = ORIENTED_EDGE('NONE', *, *, #225, .T.);
#315 = ORIENTED_EDGE('NONE', *, *, #246, .T.);
#316 = ORIENTED_EDGE('NONE', *, *, #241, .F.);
#317 = EDGE_LOOP('NONE', (#313, #314, #315, #316));
#318 = FACE_BOUND('NONE', #317, .T.);
#319 = ADVANCED_FACE('NONE', (#318), #252, .T.);
#320 = ORIENTED_EDGE('NONE', *, *, #233, .T.);
#321 = ORIENTED_EDGE('NONE', *, *, #229, .T.);
#322 = ORIENTED_EDGE('NONE', *, *, #234, .T.);
#323 = ORIENTED_EDGE('NONE', *, *, #227, .T.);
#324 = EDGE_LOOP('NONE', (#320, #321, #322, #323));
#325 = FACE_BOUND('NONE', #324, .T.);
#326 = ADVANCED_FACE('NONE', (#325), #256, .T.);
#327 = ORIENTED_EDGE('NONE', *, *, #239, .T.);
#328 = ORIENTED_EDGE('NONE', *, *, #235, .T.);
#329 = ORIENTED_EDGE('NONE', *, *, #240, .T.);
#330 = ORIENTED_EDGE('NONE', *, *, #231, .T.);
#331 = EDGE_LOOP('NONE', (#327, #328, #329, #330));
#332 = FACE_BOUND('NONE', #331, .T.);
#333 = ADVANCED_FACE('NONE', (#332), #260, .T.);
#334 = ORIENTED_EDGE('NONE', *, *, #247, .T.);
#335 = ORIENTED_EDGE('NONE', *, *, #243, .F.);
#336 = ORIENTED_EDGE('NONE', *, *, #248, .T.);
#337 = ORIENTED_EDGE('NONE', *, *, #237, .T.);
#338 = EDGE_LOOP('NONE', (#334, #335, #336, #337));
#339 = FACE_BOUND('NONE', #338, .T.);
#340 = ADVANCED_FACE('NONE', (#339), #264, .T.);
#341 = ORIENTED_EDGE('NONE', *, *, #213, .T.);
#342 = ORIENTED_EDGE('NONE', *, *, #215, .F.);
#343 = EDGE_LOOP('NONE', (#341));
#344 = FACE_BOUND('NONE', #343, .T.);
#345 = EDGE_LOOP('NONE', (#342));
#346 = FACE_BOUND('NONE', #345, .T.);
#347 = ADVANCED_FACE('NONE', (#344, #346), #269, .F.);
#348 = ORIENTED_EDGE('NONE', *, *, #216, .T.);
#349 = ORIENTED_EDGE('NONE', *, *, #218, .F.);
#350 = EDGE_LOOP('NONE', (#348));
#351 = FACE_BOUND('NONE', #350, .T.);
#352 = EDGE_LOOP('NONE', (#349));
#353 = FACE_BOUND('NONE', #352, .T.);
#354 = ADVANCED_FACE('NONE', (#351, #353), #274, .F.);
#355 = ORIENTED_EDGE('NONE', *, *, #219, .T.);
#356 = ORIENTED_EDGE('NONE', *, *, #221, .F.);
#357 = EDGE_LOOP('NONE', (#355));
#358 = FACE_BOUND('NONE', #357, .T.);
#359 = EDGE_LOOP('NONE', (#356));
#360 = FACE_BOUND('NONE', #359, .T.);
#361 = ADVANCED_FACE('NONE', (#358, #360), #279, .F.);
#362 = ORIENTED_EDGE('NONE', *, *, #222, .T.);
#363 = ORIENTED_EDGE('NONE', *, *, #224, .F.);
#364 = EDGE_LOOP('NONE', (#362));
#365 = FACE_BOUND('NONE', #364, .T.);
#366 = EDGE_LOOP('NONE', (#363));
#367 = FACE_BOUND('NONE', #366, .T.);
#368 = ADVANCED_FACE('NONE', (#365, #367), #284, .F.);
#369 = ORIENTED_EDGE('NONE', *, *, #247, .F.);
#370 = ORIENTED_EDGE('NONE', *, *, #238, .T.);
#371 = ORIENTED_EDGE('NONE', *, *, #239, .F.);
#372 = ORIENTED_EDGE('NONE', *, *, #232, .T.);
#373 = ORIENTED_EDGE('NONE', *, *, #233, .F.);
#374 = ORIENTED_EDGE('NONE', *, *, #228, .T.);
#375 = ORIENTED_EDGE('NONE', *, *, #245, .F.);
#376 = ORIENTED_EDGE('NONE', *, *, #244, .F.);
#377 = ORIENTED_EDGE('NONE', *, *, #213, .F.);
#378 = ORIENTED_EDGE('NONE', *, *, #216, .F.);
#379 = ORIENTED_EDGE('NONE', *, *, #219, .F.);
#380 = ORIENTED_EDGE('NONE', *, *, #222, .F.);
#381 = EDGE_LOOP('NONE', (#369, #370, #371, #372, #373, #374, #375, #376));
#382 = FACE_BOUND('NONE', #381, .T.);
#383 = EDGE_LOOP('NONE', (#377));
#384 = FACE_BOUND('NONE', #383, .T.);
#385 = EDGE_LOOP('NONE', (#378));
#386 = FACE_BOUND('NONE', #385, .T.);
#387 = EDGE_LOOP('NONE', (#379));
#388 = FACE_BOUND('NONE', #387, .T.);
#389 = EDGE_LOOP('NONE', (#380));
#390 = FACE_BOUND('NONE', #389, .T.);
#391 = ADVANCED_FACE('NONE', (#382, #384, #386, #388, #390), #288, .F.);
#392 = ORIENTED_EDGE('NONE', *, *, #242, .F.);
#393 = ORIENTED_EDGE('NONE', *, *, #246, .F.);
#394 = ORIENTED_EDGE('NONE', *, *, #226, .T.);
#395 = ORIENTED_EDGE('NONE', *, *, #234, .F.);
#396 = ORIENTED_EDGE('NONE', *, *, #230, .T.);
#397 = ORIENTED_EDGE('NONE', *, *, #240, .F.);
#398 = ORIENTED_EDGE('NONE', *, *, #236, .T.);
#399 = ORIENTED_EDGE('NONE', *, *, #248, .F.);
#400 = ORIENTED_EDGE('NONE', *, *, #215, .T.);
#401 = ORIENTED_EDGE('NONE', *, *, #218, .T.);
#402 = ORIENTED_EDGE('NONE', *, *, #221, .T.);
#403 = ORIENTED_EDGE('NONE', *, *, #224, .T.);
#404 = EDGE_LOOP('NONE', (#392, #393, #394, #395, #396, #397, #398, #399));
#405 = FACE_BOUND('NONE', #404, .T.);
#406 = EDGE_LOOP('NONE', (#400));
#407 = FACE_BOUND('NONE', #406, .T.);
#408 = EDGE_LOOP('NONE', (#401));
#409 = FACE_BOUND('NONE', #408, .T.);
#410 = EDGE_LOOP('NONE', (#402));
#411 = FACE_BOUND('NONE', #410, .T.);
#412 = EDGE_LOOP('NONE', (#403));
#413 = FACE_BOUND('NONE', #412, .T.);
#414 = ADVANCED_FACE('NONE', (#405, #407, #409, #411, #413), #292, .T.);
#415 = ORIENTED_EDGE('NONE', *, *, #228, .F.);
#416 = ORIENTED_EDGE('NONE', *, *, #227, .F.);
#417 = ORIENTED_EDGE('NONE', *, *, #226, .F.);
#418 = ORIENTED_EDGE('NONE', *, *, #225, .F.);
#419 = EDGE_LOOP('NONE', (#415, #416, #417, #418));
#420 = FACE_BOUND('NONE', #419, .T.);
#421 = ADVANCED_FACE('NONE', (#420), #297, .T.);
#422 = ORIENTED_EDGE('NONE', *, *, #232, .F.);
#423 = ORIENTED_EDGE('NONE', *, *, #231, .F.);
#424 = ORIENTED_EDGE('NONE', *, *, #230, .F.);
#425 = ORIENTED_EDGE('NONE', *, *, #229, .F.);
#426 = EDGE_LOOP('NONE', (#422, #423, #424, #425));
#427 = FACE_BOUND('NONE', #426, .T.);
#428 = ADVANCED_FACE('NONE', (#427), #302, .T.);
#429 = ORIENTED_EDGE('NONE', *, *, #238, .F.);
#430 = ORIENTED_EDGE('NONE', *, *, #237, .F.);
#431 = ORIENTED_EDGE('NONE', *, *, #236, .F.);
#432 = ORIENTED_EDGE('NONE', *, *, #235, .F.);
#433 = EDGE_LOOP('NONE', (#429, #430, #431, #432));
#434 = FACE_BOUND('NONE', #433, .T.);
#435 = ADVANCED_FACE('NONE', (#434), #307, .T.);
#436 = ORIENTED_EDGE('NONE', *, *, #241, .T.);
#437 = ORIENTED_EDGE('NONE', *, *, #242, .T.);
#438 = ORIENTED_EDGE('NONE', *, *, #243, .T.);
#439 = ORIENTED_EDGE('NONE', *, *, #244, .T.);
#440 = EDGE_LOOP('NONE', (#436, #437, #438, #439));
#441 = FACE_BOUND('NONE', #440, .T.);
#442 = ADVANCED_FACE('NONE', (#441), #312, .T.);
#443 = CLOSED_SHELL('NONE', (#319, #326, #333, #340, #347, #354, #361, #368, #391, #414, #421, #428, #435, #442));
#444 = MANIFOLD_SOLID_BREP('NONE', #443);
#445 = APPLICATION_CONTEXT('configuration controlled 3D design of mechanical parts and assemblies');
#446 = PRODUCT_DEFINITION_CONTEXT('part definition', #445, 'design');
#447 = PRODUCT('UNIDENTIFIED_PRODUCT', 'NONE', $, ());
#448 = PRODUCT_DEFINITION_FORMATION('', $, #447);
#449 = PRODUCT_DEFINITION('design', $, #448, #446);
#450 = PRODUCT_DEFINITION_SHAPE('NONE', $, #449);
#451 = ADVANCED_BREP_SHAPE_REPRESENTATION('NONE', (#444), #4);
#452 = SHAPE_DEFINITION_REPRESENTATION(#450, #451);
#453 = COLOUR_RGB('NONE', 0.7529411911964417, 0.7529411911964417, 0.7529411911964417);
#454 = FILL_AREA_STYLE_COLOUR('NONE', #453);
#455 = FILL_AREA_STYLE('NONE', (#454));
#456 = SURFACE_STYLE_FILL_AREA(#455);
#457 = SURFACE_SIDE_STYLE('NONE', (#456));
#458 = SURFACE_STYLE_USAGE(.BOTH., #457);
#459 = PRESENTATION_STYLE_ASSIGNMENT((#458));
#460 = STYLED_ITEM('NONE', (#459), #444);
#461 = MECHANICAL_DESIGN_GEOMETRIC_PRESENTATION_REPRESENTATION('NONE', (#460), #4);
ENDSEC;
END-ISO-10303-21;
