ISO-10303-21;
HEADER;
FILE_DESCRIPTION(('Zoo Text-to-CAD'),'1');
FILE_NAME('dump.step', '2025-11-20T08:17:56.186373740+00:00', ('Author unknown'), ('Organization unknown'), 'zoo.dev beta', 'zoo.dev', 'Authorization unknown');
FILE_SCHEMA(('AP203_CONFIGURATION_CONTROLLED_3D_DESIGN_OF_MECHANICAL_PARTS_AND_ASSEMBLIES_MIM_LF'));
ENDSEC;
DATA;
#1 = (
  LENGTH_UNIT()
  NAMED_UNIT(*)
  SI_UNIT($, .METRE.)
);
#2 = (
  NAMED_UNIT(*)
  PLANE_ANGLE_UNIT()
  SI_UNIT($, .RADIAN.)
);
#3 = UNCERTAINTY_MEASURE_WITH_UNIT(LENGTH_MEASURE(0.00001), #1, 'DISTANCE_ACCURACY_VALUE', $);
#4 = (
  GEOMETRIC_REPRESENTATION_CONTEXT(3)
  GLOBAL_UNCERTAINTY_ASSIGNED_CONTEXT((#3))
  GLOBAL_UNIT_ASSIGNED_CONTEXT((#1, #2))
  REPRESENTATION_CONTEXT('', '3D')
);
#5 = CARTESIAN_POINT('NONE', (0, 0, -0));
#6 = VERTEX_POINT('NONE', #5);
#7 = CARTESIAN_POINT('NONE', (0.05, 0, -0));
#8 = VERTEX_POINT('NONE', #7);
#9 = CARTESIAN_POINT('NONE', (0.05, 0, 1));
#10 = VERTEX_POINT('NONE', #9);
#11 = CARTESIAN_POINT('NONE', (0, 0, 1));
#12 = VERTEX_POINT('NONE', #11);
#13 = CARTESIAN_POINT('NONE', (0.05, 0.006, -0));
#14 = VERTEX_POINT('NONE', #13);
#15 = CARTESIAN_POINT('NONE', (0.05, 0.006, 1));
#16 = VERTEX_POINT('NONE', #15);
#17 = CARTESIAN_POINT('NONE', (0.009, 0.006, -0));
#18 = VERTEX_POINT('NONE', #17);
#19 = CARTESIAN_POINT('NONE', (0.009, 0.006, 1));
#20 = VERTEX_POINT('NONE', #19);
#21 = CARTESIAN_POINT('NONE', (0.006, 0.0030000000000000005, -0));
#22 = VERTEX_POINT('NONE', #21);
#23 = CARTESIAN_POINT('NONE', (0.006, 0.0030000000000000005, 1));
#24 = VERTEX_POINT('NONE', #23);
#25 = CARTESIAN_POINT('NONE', (0.006, 0.085, -0));
#26 = VERTEX_POINT('NONE', #25);
#27 = CARTESIAN_POINT('NONE', (0.006, 0.085, 1));
#28 = VERTEX_POINT('NONE', #27);
#29 = CARTESIAN_POINT('NONE', (0.009, 0.088, -0));
#30 = VERTEX_POINT('NONE', #29);
#31 = CARTESIAN_POINT('NONE', (0.009, 0.088, 1));
#32 = VERTEX_POINT('NONE', #31);
#33 = CARTESIAN_POINT('NONE', (0.05, 0.088, -0));
#34 = VERTEX_POINT('NONE', #33);
#35 = CARTESIAN_POINT('NONE', (0.05, 0.088, 1));
#36 = VERTEX_POINT('NONE', #35);
#37 = CARTESIAN_POINT('NONE', (0.05, 0.094, -0));
#38 = VERTEX_POINT('NONE', #37);
#39 = CARTESIAN_POINT('NONE', (0.05, 0.094, 1));
#40 = VERTEX_POINT('NONE', #39);
#41 = CARTESIAN_POINT('NONE', (0, 0.094, -0));
#42 = VERTEX_POINT('NONE', #41);
#43 = CARTESIAN_POINT('NONE', (0, 0.094, 1));
#44 = VERTEX_POINT('NONE', #43);
#45 = CARTESIAN_POINT('NONE', (0, -0.006, -0));
#46 = VERTEX_POINT('NONE', #45);
#47 = CARTESIAN_POINT('NONE', (0, -0.006, 1));
#48 = VERTEX_POINT('NONE', #47);
#49 = DIRECTION('NONE', (1, 0, 0));
#50 = VECTOR('NONE', #49, 1);
#51 = CARTESIAN_POINT('NONE', (0, 0, -0));
#52 = LINE('NONE', #51, #50);
#53 = DIRECTION('NONE', (0, 0, 1));
#54 = VECTOR('NONE', #53, 1);
#55 = CARTESIAN_POINT('NONE', (0.05, 0, -0));
#56 = LINE('NONE', #55, #54);
#57 = DIRECTION('NONE', (1, 0, 0));
#58 = VECTOR('NONE', #57, 1);
#59 = CARTESIAN_POINT('NONE', (0, 0, 1));
#60 = LINE('NONE', #59, #58);
#61 = DIRECTION('NONE', (0, 0, 1));
#62 = VECTOR('NONE', #61, 1);
#63 = CARTESIAN_POINT('NONE', (0, 0, -0));
#64 = LINE('NONE', #63, #62);
#65 = DIRECTION('NONE', (0, 1, 0));
#66 = VECTOR('NONE', #65, 1);
#67 = CARTESIAN_POINT('NONE', (0.05, 0, -0));
#68 = LINE('NONE', #67, #66);
#69 = DIRECTION('NONE', (0, 0, 1));
#70 = VECTOR('NONE', #69, 1);
#71 = CARTESIAN_POINT('NONE', (0.05, 0.006, -0));
#72 = LINE('NONE', #71, #70);
#73 = DIRECTION('NONE', (0, 1, 0));
#74 = VECTOR('NONE', #73, 1);
#75 = CARTESIAN_POINT('NONE', (0.05, 0, 1));
#76 = LINE('NONE', #75, #74);
#77 = DIRECTION('NONE', (-1, 0, 0));
#78 = VECTOR('NONE', #77, 1);
#79 = CARTESIAN_POINT('NONE', (0.05, 0.006, -0));
#80 = LINE('NONE', #79, #78);
#81 = DIRECTION('NONE', (0, 0, 1));
#82 = VECTOR('NONE', #81, 1);
#83 = CARTESIAN_POINT('NONE', (0.009, 0.006, -0));
#84 = LINE('NONE', #83, #82);
#85 = DIRECTION('NONE', (-1, 0, 0));
#86 = VECTOR('NONE', #85, 1);
#87 = CARTESIAN_POINT('NONE', (0.05, 0.006, 1));
#88 = LINE('NONE', #87, #86);
#89 = DIRECTION('NONE', (0, 1, -0));
#90 = DIRECTION('NONE', (0, 0, 1));
#91 = CARTESIAN_POINT('NONE', (0.009, 0.0029999999999999996, 0));
#92 = AXIS2_PLACEMENT_3D('NONE', #91, #90, #89);
#93 = CIRCLE('NONE', #92, 0.0030000000000000005);
#94 = DIRECTION('NONE', (0, 0, 1));
#95 = VECTOR('NONE', #94, 1);
#96 = CARTESIAN_POINT('NONE', (0.006, 0.0030000000000000005, -0));
#97 = LINE('NONE', #96, #95);
#98 = DIRECTION('NONE', (0, 1, -0));
#99 = DIRECTION('NONE', (0, 0, 1));
#100 = CARTESIAN_POINT('NONE', (0.009, 0.0029999999999999996, 1));
#101 = AXIS2_PLACEMENT_3D('NONE', #100, #99, #98);
#102 = CIRCLE('NONE', #101, 0.0030000000000000005);
#103 = DIRECTION('NONE', (0, 1, 0));
#104 = VECTOR('NONE', #103, 1);
#105 = CARTESIAN_POINT('NONE', (0.006, 0.003, -0));
#106 = LINE('NONE', #105, #104);
#107 = DIRECTION('NONE', (0, 0, 1));
#108 = VECTOR('NONE', #107, 1);
#109 = CARTESIAN_POINT('NONE', (0.006, 0.085, -0));
#110 = LINE('NONE', #109, #108);
#111 = DIRECTION('NONE', (0, 1, 0));
#112 = VECTOR('NONE', #111, 1);
#113 = CARTESIAN_POINT('NONE', (0.006, 0.003, 1));
#114 = LINE('NONE', #113, #112);
#115 = DIRECTION('NONE', (-1, 0.000000000000004736951571734001, -0));
#116 = DIRECTION('NONE', (0, -0, -1));
#117 = CARTESIAN_POINT('NONE', (0.009, 0.08499999999999999, -0));
#118 = AXIS2_PLACEMENT_3D('NONE', #117, #116, #115);
#119 = CIRCLE('NONE', #118, 0.003);
#120 = DIRECTION('NONE', (0, 0, 1));
#121 = VECTOR('NONE', #120, 1);
#122 = CARTESIAN_POINT('NONE', (0.009, 0.088, -0));
#123 = LINE('NONE', #122, #121);
#124 = DIRECTION('NONE', (-1, 0.000000000000004736951571734001, -0));
#125 = DIRECTION('NONE', (0, -0, -1));
#126 = CARTESIAN_POINT('NONE', (0.009, 0.08499999999999999, 1));
#127 = AXIS2_PLACEMENT_3D('NONE', #126, #125, #124);
#128 = CIRCLE('NONE', #127, 0.003);
#129 = DIRECTION('NONE', (1, 0, 0));
#130 = VECTOR('NONE', #129, 1);
#131 = CARTESIAN_POINT('NONE', (0.009, 0.088, -0));
#132 = LINE('NONE', #131, #130);
#133 = DIRECTION('NONE', (0, 0, 1));
#134 = VECTOR('NONE', #133, 1);
#135 = CARTESIAN_POINT('NONE', (0.05, 0.088, -0));
#136 = LINE('NONE', #135, #134);
#137 = DIRECTION('NONE', (1, 0, 0));
#138 = VECTOR('NONE', #137, 1);
#139 = CARTESIAN_POINT('NONE', (0.009, 0.088, 1));
#140 = LINE('NONE', #139, #138);
#141 = DIRECTION('NONE', (0, 1, 0));
#142 = VECTOR('NONE', #141, 1);
#143 = CARTESIAN_POINT('NONE', (0.05, 0.088, -0));
#144 = LINE('NONE', #143, #142);
#145 = DIRECTION('NONE', (0, 0, 1));
#146 = VECTOR('NONE', #145, 1);
#147 = CARTESIAN_POINT('NONE', (0.05, 0.094, -0));
#148 = LINE('NONE', #147, #146);
#149 = DIRECTION('NONE', (0, 1, 0));
#150 = VECTOR('NONE', #149, 1);
#151 = CARTESIAN_POINT('NONE', (0.05, 0.088, 1));
#152 = LINE('NONE', #151, #150);
#153 = DIRECTION('NONE', (-1, 0, 0));
#154 = VECTOR('NONE', #153, 1);
#155 = CARTESIAN_POINT('NONE', (0.05, 0.094, -0));
#156 = LINE('NONE', #155, #154);
#157 = DIRECTION('NONE', (0, 0, 1));
#158 = VECTOR('NONE', #157, 1);
#159 = CARTESIAN_POINT('NONE', (0, 0.094, -0));
#160 = LINE('NONE', #159, #158);
#161 = DIRECTION('NONE', (-1, 0, 0));
#162 = VECTOR('NONE', #161, 1);
#163 = CARTESIAN_POINT('NONE', (0.05, 0.094, 1));
#164 = LINE('NONE', #163, #162);
#165 = DIRECTION('NONE', (0, -1, 0));
#166 = VECTOR('NONE', #165, 1);
#167 = CARTESIAN_POINT('NONE', (0, 0.094, -0));
#168 = LINE('NONE', #167, #166);
#169 = DIRECTION('NONE', (0, 0, 1));
#170 = VECTOR('NONE', #169, 1);
#171 = CARTESIAN_POINT('NONE', (0, -0.006, -0));
#172 = LINE('NONE', #171, #170);
#173 = DIRECTION('NONE', (0, -1, 0));
#174 = VECTOR('NONE', #173, 1);
#175 = CARTESIAN_POINT('NONE', (0, 0.094, 1));
#176 = LINE('NONE', #175, #174);
#177 = DIRECTION('NONE', (0, 1, 0));
#178 = VECTOR('NONE', #177, 1);
#179 = CARTESIAN_POINT('NONE', (0, -0.006, -0));
#180 = LINE('NONE', #179, #178);
#181 = DIRECTION('NONE', (0, 1, 0));
#182 = VECTOR('NONE', #181, 1);
#183 = CARTESIAN_POINT('NONE', (0, -0.006, 1));
#184 = LINE('NONE', #183, #182);
#185 = EDGE_CURVE('NONE', #6, #8, #52, .T.);
#186 = EDGE_CURVE('NONE', #8, #10, #56, .T.);
#187 = EDGE_CURVE('NONE', #12, #10, #60, .T.);
#188 = EDGE_CURVE('NONE', #6, #12, #64, .T.);
#189 = EDGE_CURVE('NONE', #8, #14, #68, .T.);
#190 = EDGE_CURVE('NONE', #14, #16, #72, .T.);
#191 = EDGE_CURVE('NONE', #10, #16, #76, .T.);
#192 = EDGE_CURVE('NONE', #14, #18, #80, .T.);
#193 = EDGE_CURVE('NONE', #18, #20, #84, .T.);
#194 = EDGE_CURVE('NONE', #16, #20, #88, .T.);
#195 = EDGE_CURVE('NONE', #18, #22, #93, .T.);
#196 = EDGE_CURVE('NONE', #22, #24, #97, .T.);
#197 = EDGE_CURVE('NONE', #20, #24, #102, .T.);
#198 = EDGE_CURVE('NONE', #22, #26, #106, .T.);
#199 = EDGE_CURVE('NONE', #26, #28, #110, .T.);
#200 = EDGE_CURVE('NONE', #24, #28, #114, .T.);
#201 = EDGE_CURVE('NONE', #26, #30, #119, .T.);
#202 = EDGE_CURVE('NONE', #30, #32, #123, .T.);
#203 = EDGE_CURVE('NONE', #28, #32, #128, .T.);
#204 = EDGE_CURVE('NONE', #30, #34, #132, .T.);
#205 = EDGE_CURVE('NONE', #34, #36, #136, .T.);
#206 = EDGE_CURVE('NONE', #32, #36, #140, .T.);
#207 = EDGE_CURVE('NONE', #34, #38, #144, .T.);
#208 = EDGE_CURVE('NONE', #38, #40, #148, .T.);
#209 = EDGE_CURVE('NONE', #36, #40, #152, .T.);
#210 = EDGE_CURVE('NONE', #38, #42, #156, .T.);
#211 = EDGE_CURVE('NONE', #42, #44, #160, .T.);
#212 = EDGE_CURVE('NONE', #40, #44, #164, .T.);
#213 = EDGE_CURVE('NONE', #42, #46, #168, .T.);
#214 = EDGE_CURVE('NONE', #46, #48, #172, .T.);
#215 = EDGE_CURVE('NONE', #44, #48, #176, .T.);
#216 = EDGE_CURVE('NONE', #46, #6, #180, .T.);
#217 = EDGE_CURVE('NONE', #48, #12, #184, .T.);
#218 = CARTESIAN_POINT('NONE', (0.025, 0, 0.5));
#219 = DIRECTION('NONE', (0, -1, 0));
#220 = AXIS2_PLACEMENT_3D('NONE', #218, #219, $);
#221 = PLANE('NONE', #220);
#222 = CARTESIAN_POINT('NONE', (0.05, 0.003, 0.5));
#223 = DIRECTION('NONE', (1, -0, 0));
#224 = AXIS2_PLACEMENT_3D('NONE', #222, #223, $);
#225 = PLANE('NONE', #224);
#226 = CARTESIAN_POINT('NONE', (0.0295, 0.006, 0.5));
#227 = DIRECTION('NONE', (0, 1, -0));
#228 = AXIS2_PLACEMENT_3D('NONE', #226, #227, $);
#229 = PLANE('NONE', #228);
#230 = CARTESIAN_POINT('NONE', (0.009, 0.0029999999999999996, 0.5));
#231 = DIRECTION('NONE', (0, 0, 1));
#232 = DIRECTION('NONE', (0, 1, -0));
#233 = AXIS2_PLACEMENT_3D('NONE', #230, #231, #232);
#234 = CYLINDRICAL_SURFACE('NONE', #233, 0.0030000000000000005);
#235 = CARTESIAN_POINT('NONE', (0.006, 0.044, 0.5));
#236 = DIRECTION('NONE', (1, -0, 0));
#237 = AXIS2_PLACEMENT_3D('NONE', #235, #236, $);
#238 = PLANE('NONE', #237);
#239 = CARTESIAN_POINT('NONE', (0.009, 0.08499999999999999, 0.5));
#240 = DIRECTION('NONE', (0, -0, -1));
#241 = DIRECTION('NONE', (-1, 0.000000000000004736951571734001, -0));
#242 = AXIS2_PLACEMENT_3D('NONE', #239, #240, #241);
#243 = CYLINDRICAL_SURFACE('NONE', #242, 0.003);
#244 = CARTESIAN_POINT('NONE', (0.0295, 0.088, 0.5));
#245 = DIRECTION('NONE', (0, -1, 0));
#246 = AXIS2_PLACEMENT_3D('NONE', #244, #245, $);
#247 = PLANE('NONE', #246);
#248 = CARTESIAN_POINT('NONE', (0.05, 0.091, 0.5));
#249 = DIRECTION('NONE', (1, -0, 0));
#250 = AXIS2_PLACEMENT_3D('NONE', #248, #249, $);
#251 = PLANE('NONE', #250);
#252 = CARTESIAN_POINT('NONE', (0.025, 0.094, 0.5));
#253 = DIRECTION('NONE', (0, 1, -0));
#254 = AXIS2_PLACEMENT_3D('NONE', #252, #253, $);
#255 = PLANE('NONE', #254);
#256 = CARTESIAN_POINT('NONE', (0, 0.044, 0.5));
#257 = DIRECTION('NONE', (-1, -0, 0));
#258 = AXIS2_PLACEMENT_3D('NONE', #256, #257, $);
#259 = PLANE('NONE', #258);
#260 = CARTESIAN_POINT('NONE', (0, -0.003, 0.5));
#261 = DIRECTION('NONE', (1, -0, 0));
#262 = AXIS2_PLACEMENT_3D('NONE', #260, #261, $);
#263 = PLANE('NONE', #262);
#264 = CARTESIAN_POINT('NONE', (0, 0, -0));
#265 = DIRECTION('NONE', (0, 0, 1));
#266 = AXIS2_PLACEMENT_3D('NONE', #264, #265, $);
#267 = PLANE('NONE', #266);
#268 = CARTESIAN_POINT('NONE', (0, 0, 1));
#269 = DIRECTION('NONE', (0, 0, 1));
#270 = AXIS2_PLACEMENT_3D('NONE', #268, #269, $);
#271 = PLANE('NONE', #270);
#272 = ORIENTED_EDGE('NONE', *, *, #185, .T.);
#273 = ORIENTED_EDGE('NONE', *, *, #186, .T.);
#274 = ORIENTED_EDGE('NONE', *, *, #187, .F.);
#275 = ORIENTED_EDGE('NONE', *, *, #188, .F.);
#276 = EDGE_LOOP('NONE', (#272, #273, #274, #275));
#277 = FACE_BOUND('NONE', #276, .T.);
#278 = ADVANCED_FACE('NONE', (#277), #221, .T.);
#279 = ORIENTED_EDGE('NONE', *, *, #189, .T.);
#280 = ORIENTED_EDGE('NONE', *, *, #190, .T.);
#281 = ORIENTED_EDGE('NONE', *, *, #191, .F.);
#282 = ORIENTED_EDGE('NONE', *, *, #186, .F.);
#283 = EDGE_LOOP('NONE', (#279, #280, #281, #282));
#284 = FACE_BOUND('NONE', #283, .T.);
#285 = ADVANCED_FACE('NONE', (#284), #225, .T.);
#286 = ORIENTED_EDGE('NONE', *, *, #192, .T.);
#287 = ORIENTED_EDGE('NONE', *, *, #193, .T.);
#288 = ORIENTED_EDGE('NONE', *, *, #194, .F.);
#289 = ORIENTED_EDGE('NONE', *, *, #190, .F.);
#290 = EDGE_LOOP('NONE', (#286, #287, #288, #289));
#291 = FACE_BOUND('NONE', #290, .T.);
#292 = ADVANCED_FACE('NONE', (#291), #229, .T.);
#293 = ORIENTED_EDGE('NONE', *, *, #195, .T.);
#294 = ORIENTED_EDGE('NONE', *, *, #196, .T.);
#295 = ORIENTED_EDGE('NONE', *, *, #197, .F.);
#296 = ORIENTED_EDGE('NONE', *, *, #193, .F.);
#297 = EDGE_LOOP('NONE', (#293, #294, #295, #296));
#298 = FACE_BOUND('NONE', #297, .T.);
#299 = ADVANCED_FACE('NONE', (#298), #234, .T.);
#300 = ORIENTED_EDGE('NONE', *, *, #198, .T.);
#301 = ORIENTED_EDGE('NONE', *, *, #199, .T.);
#302 = ORIENTED_EDGE('NONE', *, *, #200, .F.);
#303 = ORIENTED_EDGE('NONE', *, *, #196, .F.);
#304 = EDGE_LOOP('NONE', (#300, #301, #302, #303));
#305 = FACE_BOUND('NONE', #304, .T.);
#306 = ADVANCED_FACE('NONE', (#305), #238, .T.);
#307 = ORIENTED_EDGE('NONE', *, *, #201, .T.);
#308 = ORIENTED_EDGE('NONE', *, *, #202, .T.);
#309 = ORIENTED_EDGE('NONE', *, *, #203, .F.);
#310 = ORIENTED_EDGE('NONE', *, *, #199, .F.);
#311 = EDGE_LOOP('NONE', (#307, #308, #309, #310));
#312 = FACE_BOUND('NONE', #311, .T.);
#313 = ADVANCED_FACE('NONE', (#312), #243, .F.);
#314 = ORIENTED_EDGE('NONE', *, *, #204, .T.);
#315 = ORIENTED_EDGE('NONE', *, *, #205, .T.);
#316 = ORIENTED_EDGE('NONE', *, *, #206, .F.);
#317 = ORIENTED_EDGE('NONE', *, *, #202, .F.);
#318 = EDGE_LOOP('NONE', (#314, #315, #316, #317));
#319 = FACE_BOUND('NONE', #318, .T.);
#320 = ADVANCED_FACE('NONE', (#319), #247, .T.);
#321 = ORIENTED_EDGE('NONE', *, *, #207, .T.);
#322 = ORIENTED_EDGE('NONE', *, *, #208, .T.);
#323 = ORIENTED_EDGE('NONE', *, *, #209, .F.);
#324 = ORIENTED_EDGE('NONE', *, *, #205, .F.);
#325 = EDGE_LOOP('NONE', (#321, #322, #323, #324));
#326 = FACE_BOUND('NONE', #325, .T.);
#327 = ADVANCED_FACE('NONE', (#326), #251, .T.);
#328 = ORIENTED_EDGE('NONE', *, *, #210, .T.);
#329 = ORIENTED_EDGE('NONE', *, *, #211, .T.);
#330 = ORIENTED_EDGE('NONE', *, *, #212, .F.);
#331 = ORIENTED_EDGE('NONE', *, *, #208, .F.);
#332 = EDGE_LOOP('NONE', (#328, #329, #330, #331));
#333 = FACE_BOUND('NONE', #332, .T.);
#334 = ADVANCED_FACE('NONE', (#333), #255, .T.);
#335 = ORIENTED_EDGE('NONE', *, *, #213, .T.);
#336 = ORIENTED_EDGE('NONE', *, *, #214, .T.);
#337 = ORIENTED_EDGE('NONE', *, *, #215, .F.);
#338 = ORIENTED_EDGE('NONE', *, *, #211, .F.);
#339 = EDGE_LOOP('NONE', (#335, #336, #337, #338));
#340 = FACE_BOUND('NONE', #339, .T.);
#341 = ADVANCED_FACE('NONE', (#340), #259, .T.);
#342 = ORIENTED_EDGE('NONE', *, *, #216, .T.);
#343 = ORIENTED_EDGE('NONE', *, *, #188, .T.);
#344 = ORIENTED_EDGE('NONE', *, *, #217, .F.);
#345 = ORIENTED_EDGE('NONE', *, *, #214, .F.);
#346 = EDGE_LOOP('NONE', (#342, #343, #344, #345));
#347 = FACE_BOUND('NONE', #346, .T.);
#348 = ADVANCED_FACE('NONE', (#347), #263, .T.);
#349 = ORIENTED_EDGE('NONE', *, *, #216, .F.);
#350 = ORIENTED_EDGE('NONE', *, *, #213, .F.);
#351 = ORIENTED_EDGE('NONE', *, *, #210, .F.);
#352 = ORIENTED_EDGE('NONE', *, *, #207, .F.);
#353 = ORIENTED_EDGE('NONE', *, *, #204, .F.);
#354 = ORIENTED_EDGE('NONE', *, *, #201, .F.);
#355 = ORIENTED_EDGE('NONE', *, *, #198, .F.);
#356 = ORIENTED_EDGE('NONE', *, *, #195, .F.);
#357 = ORIENTED_EDGE('NONE', *, *, #192, .F.);
#358 = ORIENTED_EDGE('NONE', *, *, #189, .F.);
#359 = ORIENTED_EDGE('NONE', *, *, #185, .F.);
#360 = EDGE_LOOP('NONE', (#349, #350, #351, #352, #353, #354, #355, #356, #357, #358, #359));
#361 = FACE_BOUND('NONE', #360, .T.);
#362 = ADVANCED_FACE('NONE', (#361), #267, .F.);
#363 = ORIENTED_EDGE('NONE', *, *, #187, .T.);
#364 = ORIENTED_EDGE('NONE', *, *, #191, .T.);
#365 = ORIENTED_EDGE('NONE', *, *, #194, .T.);
#366 = ORIENTED_EDGE('NONE', *, *, #197, .T.);
#367 = ORIENTED_EDGE('NONE', *, *, #200, .T.);
#368 = ORIENTED_EDGE('NONE', *, *, #203, .T.);
#369 = ORIENTED_EDGE('NONE', *, *, #206, .T.);
#370 = ORIENTED_EDGE('NONE', *, *, #209, .T.);
#371 = ORIENTED_EDGE('NONE', *, *, #212, .T.);
#372 = ORIENTED_EDGE('NONE', *, *, #215, .T.);
#373 = ORIENTED_EDGE('NONE', *, *, #217, .T.);
#374 = EDGE_LOOP('NONE', (#363, #364, #365, #366, #367, #368, #369, #370, #371, #372, #373));
#375 = FACE_BOUND('NONE', #374, .T.);
#376 = ADVANCED_FACE('NONE', (#375), #271, .T.);
#377 = CLOSED_SHELL('NONE', (#278, #285, #292, #299, #306, #313, #320, #327, #334, #341, #348, #362, #376));
#378 = MANIFOLD_SOLID_BREP('NONE', #377);
#379 = APPLICATION_CONTEXT('configuration controlled 3D design of mechanical parts and assemblies');
#380 = PRODUCT_DEFINITION_CONTEXT('part definition', #379, 'design');
#381 = PRODUCT('UNIDENTIFIED_PRODUCT', 'NONE', $, ());
#382 = PRODUCT_DEFINITION_FORMATION('', $, #381);
#383 = PRODUCT_DEFINITION('design', $, #382, #380);
#384 = PRODUCT_DEFINITION_SHAPE('NONE', $, #383);
#385 = ADVANCED_BREP_SHAPE_REPRESENTATION('NONE', (#378), #4);
#386 = SHAPE_DEFINITION_REPRESENTATION(#384, #385);
#387 = COLOUR_RGB('NONE', 0.8999999761581421, 0.8999999761581421, 0.8999999761581421);
#388 = FILL_AREA_STYLE_COLOUR('NONE', #387);
#389 = FILL_AREA_STYLE('NONE', (#388));
#390 = SURFACE_STYLE_FILL_AREA(#389);
#391 = SURFACE_SIDE_STYLE('NONE', (#390));
#392 = SURFACE_STYLE_USAGE(.BOTH., #391);
#393 = PRESENTATION_STYLE_ASSIGNMENT((#392));
#394 = STYLED_ITEM('NONE', (#393), #378);
#395 = MECHANICAL_DESIGN_GEOMETRIC_PRESENTATION_REPRESENTATION('NONE', (#394), #4);
ENDSEC;
END-ISO-10303-21;
