ISO-10303-21;
HEADER;
FILE_DESCRIPTION(('Zoo Text-to-CAD'),'1');
FILE_NAME('dump.step', '2025-11-20T07:05:59.202717759+00:00', ('Author unknown'), ('Organization unknown'), 'zoo.dev beta', 'zoo.dev', 'Authorization unknown');
FILE_SCHEMA(('AP203_CONFIGURATION_CONTROLLED_3D_DESIGN_OF_MECHANICAL_PARTS_AND_ASSEMBLIES_MIM_LF'));
ENDSEC;
DATA;
#1 = (
  LENGTH_UNIT()
  NAMED_UNIT(*)
  SI_UNIT($, .METRE.)
);
#2 = (
  NAMED_UNIT(*)
  PLANE_ANGLE_UNIT()
  SI_UNIT($, .RADIAN.)
);
#3 = UNCERTAINTY_MEASURE_WITH_UNIT(LENGTH_MEASURE(0.00001), #1, 'DISTANCE_ACCURACY_VALUE', $);
#4 = (
  GEOMETRIC_REPRESENTATION_CONTEXT(3)
  GLOBAL_UNCERTAINTY_ASSIGNED_CONTEXT((#3))
  GLOBAL_UNIT_ASSIGNED_CONTEXT((#1, #2))
  REPRESENTATION_CONTEXT('', '3D')
);
#5 = CARTESIAN_POINT('NONE', (0.015, -0.012, -0));
#6 = VERTEX_POINT('NONE', #5);
#7 = CARTESIAN_POINT('NONE', (0.015, 0, -0));
#8 = VERTEX_POINT('NONE', #7);
#9 = CARTESIAN_POINT('NONE', (0.005, -0.012, 0.0000000000000000012246467991473532));
#10 = VERTEX_POINT('NONE', #9);
#11 = CARTESIAN_POINT('NONE', (0.005, 0, 0.0000000000000000012246467991473532));
#12 = VERTEX_POINT('NONE', #11);
#13 = CARTESIAN_POINT('NONE', (0.015, 0.37, -0));
#14 = VERTEX_POINT('NONE', #13);
#15 = CARTESIAN_POINT('NONE', (0.015, 0.382, -0));
#16 = VERTEX_POINT('NONE', #15);
#17 = CARTESIAN_POINT('NONE', (0.005, 0.37, 0.0000000000000000012246467991473532));
#18 = VERTEX_POINT('NONE', #17);
#19 = CARTESIAN_POINT('NONE', (0.005, 0.382, 0.0000000000000000012246467991473532));
#20 = VERTEX_POINT('NONE', #19);
#21 = CARTESIAN_POINT('NONE', (0.008, 0.22, -0));
#22 = VERTEX_POINT('NONE', #21);
#23 = CARTESIAN_POINT('NONE', (0.008, 0.392, -0));
#24 = VERTEX_POINT('NONE', #23);
#25 = CARTESIAN_POINT('NONE', (0.0215, -0.02, -0));
#26 = VERTEX_POINT('NONE', #25);
#27 = CARTESIAN_POINT('NONE', (0.0215, 0, -0));
#28 = VERTEX_POINT('NONE', #27);
#29 = CARTESIAN_POINT('NONE', (0.0195, 0.22, -0));
#30 = VERTEX_POINT('NONE', #29);
#31 = CARTESIAN_POINT('NONE', (0.0195, 0.224, -0));
#32 = VERTEX_POINT('NONE', #31);
#33 = CARTESIAN_POINT('NONE', (0.0225, 0, -0));
#34 = VERTEX_POINT('NONE', #33);
#35 = CARTESIAN_POINT('NONE', (0.0225, 0.22, -0));
#36 = VERTEX_POINT('NONE', #35);
#37 = DIRECTION('NONE', (1, 0, -0));
#38 = DIRECTION('NONE', (0, 1, 0));
#39 = CARTESIAN_POINT('NONE', (0.00000000000000000125607396694702, -0.012, -0));
#40 = AXIS2_PLACEMENT_3D('NONE', #39, #38, #37);
#41 = CIRCLE('NONE', #40, 0.014999999999999998);
#42 = DIRECTION('NONE', (0, 1, 0));
#43 = VECTOR('NONE', #42, 1);
#44 = CARTESIAN_POINT('NONE', (0.015, -0.012, -0));
#45 = LINE('NONE', #44, #43);
#46 = DIRECTION('NONE', (1, 0, -0));
#47 = DIRECTION('NONE', (0, 1, 0));
#48 = CARTESIAN_POINT('NONE', (0.00000000000000000125607396694702, 0, -0));
#49 = AXIS2_PLACEMENT_3D('NONE', #48, #47, #46);
#50 = CIRCLE('NONE', #49, 0.014999999999999998);
#51 = DIRECTION('NONE', (1, 0, 0.00000000000000024492935982947064));
#52 = DIRECTION('NONE', (0, -1, 0));
#53 = CARTESIAN_POINT('NONE', (0, -0.012, -0));
#54 = AXIS2_PLACEMENT_3D('NONE', #53, #52, #51);
#55 = CIRCLE('NONE', #54, 0.005);
#56 = DIRECTION('NONE', (0, 1, 0));
#57 = VECTOR('NONE', #56, 1);
#58 = CARTESIAN_POINT('NONE', (0.005, -0.012, 0.0000000000000000012246467991473532));
#59 = LINE('NONE', #58, #57);
#60 = DIRECTION('NONE', (1, 0, 0.00000000000000024492935982947064));
#61 = DIRECTION('NONE', (0, -1, 0));
#62 = CARTESIAN_POINT('NONE', (0, -0, -0));
#63 = AXIS2_PLACEMENT_3D('NONE', #62, #61, #60);
#64 = CIRCLE('NONE', #63, 0.005);
#65 = DIRECTION('NONE', (1, 0, -0));
#66 = DIRECTION('NONE', (0, 1, 0));
#67 = CARTESIAN_POINT('NONE', (0.00000000000000000125607396694702, 0.37, -0));
#68 = AXIS2_PLACEMENT_3D('NONE', #67, #66, #65);
#69 = CIRCLE('NONE', #68, 0.014999999999999998);
#70 = DIRECTION('NONE', (0, 1, 0));
#71 = VECTOR('NONE', #70, 1);
#72 = CARTESIAN_POINT('NONE', (0.015, 0.37, -0));
#73 = LINE('NONE', #72, #71);
#74 = DIRECTION('NONE', (1, 0, -0));
#75 = DIRECTION('NONE', (0, 1, 0));
#76 = CARTESIAN_POINT('NONE', (0.00000000000000000125607396694702, 0.382, -0));
#77 = AXIS2_PLACEMENT_3D('NONE', #76, #75, #74);
#78 = CIRCLE('NONE', #77, 0.014999999999999998);
#79 = DIRECTION('NONE', (1, 0, 0.00000000000000024492935982947064));
#80 = DIRECTION('NONE', (0, -1, 0));
#81 = CARTESIAN_POINT('NONE', (0, 0.37, -0));
#82 = AXIS2_PLACEMENT_3D('NONE', #81, #80, #79);
#83 = CIRCLE('NONE', #82, 0.005);
#84 = DIRECTION('NONE', (0, 1, 0));
#85 = VECTOR('NONE', #84, 1);
#86 = CARTESIAN_POINT('NONE', (0.005, 0.37, 0.0000000000000000012246467991473532));
#87 = LINE('NONE', #86, #85);
#88 = DIRECTION('NONE', (1, 0, 0.00000000000000024492935982947064));
#89 = DIRECTION('NONE', (0, -1, 0));
#90 = CARTESIAN_POINT('NONE', (0, 0.382, -0));
#91 = AXIS2_PLACEMENT_3D('NONE', #90, #89, #88);
#92 = CIRCLE('NONE', #91, 0.005);
#93 = DIRECTION('NONE', (1, 0, 0.00000000000000007850462293418876));
#94 = DIRECTION('NONE', (-0, 1, 0));
#95 = CARTESIAN_POINT('NONE', (0.00000000000000000000000000000000006972611193684198, 0.22, -0.0000000000000000006280369834735101));
#96 = AXIS2_PLACEMENT_3D('NONE', #95, #94, #93);
#97 = CIRCLE('NONE', #96, 0.008);
#98 = DIRECTION('NONE', (0, 1, 0));
#99 = VECTOR('NONE', #98, 1);
#100 = CARTESIAN_POINT('NONE', (0.008, 0.22, -0));
#101 = LINE('NONE', #100, #99);
#102 = DIRECTION('NONE', (1, 0, 0.00000000000000007850462293418876));
#103 = DIRECTION('NONE', (-0, 1, 0));
#104 = CARTESIAN_POINT('NONE', (0.00000000000000000000000000000000006972611193684198, 0.392, -0.0000000000000000006280369834735101));
#105 = AXIS2_PLACEMENT_3D('NONE', #104, #103, #102);
#106 = CIRCLE('NONE', #105, 0.008);
#107 = DIRECTION('NONE', (1, 0, 0.00000000000000002921102248714));
#108 = DIRECTION('NONE', (-0, 1, 0));
#109 = CARTESIAN_POINT('NONE', (0.0000000000000000006280369834735101, -0.02, -0.00000000000000000062803698347351));
#110 = AXIS2_PLACEMENT_3D('NONE', #109, #108, #107);
#111 = CIRCLE('NONE', #110, 0.0215);
#112 = DIRECTION('NONE', (0, 1, 0));
#113 = VECTOR('NONE', #112, 1);
#114 = CARTESIAN_POINT('NONE', (0.0215, -0.02, -0));
#115 = LINE('NONE', #114, #113);
#116 = DIRECTION('NONE', (1, 0, 0.00000000000000002921102248714));
#117 = DIRECTION('NONE', (-0, 1, 0));
#118 = CARTESIAN_POINT('NONE', (0.0000000000000000006280369834735101, 0, -0.00000000000000000062803698347351));
#119 = AXIS2_PLACEMENT_3D('NONE', #118, #117, #116);
#120 = CIRCLE('NONE', #119, 0.0215);
#121 = DIRECTION('NONE', (1, 0, -0));
#122 = DIRECTION('NONE', (0, 1, 0));
#123 = CARTESIAN_POINT('NONE', (0, 0.22, 0));
#124 = AXIS2_PLACEMENT_3D('NONE', #123, #122, #121);
#125 = CIRCLE('NONE', #124, 0.0195);
#126 = DIRECTION('NONE', (0, 1, 0));
#127 = VECTOR('NONE', #126, 1);
#128 = CARTESIAN_POINT('NONE', (0.0195, 0.22, -0));
#129 = LINE('NONE', #128, #127);
#130 = DIRECTION('NONE', (1, 0, -0));
#131 = DIRECTION('NONE', (0, 1, 0));
#132 = CARTESIAN_POINT('NONE', (0, 0.224, 0));
#133 = AXIS2_PLACEMENT_3D('NONE', #132, #131, #130);
#134 = CIRCLE('NONE', #133, 0.0195);
#135 = DIRECTION('NONE', (1, 0, -0));
#136 = DIRECTION('NONE', (0, 1, 0));
#137 = CARTESIAN_POINT('NONE', (0, 0, 0));
#138 = AXIS2_PLACEMENT_3D('NONE', #137, #136, #135);
#139 = CIRCLE('NONE', #138, 0.0225);
#140 = DIRECTION('NONE', (0, 1, 0));
#141 = VECTOR('NONE', #140, 1);
#142 = CARTESIAN_POINT('NONE', (0.0225, 0, -0));
#143 = LINE('NONE', #142, #141);
#144 = DIRECTION('NONE', (1, 0, -0));
#145 = DIRECTION('NONE', (0, 1, 0));
#146 = CARTESIAN_POINT('NONE', (0, 0.22, 0));
#147 = AXIS2_PLACEMENT_3D('NONE', #146, #145, #144);
#148 = CIRCLE('NONE', #147, 0.0225);
#149 = EDGE_CURVE('NONE', #6, #6, #41, .T.);
#150 = EDGE_CURVE('NONE', #6, #8, #45, .T.);
#151 = EDGE_CURVE('NONE', #8, #8, #50, .T.);
#152 = EDGE_CURVE('NONE', #10, #10, #55, .T.);
#153 = EDGE_CURVE('NONE', #10, #12, #59, .T.);
#154 = EDGE_CURVE('NONE', #12, #12, #64, .T.);
#155 = EDGE_CURVE('NONE', #14, #14, #69, .T.);
#156 = EDGE_CURVE('NONE', #14, #16, #73, .T.);
#157 = EDGE_CURVE('NONE', #16, #16, #78, .T.);
#158 = EDGE_CURVE('NONE', #18, #18, #83, .T.);
#159 = EDGE_CURVE('NONE', #18, #20, #87, .T.);
#160 = EDGE_CURVE('NONE', #20, #20, #92, .T.);
#161 = EDGE_CURVE('NONE', #22, #22, #97, .T.);
#162 = EDGE_CURVE('NONE', #22, #24, #101, .T.);
#163 = EDGE_CURVE('NONE', #24, #24, #106, .T.);
#164 = EDGE_CURVE('NONE', #26, #26, #111, .T.);
#165 = EDGE_CURVE('NONE', #26, #28, #115, .T.);
#166 = EDGE_CURVE('NONE', #28, #28, #120, .T.);
#167 = EDGE_CURVE('NONE', #30, #30, #125, .T.);
#168 = EDGE_CURVE('NONE', #30, #32, #129, .T.);
#169 = EDGE_CURVE('NONE', #32, #32, #134, .T.);
#170 = EDGE_CURVE('NONE', #34, #34, #139, .T.);
#171 = EDGE_CURVE('NONE', #34, #36, #143, .T.);
#172 = EDGE_CURVE('NONE', #36, #36, #148, .T.);
#173 = CARTESIAN_POINT('NONE', (0.00000000000000000125607396694702, -0.006, -0));
#174 = DIRECTION('NONE', (0, 1, 0));
#175 = DIRECTION('NONE', (1, 0, -0));
#176 = AXIS2_PLACEMENT_3D('NONE', #173, #174, #175);
#177 = CYLINDRICAL_SURFACE('NONE', #176, 0.014999999999999998);
#178 = CARTESIAN_POINT('NONE', (0, -0.006, -0));
#179 = DIRECTION('NONE', (0, -1, 0));
#180 = DIRECTION('NONE', (1, 0, 0.00000000000000024492935982947064));
#181 = AXIS2_PLACEMENT_3D('NONE', #178, #179, #180);
#182 = CYLINDRICAL_SURFACE('NONE', #181, 0.005);
#183 = CARTESIAN_POINT('NONE', (0, -0.012, -0));
#184 = DIRECTION('NONE', (0, 1, 0));
#185 = AXIS2_PLACEMENT_3D('NONE', #183, #184, $);
#186 = PLANE('NONE', #185);
#187 = CARTESIAN_POINT('NONE', (0, 0, -0));
#188 = DIRECTION('NONE', (0, 1, 0));
#189 = AXIS2_PLACEMENT_3D('NONE', #187, #188, $);
#190 = PLANE('NONE', #189);
#191 = CARTESIAN_POINT('NONE', (0.00000000000000000125607396694702, 0.376, -0));
#192 = DIRECTION('NONE', (0, 1, 0));
#193 = DIRECTION('NONE', (1, 0, -0));
#194 = AXIS2_PLACEMENT_3D('NONE', #191, #192, #193);
#195 = CYLINDRICAL_SURFACE('NONE', #194, 0.014999999999999998);
#196 = CARTESIAN_POINT('NONE', (0, 0.376, -0));
#197 = DIRECTION('NONE', (0, -1, 0));
#198 = DIRECTION('NONE', (1, 0, 0.00000000000000024492935982947064));
#199 = AXIS2_PLACEMENT_3D('NONE', #196, #197, #198);
#200 = CYLINDRICAL_SURFACE('NONE', #199, 0.005);
#201 = CARTESIAN_POINT('NONE', (0, 0.37, -0));
#202 = DIRECTION('NONE', (0, 1, 0));
#203 = AXIS2_PLACEMENT_3D('NONE', #201, #202, $);
#204 = PLANE('NONE', #203);
#205 = CARTESIAN_POINT('NONE', (0, 0.382, -0));
#206 = DIRECTION('NONE', (0, 1, 0));
#207 = AXIS2_PLACEMENT_3D('NONE', #205, #206, $);
#208 = PLANE('NONE', #207);
#209 = CARTESIAN_POINT('NONE', (0.00000000000000000000000000000000006972611193684198, 0.306, -0.0000000000000000006280369834735101));
#210 = DIRECTION('NONE', (-0, 1, 0));
#211 = DIRECTION('NONE', (1, 0, 0.00000000000000007850462293418876));
#212 = AXIS2_PLACEMENT_3D('NONE', #209, #210, #211);
#213 = CYLINDRICAL_SURFACE('NONE', #212, 0.008);
#214 = CARTESIAN_POINT('NONE', (0, 0.22, -0));
#215 = DIRECTION('NONE', (0, 1, 0));
#216 = AXIS2_PLACEMENT_3D('NONE', #214, #215, $);
#217 = PLANE('NONE', #216);
#218 = CARTESIAN_POINT('NONE', (0, 0.392, -0));
#219 = DIRECTION('NONE', (0, 1, 0));
#220 = AXIS2_PLACEMENT_3D('NONE', #218, #219, $);
#221 = PLANE('NONE', #220);
#222 = CARTESIAN_POINT('NONE', (0.0000000000000000006280369834735101, -0.01, -0.00000000000000000062803698347351));
#223 = DIRECTION('NONE', (-0, 1, 0));
#224 = DIRECTION('NONE', (1, 0, 0.00000000000000002921102248714));
#225 = AXIS2_PLACEMENT_3D('NONE', #222, #223, #224);
#226 = CYLINDRICAL_SURFACE('NONE', #225, 0.0215);
#227 = CARTESIAN_POINT('NONE', (0, -0.02, -0));
#228 = DIRECTION('NONE', (0, 1, 0));
#229 = AXIS2_PLACEMENT_3D('NONE', #227, #228, $);
#230 = PLANE('NONE', #229);
#231 = CARTESIAN_POINT('NONE', (0, 0, -0));
#232 = DIRECTION('NONE', (0, 1, 0));
#233 = AXIS2_PLACEMENT_3D('NONE', #231, #232, $);
#234 = PLANE('NONE', #233);
#235 = CARTESIAN_POINT('NONE', (0, 0.222, 0));
#236 = DIRECTION('NONE', (0, 1, 0));
#237 = DIRECTION('NONE', (1, 0, -0));
#238 = AXIS2_PLACEMENT_3D('NONE', #235, #236, #237);
#239 = CYLINDRICAL_SURFACE('NONE', #238, 0.0195);
#240 = CARTESIAN_POINT('NONE', (0, 0.22, -0));
#241 = DIRECTION('NONE', (0, 1, 0));
#242 = AXIS2_PLACEMENT_3D('NONE', #240, #241, $);
#243 = PLANE('NONE', #242);
#244 = CARTESIAN_POINT('NONE', (0, 0.224, -0));
#245 = DIRECTION('NONE', (0, 1, 0));
#246 = AXIS2_PLACEMENT_3D('NONE', #244, #245, $);
#247 = PLANE('NONE', #246);
#248 = CARTESIAN_POINT('NONE', (0, 0.11, 0));
#249 = DIRECTION('NONE', (0, 1, 0));
#250 = DIRECTION('NONE', (1, 0, -0));
#251 = AXIS2_PLACEMENT_3D('NONE', #248, #249, #250);
#252 = CYLINDRICAL_SURFACE('NONE', #251, 0.0225);
#253 = CARTESIAN_POINT('NONE', (0, 0, -0));
#254 = DIRECTION('NONE', (0, 1, 0));
#255 = AXIS2_PLACEMENT_3D('NONE', #253, #254, $);
#256 = PLANE('NONE', #255);
#257 = CARTESIAN_POINT('NONE', (0, 0.22, -0));
#258 = DIRECTION('NONE', (0, 1, 0));
#259 = AXIS2_PLACEMENT_3D('NONE', #257, #258, $);
#260 = PLANE('NONE', #259);
#261 = ORIENTED_EDGE('NONE', *, *, #149, .T.);
#262 = ORIENTED_EDGE('NONE', *, *, #151, .F.);
#263 = EDGE_LOOP('NONE', (#261));
#264 = FACE_BOUND('NONE', #263, .T.);
#265 = EDGE_LOOP('NONE', (#262));
#266 = FACE_BOUND('NONE', #265, .T.);
#267 = ADVANCED_FACE('NONE', (#264, #266), #177, .T.);
#268 = ORIENTED_EDGE('NONE', *, *, #152, .T.);
#269 = ORIENTED_EDGE('NONE', *, *, #154, .F.);
#270 = EDGE_LOOP('NONE', (#268));
#271 = FACE_BOUND('NONE', #270, .T.);
#272 = EDGE_LOOP('NONE', (#269));
#273 = FACE_BOUND('NONE', #272, .T.);
#274 = ADVANCED_FACE('NONE', (#271, #273), #182, .F.);
#275 = ORIENTED_EDGE('NONE', *, *, #149, .F.);
#276 = ORIENTED_EDGE('NONE', *, *, #152, .F.);
#277 = EDGE_LOOP('NONE', (#275));
#278 = FACE_BOUND('NONE', #277, .T.);
#279 = EDGE_LOOP('NONE', (#276));
#280 = FACE_BOUND('NONE', #279, .T.);
#281 = ADVANCED_FACE('NONE', (#278, #280), #186, .F.);
#282 = ORIENTED_EDGE('NONE', *, *, #151, .T.);
#283 = ORIENTED_EDGE('NONE', *, *, #154, .T.);
#284 = EDGE_LOOP('NONE', (#282));
#285 = FACE_BOUND('NONE', #284, .T.);
#286 = EDGE_LOOP('NONE', (#283));
#287 = FACE_BOUND('NONE', #286, .T.);
#288 = ADVANCED_FACE('NONE', (#285, #287), #190, .T.);
#289 = ORIENTED_EDGE('NONE', *, *, #155, .T.);
#290 = ORIENTED_EDGE('NONE', *, *, #157, .F.);
#291 = EDGE_LOOP('NONE', (#289));
#292 = FACE_BOUND('NONE', #291, .T.);
#293 = EDGE_LOOP('NONE', (#290));
#294 = FACE_BOUND('NONE', #293, .T.);
#295 = ADVANCED_FACE('NONE', (#292, #294), #195, .T.);
#296 = ORIENTED_EDGE('NONE', *, *, #158, .T.);
#297 = ORIENTED_EDGE('NONE', *, *, #160, .F.);
#298 = EDGE_LOOP('NONE', (#296));
#299 = FACE_BOUND('NONE', #298, .T.);
#300 = EDGE_LOOP('NONE', (#297));
#301 = FACE_BOUND('NONE', #300, .T.);
#302 = ADVANCED_FACE('NONE', (#299, #301), #200, .F.);
#303 = ORIENTED_EDGE('NONE', *, *, #155, .F.);
#304 = ORIENTED_EDGE('NONE', *, *, #158, .F.);
#305 = EDGE_LOOP('NONE', (#303));
#306 = FACE_BOUND('NONE', #305, .T.);
#307 = EDGE_LOOP('NONE', (#304));
#308 = FACE_BOUND('NONE', #307, .T.);
#309 = ADVANCED_FACE('NONE', (#306, #308), #204, .F.);
#310 = ORIENTED_EDGE('NONE', *, *, #157, .T.);
#311 = ORIENTED_EDGE('NONE', *, *, #160, .T.);
#312 = EDGE_LOOP('NONE', (#310));
#313 = FACE_BOUND('NONE', #312, .T.);
#314 = EDGE_LOOP('NONE', (#311));
#315 = FACE_BOUND('NONE', #314, .T.);
#316 = ADVANCED_FACE('NONE', (#313, #315), #208, .T.);
#317 = ORIENTED_EDGE('NONE', *, *, #161, .T.);
#318 = ORIENTED_EDGE('NONE', *, *, #163, .F.);
#319 = EDGE_LOOP('NONE', (#317));
#320 = FACE_BOUND('NONE', #319, .T.);
#321 = EDGE_LOOP('NONE', (#318));
#322 = FACE_BOUND('NONE', #321, .T.);
#323 = ADVANCED_FACE('NONE', (#320, #322), #213, .T.);
#324 = ORIENTED_EDGE('NONE', *, *, #161, .F.);
#325 = EDGE_LOOP('NONE', (#324));
#326 = FACE_BOUND('NONE', #325, .T.);
#327 = ADVANCED_FACE('NONE', (#326), #217, .F.);
#328 = ORIENTED_EDGE('NONE', *, *, #163, .T.);
#329 = EDGE_LOOP('NONE', (#328));
#330 = FACE_BOUND('NONE', #329, .T.);
#331 = ADVANCED_FACE('NONE', (#330), #221, .T.);
#332 = ORIENTED_EDGE('NONE', *, *, #164, .T.);
#333 = ORIENTED_EDGE('NONE', *, *, #166, .F.);
#334 = EDGE_LOOP('NONE', (#332));
#335 = FACE_BOUND('NONE', #334, .T.);
#336 = EDGE_LOOP('NONE', (#333));
#337 = FACE_BOUND('NONE', #336, .T.);
#338 = ADVANCED_FACE('NONE', (#335, #337), #226, .T.);
#339 = ORIENTED_EDGE('NONE', *, *, #164, .F.);
#340 = EDGE_LOOP('NONE', (#339));
#341 = FACE_BOUND('NONE', #340, .T.);
#342 = ADVANCED_FACE('NONE', (#341), #230, .F.);
#343 = ORIENTED_EDGE('NONE', *, *, #166, .T.);
#344 = EDGE_LOOP('NONE', (#343));
#345 = FACE_BOUND('NONE', #344, .T.);
#346 = ADVANCED_FACE('NONE', (#345), #234, .T.);
#347 = ORIENTED_EDGE('NONE', *, *, #167, .T.);
#348 = ORIENTED_EDGE('NONE', *, *, #169, .F.);
#349 = EDGE_LOOP('NONE', (#347));
#350 = FACE_BOUND('NONE', #349, .T.);
#351 = EDGE_LOOP('NONE', (#348));
#352 = FACE_BOUND('NONE', #351, .T.);
#353 = ADVANCED_FACE('NONE', (#350, #352), #239, .T.);
#354 = ORIENTED_EDGE('NONE', *, *, #167, .F.);
#355 = EDGE_LOOP('NONE', (#354));
#356 = FACE_BOUND('NONE', #355, .T.);
#357 = ADVANCED_FACE('NONE', (#356), #243, .F.);
#358 = ORIENTED_EDGE('NONE', *, *, #169, .T.);
#359 = EDGE_LOOP('NONE', (#358));
#360 = FACE_BOUND('NONE', #359, .T.);
#361 = ADVANCED_FACE('NONE', (#360), #247, .T.);
#362 = ORIENTED_EDGE('NONE', *, *, #170, .T.);
#363 = ORIENTED_EDGE('NONE', *, *, #172, .F.);
#364 = EDGE_LOOP('NONE', (#362));
#365 = FACE_BOUND('NONE', #364, .T.);
#366 = EDGE_LOOP('NONE', (#363));
#367 = FACE_BOUND('NONE', #366, .T.);
#368 = ADVANCED_FACE('NONE', (#365, #367), #252, .T.);
#369 = ORIENTED_EDGE('NONE', *, *, #170, .F.);
#370 = EDGE_LOOP('NONE', (#369));
#371 = FACE_BOUND('NONE', #370, .T.);
#372 = ADVANCED_FACE('NONE', (#371), #256, .F.);
#373 = ORIENTED_EDGE('NONE', *, *, #172, .T.);
#374 = EDGE_LOOP('NONE', (#373));
#375 = FACE_BOUND('NONE', #374, .T.);
#376 = ADVANCED_FACE('NONE', (#375), #260, .T.);
#377 = CLOSED_SHELL('NONE', (#267, #274, #281, #288));
#378 = CLOSED_SHELL('NONE', (#295, #302, #309, #316));
#379 = CLOSED_SHELL('NONE', (#323, #327, #331));
#380 = CLOSED_SHELL('NONE', (#338, #342, #346));
#381 = CLOSED_SHELL('NONE', (#353, #357, #361));
#382 = CLOSED_SHELL('NONE', (#368, #372, #376));
#383 = MANIFOLD_SOLID_BREP('NONE', #377);
#384 = MANIFOLD_SOLID_BREP('NONE', #378);
#385 = MANIFOLD_SOLID_BREP('NONE', #379);
#386 = MANIFOLD_SOLID_BREP('NONE', #380);
#387 = MANIFOLD_SOLID_BREP('NONE', #381);
#388 = MANIFOLD_SOLID_BREP('NONE', #382);
#389 = APPLICATION_CONTEXT('configuration controlled 3D design of mechanical parts and assemblies');
#390 = PRODUCT_DEFINITION_CONTEXT('part definition', #389, 'design');
#391 = PRODUCT('UNIDENTIFIED_PRODUCT', 'NONE', $, ());
#392 = PRODUCT_DEFINITION_FORMATION('', $, #391);
#393 = PRODUCT_DEFINITION('design', $, #392, #390);
#394 = PRODUCT_DEFINITION_SHAPE('NONE', $, #393);
#395 = ADVANCED_BREP_SHAPE_REPRESENTATION('NONE', (#388), #4);
#396 = SHAPE_DEFINITION_REPRESENTATION(#394, #395);
#397 = COLOUR_RGB('NONE', 0.7529411911964417, 0.7529411911964417, 0.7529411911964417);
#398 = FILL_AREA_STYLE_COLOUR('NONE', #397);
#399 = FILL_AREA_STYLE('NONE', (#398));
#400 = SURFACE_STYLE_FILL_AREA(#399);
#401 = SURFACE_SIDE_STYLE('NONE', (#400));
#402 = SURFACE_STYLE_USAGE(.BOTH., #401);
#403 = PRESENTATION_STYLE_ASSIGNMENT((#402));
#404 = STYLED_ITEM('NONE', (#403), #388);
#405 = MECHANICAL_DESIGN_GEOMETRIC_PRESENTATION_REPRESENTATION('NONE', (#404), #4);
#406 = PRODUCT('UNIDENTIFIED_PRODUCT', 'NONE', $, ());
#407 = PRODUCT_DEFINITION_FORMATION('', $, #406);
#408 = PRODUCT_DEFINITION('design', $, #407, #390);
#409 = PRODUCT_DEFINITION_SHAPE('NONE', $, #408);
#410 = ADVANCED_BREP_SHAPE_REPRESENTATION('NONE', (#387), #4);
#411 = SHAPE_DEFINITION_REPRESENTATION(#409, #410);
#412 = COLOUR_RGB('NONE', 0.7529411911964417, 0.7529411911964417, 0.7529411911964417);
#413 = FILL_AREA_STYLE_COLOUR('NONE', #412);
#414 = FILL_AREA_STYLE('NONE', (#413));
#415 = SURFACE_STYLE_FILL_AREA(#414);
#416 = SURFACE_SIDE_STYLE('NONE', (#415));
#417 = SURFACE_STYLE_USAGE(.BOTH., #416);
#418 = PRESENTATION_STYLE_ASSIGNMENT((#417));
#419 = STYLED_ITEM('NONE', (#418), #387);
#420 = MECHANICAL_DESIGN_GEOMETRIC_PRESENTATION_REPRESENTATION('NONE', (#419), #4);
#421 = PRODUCT('UNIDENTIFIED_PRODUCT', 'NONE', $, ());
#422 = PRODUCT_DEFINITION_FORMATION('', $, #421);
#423 = PRODUCT_DEFINITION('design', $, #422, #390);
#424 = PRODUCT_DEFINITION_SHAPE('NONE', $, #423);
#425 = ADVANCED_BREP_SHAPE_REPRESENTATION('NONE', (#386), #4);
#426 = SHAPE_DEFINITION_REPRESENTATION(#424, #425);
#427 = COLOUR_RGB('NONE', 0.7529411911964417, 0.7529411911964417, 0.7529411911964417);
#428 = FILL_AREA_STYLE_COLOUR('NONE', #427);
#429 = FILL_AREA_STYLE('NONE', (#428));
#430 = SURFACE_STYLE_FILL_AREA(#429);
#431 = SURFACE_SIDE_STYLE('NONE', (#430));
#432 = SURFACE_STYLE_USAGE(.BOTH., #431);
#433 = PRESENTATION_STYLE_ASSIGNMENT((#432));
#434 = STYLED_ITEM('NONE', (#433), #386);
#435 = MECHANICAL_DESIGN_GEOMETRIC_PRESENTATION_REPRESENTATION('NONE', (#434), #4);
#436 = PRODUCT('UNIDENTIFIED_PRODUCT', 'NONE', $, ());
#437 = PRODUCT_DEFINITION_FORMATION('', $, #436);
#438 = PRODUCT_DEFINITION('design', $, #437, #390);
#439 = PRODUCT_DEFINITION_SHAPE('NONE', $, #438);
#440 = ADVANCED_BREP_SHAPE_REPRESENTATION('NONE', (#385), #4);
#441 = SHAPE_DEFINITION_REPRESENTATION(#439, #440);
#442 = COLOUR_RGB('NONE', 0.8156862854957581, 0.8352941274642944, 0.8588235378265381);
#443 = FILL_AREA_STYLE_COLOUR('NONE', #442);
#444 = FILL_AREA_STYLE('NONE', (#443));
#445 = SURFACE_STYLE_FILL_AREA(#444);
#446 = SURFACE_SIDE_STYLE('NONE', (#445));
#447 = SURFACE_STYLE_USAGE(.BOTH., #446);
#448 = PRESENTATION_STYLE_ASSIGNMENT((#447));
#449 = STYLED_ITEM('NONE', (#448), #385);
#450 = MECHANICAL_DESIGN_GEOMETRIC_PRESENTATION_REPRESENTATION('NONE', (#449), #4);
#451 = PRODUCT('UNIDENTIFIED_PRODUCT', 'NONE', $, ());
#452 = PRODUCT_DEFINITION_FORMATION('', $, #451);
#453 = PRODUCT_DEFINITION('design', $, #452, #390);
#454 = PRODUCT_DEFINITION_SHAPE('NONE', $, #453);
#455 = ADVANCED_BREP_SHAPE_REPRESENTATION('NONE', (#384), #4);
#456 = SHAPE_DEFINITION_REPRESENTATION(#454, #455);
#457 = COLOUR_RGB('NONE', 0.7529411911964417, 0.7529411911964417, 0.7529411911964417);
#458 = FILL_AREA_STYLE_COLOUR('NONE', #457);
#459 = FILL_AREA_STYLE('NONE', (#458));
#460 = SURFACE_STYLE_FILL_AREA(#459);
#461 = SURFACE_SIDE_STYLE('NONE', (#460));
#462 = SURFACE_STYLE_USAGE(.BOTH., #461);
#463 = PRESENTATION_STYLE_ASSIGNMENT((#462));
#464 = STYLED_ITEM('NONE', (#463), #384);
#465 = MECHANICAL_DESIGN_GEOMETRIC_PRESENTATION_REPRESENTATION('NONE', (#464), #4);
#466 = PRODUCT('UNIDENTIFIED_PRODUCT', 'NONE', $, ());
#467 = PRODUCT_DEFINITION_FORMATION('', $, #466);
#468 = PRODUCT_DEFINITION('design', $, #467, #390);
#469 = PRODUCT_DEFINITION_SHAPE('NONE', $, #468);
#470 = ADVANCED_BREP_SHAPE_REPRESENTATION('NONE', (#383), #4);
#471 = SHAPE_DEFINITION_REPRESENTATION(#469, #470);
#472 = COLOUR_RGB('NONE', 0.7529411911964417, 0.7529411911964417, 0.7529411911964417);
#473 = FILL_AREA_STYLE_COLOUR('NONE', #472);
#474 = FILL_AREA_STYLE('NONE', (#473));
#475 = SURFACE_STYLE_FILL_AREA(#474);
#476 = SURFACE_SIDE_STYLE('NONE', (#475));
#477 = SURFACE_STYLE_USAGE(.BOTH., #476);
#478 = PRESENTATION_STYLE_ASSIGNMENT((#477));
#479 = STYLED_ITEM('NONE', (#478), #383);
#480 = MECHANICAL_DESIGN_GEOMETRIC_PRESENTATION_REPRESENTATION('NONE', (#479), #4);
ENDSEC;
END-ISO-10303-21;
