ISO-10303-21;
HEADER;
FILE_DESCRIPTION(('Zoo Text-to-CAD'),'1');
FILE_NAME('dump.step', '2025-11-20T07:42:49.825318287+00:00', ('Author unknown'), ('Organization unknown'), 'zoo.dev beta', 'zoo.dev', 'Authorization unknown');
FILE_SCHEMA(('AP203_CONFIGURATION_CONTROLLED_3D_DESIGN_OF_MECHANICAL_PARTS_AND_ASSEMBLIES_MIM_LF'));
ENDSEC;
DATA;
#1 = (
  LENGTH_UNIT()
  NAMED_UNIT(*)
  SI_UNIT($, .METRE.)
);
#2 = (
  NAMED_UNIT(*)
  PLANE_ANGLE_UNIT()
  SI_UNIT($, .RADIAN.)
);
#3 = UNCERTAINTY_MEASURE_WITH_UNIT(LENGTH_MEASURE(0.00001), #1, 'DISTANCE_ACCURACY_VALUE', $);
#4 = (
  GEOMETRIC_REPRESENTATION_CONTEXT(3)
  GLOBAL_UNCERTAINTY_ASSIGNED_CONTEXT((#3))
  GLOBAL_UNIT_ASSIGNED_CONTEXT((#1, #2))
  REPRESENTATION_CONTEXT('', '3D')
);
#5 = CARTESIAN_POINT('NONE', (0.024, 0, 0.035));
#6 = VERTEX_POINT('NONE', #5);
#7 = CARTESIAN_POINT('NONE', (0.024, 0.15, 0.035));
#8 = VERTEX_POINT('NONE', #7);
#9 = CARTESIAN_POINT('NONE', (0.029999999999999995, 0.15, 0.029));
#10 = VERTEX_POINT('NONE', #9);
#11 = CARTESIAN_POINT('NONE', (0.029999999999999995, 0, 0.029));
#12 = VERTEX_POINT('NONE', #11);
#13 = CARTESIAN_POINT('NONE', (-0.024, 0, 0.035));
#14 = VERTEX_POINT('NONE', #13);
#15 = CARTESIAN_POINT('NONE', (-0.024, 0.15, 0.035));
#16 = VERTEX_POINT('NONE', #15);
#17 = CARTESIAN_POINT('NONE', (-0.029999999999999995, 0.15, 0.029));
#18 = VERTEX_POINT('NONE', #17);
#19 = CARTESIAN_POINT('NONE', (-0.029999999999999995, 0, 0.029));
#20 = VERTEX_POINT('NONE', #19);
#21 = CARTESIAN_POINT('NONE', (-0.024, 0, -0.035));
#22 = VERTEX_POINT('NONE', #21);
#23 = CARTESIAN_POINT('NONE', (-0.024, 0.15, -0.035));
#24 = VERTEX_POINT('NONE', #23);
#25 = CARTESIAN_POINT('NONE', (-0.029999999999999995, 0.15, -0.029));
#26 = VERTEX_POINT('NONE', #25);
#27 = CARTESIAN_POINT('NONE', (-0.029999999999999995, 0, -0.029));
#28 = VERTEX_POINT('NONE', #27);
#29 = CARTESIAN_POINT('NONE', (0.03, 0, -0.029));
#30 = VERTEX_POINT('NONE', #29);
#31 = CARTESIAN_POINT('NONE', (0.03, 0.15, -0.029));
#32 = VERTEX_POINT('NONE', #31);
#33 = CARTESIAN_POINT('NONE', (0.024, 0.15, -0.035));
#34 = VERTEX_POINT('NONE', #33);
#35 = CARTESIAN_POINT('NONE', (0.024, 0, -0.035));
#36 = VERTEX_POINT('NONE', #35);
#37 = CARTESIAN_POINT('NONE', (0.025, 0.15, -0));
#38 = VERTEX_POINT('NONE', #37);
#39 = CARTESIAN_POINT('NONE', (0.025, 0.16, -0));
#40 = VERTEX_POINT('NONE', #39);
#41 = CARTESIAN_POINT('NONE', (0.006, 0.16, -0));
#42 = VERTEX_POINT('NONE', #41);
#43 = CARTESIAN_POINT('NONE', (0.006, 0.185, -0));
#44 = VERTEX_POINT('NONE', #43);
#45 = CARTESIAN_POINT('NONE', (0.02175, 0.141999, -0));
#46 = VERTEX_POINT('NONE', #45);
#47 = CARTESIAN_POINT('NONE', (0.02175, 0.16, -0));
#48 = VERTEX_POINT('NONE', #47);
#49 = CARTESIAN_POINT('NONE', (0.010875000000000001, 0.141999, -0.01883605253231154));
#50 = VERTEX_POINT('NONE', #49);
#51 = CARTESIAN_POINT('NONE', (0.010875000000000001, 0.16, -0.01883605253231154));
#52 = VERTEX_POINT('NONE', #51);
#53 = CARTESIAN_POINT('NONE', (-0.010874999999999996, 0.141999, -0.018836052532311544));
#54 = VERTEX_POINT('NONE', #53);
#55 = CARTESIAN_POINT('NONE', (-0.010874999999999996, 0.16, -0.018836052532311544));
#56 = VERTEX_POINT('NONE', #55);
#57 = CARTESIAN_POINT('NONE', (-0.02175, 0.141999, -0.000000000000000002663606788145493));
#58 = VERTEX_POINT('NONE', #57);
#59 = CARTESIAN_POINT('NONE', (-0.02175, 0.16, -0.000000000000000002663606788145493));
#60 = VERTEX_POINT('NONE', #59);
#61 = CARTESIAN_POINT('NONE', (-0.010875000000000011, 0.141999, 0.018836052532311534));
#62 = VERTEX_POINT('NONE', #61);
#63 = CARTESIAN_POINT('NONE', (-0.010875000000000011, 0.16, 0.018836052532311534));
#64 = VERTEX_POINT('NONE', #63);
#65 = CARTESIAN_POINT('NONE', (0.010875000000000001, 0.141999, 0.01883605253231154));
#66 = VERTEX_POINT('NONE', #65);
#67 = CARTESIAN_POINT('NONE', (0.010875000000000001, 0.16, 0.01883605253231154));
#68 = VERTEX_POINT('NONE', #67);
#69 = CARTESIAN_POINT('NONE', (0, -0.011, 0.035));
#70 = VERTEX_POINT('NONE', #69);
#71 = CARTESIAN_POINT('NONE', (0.035, -0.011, 0.035));
#72 = VERTEX_POINT('NONE', #71);
#73 = CARTESIAN_POINT('NONE', (0.035, -0.011, 0.047));
#74 = VERTEX_POINT('NONE', #73);
#75 = CARTESIAN_POINT('NONE', (0, -0.011, 0.047));
#76 = VERTEX_POINT('NONE', #75);
#77 = CARTESIAN_POINT('NONE', (0.035, 0.011, 0.035));
#78 = VERTEX_POINT('NONE', #77);
#79 = CARTESIAN_POINT('NONE', (0.035, 0.011, 0.047));
#80 = VERTEX_POINT('NONE', #79);
#81 = CARTESIAN_POINT('NONE', (0, 0.011, 0.035));
#82 = VERTEX_POINT('NONE', #81);
#83 = CARTESIAN_POINT('NONE', (0, 0.011, 0.047));
#84 = VERTEX_POINT('NONE', #83);
#85 = CARTESIAN_POINT('NONE', (0, -0.011, -0.035));
#86 = VERTEX_POINT('NONE', #85);
#87 = CARTESIAN_POINT('NONE', (-0.035, -0.011, -0.035));
#88 = VERTEX_POINT('NONE', #87);
#89 = CARTESIAN_POINT('NONE', (-0.035, -0.011, -0.047));
#90 = VERTEX_POINT('NONE', #89);
#91 = CARTESIAN_POINT('NONE', (0, -0.011, -0.047));
#92 = VERTEX_POINT('NONE', #91);
#93 = CARTESIAN_POINT('NONE', (-0.035, 0.011, -0.035));
#94 = VERTEX_POINT('NONE', #93);
#95 = CARTESIAN_POINT('NONE', (-0.035, 0.011, -0.047));
#96 = VERTEX_POINT('NONE', #95);
#97 = CARTESIAN_POINT('NONE', (0, 0.011, -0.035));
#98 = VERTEX_POINT('NONE', #97);
#99 = CARTESIAN_POINT('NONE', (0, 0.011, -0.047));
#100 = VERTEX_POINT('NONE', #99);
#101 = CARTESIAN_POINT('NONE', (0.0215, 0, 0.047));
#102 = VERTEX_POINT('NONE', #101);
#103 = CARTESIAN_POINT('NONE', (0.0215, 0, 0.03499999999999999));
#104 = VERTEX_POINT('NONE', #103);
#105 = CARTESIAN_POINT('NONE', (-0.0215, 0, -0.032999));
#106 = VERTEX_POINT('NONE', #105);
#107 = CARTESIAN_POINT('NONE', (-0.0215, 0, -0.047));
#108 = VERTEX_POINT('NONE', #107);
#109 = CARTESIAN_POINT('NONE', (-0.029, 0, -0));
#110 = VERTEX_POINT('NONE', #109);
#111 = CARTESIAN_POINT('NONE', (-0.029, -0.012, -0));
#112 = VERTEX_POINT('NONE', #111);
#113 = CARTESIAN_POINT('NONE', (-0.01, -0.012, -0));
#114 = VERTEX_POINT('NONE', #113);
#115 = CARTESIAN_POINT('NONE', (-0.01, -0.03, -0));
#116 = VERTEX_POINT('NONE', #115);
#117 = CARTESIAN_POINT('NONE', (0.095, 0.015, -0.03900100000000001));
#118 = VERTEX_POINT('NONE', #117);
#119 = CARTESIAN_POINT('NONE', (0.095, 0.015, 0.035));
#120 = VERTEX_POINT('NONE', #119);
#121 = DIRECTION('NONE', (0, 1, 0));
#122 = VECTOR('NONE', #121, 1);
#123 = CARTESIAN_POINT('NONE', (0.024, 0, 0.035));
#124 = LINE('NONE', #123, #122);
#125 = DIRECTION('NONE', (-0.0000000000000005921189464667508, 0, 1));
#126 = DIRECTION('NONE', (0, 1, -0));
#127 = CARTESIAN_POINT('NONE', (0.024000000000000004, 0.15, 0.02900000000000001));
#128 = AXIS2_PLACEMENT_3D('NONE', #127, #126, #125);
#129 = CIRCLE('NONE', #128, 0.005999999999999993);
#130 = DIRECTION('NONE', (0, -1, 0));
#131 = VECTOR('NONE', #130, 1);
#132 = CARTESIAN_POINT('NONE', (0.029999999999999995, 0.15, 0.029));
#133 = LINE('NONE', #132, #131);
#134 = DIRECTION('NONE', (1, 0, -0.0000000000000011842378929335016));
#135 = DIRECTION('NONE', (0, -1, 0));
#136 = CARTESIAN_POINT('NONE', (0.024000000000000004, -0, 0.02900000000000001));
#137 = AXIS2_PLACEMENT_3D('NONE', #136, #135, #134);
#138 = CIRCLE('NONE', #137, 0.005999999999999993);
#139 = DIRECTION('NONE', (0, 1, 0));
#140 = VECTOR('NONE', #139, 1);
#141 = CARTESIAN_POINT('NONE', (-0.024, 0, 0.035));
#142 = LINE('NONE', #141, #140);
#143 = DIRECTION('NONE', (0.0000000000000005921189464667508, 0, 1));
#144 = DIRECTION('NONE', (0, -1, 0));
#145 = CARTESIAN_POINT('NONE', (-0.024000000000000004, 0.15, 0.02900000000000001));
#146 = AXIS2_PLACEMENT_3D('NONE', #145, #144, #143);
#147 = CIRCLE('NONE', #146, 0.005999999999999993);
#148 = DIRECTION('NONE', (0, -1, 0));
#149 = VECTOR('NONE', #148, 1);
#150 = CARTESIAN_POINT('NONE', (-0.029999999999999995, 0.15, 0.029));
#151 = LINE('NONE', #150, #149);
#152 = DIRECTION('NONE', (-1, 0, -0.0000000000000011842378929335016));
#153 = DIRECTION('NONE', (0, 1, 0));
#154 = CARTESIAN_POINT('NONE', (-0.024000000000000004, 0, 0.02900000000000001));
#155 = AXIS2_PLACEMENT_3D('NONE', #154, #153, #152);
#156 = CIRCLE('NONE', #155, 0.005999999999999993);
#157 = DIRECTION('NONE', (1, 0, 0));
#158 = VECTOR('NONE', #157, 1);
#159 = CARTESIAN_POINT('NONE', (-0.024, 0, 0.035));
#160 = LINE('NONE', #159, #158);
#161 = DIRECTION('NONE', (-1, 0, 0));
#162 = VECTOR('NONE', #161, 1);
#163 = CARTESIAN_POINT('NONE', (0.024, 0.15, 0.035));
#164 = LINE('NONE', #163, #162);
#165 = DIRECTION('NONE', (0, 1, 0));
#166 = VECTOR('NONE', #165, 1);
#167 = CARTESIAN_POINT('NONE', (-0.024, 0, -0.035));
#168 = LINE('NONE', #167, #166);
#169 = DIRECTION('NONE', (0.0000000000000005921189464667508, 0, -1));
#170 = DIRECTION('NONE', (0, 1, 0));
#171 = CARTESIAN_POINT('NONE', (-0.024000000000000004, 0.15, -0.02900000000000001));
#172 = AXIS2_PLACEMENT_3D('NONE', #171, #170, #169);
#173 = CIRCLE('NONE', #172, 0.005999999999999993);
#174 = DIRECTION('NONE', (0, -1, 0));
#175 = VECTOR('NONE', #174, 1);
#176 = CARTESIAN_POINT('NONE', (-0.029999999999999995, 0.15, -0.029));
#177 = LINE('NONE', #176, #175);
#178 = DIRECTION('NONE', (-1, 0, 0.0000000000000011842378929335016));
#179 = DIRECTION('NONE', (-0, -1, 0));
#180 = CARTESIAN_POINT('NONE', (-0.024000000000000004, -0, -0.02900000000000001));
#181 = AXIS2_PLACEMENT_3D('NONE', #180, #179, #178);
#182 = CIRCLE('NONE', #181, 0.005999999999999993);
#183 = DIRECTION('NONE', (0, 0, 1));
#184 = VECTOR('NONE', #183, 1);
#185 = CARTESIAN_POINT('NONE', (-0.03, 0, -0.029));
#186 = LINE('NONE', #185, #184);
#187 = DIRECTION('NONE', (0, 0, -1));
#188 = VECTOR('NONE', #187, 1);
#189 = CARTESIAN_POINT('NONE', (-0.03, 0.15, 0.029));
#190 = LINE('NONE', #189, #188);
#191 = DIRECTION('NONE', (0, 1, 0));
#192 = VECTOR('NONE', #191, 1);
#193 = CARTESIAN_POINT('NONE', (0.03, 0, -0.029));
#194 = LINE('NONE', #193, #192);
#195 = DIRECTION('NONE', (1, 0, -0));
#196 = DIRECTION('NONE', (0, 1, 0));
#197 = CARTESIAN_POINT('NONE', (0.024, 0.15, -0.029));
#198 = AXIS2_PLACEMENT_3D('NONE', #197, #196, #195);
#199 = CIRCLE('NONE', #198, 0.006);
#200 = DIRECTION('NONE', (0, -1, 0));
#201 = VECTOR('NONE', #200, 1);
#202 = CARTESIAN_POINT('NONE', (0.024, 0.15, -0.035));
#203 = LINE('NONE', #202, #201);
#204 = DIRECTION('NONE', (0, 0, -1));
#205 = DIRECTION('NONE', (0, -1, 0));
#206 = CARTESIAN_POINT('NONE', (0.024, -0, -0.029));
#207 = AXIS2_PLACEMENT_3D('NONE', #206, #205, #204);
#208 = CIRCLE('NONE', #207, 0.006);
#209 = DIRECTION('NONE', (0, 0, -1));
#210 = VECTOR('NONE', #209, 1);
#211 = CARTESIAN_POINT('NONE', (0.03, 0, 0.029));
#212 = LINE('NONE', #211, #210);
#213 = DIRECTION('NONE', (0, 0, 1));
#214 = VECTOR('NONE', #213, 1);
#215 = CARTESIAN_POINT('NONE', (0.03, 0.15, -0.029));
#216 = LINE('NONE', #215, #214);
#217 = DIRECTION('NONE', (-1, 0, 0));
#218 = VECTOR('NONE', #217, 1);
#219 = CARTESIAN_POINT('NONE', (0.024, 0, -0.035));
#220 = LINE('NONE', #219, #218);
#221 = DIRECTION('NONE', (1, 0, 0));
#222 = VECTOR('NONE', #221, 1);
#223 = CARTESIAN_POINT('NONE', (-0.024, 0.15, -0.035));
#224 = LINE('NONE', #223, #222);
#225 = DIRECTION('NONE', (1, 0, -0));
#226 = DIRECTION('NONE', (0, 1, 0));
#227 = CARTESIAN_POINT('NONE', (0, 0.15, 0));
#228 = AXIS2_PLACEMENT_3D('NONE', #227, #226, #225);
#229 = CIRCLE('NONE', #228, 0.025);
#230 = DIRECTION('NONE', (0, 1, 0));
#231 = VECTOR('NONE', #230, 1);
#232 = CARTESIAN_POINT('NONE', (0.025, 0.15, -0));
#233 = LINE('NONE', #232, #231);
#234 = DIRECTION('NONE', (1, 0, -0));
#235 = DIRECTION('NONE', (0, 1, 0));
#236 = CARTESIAN_POINT('NONE', (0, 0.16, 0));
#237 = AXIS2_PLACEMENT_3D('NONE', #236, #235, #234);
#238 = CIRCLE('NONE', #237, 0.025);
#239 = DIRECTION('NONE', (1, 0, -0));
#240 = DIRECTION('NONE', (0, 1, 0));
#241 = CARTESIAN_POINT('NONE', (0, 0.16, 0));
#242 = AXIS2_PLACEMENT_3D('NONE', #241, #240, #239);
#243 = CIRCLE('NONE', #242, 0.006);
#244 = DIRECTION('NONE', (0, 1, 0));
#245 = VECTOR('NONE', #244, 1);
#246 = CARTESIAN_POINT('NONE', (0.006, 0.16, -0));
#247 = LINE('NONE', #246, #245);
#248 = DIRECTION('NONE', (1, 0, -0));
#249 = DIRECTION('NONE', (0, 1, 0));
#250 = CARTESIAN_POINT('NONE', (0, 0.185, 0));
#251 = AXIS2_PLACEMENT_3D('NONE', #250, #249, #248);
#252 = CIRCLE('NONE', #251, 0.006);
#253 = DIRECTION('NONE', (1, 0, -0));
#254 = DIRECTION('NONE', (0, 1, 0));
#255 = CARTESIAN_POINT('NONE', (0.019, 0.141999, 0));
#256 = AXIS2_PLACEMENT_3D('NONE', #255, #254, #253);
#257 = CIRCLE('NONE', #256, 0.00275);
#258 = DIRECTION('NONE', (0, 1, 0));
#259 = VECTOR('NONE', #258, 1);
#260 = CARTESIAN_POINT('NONE', (0.02175, 0.141999, -0));
#261 = LINE('NONE', #260, #259);
#262 = DIRECTION('NONE', (1, 0, -0));
#263 = DIRECTION('NONE', (0, 1, 0));
#264 = CARTESIAN_POINT('NONE', (0.019, 0.16, 0));
#265 = AXIS2_PLACEMENT_3D('NONE', #264, #263, #262);
#266 = CIRCLE('NONE', #265, 0.00275);
#267 = DIRECTION('NONE', (0.4999999999999993, -0.000000000000010335167065601456, -0.8660254037844389));
#268 = DIRECTION('NONE', (0.000000000000000692324917217156, 0.9999999999999999, -0.000000000000011534308997567495));
#269 = CARTESIAN_POINT('NONE', (0.009500000000000003, 0.14199900000000001, -0.016454482671904334));
#270 = AXIS2_PLACEMENT_3D('NONE', #269, #268, #267);
#271 = CIRCLE('NONE', #270, 0.0027500000000000003);
#272 = DIRECTION('NONE', (0, 1, 0));
#273 = VECTOR('NONE', #272, 1);
#274 = CARTESIAN_POINT('NONE', (0.010875000000000001, 0.141999, -0.01883605253231154));
#275 = LINE('NONE', #274, #273);
#276 = DIRECTION('NONE', (0.4999999999999993, -0.000000000000010335167065601456, -0.8660254037844389));
#277 = DIRECTION('NONE', (0.000000000000000692324917217156, 0.9999999999999999, -0.000000000000011534308997567495));
#278 = CARTESIAN_POINT('NONE', (0.009500000000000003, 0.16000000000000003, -0.016454482671904334));
#279 = AXIS2_PLACEMENT_3D('NONE', #278, #277, #276);
#280 = CIRCLE('NONE', #279, 0.0027500000000000003);
#281 = DIRECTION('NONE', (-0.5000000000000004, 0, -0.8660254037844385));
#282 = DIRECTION('NONE', (0, 1, 0));
#283 = CARTESIAN_POINT('NONE', (-0.009499999999999996, 0.141999, -0.01645448267190434));
#284 = AXIS2_PLACEMENT_3D('NONE', #283, #282, #281);
#285 = CIRCLE('NONE', #284, 0.0027499999999999977);
#286 = DIRECTION('NONE', (0, 1, 0));
#287 = VECTOR('NONE', #286, 1);
#288 = CARTESIAN_POINT('NONE', (-0.010874999999999996, 0.141999, -0.018836052532311544));
#289 = LINE('NONE', #288, #287);
#290 = DIRECTION('NONE', (-0.5000000000000004, 0, -0.8660254037844385));
#291 = DIRECTION('NONE', (0, 1, 0));
#292 = CARTESIAN_POINT('NONE', (-0.009499999999999996, 0.16, -0.01645448267190434));
#293 = AXIS2_PLACEMENT_3D('NONE', #292, #291, #290);
#294 = CIRCLE('NONE', #293, 0.0027499999999999977);
#295 = DIRECTION('NONE', (-1, 0, 0.00000000000000032331159660182105));
#296 = DIRECTION('NONE', (0, 1, -0));
#297 = CARTESIAN_POINT('NONE', (-0.019, 0.141999, -0.000000000000000003552713678800501));
#298 = AXIS2_PLACEMENT_3D('NONE', #297, #296, #295);
#299 = CIRCLE('NONE', #298, 0.00275);
#300 = DIRECTION('NONE', (0, 1, 0));
#301 = VECTOR('NONE', #300, 1);
#302 = CARTESIAN_POINT('NONE', (-0.02175, 0.141999, -0.000000000000000002663606788145493));
#303 = LINE('NONE', #302, #301);
#304 = DIRECTION('NONE', (-1, 0, 0.00000000000000032331159660182105));
#305 = DIRECTION('NONE', (0, 1, -0));
#306 = CARTESIAN_POINT('NONE', (-0.019, 0.16, -0.000000000000000003552713678800501));
#307 = AXIS2_PLACEMENT_3D('NONE', #306, #305, #304);
#308 = CIRCLE('NONE', #307, 0.00275);
#309 = DIRECTION('NONE', (-0.5000000000000004, -0.000000000000010335167065601465, 0.8660254037844385));
#310 = DIRECTION('NONE', (-0.0000000000000006923249172171725, 1, 0.000000000000011534308997567506));
#311 = CARTESIAN_POINT('NONE', (-0.00950000000000001, 0.14199900000000001, 0.01645448267190433));
#312 = AXIS2_PLACEMENT_3D('NONE', #311, #310, #309);
#313 = CIRCLE('NONE', #312, 0.0027499999999999977);
#314 = DIRECTION('NONE', (0, 1, 0));
#315 = VECTOR('NONE', #314, 1);
#316 = CARTESIAN_POINT('NONE', (-0.010875000000000011, 0.141999, 0.018836052532311534));
#317 = LINE('NONE', #316, #315);
#318 = DIRECTION('NONE', (-0.5000000000000004, -0.000000000000010335167065601465, 0.8660254037844385));
#319 = DIRECTION('NONE', (-0.0000000000000006923249172171725, 1, 0.000000000000011534308997567506));
#320 = CARTESIAN_POINT('NONE', (-0.00950000000000001, 0.16000000000000003, 0.01645448267190433));
#321 = AXIS2_PLACEMENT_3D('NONE', #320, #319, #318);
#322 = CIRCLE('NONE', #321, 0.0027499999999999977);
#323 = DIRECTION('NONE', (0.5000000000000004, -0.000000000000010335167065601465, 0.8660254037844385));
#324 = DIRECTION('NONE', (0.0000000000000006923249172171599, 1, 0.000000000000011534308997567512));
#325 = CARTESIAN_POINT('NONE', (0.009500000000000001, 0.14199900000000001, 0.016454482671904337));
#326 = AXIS2_PLACEMENT_3D('NONE', #325, #324, #323);
#327 = CIRCLE('NONE', #326, 0.0027499999999999977);
#328 = DIRECTION('NONE', (0, 1, 0));
#329 = VECTOR('NONE', #328, 1);
#330 = CARTESIAN_POINT('NONE', (0.010875000000000001, 0.141999, 0.01883605253231154));
#331 = LINE('NONE', #330, #329);
#332 = DIRECTION('NONE', (0.5000000000000004, -0.000000000000010335167065601465, 0.8660254037844385));
#333 = DIRECTION('NONE', (0.0000000000000006923249172171599, 1, 0.000000000000011534308997567512));
#334 = CARTESIAN_POINT('NONE', (0.009500000000000001, 0.16000000000000003, 0.016454482671904337));
#335 = AXIS2_PLACEMENT_3D('NONE', #334, #333, #332);
#336 = CIRCLE('NONE', #335, 0.0027499999999999977);
#337 = DIRECTION('NONE', (1, 0, 0));
#338 = VECTOR('NONE', #337, 1);
#339 = CARTESIAN_POINT('NONE', (0, -0.011, 0.035));
#340 = LINE('NONE', #339, #338);
#341 = DIRECTION('NONE', (0, 0, 1));
#342 = VECTOR('NONE', #341, 1);
#343 = CARTESIAN_POINT('NONE', (0.035, -0.011, 0.035));
#344 = LINE('NONE', #343, #342);
#345 = DIRECTION('NONE', (1, 0, 0));
#346 = VECTOR('NONE', #345, 1);
#347 = CARTESIAN_POINT('NONE', (0, -0.011, 0.047));
#348 = LINE('NONE', #347, #346);
#349 = DIRECTION('NONE', (0, 0, 1));
#350 = VECTOR('NONE', #349, 1);
#351 = CARTESIAN_POINT('NONE', (0, -0.011, 0.035));
#352 = LINE('NONE', #351, #350);
#353 = DIRECTION('NONE', (0, 1, 0));
#354 = VECTOR('NONE', #353, 1);
#355 = CARTESIAN_POINT('NONE', (0.035, -0.011, 0.035));
#356 = LINE('NONE', #355, #354);
#357 = DIRECTION('NONE', (0, 0, 1));
#358 = VECTOR('NONE', #357, 1);
#359 = CARTESIAN_POINT('NONE', (0.035, 0.011, 0.035));
#360 = LINE('NONE', #359, #358);
#361 = DIRECTION('NONE', (0, 1, 0));
#362 = VECTOR('NONE', #361, 1);
#363 = CARTESIAN_POINT('NONE', (0.035, -0.011, 0.047));
#364 = LINE('NONE', #363, #362);
#365 = DIRECTION('NONE', (-1, 0, 0));
#366 = VECTOR('NONE', #365, 1);
#367 = CARTESIAN_POINT('NONE', (0.035, 0.011, 0.035));
#368 = LINE('NONE', #367, #366);
#369 = DIRECTION('NONE', (0, 0, 1));
#370 = VECTOR('NONE', #369, 1);
#371 = CARTESIAN_POINT('NONE', (0, 0.011, 0.035));
#372 = LINE('NONE', #371, #370);
#373 = DIRECTION('NONE', (-1, 0, 0));
#374 = VECTOR('NONE', #373, 1);
#375 = CARTESIAN_POINT('NONE', (0.035, 0.011, 0.047));
#376 = LINE('NONE', #375, #374);
#377 = DIRECTION('NONE', (0, -1, 0));
#378 = VECTOR('NONE', #377, 1);
#379 = CARTESIAN_POINT('NONE', (0, 0.011, 0.035));
#380 = LINE('NONE', #379, #378);
#381 = DIRECTION('NONE', (0, -1, 0));
#382 = VECTOR('NONE', #381, 1);
#383 = CARTESIAN_POINT('NONE', (0, 0.011, 0.047));
#384 = LINE('NONE', #383, #382);
#385 = DIRECTION('NONE', (-1, 0, 0));
#386 = VECTOR('NONE', #385, 1);
#387 = CARTESIAN_POINT('NONE', (0, -0.011, -0.035));
#388 = LINE('NONE', #387, #386);
#389 = DIRECTION('NONE', (0, 0, -1));
#390 = VECTOR('NONE', #389, 1);
#391 = CARTESIAN_POINT('NONE', (-0.035, -0.011, -0.035));
#392 = LINE('NONE', #391, #390);
#393 = DIRECTION('NONE', (-1, 0, 0));
#394 = VECTOR('NONE', #393, 1);
#395 = CARTESIAN_POINT('NONE', (0, -0.011, -0.047));
#396 = LINE('NONE', #395, #394);
#397 = DIRECTION('NONE', (0, 0, -1));
#398 = VECTOR('NONE', #397, 1);
#399 = CARTESIAN_POINT('NONE', (0, -0.011, -0.035));
#400 = LINE('NONE', #399, #398);
#401 = DIRECTION('NONE', (0, 1, 0));
#402 = VECTOR('NONE', #401, 1);
#403 = CARTESIAN_POINT('NONE', (-0.035, -0.011, -0.035));
#404 = LINE('NONE', #403, #402);
#405 = DIRECTION('NONE', (0, 0, -1));
#406 = VECTOR('NONE', #405, 1);
#407 = CARTESIAN_POINT('NONE', (-0.035, 0.011, -0.035));
#408 = LINE('NONE', #407, #406);
#409 = DIRECTION('NONE', (0, 1, 0));
#410 = VECTOR('NONE', #409, 1);
#411 = CARTESIAN_POINT('NONE', (-0.035, -0.011, -0.047));
#412 = LINE('NONE', #411, #410);
#413 = DIRECTION('NONE', (1, 0, 0));
#414 = VECTOR('NONE', #413, 1);
#415 = CARTESIAN_POINT('NONE', (-0.035, 0.011, -0.035));
#416 = LINE('NONE', #415, #414);
#417 = DIRECTION('NONE', (0, 0, -1));
#418 = VECTOR('NONE', #417, 1);
#419 = CARTESIAN_POINT('NONE', (0, 0.011, -0.035));
#420 = LINE('NONE', #419, #418);
#421 = DIRECTION('NONE', (1, 0, 0));
#422 = VECTOR('NONE', #421, 1);
#423 = CARTESIAN_POINT('NONE', (-0.035, 0.011, -0.047));
#424 = LINE('NONE', #423, #422);
#425 = DIRECTION('NONE', (0, -1, 0));
#426 = VECTOR('NONE', #425, 1);
#427 = CARTESIAN_POINT('NONE', (0, 0.011, -0.035));
#428 = LINE('NONE', #427, #426);
#429 = DIRECTION('NONE', (0, -1, 0));
#430 = VECTOR('NONE', #429, 1);
#431 = CARTESIAN_POINT('NONE', (0, 0.011, -0.047));
#432 = LINE('NONE', #431, #430);
#433 = CARTESIAN_POINT('NONE', (0.0215, 0, 0.035));
#434 = CARTESIAN_POINT('NONE', (0.02149882079624149, 0.00005120858220107814, 0.035));
#435 = CARTESIAN_POINT('NONE', (0.0214957601356387, 0.0001841220748323696, 0.035));
#436 = CARTESIAN_POINT('NONE', (0.0214921390688502, 0.00023614857498254765, 0.035));
#437 = CARTESIAN_POINT('NONE', (0.021482740475621803, 0.0003711849994864099, 0.035));
#438 = CARTESIAN_POINT('NONE', (0.02147655972594829, 0.0004238730094515186, 0.035));
#439 = CARTESIAN_POINT('NONE', (0.021460517394939, 0.0005606264035751389, 0.035));
#440 = CARTESIAN_POINT('NONE', (0.021451670882363997, 0.0006138033131221713, 0.035));
#441 = CARTESIAN_POINT('NONE', (0.021428709479540273, 0.0007518256615535429, 0.035));
#442 = CARTESIAN_POINT('NONE', (0.021417105278786763, 0.0008053035493837219, 0.035));
#443 = CARTESIAN_POINT('NONE', (0.021386986209188465, 0.0009441070964560616, 0.035));
#444 = CARTESIAN_POINT('NONE', (0.02137254892275075, 0.000997684019074347, 0.035));
#445 = CARTESIAN_POINT('NONE', (0.02133507648977028, 0.001136744614067403, 0.035));
#446 = CARTESIAN_POINT('NONE', (0.021317749506615573, 0.0011902063011155898, 0.035));
#447 = CARTESIAN_POINT('NONE', (0.02127277677452913, 0.0013289677985465142, 0.035));
#448 = CARTESIAN_POINT('NONE', (0.021252524337249414, 0.0013820897486898367, 0.035));
#449 = CARTESIAN_POINT('NONE', (0.021199958496575022, 0.0015199694482529232, 0.035));
#450 = CARTESIAN_POINT('NONE', (0.021176767498212828, 0.001572519403471598, 0.035));
#451 = CARTESIAN_POINT('NONE', (0.021116574529428406, 0.0017089144721400638, 0.035));
#452 = CARTESIAN_POINT('NONE', (0.021090455963412, 0.0017606552311107378, 0.035));
#453 = CARTESIAN_POINT('NONE', (0.021022664400307804, 0.0018949500053574136, 0.035));
#454 = CARTESIAN_POINT('NONE', (0.020993654393276114, 0.001945642519478255, 0.035));
#455 = CARTESIAN_POINT('NONE', (0.02091835800368463, 0.002077216541106209, 0.035));
#456 = CARTESIAN_POINT('NONE', (0.020886518371553364, 0.002126623220718039, 0.035));
#457 = CARTESIAN_POINT('NONE', (0.02080387760063641, 0.0022548598182621053, 0.035));
#458 = CARTESIAN_POINT('NONE', (0.02076929588282809, 0.002302747962892769, 0.035));
#459 = CARTESIAN_POINT('NONE', (0.020679537941921906, 0.002427043154927205, 0.035));
#460 = CARTESIAN_POINT('NONE', (0.020642326886689957, 0.0024731884110274598, 0.035));
#461 = CARTESIAN_POINT('NONE', (0.020545744417447703, 0.002592959880828501, 0.035));
#462 = CARTESIAN_POINT('NONE', (0.02050604091178117, 0.0026371496244056683, 0.035));
#463 = CARTESIAN_POINT('NONE', (0.020402989208706777, 0.0027518454996841614, 0.035));
#464 = CARTESIAN_POINT('NONE', (0.020360952668250092, 0.0027938820401408474, 0.035));
#465 = CARTESIAN_POINT('NONE', (0.020251845499684163, 0.002902989208706782, 0.035));
#466 = CARTESIAN_POINT('NONE', (0.02020765575610699, 0.0029426927143733172, 0.035));
#467 = CARTESIAN_POINT('NONE', (0.0200929598808285, 0.0030457444174477027, 0.035));
#468 = CARTESIAN_POINT('NONE', (0.020046814624728248, 0.0030829554726796524, 0.035));
#469 = CARTESIAN_POINT('NONE', (0.01992704315492721, 0.0031795379419219064, 0.035));
#470 = CARTESIAN_POINT('NONE', (0.019879155010296547, 0.003214119659730224, 0.035));
#471 = CARTESIAN_POINT('NONE', (0.019754859818262107, 0.003303877600636407, 0.035));
#472 = CARTESIAN_POINT('NONE', (0.01970545313865028, 0.0033357172327676734, 0.035));
#473 = CARTESIAN_POINT('NONE', (0.019577216541106213, 0.0034183580036846284, 0.035));
#474 = CARTESIAN_POINT('NONE', (0.01952652402698538, 0.003447368010716316, 0.035));
#475 = CARTESIAN_POINT('NONE', (0.019394950005357417, 0.003522664400307804, 0.035));
#476 = CARTESIAN_POINT('NONE', (0.019343209246386737, 0.0035487829663242054, 0.035));
#477 = CARTESIAN_POINT('NONE', (0.019208914472140067, 0.0036165745294283987, 0.035));
#478 = CARTESIAN_POINT('NONE', (0.019156364516921404, 0.0036397655277905835, 0.035));
#479 = CARTESIAN_POINT('NONE', (0.019095407518814143, 0.003666666666666666, 0.035));
#480 = CARTESIAN_POINT('NONE', (0.019019969448252926, 0.0036999584965750226, 0.035));
#481 = CARTESIAN_POINT('NONE', (0.0189668474981096, 0.003720210933854736, 0.035));
#482 = CARTESIAN_POINT('NONE', (0.018828967798546516, 0.00377277677452913, 0.035));
#483 = CARTESIAN_POINT('NONE', (0.018775506111498332, 0.0037901037576838358, 0.035));
#484 = CARTESIAN_POINT('NONE', (0.0186367446140674, 0.0038350764897702814, 0.035));
#485 = CARTESIAN_POINT('NONE', (0.018583167691449125, 0.003849513776207993, 0.035));
#486 = CARTESIAN_POINT('NONE', (0.018444107096456067, 0.0038869862091884637, 0.035));
#487 = CARTESIAN_POINT('NONE', (0.01839062920862588, 0.0038985904099419775, 0.035));
#488 = CARTESIAN_POINT('NONE', (0.01825182566155354, 0.003928709479540269, 0.035));
#489 = CARTESIAN_POINT('NONE', (0.018198648752006514, 0.003937555992115275, 0.035));
#490 = CARTESIAN_POINT('NONE', (0.01806062640357514, 0.003960517394939, 0.035));
#491 = CARTESIAN_POINT('NONE', (0.018007938393610028, 0.003966698144612515, 0.035));
#492 = CARTESIAN_POINT('NONE', (0.01787118499948641, 0.003982740475621814, 0.035));
#493 = CARTESIAN_POINT('NONE', (0.01781915849933622, 0.003986361542410312, 0.035));
#494 = CARTESIAN_POINT('NONE', (0.017684122074832366, 0.003995760135638703, 0.035));
#495 = CARTESIAN_POINT('NONE', (0.017632913492631297, 0.003996939339397212, 0.035));
#496 = CARTESIAN_POINT('NONE', (0.0175, 0.004, 0.035));
#497 = CARTESIAN_POINT('NONE', (0.017448791417798922, 0.00399882079624149, 0.035));
#498 = CARTESIAN_POINT('NONE', (0.01731587792516763, 0.003995760135638703, 0.035));
#499 = CARTESIAN_POINT('NONE', (0.017263851425017445, 0.003992139068850205, 0.035));
#500 = CARTESIAN_POINT('NONE', (0.01712881500051359, 0.003982740475621814, 0.035));
#501 = CARTESIAN_POINT('NONE', (0.01707612699054848, 0.0039765597259483, 0.035));
#502 = CARTESIAN_POINT('NONE', (0.016939373596424865, 0.003960517394939, 0.035));
#503 = CARTESIAN_POINT('NONE', (0.016886196686877842, 0.003951670882363995, 0.035));
#504 = CARTESIAN_POINT('NONE', (0.016748174338446456, 0.003928709479540269, 0.035));
#505 = CARTESIAN_POINT('NONE', (0.016694696450616286, 0.003917105278786759, 0.035));
#506 = CARTESIAN_POINT('NONE', (0.016555892903543937, 0.0038869862091884637, 0.035));
#507 = CARTESIAN_POINT('NONE', (0.01650231598092565, 0.003872548922750751, 0.035));
#508 = CARTESIAN_POINT('NONE', (0.016363255385932595, 0.0038350764897702823, 0.035));
#509 = CARTESIAN_POINT('NONE', (0.016309793698884405, 0.0038177495066155746, 0.035));
#510 = CARTESIAN_POINT('NONE', (0.016171032201453484, 0.00377277677452913, 0.035));
#511 = CARTESIAN_POINT('NONE', (0.016117910251310152, 0.0037525243372494143, 0.035));
#512 = CARTESIAN_POINT('NONE', (0.015980030551747078, 0.003699958496575023, 0.035));
#513 = CARTESIAN_POINT('NONE', (0.015927480596528404, 0.0036767674982128335, 0.035));
#514 = CARTESIAN_POINT('NONE', (0.01590459248118586, 0.003666666666666666, 0.035));
#515 = CARTESIAN_POINT('NONE', (0.01579108552785994, 0.0036165745294283996, 0.035));
#516 = CARTESIAN_POINT('NONE', (0.01573934476888926, 0.003590455963411997, 0.035));
#517 = CARTESIAN_POINT('NONE', (0.015605049994642585, 0.003522664400307803, 0.035));
#518 = CARTESIAN_POINT('NONE', (0.015554357480521743, 0.0034936543932761127, 0.035));
#519 = CARTESIAN_POINT('NONE', (0.01542278345889379, 0.0034183580036846284, 0.035));
#520 = CARTESIAN_POINT('NONE', (0.01537337677928196, 0.0033865183715533604, 0.035));
#521 = CARTESIAN_POINT('NONE', (0.015245140181737895, 0.0033038776006364076, 0.035));
#522 = CARTESIAN_POINT('NONE', (0.01519725203710723, 0.003269295882828088, 0.035));
#523 = CARTESIAN_POINT('NONE', (0.015072956845072795, 0.003179537941921907, 0.035));
#524 = CARTESIAN_POINT('NONE', (0.015026811588972544, 0.0031423268866899545, 0.035));
#525 = CARTESIAN_POINT('NONE', (0.0149070401191715, 0.003045744417447703, 0.035));
#526 = CARTESIAN_POINT('NONE', (0.014862850375594325, 0.0030060409117811638, 0.035));
#527 = CARTESIAN_POINT('NONE', (0.01474815450031584, 0.0029029892087067822, 0.035));
#528 = CARTESIAN_POINT('NONE', (0.014706117959859153, 0.002860952668250096, 0.035));
#529 = CARTESIAN_POINT('NONE', (0.014597010791293219, 0.0027518454996841614, 0.035));
#530 = CARTESIAN_POINT('NONE', (0.014557307285626682, 0.002707655756106991, 0.035));
#531 = CARTESIAN_POINT('NONE', (0.014454255582552297, 0.002592959880828501, 0.035));
#532 = CARTESIAN_POINT('NONE', (0.014417044527320346, 0.0025468146247282493, 0.035));
#533 = CARTESIAN_POINT('NONE', (0.014320462058078097, 0.0024270431549272063, 0.035));
#534 = CARTESIAN_POINT('NONE', (0.014285880340269778, 0.0023791550102965457, 0.035));
#535 = CARTESIAN_POINT('NONE', (0.014196122399363593, 0.002254859818262106, 0.035));
#536 = CARTESIAN_POINT('NONE', (0.014164282767232328, 0.002205453138650279, 0.035));
#537 = CARTESIAN_POINT('NONE', (0.014114419785445465, 0.0021280789920057066, 0.035));
#538 = CARTESIAN_POINT('NONE', (0.014081641996315373, 0.0020772165411062104, 0.035));
#539 = CARTESIAN_POINT('NONE', (0.014052631989283687, 0.0020265240269853736, 0.035));
#540 = CARTESIAN_POINT('NONE', (0.013977335599692196, 0.0018949500053574138, 0.035));
#541 = CARTESIAN_POINT('NONE', (0.013951217033675793, 0.0018432092463867363, 0.035));
#542 = CARTESIAN_POINT('NONE', (0.0138834254705716, 0.0017089144721400638, 0.035));
#543 = CARTESIAN_POINT('NONE', (0.013860234472209416, 0.0016563645169214009, 0.035));
#544 = CARTESIAN_POINT('NONE', (0.013800041503424974, 0.0015199694482529236, 0.035));
#545 = CARTESIAN_POINT('NONE', (0.01377978906614526, 0.0014668474981095994, 0.035));
#546 = CARTESIAN_POINT('NONE', (0.013727223225470868, 0.0013289677985465148, 0.035));
#547 = CARTESIAN_POINT('NONE', (0.013709896242316163, 0.0012755061114983301, 0.035));
#548 = CARTESIAN_POINT('NONE', (0.013664923510229719, 0.0011367446140674036, 0.035));
#549 = CARTESIAN_POINT('NONE', (0.013650486223792004, 0.0010831676914491166, 0.035));
#550 = CARTESIAN_POINT('NONE', (0.013613013790811536, 0.0009441070964560616, 0.035));
#551 = CARTESIAN_POINT('NONE', (0.013601409590058022, 0.0008906292086258738, 0.035));
#552 = CARTESIAN_POINT('NONE', (0.01357129052045973, 0.0007518256615535425, 0.035));
#553 = CARTESIAN_POINT('NONE', (0.013562444007884724, 0.0006986487520065155, 0.035));
#554 = CARTESIAN_POINT('NONE', (0.013539482605060998, 0.000560626403575139, 0.035));
#555 = CARTESIAN_POINT('NONE', (0.013533301855387484, 0.0005079383936100303, 0.035));
#556 = CARTESIAN_POINT('NONE', (0.013517259524378185, 0.00037118499948641013, 0.035));
#557 = CARTESIAN_POINT('NONE', (0.013513638457589686, 0.0003191584993362203, 0.035));
#558 = CARTESIAN_POINT('NONE', (0.013504239864361294, 0.00018412207483236995, 0.035));
#559 = CARTESIAN_POINT('NONE', (0.013503060660602785, 0.00013291349263129702, 0.035));
#560 = CARTESIAN_POINT('NONE', (0.0135, 0.0000000000000000004898587196589413, 0.035));
#561 = CARTESIAN_POINT('NONE', (0.013501179203758509, -0.000051208582201077626, 0.035));
#562 = CARTESIAN_POINT('NONE', (0.013504239864361294, -0.00018412207483236898, 0.035));
#563 = CARTESIAN_POINT('NONE', (0.013507860931149791, -0.00023614857498255358, 0.035));
#564 = CARTESIAN_POINT('NONE', (0.013517259524378185, -0.00037118499948640915, 0.035));
#565 = CARTESIAN_POINT('NONE', (0.0135234402740517, -0.00042387300945151776, 0.035));
#566 = CARTESIAN_POINT('NONE', (0.013539482605060998, -0.0005606264035751381, 0.035));
#567 = CARTESIAN_POINT('NONE', (0.013548329117636003, -0.0006138033131221583, 0.035));
#568 = CARTESIAN_POINT('NONE', (0.013571290520459729, -0.0007518256615535416, 0.035));
#569 = CARTESIAN_POINT('NONE', (0.01358289472121324, -0.0008053035493837153, 0.035));
#570 = CARTESIAN_POINT('NONE', (0.013613013790811536, -0.0009441070964560607, 0.035));
#571 = CARTESIAN_POINT('NONE', (0.013627451077249247, -0.0009976840190743493, 0.035));
#572 = CARTESIAN_POINT('NONE', (0.013664923510229717, -0.0011367446140674014, 0.035));
#573 = CARTESIAN_POINT('NONE', (0.013682250493384427, -0.0011902063011155982, 0.035));
#574 = CARTESIAN_POINT('NONE', (0.01372722322547087, -0.001328967798546513, 0.035));
#575 = CARTESIAN_POINT('NONE', (0.013747475662750579, -0.001382089748689832, 0.035));
#576 = CARTESIAN_POINT('NONE', (0.013800041503424976, -0.001519969448252922, 0.035));
#577 = CARTESIAN_POINT('NONE', (0.013823232501787167, -0.0015725194034715967, 0.035));
#578 = CARTESIAN_POINT('NONE', (0.0138834254705716, -0.0017089144721400627, 0.035));
#579 = CARTESIAN_POINT('NONE', (0.013909544036588003, -0.0017606552311107406, 0.035));
#580 = CARTESIAN_POINT('NONE', (0.013977335599692194, -0.0018949500053574144, 0.035));
#581 = CARTESIAN_POINT('NONE', (0.014006345606723885, -0.0019456425194782556, 0.035));
#582 = CARTESIAN_POINT('NONE', (0.014081641996315371, -0.0020772165411062095, 0.035));
#583 = CARTESIAN_POINT('NONE', (0.014113481628446639, -0.0021266232207180396, 0.035));
#584 = CARTESIAN_POINT('NONE', (0.014196122399363593, -0.0022548598182621053, 0.035));
#585 = CARTESIAN_POINT('NONE', (0.014230704117171913, -0.002302747962892769, 0.035));
#586 = CARTESIAN_POINT('NONE', (0.014320462058078092, -0.0024270431549272054, 0.035));
#587 = CARTESIAN_POINT('NONE', (0.014357673113310047, -0.00247318841102746, 0.035));
#588 = CARTESIAN_POINT('NONE', (0.014454255582552299, -0.002592959880828501, 0.035));
#589 = CARTESIAN_POINT('NONE', (0.014493959088218837, -0.0026371496244056753, 0.035));
#590 = CARTESIAN_POINT('NONE', (0.014597010791293217, -0.0027518454996841605, 0.035));
#591 = CARTESIAN_POINT('NONE', (0.014639047331749904, -0.002793882040140847, 0.035));
#592 = CARTESIAN_POINT('NONE', (0.014748154500315839, -0.0029029892087067814, 0.035));
#593 = CARTESIAN_POINT('NONE', (0.014792344243893009, -0.002942692714373317, 0.035));
#594 = CARTESIAN_POINT('NONE', (0.014907040119171499, -0.0030457444174477027, 0.035));
#595 = CARTESIAN_POINT('NONE', (0.014953185375271748, -0.0030829554726796524, 0.035));
#596 = CARTESIAN_POINT('NONE', (0.015072956845072793, -0.0031795379419219064, 0.035));
#597 = CARTESIAN_POINT('NONE', (0.015120844989703454, -0.003214119659730224, 0.035));
#598 = CARTESIAN_POINT('NONE', (0.015245140181737895, -0.003303877600636407, 0.035));
#599 = CARTESIAN_POINT('NONE', (0.015294546861349723, -0.0033357172327676734, 0.035));
#600 = CARTESIAN_POINT('NONE', (0.01542278345889379, -0.003418358003684628, 0.035));
#601 = CARTESIAN_POINT('NONE', (0.015473475973014622, -0.0034473680107163134, 0.035));
#602 = CARTESIAN_POINT('NONE', (0.015605049994642585, -0.003522664400307803, 0.035));
#603 = CARTESIAN_POINT('NONE', (0.01565679075361326, -0.0035487829663242024, 0.035));
#604 = CARTESIAN_POINT('NONE', (0.015791085527859936, -0.0036165745294283983, 0.035));
#605 = CARTESIAN_POINT('NONE', (0.015843635483078607, -0.0036397655277905865, 0.035));
#606 = CARTESIAN_POINT('NONE', (0.015904592481185864, -0.003666666666666667, 0.035));
#607 = CARTESIAN_POINT('NONE', (0.015980030551747078, -0.003699958496575024, 0.035));
#608 = CARTESIAN_POINT('NONE', (0.016033152501890417, -0.0037202109338547425, 0.035));
#609 = CARTESIAN_POINT('NONE', (0.016171032201453484, -0.0037727767745291303, 0.035));
#610 = CARTESIAN_POINT('NONE', (0.01622449388850166, -0.0037901037576838336, 0.035));
#611 = CARTESIAN_POINT('NONE', (0.016363255385932595, -0.003835076489770283, 0.035));
#612 = CARTESIAN_POINT('NONE', (0.016416832308550885, -0.0038495137762079956, 0.035));
#613 = CARTESIAN_POINT('NONE', (0.016555892903543944, -0.003886986209188464, 0.035));
#614 = CARTESIAN_POINT('NONE', (0.016609370791374128, -0.003898590409941978, 0.035));
#615 = CARTESIAN_POINT('NONE', (0.016748174338446453, -0.003928709479540269, 0.035));
#616 = CARTESIAN_POINT('NONE', (0.01680135124799348, -0.003937555992115276, 0.035));
#617 = CARTESIAN_POINT('NONE', (0.016939373596424858, -0.003960517394939, 0.035));
#618 = CARTESIAN_POINT('NONE', (0.01699206160638997, -0.003966698144612514, 0.035));
#619 = CARTESIAN_POINT('NONE', (0.017128815000513588, -0.003982740475621814, 0.035));
#620 = CARTESIAN_POINT('NONE', (0.017180841500663777, -0.003986361542410312, 0.035));
#621 = CARTESIAN_POINT('NONE', (0.017315877925167627, -0.003995760135638703, 0.035));
#622 = CARTESIAN_POINT('NONE', (0.0173670865073687, -0.003996939339397212, 0.035));
#623 = CARTESIAN_POINT('NONE', (0.0175, -0.004, 0.035));
#624 = CARTESIAN_POINT('NONE', (0.017551208582201078, -0.00399882079624149, 0.035));
#625 = CARTESIAN_POINT('NONE', (0.017684122074832366, -0.003995760135638703, 0.035));
#626 = CARTESIAN_POINT('NONE', (0.01773614857498255, -0.003992139068850205, 0.035));
#627 = CARTESIAN_POINT('NONE', (0.01787118499948641, -0.003982740475621814, 0.035));
#628 = CARTESIAN_POINT('NONE', (0.01792387300945152, -0.0039765597259483, 0.035));
#629 = CARTESIAN_POINT('NONE', (0.01806062640357514, -0.003960517394939, 0.035));
#630 = CARTESIAN_POINT('NONE', (0.018113803313122158, -0.003951670882363995, 0.035));
#631 = CARTESIAN_POINT('NONE', (0.01825182566155354, -0.003928709479540269, 0.035));
#632 = CARTESIAN_POINT('NONE', (0.018305303549383714, -0.003917105278786759, 0.035));
#633 = CARTESIAN_POINT('NONE', (0.018444107096456063, -0.003886986209188464, 0.035));
#634 = CARTESIAN_POINT('NONE', (0.018497684019074354, -0.003872548922750751, 0.035));
#635 = CARTESIAN_POINT('NONE', (0.0186367446140674, -0.003835076489770283, 0.035));
#636 = CARTESIAN_POINT('NONE', (0.018690206301115595, -0.003817749506615573, 0.035));
#637 = CARTESIAN_POINT('NONE', (0.018828967798546512, -0.0037727767745291308, 0.035));
#638 = CARTESIAN_POINT('NONE', (0.018882089748689827, -0.0037525243372494195, 0.035));
#639 = CARTESIAN_POINT('NONE', (0.01901996944825292, -0.0036999584965750234, 0.035));
#640 = CARTESIAN_POINT('NONE', (0.019072519403471596, -0.003676767498212834, 0.035));
#641 = CARTESIAN_POINT('NONE', (0.019095407518814136, -0.003666666666666667, 0.035));
#642 = CARTESIAN_POINT('NONE', (0.019208914472140064, -0.0036165745294284, 0.035));
#643 = CARTESIAN_POINT('NONE', (0.019260655231110743, -0.0035904559634119962, 0.035));
#644 = CARTESIAN_POINT('NONE', (0.01939495000535741, -0.0035226644003078043, 0.035));
#645 = CARTESIAN_POINT('NONE', (0.019445642519478244, -0.0034936543932761184, 0.035));
#646 = CARTESIAN_POINT('NONE', (0.01957721654110621, -0.0034183580036846284, 0.035));
#647 = CARTESIAN_POINT('NONE', (0.01962662322071804, -0.0033865183715533604, 0.035));
#648 = CARTESIAN_POINT('NONE', (0.019754859818262104, -0.0033038776006364076, 0.035));
#649 = CARTESIAN_POINT('NONE', (0.019802747962892768, -0.003269295882828088, 0.035));
#650 = CARTESIAN_POINT('NONE', (0.019927043154927205, -0.003179537941921907, 0.035));
#651 = CARTESIAN_POINT('NONE', (0.01997318841102746, -0.0031423268866899545, 0.035));
#652 = CARTESIAN_POINT('NONE', (0.0200929598808285, -0.003045744417447703, 0.035));
#653 = CARTESIAN_POINT('NONE', (0.020137149624405673, -0.0030060409117811638, 0.035));
#654 = CARTESIAN_POINT('NONE', (0.020251845499684163, -0.0029029892087067822, 0.035));
#655 = CARTESIAN_POINT('NONE', (0.020293882040140848, -0.002860952668250096, 0.035));
#656 = CARTESIAN_POINT('NONE', (0.020402989208706777, -0.0027518454996841614, 0.035));
#657 = CARTESIAN_POINT('NONE', (0.020442692714373316, -0.002707655756106991, 0.035));
#658 = CARTESIAN_POINT('NONE', (0.0205457444174477, -0.002592959880828501, 0.035));
#659 = CARTESIAN_POINT('NONE', (0.02058295547267965, -0.0025468146247282493, 0.035));
#660 = CARTESIAN_POINT('NONE', (0.020679537941921906, -0.0024270431549272063, 0.035));
#661 = CARTESIAN_POINT('NONE', (0.020714119659730225, -0.0023791550102965457, 0.035));
#662 = CARTESIAN_POINT('NONE', (0.020803877600636407, -0.0022548598182621058, 0.035));
#663 = CARTESIAN_POINT('NONE', (0.020835717232767673, -0.0022054531386502788, 0.035));
#664 = CARTESIAN_POINT('NONE', (0.020885580214554535, -0.0021280789920057074, 0.035));
#665 = CARTESIAN_POINT('NONE', (0.020918358003684627, -0.00207721654110621, 0.035));
#666 = CARTESIAN_POINT('NONE', (0.02094736801071631, -0.0020265240269853766, 0.035));
#667 = CARTESIAN_POINT('NONE', (0.0210226644003078, -0.0018949500053574147, 0.035));
#668 = CARTESIAN_POINT('NONE', (0.0210487829663242, -0.0018432092463867423, 0.035));
#669 = CARTESIAN_POINT('NONE', (0.0211165745294284, -0.001708914472140065, 0.035));
#670 = CARTESIAN_POINT('NONE', (0.02113976552779059, -0.0016563645169213937, 0.035));
#671 = CARTESIAN_POINT('NONE', (0.021199958496575022, -0.0015199694482529247, 0.035));
#672 = CARTESIAN_POINT('NONE', (0.021220210933854736, -0.0014668474981095931, 0.035));
#673 = CARTESIAN_POINT('NONE', (0.021272776774529132, -0.0013289677985465135, 0.035));
#674 = CARTESIAN_POINT('NONE', (0.021290103757683834, -0.0012755061114983375, 0.035));
#675 = CARTESIAN_POINT('NONE', (0.02133507648977028, -0.001136744614067402, 0.035));
#676 = CARTESIAN_POINT('NONE', (0.02134951377620799, -0.0010831676914491155, 0.035));
#677 = CARTESIAN_POINT('NONE', (0.021386986209188465, -0.0009441070964560613, 0.035));
#678 = CARTESIAN_POINT('NONE', (0.021398590409941978, -0.0008906292086258735, 0.035));
#679 = CARTESIAN_POINT('NONE', (0.021428709479540266, -0.0007518256615535421, 0.035));
#680 = CARTESIAN_POINT('NONE', (0.021437555992115276, -0.0006986487520065151, 0.035));
#681 = CARTESIAN_POINT('NONE', (0.021460517394939, -0.0005606264035751385, 0.035));
#682 = CARTESIAN_POINT('NONE', (0.021466698144612512, -0.0005079383936100299, 0.035));
#683 = CARTESIAN_POINT('NONE', (0.02148274047562181, -0.00037118499948640964, 0.035));
#684 = CARTESIAN_POINT('NONE', (0.021486361542410307, -0.00031915849933621983, 0.035));
#685 = CARTESIAN_POINT('NONE', (0.021495760135638697, -0.0001841220748323695, 0.035));
#686 = CARTESIAN_POINT('NONE', (0.021496939339397208, -0.00013291349263129653, 0.035));
#687 = CARTESIAN_POINT('NONE', (0.0215, 0, 0.035));
#688 = B_SPLINE_CURVE_WITH_KNOTS('NONE', 2, (#433, #434, #435, #436, #437, #438, #439, #440, #441, #442, #443, #444, #445, #446, #447, #448, #449, #450, #451, #452, #453, #454, #455, #456, #457, #458, #459, #460, #461, #462, #463, #464, #465, #466, #467, #468, #469, #470, #471, #472, #473, #474, #475, #476, #477, #478, #479, #480, #481, #482, #483, #484, #485, #486, #487, #488, #489, #490, #491, #492, #493, #494, #495, #496, #497, #498, #499, #500, #501, #502, #503, #504, #505, #506, #507, #508, #509, #510, #511, #512, #513, #514, #515, #516, #517, #518, #519, #520, #521, #522, #523, #524, #525, #526, #527, #528, #529, #530, #531, #532, #533, #534, #535, #536, #537, #538, #539, #540, #541, #542, #543, #544, #545, #546, #547, #548, #549, #550, #551, #552, #553, #554, #555, #556, #557, #558, #559, #560, #561, #562, #563, #564, #565, #566, #567, #568, #569, #570, #571, #572, #573, #574, #575, #576, #577, #578, #579, #580, #581, #582, #583, #584, #585, #586, #587, #588, #589, #590, #591, #592, #593, #594, #595, #596, #597, #598, #599, #600, #601, #602, #603, #604, #605, #606, #607, #608, #609, #610, #611, #612, #613, #614, #615, #616, #617, #618, #619, #620, #621, #622, #623, #624, #625, #626, #627, #628, #629, #630, #631, #632, #633, #634, #635, #636, #637, #638, #639, #640, #641, #642, #643, #644, #645, #646, #647, #648, #649, #650, #651, #652, #653, #654, #655, #656, #657, #658, #659, #660, #661, #662, #663, #664, #665, #666, #667, #668, #669, #670, #671, #672, #673, #674, #675, #676, #677, #678, #679, #680, #681, #682, #683, #684, #685, #686, #687), .UNSPECIFIED., .F., .F., (3, 1, 1, 1, 1, 1, 1, 1, 1, 1, 1, 1, 1, 1, 1, 1, 1, 1, 1, 1, 1, 1, 1, 1, 1, 1, 1, 1, 1, 1, 1, 1, 1, 1, 1, 1, 1, 1, 1, 1, 1, 1, 1, 1, 1, 1, 1, 1, 1, 1, 1, 1, 1, 1, 1, 1, 1, 1, 1, 1, 1, 1, 1, 1, 1, 1, 1, 1, 1, 1, 1, 1, 1, 1, 1, 1, 1, 1, 1, 1, 1, 1, 1, 1, 1, 1, 1, 1, 1, 1, 1, 1, 1, 1, 1, 1, 1, 1, 1, 1, 1, 1, 1, 1, 1, 1, 1, 1, 1, 1, 1, 1, 1, 1, 1, 1, 1, 1, 1, 1, 1, 1, 1, 1, 1, 1, 1, 1, 1, 1, 1, 1, 1, 1, 1, 1, 1, 1, 1, 1, 1, 1, 1, 1, 1, 1, 1, 1, 1, 1, 1, 1, 1, 1, 1, 1, 1, 1, 1, 1, 1, 1, 1, 1, 1, 1, 1, 1, 1, 1, 1, 1, 1, 1, 1, 1, 1, 1, 1, 1, 1, 1, 1, 1, 1, 1, 1, 1, 1, 1, 1, 1, 1, 1, 1, 1, 1, 1, 1, 1, 1, 1, 1, 1, 1, 1, 1, 1, 1, 1, 1, 1, 1, 1, 1, 1, 1, 1, 1, 1, 1, 1, 1, 1, 1, 1, 1, 1, 1, 1, 1, 1, 1, 1, 1, 1, 1, 1, 1, 1, 1, 1, 1, 1, 1, 1, 1, 1, 1, 1, 1, 1, 1, 3), (0, 0.003952569169960474, 0.007905138339920948, 0.011857707509881422, 0.015810276679841896, 0.01976284584980237, 0.023715415019762844, 0.02766798418972332, 0.03162055335968379, 0.035573122529644265, 0.03952569169960474, 0.043478260869565216, 0.04743083003952569, 0.05138339920948616, 0.05533596837944664, 0.05928853754940711, 0.06324110671936758, 0.06719367588932806, 0.07114624505928853, 0.07509881422924901, 0.07905138339920947, 0.08300395256916995, 0.08695652173913043, 0.0909090909090909, 0.09486166007905138, 0.09881422924901186, 0.10276679841897232, 0.1067193675889328, 0.11067193675889328, 0.11462450592885375, 0.11857707509881422, 0.12252964426877469, 0.12648221343873517, 0.13043478260869565, 0.13438735177865613, 0.13833992094861658, 0.14229249011857706, 0.14624505928853754, 0.15019762845849802, 0.1541501976284585, 0.15810276679841895, 0.16205533596837943, 0.1660079051383399, 0.16996047430830039, 0.17391304347826086, 0.17786561264822134, 0.1818181818181818, 0.18577075098814227, 0.18972332015810275, 0.19367588932806323, 0.1976284584980237, 0.20158102766798416, 0.20553359683794464, 0.20948616600790512, 0.2134387351778656, 0.21739130434782608, 0.22134387351778656, 0.225296442687747, 0.2292490118577075, 0.23320158102766797, 0.23715415019762845, 0.24110671936758893, 0.24505928853754938, 0.24901185770750986, 0.25296442687747034, 0.2569169960474308, 0.2608695652173913, 0.26482213438735175, 0.26877470355731226, 0.2727272727272727, 0.27667984189723316, 0.28063241106719367, 0.2845849802371541, 0.2885375494071146, 0.2924901185770751, 0.2964426877470355, 0.30039525691699603, 0.3043478260869565, 0.308300395256917, 0.31225296442687744, 0.3162055335968379, 0.3201581027667984, 0.32411067193675885, 0.32806324110671936, 0.3320158102766798, 0.3359683794466403, 0.33992094861660077, 0.3438735177865612, 0.34782608695652173, 0.3517786561264822, 0.3557312252964427, 0.35968379446640314, 0.3636363636363636, 0.3675889328063241, 0.37154150197628455, 0.37549407114624506, 0.3794466403162055, 0.38339920948616596, 0.38735177865612647, 0.3913043478260869, 0.3952569169960474, 0.3992094861660079, 0.40316205533596833, 0.40711462450592883, 0.4110671936758893, 0.4150197628458498, 0.41897233201581024, 0.4229249011857707, 0.4268774703557312, 0.43083003952569165, 0.43478260869565216, 0.4387351778656126, 0.4426877470355731, 0.44664031620553357, 0.450592885375494, 0.45454545454545453, 0.458498023715415, 0.4624505928853755, 0.46640316205533594, 0.4703557312252964, 0.4743083003952569, 0.47826086956521735, 0.48221343873517786, 0.4861660079051383, 0.49011857707509876, 0.49407114624505927, 0.4980237154150197, 0.5019762845849802, 0.5059288537549407, 0.5098814229249012, 0.5138339920948617, 0.5177865612648221, 0.5217391304347827, 0.5256916996047432, 0.5296442687747036, 0.5335968379446641, 0.5375494071146245, 0.541501976284585, 0.5454545454545454, 0.549407114624506, 0.5533596837944664, 0.5573122529644269, 0.5612648221343874, 0.5652173913043479, 0.5691699604743083, 0.5731225296442688, 0.5770750988142292, 0.5810276679841897, 0.5849802371541502, 0.5889328063241107, 0.5928853754940712, 0.5968379446640317, 0.6007905138339922, 0.6047430830039526, 0.6086956521739131, 0.6126482213438735, 0.616600790513834, 0.6205533596837944, 0.6245059288537549, 0.6284584980237155, 0.6324110671936759, 0.6363636363636365, 0.6403162055335969, 0.6442687747035574, 0.6482213438735178, 0.6521739130434783, 0.6561264822134387, 0.6600790513833992, 0.6640316205533596, 0.6679841897233202, 0.6719367588932806, 0.6758893280632412, 0.6798418972332017, 0.6837944664031621, 0.6877470355731226, 0.691699604743083, 0.6956521739130435, 0.6996047430830039, 0.7035573122529645, 0.7075098814229249, 0.7114624505928854, 0.7154150197628459, 0.7193675889328064, 0.7233201581027668, 0.7272727272727273, 0.7312252964426877, 0.7351778656126482, 0.7391304347826086, 0.7430830039525692, 0.7470355731225297, 0.7509881422924901, 0.7549407114624507, 0.7588932806324111, 0.7628458498023716, 0.766798418972332, 0.7707509881422925, 0.7747035573122529, 0.7786561264822134, 0.782608695652174, 0.7865612648221344, 0.7905138339920948, 0.7944664031620554, 0.7984189723320159, 0.8023715415019763, 0.8063241106719368, 0.8102766798418972, 0.8142292490118577, 0.8181818181818182, 0.8221343873517787, 0.8260869565217391, 0.8300395256916996, 0.8339920948616601, 0.8379446640316206, 0.841897233201581, 0.8458498023715415, 0.849802371541502, 0.8537549407114624, 0.857707509881423, 0.8616600790513834, 0.8656126482213439, 0.8695652173913043, 0.8735177865612649, 0.8774703557312253, 0.8814229249011858, 0.8853754940711462, 0.8893280632411067, 0.8932806324110671, 0.8972332015810277, 0.9011857707509882, 0.9051383399209486, 0.9090909090909091, 0.9130434782608696, 0.9169960474308301, 0.9209486166007905, 0.924901185770751, 0.9288537549407114, 0.9328063241106719, 0.9367588932806324, 0.9407114624505929, 0.9446640316205533, 0.9486166007905138, 0.9525691699604744, 0.9565217391304348, 0.9604743083003953, 0.9644268774703557, 0.9683794466403162, 0.9723320158102767, 0.9762845849802372, 0.9802371541501976, 0.9841897233201581, 0.9881422924901185, 0.9920948616600791, 0.9960474308300395, 1), .UNSPECIFIED.);
#689 = DIRECTION('NONE', (0, 0, 1));
#690 = VECTOR('NONE', #689, 1);
#691 = CARTESIAN_POINT('NONE', (0.0215, 0, 0.032999));
#692 = LINE('NONE', #691, #690);
#693 = DIRECTION('NONE', (1, 0.00000000000000031401849173675503, -0));
#694 = DIRECTION('NONE', (0, 0, 1));
#695 = CARTESIAN_POINT('NONE', (0.0175, -0.0000000000000000012560739669470202, 0.047));
#696 = AXIS2_PLACEMENT_3D('NONE', #695, #694, #693);
#697 = CIRCLE('NONE', #696, 0.004);
#698 = DIRECTION('NONE', (-1, 0.00000000000000031401849173675503, -0));
#699 = DIRECTION('NONE', (0, -0, -1));
#700 = CARTESIAN_POINT('NONE', (-0.0175, -0.0000000000000000012560739669470202, -0.032999));
#701 = AXIS2_PLACEMENT_3D('NONE', #700, #699, #698);
#702 = CIRCLE('NONE', #701, 0.004);
#703 = DIRECTION('NONE', (0, 0, -1));
#704 = VECTOR('NONE', #703, 1);
#705 = CARTESIAN_POINT('NONE', (-0.0215, 0, -0.032999));
#706 = LINE('NONE', #705, #704);
#707 = DIRECTION('NONE', (-1, 0.00000000000000031401849173675503, -0));
#708 = DIRECTION('NONE', (0, -0, -1));
#709 = CARTESIAN_POINT('NONE', (-0.0175, -0.0000000000000000012560739669470202, -0.047));
#710 = AXIS2_PLACEMENT_3D('NONE', #709, #708, #707);
#711 = CIRCLE('NONE', #710, 0.004);
#712 = DIRECTION('NONE', (-1, 0, -0));
#713 = DIRECTION('NONE', (0, -1, -0));
#714 = CARTESIAN_POINT('NONE', (0, -0, 0));
#715 = AXIS2_PLACEMENT_3D('NONE', #714, #713, #712);
#716 = CIRCLE('NONE', #715, 0.029);
#717 = DIRECTION('NONE', (0, -1, 0));
#718 = VECTOR('NONE', #717, 1);
#719 = CARTESIAN_POINT('NONE', (-0.029, 0, -0));
#720 = LINE('NONE', #719, #718);
#721 = DIRECTION('NONE', (-1, 0, -0));
#722 = DIRECTION('NONE', (0, -1, -0));
#723 = CARTESIAN_POINT('NONE', (0, -0.012, 0));
#724 = AXIS2_PLACEMENT_3D('NONE', #723, #722, #721);
#725 = CIRCLE('NONE', #724, 0.029);
#726 = DIRECTION('NONE', (-1, 0, -0));
#727 = DIRECTION('NONE', (0, -1, -0));
#728 = CARTESIAN_POINT('NONE', (0, -0.012, 0));
#729 = AXIS2_PLACEMENT_3D('NONE', #728, #727, #726);
#730 = CIRCLE('NONE', #729, 0.01);
#731 = DIRECTION('NONE', (0, -1, 0));
#732 = VECTOR('NONE', #731, 1);
#733 = CARTESIAN_POINT('NONE', (-0.01, -0.012, -0));
#734 = LINE('NONE', #733, #732);
#735 = DIRECTION('NONE', (-1, 0, -0));
#736 = DIRECTION('NONE', (0, -1, -0));
#737 = CARTESIAN_POINT('NONE', (0, -0.03, 0));
#738 = AXIS2_PLACEMENT_3D('NONE', #737, #736, #735);
#739 = CIRCLE('NONE', #738, 0.01);
#740 = DIRECTION('NONE', (1, -0.0000000000000003552713678800491, -0));
#741 = DIRECTION('NONE', (0, 0, 1));
#742 = CARTESIAN_POINT('NONE', (0.08999999999999998, 0.015000000000000001, -0.03900100000000001));
#743 = AXIS2_PLACEMENT_3D('NONE', #742, #741, #740);
#744 = CIRCLE('NONE', #743, 0.005000000000000014);
#745 = DIRECTION('NONE', (0, 0, 1));
#746 = VECTOR('NONE', #745, 1);
#747 = CARTESIAN_POINT('NONE', (0.095, 0.015, -0.03900100000000001));
#748 = LINE('NONE', #747, #746);
#749 = DIRECTION('NONE', (1, -0.0000000000000003552713678800491, -0));
#750 = DIRECTION('NONE', (0, 0, 1));
#751 = CARTESIAN_POINT('NONE', (0.08999999999999998, 0.015000000000000001, 0.035));
#752 = AXIS2_PLACEMENT_3D('NONE', #751, #750, #749);
#753 = CIRCLE('NONE', #752, 0.005000000000000014);
#754 = EDGE_CURVE('NONE', #6, #8, #124, .T.);
#755 = EDGE_CURVE('NONE', #8, #10, #129, .T.);
#756 = EDGE_CURVE('NONE', #10, #12, #133, .T.);
#757 = EDGE_CURVE('NONE', #12, #6, #138, .T.);
#758 = EDGE_CURVE('NONE', #14, #16, #142, .T.);
#759 = EDGE_CURVE('NONE', #16, #18, #147, .T.);
#760 = EDGE_CURVE('NONE', #18, #20, #151, .T.);
#761 = EDGE_CURVE('NONE', #20, #14, #156, .T.);
#762 = EDGE_CURVE('NONE', #14, #6, #160, .T.);
#763 = EDGE_CURVE('NONE', #8, #16, #164, .T.);
#764 = EDGE_CURVE('NONE', #22, #24, #168, .T.);
#765 = EDGE_CURVE('NONE', #24, #26, #173, .T.);
#766 = EDGE_CURVE('NONE', #26, #28, #177, .T.);
#767 = EDGE_CURVE('NONE', #28, #22, #182, .T.);
#768 = EDGE_CURVE('NONE', #28, #20, #186, .T.);
#769 = EDGE_CURVE('NONE', #18, #26, #190, .T.);
#770 = EDGE_CURVE('NONE', #30, #32, #194, .T.);
#771 = EDGE_CURVE('NONE', #32, #34, #199, .T.);
#772 = EDGE_CURVE('NONE', #34, #36, #203, .T.);
#773 = EDGE_CURVE('NONE', #36, #30, #208, .T.);
#774 = EDGE_CURVE('NONE', #12, #30, #212, .T.);
#775 = EDGE_CURVE('NONE', #32, #10, #216, .T.);
#776 = EDGE_CURVE('NONE', #36, #22, #220, .T.);
#777 = EDGE_CURVE('NONE', #24, #34, #224, .T.);
#778 = EDGE_CURVE('NONE', #38, #38, #229, .T.);
#779 = EDGE_CURVE('NONE', #38, #40, #233, .T.);
#780 = EDGE_CURVE('NONE', #40, #40, #238, .T.);
#781 = EDGE_CURVE('NONE', #42, #42, #243, .T.);
#782 = EDGE_CURVE('NONE', #42, #44, #247, .T.);
#783 = EDGE_CURVE('NONE', #44, #44, #252, .T.);
#784 = EDGE_CURVE('NONE', #46, #46, #257, .T.);
#785 = EDGE_CURVE('NONE', #46, #48, #261, .T.);
#786 = EDGE_CURVE('NONE', #48, #48, #266, .T.);
#787 = EDGE_CURVE('NONE', #50, #50, #271, .T.);
#788 = EDGE_CURVE('NONE', #50, #52, #275, .T.);
#789 = EDGE_CURVE('NONE', #52, #52, #280, .T.);
#790 = EDGE_CURVE('NONE', #54, #54, #285, .T.);
#791 = EDGE_CURVE('NONE', #54, #56, #289, .T.);
#792 = EDGE_CURVE('NONE', #56, #56, #294, .T.);
#793 = EDGE_CURVE('NONE', #58, #58, #299, .T.);
#794 = EDGE_CURVE('NONE', #58, #60, #303, .T.);
#795 = EDGE_CURVE('NONE', #60, #60, #308, .T.);
#796 = EDGE_CURVE('NONE', #62, #62, #313, .T.);
#797 = EDGE_CURVE('NONE', #62, #64, #317, .T.);
#798 = EDGE_CURVE('NONE', #64, #64, #322, .T.);
#799 = EDGE_CURVE('NONE', #66, #66, #327, .T.);
#800 = EDGE_CURVE('NONE', #66, #68, #331, .T.);
#801 = EDGE_CURVE('NONE', #68, #68, #336, .T.);
#802 = EDGE_CURVE('NONE', #70, #72, #340, .T.);
#803 = EDGE_CURVE('NONE', #72, #74, #344, .T.);
#804 = EDGE_CURVE('NONE', #76, #74, #348, .T.);
#805 = EDGE_CURVE('NONE', #70, #76, #352, .T.);
#806 = EDGE_CURVE('NONE', #72, #78, #356, .T.);
#807 = EDGE_CURVE('NONE', #78, #80, #360, .T.);
#808 = EDGE_CURVE('NONE', #74, #80, #364, .T.);
#809 = EDGE_CURVE('NONE', #78, #82, #368, .T.);
#810 = EDGE_CURVE('NONE', #82, #84, #372, .T.);
#811 = EDGE_CURVE('NONE', #80, #84, #376, .T.);
#812 = EDGE_CURVE('NONE', #82, #70, #380, .T.);
#813 = EDGE_CURVE('NONE', #84, #76, #384, .T.);
#814 = EDGE_CURVE('NONE', #86, #88, #388, .T.);
#815 = EDGE_CURVE('NONE', #88, #90, #392, .T.);
#816 = EDGE_CURVE('NONE', #92, #90, #396, .T.);
#817 = EDGE_CURVE('NONE', #86, #92, #400, .T.);
#818 = EDGE_CURVE('NONE', #88, #94, #404, .T.);
#819 = EDGE_CURVE('NONE', #94, #96, #408, .T.);
#820 = EDGE_CURVE('NONE', #90, #96, #412, .T.);
#821 = EDGE_CURVE('NONE', #94, #98, #416, .T.);
#822 = EDGE_CURVE('NONE', #98, #100, #420, .T.);
#823 = EDGE_CURVE('NONE', #96, #100, #424, .T.);
#824 = EDGE_CURVE('NONE', #98, #86, #428, .T.);
#825 = EDGE_CURVE('NONE', #100, #92, #432, .T.);
#826 = EDGE_CURVE('NONE', #104, #104, #688, .T.);
#827 = EDGE_CURVE('NONE', #104, #102, #692, .T.);
#828 = EDGE_CURVE('NONE', #102, #102, #697, .T.);
#829 = EDGE_CURVE('NONE', #106, #106, #702, .T.);
#830 = EDGE_CURVE('NONE', #106, #108, #706, .T.);
#831 = EDGE_CURVE('NONE', #108, #108, #711, .T.);
#832 = EDGE_CURVE('NONE', #110, #110, #716, .T.);
#833 = EDGE_CURVE('NONE', #110, #112, #720, .T.);
#834 = EDGE_CURVE('NONE', #112, #112, #725, .T.);
#835 = EDGE_CURVE('NONE', #114, #114, #730, .T.);
#836 = EDGE_CURVE('NONE', #114, #116, #734, .T.);
#837 = EDGE_CURVE('NONE', #116, #116, #739, .T.);
#838 = EDGE_CURVE('NONE', #118, #118, #744, .T.);
#839 = EDGE_CURVE('NONE', #118, #120, #748, .T.);
#840 = EDGE_CURVE('NONE', #120, #120, #753, .T.);
#841 = CARTESIAN_POINT('NONE', (0, 0.075, 0.035));
#842 = DIRECTION('NONE', (0, 0, 1));
#843 = AXIS2_PLACEMENT_3D('NONE', #841, #842, $);
#844 = PLANE('NONE', #843);
#845 = CARTESIAN_POINT('NONE', (0.03, 0.075, -0));
#846 = DIRECTION('NONE', (1, 0, 0));
#847 = AXIS2_PLACEMENT_3D('NONE', #845, #846, $);
#848 = PLANE('NONE', #847);
#849 = CARTESIAN_POINT('NONE', (0, 0.075, -0.035));
#850 = DIRECTION('NONE', (0, -0, -1));
#851 = AXIS2_PLACEMENT_3D('NONE', #849, #850, $);
#852 = PLANE('NONE', #851);
#853 = CARTESIAN_POINT('NONE', (-0.03, 0.075, -0));
#854 = DIRECTION('NONE', (-1, 0, 0));
#855 = AXIS2_PLACEMENT_3D('NONE', #853, #854, $);
#856 = PLANE('NONE', #855);
#857 = CARTESIAN_POINT('NONE', (0, 0, -0));
#858 = DIRECTION('NONE', (0, 1, 0));
#859 = AXIS2_PLACEMENT_3D('NONE', #857, #858, $);
#860 = PLANE('NONE', #859);
#861 = CARTESIAN_POINT('NONE', (0, 0.15, -0));
#862 = DIRECTION('NONE', (0, 1, 0));
#863 = AXIS2_PLACEMENT_3D('NONE', #861, #862, $);
#864 = PLANE('NONE', #863);
#865 = CARTESIAN_POINT('NONE', (0.024000000000000004, 0.075, 0.02900000000000001));
#866 = DIRECTION('NONE', (0, 1, -0));
#867 = DIRECTION('NONE', (-0.0000000000000005921189464667508, 0, 1));
#868 = AXIS2_PLACEMENT_3D('NONE', #865, #866, #867);
#869 = CYLINDRICAL_SURFACE('NONE', #868, 0.005999999999999993);
#870 = CARTESIAN_POINT('NONE', (-0.024000000000000004, 0.075, 0.02900000000000001));
#871 = DIRECTION('NONE', (0, -1, 0));
#872 = DIRECTION('NONE', (0.0000000000000005921189464667508, 0, 1));
#873 = AXIS2_PLACEMENT_3D('NONE', #870, #871, #872);
#874 = CYLINDRICAL_SURFACE('NONE', #873, 0.005999999999999993);
#875 = CARTESIAN_POINT('NONE', (-0.024000000000000004, 0.075, -0.02900000000000001));
#876 = DIRECTION('NONE', (0, 1, 0));
#877 = DIRECTION('NONE', (0.0000000000000005921189464667508, 0, -1));
#878 = AXIS2_PLACEMENT_3D('NONE', #875, #876, #877);
#879 = CYLINDRICAL_SURFACE('NONE', #878, 0.005999999999999993);
#880 = CARTESIAN_POINT('NONE', (0.024, 0.075, -0.029));
#881 = DIRECTION('NONE', (0, 1, 0));
#882 = DIRECTION('NONE', (1, 0, -0));
#883 = AXIS2_PLACEMENT_3D('NONE', #880, #881, #882);
#884 = CYLINDRICAL_SURFACE('NONE', #883, 0.006);
#885 = CARTESIAN_POINT('NONE', (0, 0.155, 0));
#886 = DIRECTION('NONE', (0, 1, 0));
#887 = DIRECTION('NONE', (1, 0, -0));
#888 = AXIS2_PLACEMENT_3D('NONE', #885, #886, #887);
#889 = CYLINDRICAL_SURFACE('NONE', #888, 0.025);
#890 = CARTESIAN_POINT('NONE', (0, 0.16, -0));
#891 = DIRECTION('NONE', (0, 1, 0));
#892 = AXIS2_PLACEMENT_3D('NONE', #890, #891, $);
#893 = PLANE('NONE', #892);
#894 = CARTESIAN_POINT('NONE', (0, 0.1725, 0));
#895 = DIRECTION('NONE', (0, 1, 0));
#896 = DIRECTION('NONE', (1, 0, -0));
#897 = AXIS2_PLACEMENT_3D('NONE', #894, #895, #896);
#898 = CYLINDRICAL_SURFACE('NONE', #897, 0.006);
#899 = CARTESIAN_POINT('NONE', (0, 0.185, -0));
#900 = DIRECTION('NONE', (0, 1, 0));
#901 = AXIS2_PLACEMENT_3D('NONE', #899, #900, $);
#902 = PLANE('NONE', #901);
#903 = CARTESIAN_POINT('NONE', (0.019, 0.1509995, 0));
#904 = DIRECTION('NONE', (0, 1, 0));
#905 = DIRECTION('NONE', (1, 0, -0));
#906 = AXIS2_PLACEMENT_3D('NONE', #903, #904, #905);
#907 = CYLINDRICAL_SURFACE('NONE', #906, 0.00275);
#908 = CARTESIAN_POINT('NONE', (0, 0.141999, -0));
#909 = DIRECTION('NONE', (0, 1, 0));
#910 = AXIS2_PLACEMENT_3D('NONE', #908, #909, $);
#911 = PLANE('NONE', #910);
#912 = CARTESIAN_POINT('NONE', (0.009500000000000003, 0.15099950000000004, -0.016454482671904334));
#913 = DIRECTION('NONE', (0.000000000000000692324917217156, 0.9999999999999999, -0.000000000000011534308997567495));
#914 = DIRECTION('NONE', (0.4999999999999993, -0.000000000000010335167065601456, -0.8660254037844389));
#915 = AXIS2_PLACEMENT_3D('NONE', #912, #913, #914);
#916 = CYLINDRICAL_SURFACE('NONE', #915, 0.0027500000000000003);
#917 = CARTESIAN_POINT('NONE', (0, 0.141999, -0));
#918 = DIRECTION('NONE', (0, 1, 0));
#919 = AXIS2_PLACEMENT_3D('NONE', #917, #918, $);
#920 = PLANE('NONE', #919);
#921 = CARTESIAN_POINT('NONE', (-0.009499999999999996, 0.1509995, -0.01645448267190434));
#922 = DIRECTION('NONE', (0, 1, 0));
#923 = DIRECTION('NONE', (-0.5000000000000004, 0, -0.8660254037844385));
#924 = AXIS2_PLACEMENT_3D('NONE', #921, #922, #923);
#925 = CYLINDRICAL_SURFACE('NONE', #924, 0.0027499999999999977);
#926 = CARTESIAN_POINT('NONE', (0, 0.141999, -0));
#927 = DIRECTION('NONE', (0, 1, 0));
#928 = AXIS2_PLACEMENT_3D('NONE', #926, #927, $);
#929 = PLANE('NONE', #928);
#930 = CARTESIAN_POINT('NONE', (-0.019, 0.1509995, -0.000000000000000003552713678800501));
#931 = DIRECTION('NONE', (0, 1, -0));
#932 = DIRECTION('NONE', (-1, 0, 0.00000000000000032331159660182105));
#933 = AXIS2_PLACEMENT_3D('NONE', #930, #931, #932);
#934 = CYLINDRICAL_SURFACE('NONE', #933, 0.00275);
#935 = CARTESIAN_POINT('NONE', (0, 0.141999, -0));
#936 = DIRECTION('NONE', (0, 1, 0));
#937 = AXIS2_PLACEMENT_3D('NONE', #935, #936, $);
#938 = PLANE('NONE', #937);
#939 = CARTESIAN_POINT('NONE', (-0.00950000000000001, 0.15099950000000004, 0.01645448267190433));
#940 = DIRECTION('NONE', (-0.0000000000000006923249172171725, 1, 0.000000000000011534308997567506));
#941 = DIRECTION('NONE', (-0.5000000000000004, -0.000000000000010335167065601465, 0.8660254037844385));
#942 = AXIS2_PLACEMENT_3D('NONE', #939, #940, #941);
#943 = CYLINDRICAL_SURFACE('NONE', #942, 0.0027499999999999977);
#944 = CARTESIAN_POINT('NONE', (0, 0.141999, -0));
#945 = DIRECTION('NONE', (0, 1, 0));
#946 = AXIS2_PLACEMENT_3D('NONE', #944, #945, $);
#947 = PLANE('NONE', #946);
#948 = CARTESIAN_POINT('NONE', (0.009500000000000001, 0.15099950000000004, 0.016454482671904337));
#949 = DIRECTION('NONE', (0.0000000000000006923249172171599, 1, 0.000000000000011534308997567512));
#950 = DIRECTION('NONE', (0.5000000000000004, -0.000000000000010335167065601465, 0.8660254037844385));
#951 = AXIS2_PLACEMENT_3D('NONE', #948, #949, #950);
#952 = CYLINDRICAL_SURFACE('NONE', #951, 0.0027499999999999977);
#953 = CARTESIAN_POINT('NONE', (0, 0.141999, -0));
#954 = DIRECTION('NONE', (0, 1, 0));
#955 = AXIS2_PLACEMENT_3D('NONE', #953, #954, $);
#956 = PLANE('NONE', #955);
#957 = CARTESIAN_POINT('NONE', (0.0175, -0.011, 0.041));
#958 = DIRECTION('NONE', (0, -1, 0));
#959 = AXIS2_PLACEMENT_3D('NONE', #957, #958, $);
#960 = PLANE('NONE', #959);
#961 = CARTESIAN_POINT('NONE', (0.035, 0, 0.041));
#962 = DIRECTION('NONE', (1, -0, 0));
#963 = AXIS2_PLACEMENT_3D('NONE', #961, #962, $);
#964 = PLANE('NONE', #963);
#965 = CARTESIAN_POINT('NONE', (0.0175, 0.011, 0.041));
#966 = DIRECTION('NONE', (0, 1, -0));
#967 = AXIS2_PLACEMENT_3D('NONE', #965, #966, $);
#968 = PLANE('NONE', #967);
#969 = CARTESIAN_POINT('NONE', (0, 0, 0.041));
#970 = DIRECTION('NONE', (-1, -0, 0));
#971 = AXIS2_PLACEMENT_3D('NONE', #969, #970, $);
#972 = PLANE('NONE', #971);
#973 = CARTESIAN_POINT('NONE', (0, 0, 0.035));
#974 = DIRECTION('NONE', (0, 0, 1));
#975 = AXIS2_PLACEMENT_3D('NONE', #973, #974, $);
#976 = PLANE('NONE', #975);
#977 = CARTESIAN_POINT('NONE', (0, 0, 0.047));
#978 = DIRECTION('NONE', (0, 0, 1));
#979 = AXIS2_PLACEMENT_3D('NONE', #977, #978, $);
#980 = PLANE('NONE', #979);
#981 = CARTESIAN_POINT('NONE', (-0.0175, -0.011, -0.041));
#982 = DIRECTION('NONE', (0, -1, -0));
#983 = AXIS2_PLACEMENT_3D('NONE', #981, #982, $);
#984 = PLANE('NONE', #983);
#985 = CARTESIAN_POINT('NONE', (-0.035, 0, -0.041));
#986 = DIRECTION('NONE', (-1, 0, 0));
#987 = AXIS2_PLACEMENT_3D('NONE', #985, #986, $);
#988 = PLANE('NONE', #987);
#989 = CARTESIAN_POINT('NONE', (-0.0175, 0.011, -0.041));
#990 = DIRECTION('NONE', (0, 1, 0));
#991 = AXIS2_PLACEMENT_3D('NONE', #989, #990, $);
#992 = PLANE('NONE', #991);
#993 = CARTESIAN_POINT('NONE', (0, 0, -0.041));
#994 = DIRECTION('NONE', (1, 0, 0));
#995 = AXIS2_PLACEMENT_3D('NONE', #993, #994, $);
#996 = PLANE('NONE', #995);
#997 = CARTESIAN_POINT('NONE', (0, 0, -0.035));
#998 = DIRECTION('NONE', (0, -0, -1));
#999 = AXIS2_PLACEMENT_3D('NONE', #997, #998, $);
#1000 = PLANE('NONE', #999);
#1001 = CARTESIAN_POINT('NONE', (0, 0, -0.047));
#1002 = DIRECTION('NONE', (0, -0, -1));
#1003 = AXIS2_PLACEMENT_3D('NONE', #1001, #1002, $);
#1004 = PLANE('NONE', #1003);
#1005 = CARTESIAN_POINT('NONE', (0.0175, -0.0000000000000000012560739669470202, 0.0399995));
#1006 = DIRECTION('NONE', (0, 0, 1));
#1007 = DIRECTION('NONE', (1, 0.00000000000000031401849173675503, -0));
#1008 = AXIS2_PLACEMENT_3D('NONE', #1005, #1006, #1007);
#1009 = CYLINDRICAL_SURFACE('NONE', #1008, 0.004);
#1010 = CARTESIAN_POINT('NONE', (-0.0175, -0.0000000000000000012560739669470202, -0.0399995));
#1011 = DIRECTION('NONE', (0, -0, -1));
#1012 = DIRECTION('NONE', (-1, 0.00000000000000031401849173675503, -0));
#1013 = AXIS2_PLACEMENT_3D('NONE', #1010, #1011, #1012);
#1014 = CYLINDRICAL_SURFACE('NONE', #1013, 0.004);
#1015 = CARTESIAN_POINT('NONE', (0, 0, -0.032999));
#1016 = DIRECTION('NONE', (0, -0, -1));
#1017 = AXIS2_PLACEMENT_3D('NONE', #1015, #1016, $);
#1018 = PLANE('NONE', #1017);
#1019 = CARTESIAN_POINT('NONE', (0, -0.006, 0));
#1020 = DIRECTION('NONE', (0, -1, -0));
#1021 = DIRECTION('NONE', (-1, 0, -0));
#1022 = AXIS2_PLACEMENT_3D('NONE', #1019, #1020, #1021);
#1023 = CYLINDRICAL_SURFACE('NONE', #1022, 0.029);
#1024 = CARTESIAN_POINT('NONE', (0, -0.012, -0));
#1025 = DIRECTION('NONE', (0, -1, -0));
#1026 = AXIS2_PLACEMENT_3D('NONE', #1024, #1025, $);
#1027 = PLANE('NONE', #1026);
#1028 = CARTESIAN_POINT('NONE', (0, -0.021, 0));
#1029 = DIRECTION('NONE', (0, -1, -0));
#1030 = DIRECTION('NONE', (-1, 0, -0));
#1031 = AXIS2_PLACEMENT_3D('NONE', #1028, #1029, #1030);
#1032 = CYLINDRICAL_SURFACE('NONE', #1031, 0.01);
#1033 = CARTESIAN_POINT('NONE', (0, -0.03, -0));
#1034 = DIRECTION('NONE', (0, -1, -0));
#1035 = AXIS2_PLACEMENT_3D('NONE', #1033, #1034, $);
#1036 = PLANE('NONE', #1035);
#1037 = CARTESIAN_POINT('NONE', (0.08999999999999998, 0.015000000000000001, -0.0020005000000000023));
#1038 = DIRECTION('NONE', (0, 0, 1));
#1039 = DIRECTION('NONE', (1, -0.0000000000000003552713678800491, -0));
#1040 = AXIS2_PLACEMENT_3D('NONE', #1037, #1038, #1039);
#1041 = CYLINDRICAL_SURFACE('NONE', #1040, 0.005000000000000014);
#1042 = CARTESIAN_POINT('NONE', (0, 0, -0.03900100000000001));
#1043 = DIRECTION('NONE', (0, 0, 1));
#1044 = AXIS2_PLACEMENT_3D('NONE', #1042, #1043, $);
#1045 = PLANE('NONE', #1044);
#1046 = CARTESIAN_POINT('NONE', (0, 0, 0.035));
#1047 = DIRECTION('NONE', (0, 0, 1));
#1048 = AXIS2_PLACEMENT_3D('NONE', #1046, #1047, $);
#1049 = PLANE('NONE', #1048);
#1050 = ORIENTED_EDGE('NONE', *, *, #762, .T.);
#1051 = ORIENTED_EDGE('NONE', *, *, #754, .T.);
#1052 = ORIENTED_EDGE('NONE', *, *, #763, .T.);
#1053 = ORIENTED_EDGE('NONE', *, *, #758, .F.);
#1054 = EDGE_LOOP('NONE', (#1050, #1051, #1052, #1053));
#1055 = FACE_BOUND('NONE', #1054, .T.);
#1056 = ADVANCED_FACE('NONE', (#1055), #844, .T.);
#1057 = ORIENTED_EDGE('NONE', *, *, #774, .T.);
#1058 = ORIENTED_EDGE('NONE', *, *, #770, .T.);
#1059 = ORIENTED_EDGE('NONE', *, *, #775, .T.);
#1060 = ORIENTED_EDGE('NONE', *, *, #756, .T.);
#1061 = EDGE_LOOP('NONE', (#1057, #1058, #1059, #1060));
#1062 = FACE_BOUND('NONE', #1061, .T.);
#1063 = ADVANCED_FACE('NONE', (#1062), #848, .T.);
#1064 = ORIENTED_EDGE('NONE', *, *, #776, .T.);
#1065 = ORIENTED_EDGE('NONE', *, *, #764, .T.);
#1066 = ORIENTED_EDGE('NONE', *, *, #777, .T.);
#1067 = ORIENTED_EDGE('NONE', *, *, #772, .T.);
#1068 = EDGE_LOOP('NONE', (#1064, #1065, #1066, #1067));
#1069 = FACE_BOUND('NONE', #1068, .T.);
#1070 = ADVANCED_FACE('NONE', (#1069), #852, .T.);
#1071 = ORIENTED_EDGE('NONE', *, *, #768, .T.);
#1072 = ORIENTED_EDGE('NONE', *, *, #760, .F.);
#1073 = ORIENTED_EDGE('NONE', *, *, #769, .T.);
#1074 = ORIENTED_EDGE('NONE', *, *, #766, .T.);
#1075 = EDGE_LOOP('NONE', (#1071, #1072, #1073, #1074));
#1076 = FACE_BOUND('NONE', #1075, .T.);
#1077 = ADVANCED_FACE('NONE', (#1076), #856, .T.);
#1078 = ORIENTED_EDGE('NONE', *, *, #768, .F.);
#1079 = ORIENTED_EDGE('NONE', *, *, #767, .T.);
#1080 = ORIENTED_EDGE('NONE', *, *, #776, .F.);
#1081 = ORIENTED_EDGE('NONE', *, *, #773, .T.);
#1082 = ORIENTED_EDGE('NONE', *, *, #774, .F.);
#1083 = ORIENTED_EDGE('NONE', *, *, #757, .T.);
#1084 = ORIENTED_EDGE('NONE', *, *, #762, .F.);
#1085 = ORIENTED_EDGE('NONE', *, *, #761, .F.);
#1086 = ORIENTED_EDGE('NONE', *, *, #832, .F.);
#1087 = EDGE_LOOP('NONE', (#1078, #1079, #1080, #1081, #1082, #1083, #1084, #1085));
#1088 = FACE_BOUND('NONE', #1087, .T.);
#1089 = EDGE_LOOP('NONE', (#1086));
#1090 = FACE_BOUND('NONE', #1089, .T.);
#1091 = ADVANCED_FACE('NONE', (#1088, #1090), #860, .F.);
#1092 = ORIENTED_EDGE('NONE', *, *, #759, .F.);
#1093 = ORIENTED_EDGE('NONE', *, *, #763, .F.);
#1094 = ORIENTED_EDGE('NONE', *, *, #755, .T.);
#1095 = ORIENTED_EDGE('NONE', *, *, #775, .F.);
#1096 = ORIENTED_EDGE('NONE', *, *, #771, .T.);
#1097 = ORIENTED_EDGE('NONE', *, *, #777, .F.);
#1098 = ORIENTED_EDGE('NONE', *, *, #765, .T.);
#1099 = ORIENTED_EDGE('NONE', *, *, #769, .F.);
#1100 = ORIENTED_EDGE('NONE', *, *, #778, .F.);
#1101 = EDGE_LOOP('NONE', (#1092, #1093, #1094, #1095, #1096, #1097, #1098, #1099));
#1102 = FACE_BOUND('NONE', #1101, .T.);
#1103 = EDGE_LOOP('NONE', (#1100));
#1104 = FACE_BOUND('NONE', #1103, .T.);
#1105 = ADVANCED_FACE('NONE', (#1102, #1104), #864, .T.);
#1106 = ORIENTED_EDGE('NONE', *, *, #757, .F.);
#1107 = ORIENTED_EDGE('NONE', *, *, #756, .F.);
#1108 = ORIENTED_EDGE('NONE', *, *, #755, .F.);
#1109 = ORIENTED_EDGE('NONE', *, *, #754, .F.);
#1110 = EDGE_LOOP('NONE', (#1106, #1107, #1108, #1109));
#1111 = FACE_BOUND('NONE', #1110, .T.);
#1112 = ADVANCED_FACE('NONE', (#1111), #869, .T.);
#1113 = ORIENTED_EDGE('NONE', *, *, #758, .T.);
#1114 = ORIENTED_EDGE('NONE', *, *, #759, .T.);
#1115 = ORIENTED_EDGE('NONE', *, *, #760, .T.);
#1116 = ORIENTED_EDGE('NONE', *, *, #761, .T.);
#1117 = EDGE_LOOP('NONE', (#1113, #1114, #1115, #1116));
#1118 = FACE_BOUND('NONE', #1117, .T.);
#1119 = ADVANCED_FACE('NONE', (#1118), #874, .T.);
#1120 = ORIENTED_EDGE('NONE', *, *, #767, .F.);
#1121 = ORIENTED_EDGE('NONE', *, *, #766, .F.);
#1122 = ORIENTED_EDGE('NONE', *, *, #765, .F.);
#1123 = ORIENTED_EDGE('NONE', *, *, #764, .F.);
#1124 = EDGE_LOOP('NONE', (#1120, #1121, #1122, #1123));
#1125 = FACE_BOUND('NONE', #1124, .T.);
#1126 = ADVANCED_FACE('NONE', (#1125), #879, .T.);
#1127 = ORIENTED_EDGE('NONE', *, *, #773, .F.);
#1128 = ORIENTED_EDGE('NONE', *, *, #772, .F.);
#1129 = ORIENTED_EDGE('NONE', *, *, #771, .F.);
#1130 = ORIENTED_EDGE('NONE', *, *, #770, .F.);
#1131 = EDGE_LOOP('NONE', (#1127, #1128, #1129, #1130));
#1132 = FACE_BOUND('NONE', #1131, .T.);
#1133 = ADVANCED_FACE('NONE', (#1132), #884, .T.);
#1134 = ORIENTED_EDGE('NONE', *, *, #778, .T.);
#1135 = ORIENTED_EDGE('NONE', *, *, #780, .F.);
#1136 = EDGE_LOOP('NONE', (#1134));
#1137 = FACE_BOUND('NONE', #1136, .T.);
#1138 = EDGE_LOOP('NONE', (#1135));
#1139 = FACE_BOUND('NONE', #1138, .T.);
#1140 = ADVANCED_FACE('NONE', (#1137, #1139), #889, .T.);
#1141 = ORIENTED_EDGE('NONE', *, *, #780, .T.);
#1142 = ORIENTED_EDGE('NONE', *, *, #781, .F.);
#1143 = ORIENTED_EDGE('NONE', *, *, #786, .F.);
#1144 = ORIENTED_EDGE('NONE', *, *, #789, .F.);
#1145 = ORIENTED_EDGE('NONE', *, *, #792, .F.);
#1146 = ORIENTED_EDGE('NONE', *, *, #795, .F.);
#1147 = ORIENTED_EDGE('NONE', *, *, #798, .F.);
#1148 = ORIENTED_EDGE('NONE', *, *, #801, .F.);
#1149 = EDGE_LOOP('NONE', (#1141));
#1150 = FACE_BOUND('NONE', #1149, .T.);
#1151 = EDGE_LOOP('NONE', (#1142));
#1152 = FACE_BOUND('NONE', #1151, .T.);
#1153 = EDGE_LOOP('NONE', (#1143));
#1154 = FACE_BOUND('NONE', #1153, .T.);
#1155 = EDGE_LOOP('NONE', (#1144));
#1156 = FACE_BOUND('NONE', #1155, .T.);
#1157 = EDGE_LOOP('NONE', (#1145));
#1158 = FACE_BOUND('NONE', #1157, .T.);
#1159 = EDGE_LOOP('NONE', (#1146));
#1160 = FACE_BOUND('NONE', #1159, .T.);
#1161 = EDGE_LOOP('NONE', (#1147));
#1162 = FACE_BOUND('NONE', #1161, .T.);
#1163 = EDGE_LOOP('NONE', (#1148));
#1164 = FACE_BOUND('NONE', #1163, .T.);
#1165 = ADVANCED_FACE('NONE', (#1150, #1152, #1154, #1156, #1158, #1160, #1162, #1164), #893, .T.);
#1166 = ORIENTED_EDGE('NONE', *, *, #781, .T.);
#1167 = ORIENTED_EDGE('NONE', *, *, #783, .F.);
#1168 = EDGE_LOOP('NONE', (#1166));
#1169 = FACE_BOUND('NONE', #1168, .T.);
#1170 = EDGE_LOOP('NONE', (#1167));
#1171 = FACE_BOUND('NONE', #1170, .T.);
#1172 = ADVANCED_FACE('NONE', (#1169, #1171), #898, .T.);
#1173 = ORIENTED_EDGE('NONE', *, *, #783, .T.);
#1174 = EDGE_LOOP('NONE', (#1173));
#1175 = FACE_BOUND('NONE', #1174, .T.);
#1176 = ADVANCED_FACE('NONE', (#1175), #902, .T.);
#1177 = ORIENTED_EDGE('NONE', *, *, #784, .F.);
#1178 = ORIENTED_EDGE('NONE', *, *, #786, .T.);
#1179 = EDGE_LOOP('NONE', (#1177));
#1180 = FACE_BOUND('NONE', #1179, .T.);
#1181 = EDGE_LOOP('NONE', (#1178));
#1182 = FACE_BOUND('NONE', #1181, .T.);
#1183 = ADVANCED_FACE('NONE', (#1180, #1182), #907, .F.);
#1184 = ORIENTED_EDGE('NONE', *, *, #784, .T.);
#1185 = EDGE_LOOP('NONE', (#1184));
#1186 = FACE_BOUND('NONE', #1185, .T.);
#1187 = ADVANCED_FACE('NONE', (#1186), #911, .T.);
#1188 = ORIENTED_EDGE('NONE', *, *, #787, .F.);
#1189 = ORIENTED_EDGE('NONE', *, *, #789, .T.);
#1190 = EDGE_LOOP('NONE', (#1188));
#1191 = FACE_BOUND('NONE', #1190, .T.);
#1192 = EDGE_LOOP('NONE', (#1189));
#1193 = FACE_BOUND('NONE', #1192, .T.);
#1194 = ADVANCED_FACE('NONE', (#1191, #1193), #916, .F.);
#1195 = ORIENTED_EDGE('NONE', *, *, #787, .T.);
#1196 = EDGE_LOOP('NONE', (#1195));
#1197 = FACE_BOUND('NONE', #1196, .T.);
#1198 = ADVANCED_FACE('NONE', (#1197), #920, .T.);
#1199 = ORIENTED_EDGE('NONE', *, *, #790, .F.);
#1200 = ORIENTED_EDGE('NONE', *, *, #792, .T.);
#1201 = EDGE_LOOP('NONE', (#1199));
#1202 = FACE_BOUND('NONE', #1201, .T.);
#1203 = EDGE_LOOP('NONE', (#1200));
#1204 = FACE_BOUND('NONE', #1203, .T.);
#1205 = ADVANCED_FACE('NONE', (#1202, #1204), #925, .F.);
#1206 = ORIENTED_EDGE('NONE', *, *, #790, .T.);
#1207 = EDGE_LOOP('NONE', (#1206));
#1208 = FACE_BOUND('NONE', #1207, .T.);
#1209 = ADVANCED_FACE('NONE', (#1208), #929, .T.);
#1210 = ORIENTED_EDGE('NONE', *, *, #793, .F.);
#1211 = ORIENTED_EDGE('NONE', *, *, #795, .T.);
#1212 = EDGE_LOOP('NONE', (#1210));
#1213 = FACE_BOUND('NONE', #1212, .T.);
#1214 = EDGE_LOOP('NONE', (#1211));
#1215 = FACE_BOUND('NONE', #1214, .T.);
#1216 = ADVANCED_FACE('NONE', (#1213, #1215), #934, .F.);
#1217 = ORIENTED_EDGE('NONE', *, *, #793, .T.);
#1218 = EDGE_LOOP('NONE', (#1217));
#1219 = FACE_BOUND('NONE', #1218, .T.);
#1220 = ADVANCED_FACE('NONE', (#1219), #938, .T.);
#1221 = ORIENTED_EDGE('NONE', *, *, #796, .F.);
#1222 = ORIENTED_EDGE('NONE', *, *, #798, .T.);
#1223 = EDGE_LOOP('NONE', (#1221));
#1224 = FACE_BOUND('NONE', #1223, .T.);
#1225 = EDGE_LOOP('NONE', (#1222));
#1226 = FACE_BOUND('NONE', #1225, .T.);
#1227 = ADVANCED_FACE('NONE', (#1224, #1226), #943, .F.);
#1228 = ORIENTED_EDGE('NONE', *, *, #796, .T.);
#1229 = EDGE_LOOP('NONE', (#1228));
#1230 = FACE_BOUND('NONE', #1229, .T.);
#1231 = ADVANCED_FACE('NONE', (#1230), #947, .T.);
#1232 = ORIENTED_EDGE('NONE', *, *, #799, .F.);
#1233 = ORIENTED_EDGE('NONE', *, *, #801, .T.);
#1234 = EDGE_LOOP('NONE', (#1232));
#1235 = FACE_BOUND('NONE', #1234, .T.);
#1236 = EDGE_LOOP('NONE', (#1233));
#1237 = FACE_BOUND('NONE', #1236, .T.);
#1238 = ADVANCED_FACE('NONE', (#1235, #1237), #952, .F.);
#1239 = ORIENTED_EDGE('NONE', *, *, #799, .T.);
#1240 = EDGE_LOOP('NONE', (#1239));
#1241 = FACE_BOUND('NONE', #1240, .T.);
#1242 = ADVANCED_FACE('NONE', (#1241), #956, .T.);
#1243 = ORIENTED_EDGE('NONE', *, *, #802, .T.);
#1244 = ORIENTED_EDGE('NONE', *, *, #803, .T.);
#1245 = ORIENTED_EDGE('NONE', *, *, #804, .F.);
#1246 = ORIENTED_EDGE('NONE', *, *, #805, .F.);
#1247 = EDGE_LOOP('NONE', (#1243, #1244, #1245, #1246));
#1248 = FACE_BOUND('NONE', #1247, .T.);
#1249 = ADVANCED_FACE('NONE', (#1248), #960, .T.);
#1250 = ORIENTED_EDGE('NONE', *, *, #806, .T.);
#1251 = ORIENTED_EDGE('NONE', *, *, #807, .T.);
#1252 = ORIENTED_EDGE('NONE', *, *, #808, .F.);
#1253 = ORIENTED_EDGE('NONE', *, *, #803, .F.);
#1254 = EDGE_LOOP('NONE', (#1250, #1251, #1252, #1253));
#1255 = FACE_BOUND('NONE', #1254, .T.);
#1256 = ADVANCED_FACE('NONE', (#1255), #964, .T.);
#1257 = ORIENTED_EDGE('NONE', *, *, #809, .T.);
#1258 = ORIENTED_EDGE('NONE', *, *, #810, .T.);
#1259 = ORIENTED_EDGE('NONE', *, *, #811, .F.);
#1260 = ORIENTED_EDGE('NONE', *, *, #807, .F.);
#1261 = EDGE_LOOP('NONE', (#1257, #1258, #1259, #1260));
#1262 = FACE_BOUND('NONE', #1261, .T.);
#1263 = ADVANCED_FACE('NONE', (#1262), #968, .T.);
#1264 = ORIENTED_EDGE('NONE', *, *, #812, .T.);
#1265 = ORIENTED_EDGE('NONE', *, *, #805, .T.);
#1266 = ORIENTED_EDGE('NONE', *, *, #813, .F.);
#1267 = ORIENTED_EDGE('NONE', *, *, #810, .F.);
#1268 = EDGE_LOOP('NONE', (#1264, #1265, #1266, #1267));
#1269 = FACE_BOUND('NONE', #1268, .T.);
#1270 = ADVANCED_FACE('NONE', (#1269), #972, .T.);
#1271 = ORIENTED_EDGE('NONE', *, *, #812, .F.);
#1272 = ORIENTED_EDGE('NONE', *, *, #809, .F.);
#1273 = ORIENTED_EDGE('NONE', *, *, #806, .F.);
#1274 = ORIENTED_EDGE('NONE', *, *, #802, .F.);
#1275 = ORIENTED_EDGE('NONE', *, *, #826, .T.);
#1276 = EDGE_LOOP('NONE', (#1271, #1272, #1273, #1274));
#1277 = FACE_BOUND('NONE', #1276, .T.);
#1278 = EDGE_LOOP('NONE', (#1275));
#1279 = FACE_BOUND('NONE', #1278, .T.);
#1280 = ADVANCED_FACE('NONE', (#1277, #1279), #976, .F.);
#1281 = ORIENTED_EDGE('NONE', *, *, #804, .T.);
#1282 = ORIENTED_EDGE('NONE', *, *, #808, .T.);
#1283 = ORIENTED_EDGE('NONE', *, *, #811, .T.);
#1284 = ORIENTED_EDGE('NONE', *, *, #813, .T.);
#1285 = ORIENTED_EDGE('NONE', *, *, #828, .F.);
#1286 = EDGE_LOOP('NONE', (#1281, #1282, #1283, #1284));
#1287 = FACE_BOUND('NONE', #1286, .T.);
#1288 = EDGE_LOOP('NONE', (#1285));
#1289 = FACE_BOUND('NONE', #1288, .T.);
#1290 = ADVANCED_FACE('NONE', (#1287, #1289), #980, .T.);
#1291 = ORIENTED_EDGE('NONE', *, *, #814, .T.);
#1292 = ORIENTED_EDGE('NONE', *, *, #815, .T.);
#1293 = ORIENTED_EDGE('NONE', *, *, #816, .F.);
#1294 = ORIENTED_EDGE('NONE', *, *, #817, .F.);
#1295 = EDGE_LOOP('NONE', (#1291, #1292, #1293, #1294));
#1296 = FACE_BOUND('NONE', #1295, .T.);
#1297 = ADVANCED_FACE('NONE', (#1296), #984, .T.);
#1298 = ORIENTED_EDGE('NONE', *, *, #818, .T.);
#1299 = ORIENTED_EDGE('NONE', *, *, #819, .T.);
#1300 = ORIENTED_EDGE('NONE', *, *, #820, .F.);
#1301 = ORIENTED_EDGE('NONE', *, *, #815, .F.);
#1302 = EDGE_LOOP('NONE', (#1298, #1299, #1300, #1301));
#1303 = FACE_BOUND('NONE', #1302, .T.);
#1304 = ADVANCED_FACE('NONE', (#1303), #988, .T.);
#1305 = ORIENTED_EDGE('NONE', *, *, #821, .T.);
#1306 = ORIENTED_EDGE('NONE', *, *, #822, .T.);
#1307 = ORIENTED_EDGE('NONE', *, *, #823, .F.);
#1308 = ORIENTED_EDGE('NONE', *, *, #819, .F.);
#1309 = EDGE_LOOP('NONE', (#1305, #1306, #1307, #1308));
#1310 = FACE_BOUND('NONE', #1309, .T.);
#1311 = ADVANCED_FACE('NONE', (#1310), #992, .T.);
#1312 = ORIENTED_EDGE('NONE', *, *, #824, .T.);
#1313 = ORIENTED_EDGE('NONE', *, *, #817, .T.);
#1314 = ORIENTED_EDGE('NONE', *, *, #825, .F.);
#1315 = ORIENTED_EDGE('NONE', *, *, #822, .F.);
#1316 = EDGE_LOOP('NONE', (#1312, #1313, #1314, #1315));
#1317 = FACE_BOUND('NONE', #1316, .T.);
#1318 = ADVANCED_FACE('NONE', (#1317), #996, .T.);
#1319 = ORIENTED_EDGE('NONE', *, *, #824, .F.);
#1320 = ORIENTED_EDGE('NONE', *, *, #821, .F.);
#1321 = ORIENTED_EDGE('NONE', *, *, #818, .F.);
#1322 = ORIENTED_EDGE('NONE', *, *, #814, .F.);
#1323 = EDGE_LOOP('NONE', (#1319, #1320, #1321, #1322));
#1324 = FACE_BOUND('NONE', #1323, .T.);
#1325 = ADVANCED_FACE('NONE', (#1324), #1000, .F.);
#1326 = ORIENTED_EDGE('NONE', *, *, #816, .T.);
#1327 = ORIENTED_EDGE('NONE', *, *, #820, .T.);
#1328 = ORIENTED_EDGE('NONE', *, *, #823, .T.);
#1329 = ORIENTED_EDGE('NONE', *, *, #825, .T.);
#1330 = ORIENTED_EDGE('NONE', *, *, #831, .F.);
#1331 = EDGE_LOOP('NONE', (#1326, #1327, #1328, #1329));
#1332 = FACE_BOUND('NONE', #1331, .T.);
#1333 = EDGE_LOOP('NONE', (#1330));
#1334 = FACE_BOUND('NONE', #1333, .T.);
#1335 = ADVANCED_FACE('NONE', (#1332, #1334), #1004, .T.);
#1336 = ORIENTED_EDGE('NONE', *, *, #826, .F.);
#1337 = ORIENTED_EDGE('NONE', *, *, #828, .T.);
#1338 = EDGE_LOOP('NONE', (#1336));
#1339 = FACE_BOUND('NONE', #1338, .T.);
#1340 = EDGE_LOOP('NONE', (#1337));
#1341 = FACE_BOUND('NONE', #1340, .T.);
#1342 = ADVANCED_FACE('NONE', (#1339, #1341), #1009, .F.);
#1343 = ORIENTED_EDGE('NONE', *, *, #829, .F.);
#1344 = ORIENTED_EDGE('NONE', *, *, #831, .T.);
#1345 = EDGE_LOOP('NONE', (#1343));
#1346 = FACE_BOUND('NONE', #1345, .T.);
#1347 = EDGE_LOOP('NONE', (#1344));
#1348 = FACE_BOUND('NONE', #1347, .T.);
#1349 = ADVANCED_FACE('NONE', (#1346, #1348), #1014, .F.);
#1350 = ORIENTED_EDGE('NONE', *, *, #829, .T.);
#1351 = EDGE_LOOP('NONE', (#1350));
#1352 = FACE_BOUND('NONE', #1351, .T.);
#1353 = ADVANCED_FACE('NONE', (#1352), #1018, .T.);
#1354 = ORIENTED_EDGE('NONE', *, *, #832, .T.);
#1355 = ORIENTED_EDGE('NONE', *, *, #834, .F.);
#1356 = EDGE_LOOP('NONE', (#1354));
#1357 = FACE_BOUND('NONE', #1356, .T.);
#1358 = EDGE_LOOP('NONE', (#1355));
#1359 = FACE_BOUND('NONE', #1358, .T.);
#1360 = ADVANCED_FACE('NONE', (#1357, #1359), #1023, .T.);
#1361 = ORIENTED_EDGE('NONE', *, *, #834, .T.);
#1362 = ORIENTED_EDGE('NONE', *, *, #835, .F.);
#1363 = EDGE_LOOP('NONE', (#1361));
#1364 = FACE_BOUND('NONE', #1363, .T.);
#1365 = EDGE_LOOP('NONE', (#1362));
#1366 = FACE_BOUND('NONE', #1365, .T.);
#1367 = ADVANCED_FACE('NONE', (#1364, #1366), #1027, .T.);
#1368 = ORIENTED_EDGE('NONE', *, *, #835, .T.);
#1369 = ORIENTED_EDGE('NONE', *, *, #837, .F.);
#1370 = EDGE_LOOP('NONE', (#1368));
#1371 = FACE_BOUND('NONE', #1370, .T.);
#1372 = EDGE_LOOP('NONE', (#1369));
#1373 = FACE_BOUND('NONE', #1372, .T.);
#1374 = ADVANCED_FACE('NONE', (#1371, #1373), #1032, .T.);
#1375 = ORIENTED_EDGE('NONE', *, *, #837, .T.);
#1376 = EDGE_LOOP('NONE', (#1375));
#1377 = FACE_BOUND('NONE', #1376, .T.);
#1378 = ADVANCED_FACE('NONE', (#1377), #1036, .T.);
#1379 = ORIENTED_EDGE('NONE', *, *, #838, .T.);
#1380 = ORIENTED_EDGE('NONE', *, *, #840, .F.);
#1381 = EDGE_LOOP('NONE', (#1379));
#1382 = FACE_BOUND('NONE', #1381, .T.);
#1383 = EDGE_LOOP('NONE', (#1380));
#1384 = FACE_BOUND('NONE', #1383, .T.);
#1385 = ADVANCED_FACE('NONE', (#1382, #1384), #1041, .T.);
#1386 = ORIENTED_EDGE('NONE', *, *, #838, .F.);
#1387 = EDGE_LOOP('NONE', (#1386));
#1388 = FACE_BOUND('NONE', #1387, .T.);
#1389 = ADVANCED_FACE('NONE', (#1388), #1045, .F.);
#1390 = ORIENTED_EDGE('NONE', *, *, #840, .T.);
#1391 = EDGE_LOOP('NONE', (#1390));
#1392 = FACE_BOUND('NONE', #1391, .T.);
#1393 = ADVANCED_FACE('NONE', (#1392), #1049, .T.);
#1394 = CLOSED_SHELL('NONE', (#1056, #1063, #1070, #1077, #1091, #1105, #1112, #1119, #1126, #1133, #1140, #1165, #1172, #1176, #1183, #1187, #1194, #1198, #1205, #1209, #1216, #1220, #1227, #1231, #1238, #1242, #1249, #1256, #1263, #1270, #1280, #1290, #1297, #1304, #1311, #1318, #1325, #1335, #1342, #1349, #1353, #1360, #1367, #1374, #1378, #1385, #1389, #1393));
#1395 = MANIFOLD_SOLID_BREP('NONE', #1394);
#1396 = APPLICATION_CONTEXT('configuration controlled 3D design of mechanical parts and assemblies');
#1397 = PRODUCT_DEFINITION_CONTEXT('part definition', #1396, 'design');
#1398 = PRODUCT('UNIDENTIFIED_PRODUCT', 'NONE', $, ());
#1399 = PRODUCT_DEFINITION_FORMATION('', $, #1398);
#1400 = PRODUCT_DEFINITION('design', $, #1399, #1397);
#1401 = PRODUCT_DEFINITION_SHAPE('NONE', $, #1400);
#1402 = ADVANCED_BREP_SHAPE_REPRESENTATION('NONE', (#1395), #4);
#1403 = SHAPE_DEFINITION_REPRESENTATION(#1401, #1402);
#1404 = COLOUR_RGB('NONE', 0.250980406999588, 0.27450981736183167, 0.29411765933036804);
#1405 = FILL_AREA_STYLE_COLOUR('NONE', #1404);
#1406 = FILL_AREA_STYLE('NONE', (#1405));
#1407 = SURFACE_STYLE_FILL_AREA(#1406);
#1408 = SURFACE_SIDE_STYLE('NONE', (#1407));
#1409 = SURFACE_STYLE_USAGE(.BOTH., #1408);
#1410 = PRESENTATION_STYLE_ASSIGNMENT((#1409));
#1411 = STYLED_ITEM('NONE', (#1410), #1395);
#1412 = MECHANICAL_DESIGN_GEOMETRIC_PRESENTATION_REPRESENTATION('NONE', (#1411), #4);
ENDSEC;
END-ISO-10303-21;
