ISO-10303-21;
HEADER;
FILE_DESCRIPTION(('Zoo Text-to-CAD'),'1');
FILE_NAME('dump.step', '2025-11-20T06:46:02.137791004+00:00', ('Author unknown'), ('Organization unknown'), 'zoo.dev beta', 'zoo.dev', 'Authorization unknown');
FILE_SCHEMA(('AP203_CONFIGURATION_CONTROLLED_3D_DESIGN_OF_MECHANICAL_PARTS_AND_ASSEMBLIES_MIM_LF'));
ENDSEC;
DATA;
#1 = (
  LENGTH_UNIT()
  NAMED_UNIT(*)
  SI_UNIT($, .METRE.)
);
#2 = (
  NAMED_UNIT(*)
  PLANE_ANGLE_UNIT()
  SI_UNIT($, .RADIAN.)
);
#3 = UNCERTAINTY_MEASURE_WITH_UNIT(LENGTH_MEASURE(0.00001), #1, 'DISTANCE_ACCURACY_VALUE', $);
#4 = (
  GEOMETRIC_REPRESENTATION_CONTEXT(3)
  GLOBAL_UNCERTAINTY_ASSIGNED_CONTEXT((#3))
  GLOBAL_UNIT_ASSIGNED_CONTEXT((#1, #2))
  REPRESENTATION_CONTEXT('', '3D')
);
#5 = CARTESIAN_POINT('NONE', (0.01096965511460289, 0, -0));
#6 = VERTEX_POINT('NONE', #5);
#7 = CARTESIAN_POINT('NONE', (0.0054848275573014475, 0, -0.009500000000000001));
#8 = VERTEX_POINT('NONE', #7);
#9 = CARTESIAN_POINT('NONE', (0.0054848275573014475, 0.01, -0.009500000000000001));
#10 = VERTEX_POINT('NONE', #9);
#11 = CARTESIAN_POINT('NONE', (0.01096965511460289, 0.01, -0));
#12 = VERTEX_POINT('NONE', #11);
#13 = CARTESIAN_POINT('NONE', (-0.005484827557301442, 0, -0.009500000000000003));
#14 = VERTEX_POINT('NONE', #13);
#15 = CARTESIAN_POINT('NONE', (-0.005484827557301442, 0.01, -0.009500000000000003));
#16 = VERTEX_POINT('NONE', #15);
#17 = CARTESIAN_POINT('NONE', (-0.010969655114602891, 0, -0.0000000000000000053290705182007515));
#18 = VERTEX_POINT('NONE', #17);
#19 = CARTESIAN_POINT('NONE', (-0.010969655114602891, 0.01, -0.0000000000000000053290705182007515));
#20 = VERTEX_POINT('NONE', #19);
#21 = CARTESIAN_POINT('NONE', (-0.005484827557301446, 0, 0.009499999999999995));
#22 = VERTEX_POINT('NONE', #21);
#23 = CARTESIAN_POINT('NONE', (-0.005484827557301446, 0.01, 0.009499999999999995));
#24 = VERTEX_POINT('NONE', #23);
#25 = CARTESIAN_POINT('NONE', (0.005484827557301444, 0, 0.009499999999999995));
#26 = VERTEX_POINT('NONE', #25);
#27 = CARTESIAN_POINT('NONE', (0.005484827557301444, 0.01, 0.009499999999999995));
#28 = VERTEX_POINT('NONE', #27);
#29 = CARTESIAN_POINT('NONE', (0.006, 0, 0.0000000000000000014695761589768237));
#30 = VERTEX_POINT('NONE', #29);
#31 = CARTESIAN_POINT('NONE', (0.006, 0.01, 0.0000000000000000014695761589768237));
#32 = VERTEX_POINT('NONE', #31);
#33 = DIRECTION('NONE', (-0.4999999999999998, 0, -0.8660254037844388));
#34 = VECTOR('NONE', #33, 1);
#35 = CARTESIAN_POINT('NONE', (0.01096965511460289, 0, -0));
#36 = LINE('NONE', #35, #34);
#37 = DIRECTION('NONE', (0, 1, 0));
#38 = VECTOR('NONE', #37, 1);
#39 = CARTESIAN_POINT('NONE', (0.0054848275573014475, 0, -0.009500000000000001));
#40 = LINE('NONE', #39, #38);
#41 = DIRECTION('NONE', (-0.4999999999999998, 0, -0.8660254037844388));
#42 = VECTOR('NONE', #41, 1);
#43 = CARTESIAN_POINT('NONE', (0.01096965511460289, 0.01, -0));
#44 = LINE('NONE', #43, #42);
#45 = DIRECTION('NONE', (0, 1, 0));
#46 = VECTOR('NONE', #45, 1);
#47 = CARTESIAN_POINT('NONE', (0.01096965511460289, 0, -0));
#48 = LINE('NONE', #47, #46);
#49 = DIRECTION('NONE', (-1, 0, -0.00000000000000015813837881443782));
#50 = VECTOR('NONE', #49, 1);
#51 = CARTESIAN_POINT('NONE', (0.0054848275573014475, 0, -0.009500000000000001));
#52 = LINE('NONE', #51, #50);
#53 = DIRECTION('NONE', (0, 1, 0));
#54 = VECTOR('NONE', #53, 1);
#55 = CARTESIAN_POINT('NONE', (-0.005484827557301442, 0, -0.009500000000000003));
#56 = LINE('NONE', #55, #54);
#57 = DIRECTION('NONE', (-1, 0, -0.00000000000000015813837881443782));
#58 = VECTOR('NONE', #57, 1);
#59 = CARTESIAN_POINT('NONE', (0.0054848275573014475, 0.01, -0.009500000000000001));
#60 = LINE('NONE', #59, #58);
#61 = DIRECTION('NONE', (-0.5000000000000004, 0, 0.8660254037844385));
#62 = VECTOR('NONE', #61, 1);
#63 = CARTESIAN_POINT('NONE', (-0.005484827557301442, 0, -0.009500000000000003));
#64 = LINE('NONE', #63, #62);
#65 = DIRECTION('NONE', (0, 1, 0));
#66 = VECTOR('NONE', #65, 1);
#67 = CARTESIAN_POINT('NONE', (-0.010969655114602891, 0, -0.0000000000000000053290705182007515));
#68 = LINE('NONE', #67, #66);
#69 = DIRECTION('NONE', (-0.5000000000000004, 0, 0.8660254037844385));
#70 = VECTOR('NONE', #69, 1);
#71 = CARTESIAN_POINT('NONE', (-0.005484827557301442, 0.01, -0.009500000000000003));
#72 = LINE('NONE', #71, #70);
#73 = DIRECTION('NONE', (0.5000000000000001, 0, 0.8660254037844386));
#74 = VECTOR('NONE', #73, 1);
#75 = CARTESIAN_POINT('NONE', (-0.010969655114602891, 0, -0.0000000000000000053290705182007515));
#76 = LINE('NONE', #75, #74);
#77 = DIRECTION('NONE', (0, 1, 0));
#78 = VECTOR('NONE', #77, 1);
#79 = CARTESIAN_POINT('NONE', (-0.005484827557301446, 0, 0.009499999999999995));
#80 = LINE('NONE', #79, #78);
#81 = DIRECTION('NONE', (0.5000000000000001, 0, 0.8660254037844386));
#82 = VECTOR('NONE', #81, 1);
#83 = CARTESIAN_POINT('NONE', (-0.010969655114602891, 0.01, -0.0000000000000000053290705182007515));
#84 = LINE('NONE', #83, #82);
#85 = DIRECTION('NONE', (1, 0, 0));
#86 = VECTOR('NONE', #85, 1);
#87 = CARTESIAN_POINT('NONE', (-0.005484827557301446, 0, 0.009499999999999995));
#88 = LINE('NONE', #87, #86);
#89 = DIRECTION('NONE', (0, 1, 0));
#90 = VECTOR('NONE', #89, 1);
#91 = CARTESIAN_POINT('NONE', (0.005484827557301444, 0, 0.009499999999999995));
#92 = LINE('NONE', #91, #90);
#93 = DIRECTION('NONE', (1, 0, 0));
#94 = VECTOR('NONE', #93, 1);
#95 = CARTESIAN_POINT('NONE', (-0.005484827557301446, 0.01, 0.009499999999999995));
#96 = LINE('NONE', #95, #94);
#97 = DIRECTION('NONE', (0.5000000000000003, 0, -0.8660254037844385));
#98 = VECTOR('NONE', #97, 1);
#99 = CARTESIAN_POINT('NONE', (0.005484827557301444, 0, 0.009499999999999995));
#100 = LINE('NONE', #99, #98);
#101 = DIRECTION('NONE', (0.5000000000000003, 0, -0.8660254037844385));
#102 = VECTOR('NONE', #101, 1);
#103 = CARTESIAN_POINT('NONE', (0.005484827557301444, 0.01, 0.009499999999999995));
#104 = LINE('NONE', #103, #102);
#105 = DIRECTION('NONE', (1, 0, 0.00000000000000024492935982947064));
#106 = DIRECTION('NONE', (0, -1, 0));
#107 = CARTESIAN_POINT('NONE', (0, -0, -0));
#108 = AXIS2_PLACEMENT_3D('NONE', #107, #106, #105);
#109 = CIRCLE('NONE', #108, 0.006);
#110 = DIRECTION('NONE', (0, 1, 0));
#111 = VECTOR('NONE', #110, 1);
#112 = CARTESIAN_POINT('NONE', (0.006, 0, 0.0000000000000000014695761589768237));
#113 = LINE('NONE', #112, #111);
#114 = DIRECTION('NONE', (1, 0, 0.00000000000000024492935982947064));
#115 = DIRECTION('NONE', (0, -1, 0));
#116 = CARTESIAN_POINT('NONE', (0, 0.01, -0));
#117 = AXIS2_PLACEMENT_3D('NONE', #116, #115, #114);
#118 = CIRCLE('NONE', #117, 0.006);
#119 = EDGE_CURVE('NONE', #6, #8, #36, .T.);
#120 = EDGE_CURVE('NONE', #8, #10, #40, .T.);
#121 = EDGE_CURVE('NONE', #12, #10, #44, .T.);
#122 = EDGE_CURVE('NONE', #6, #12, #48, .T.);
#123 = EDGE_CURVE('NONE', #8, #14, #52, .T.);
#124 = EDGE_CURVE('NONE', #14, #16, #56, .T.);
#125 = EDGE_CURVE('NONE', #10, #16, #60, .T.);
#126 = EDGE_CURVE('NONE', #14, #18, #64, .T.);
#127 = EDGE_CURVE('NONE', #18, #20, #68, .T.);
#128 = EDGE_CURVE('NONE', #16, #20, #72, .T.);
#129 = EDGE_CURVE('NONE', #18, #22, #76, .T.);
#130 = EDGE_CURVE('NONE', #22, #24, #80, .T.);
#131 = EDGE_CURVE('NONE', #20, #24, #84, .T.);
#132 = EDGE_CURVE('NONE', #22, #26, #88, .T.);
#133 = EDGE_CURVE('NONE', #26, #28, #92, .T.);
#134 = EDGE_CURVE('NONE', #24, #28, #96, .T.);
#135 = EDGE_CURVE('NONE', #26, #6, #100, .T.);
#136 = EDGE_CURVE('NONE', #28, #12, #104, .T.);
#137 = EDGE_CURVE('NONE', #30, #30, #109, .T.);
#138 = EDGE_CURVE('NONE', #30, #32, #113, .T.);
#139 = EDGE_CURVE('NONE', #32, #32, #118, .T.);
#140 = CARTESIAN_POINT('NONE', (0.008227241335952169, 0.005, -0.004750000000000001));
#141 = DIRECTION('NONE', (0.8660254037844387, -0, -0.4999999999999998));
#142 = AXIS2_PLACEMENT_3D('NONE', #140, #141, $);
#143 = PLANE('NONE', #142);
#144 = CARTESIAN_POINT('NONE', (0.0000000000000000013322676295501879, 0.005, -0.009500000000000001));
#145 = DIRECTION('NONE', (0, -0, -1));
#146 = AXIS2_PLACEMENT_3D('NONE', #144, #145, $);
#147 = PLANE('NONE', #146);
#148 = CARTESIAN_POINT('NONE', (-0.008227241335952167, 0.005, -0.004750000000000005));
#149 = DIRECTION('NONE', (-0.8660254037844385, 0, -0.5000000000000004));
#150 = AXIS2_PLACEMENT_3D('NONE', #148, #149, $);
#151 = PLANE('NONE', #150);
#152 = CARTESIAN_POINT('NONE', (-0.008227241335952167, 0.005, 0.004749999999999998));
#153 = DIRECTION('NONE', (-0.8660254037844386, 0, 0.5));
#154 = AXIS2_PLACEMENT_3D('NONE', #152, #153, $);
#155 = PLANE('NONE', #154);
#156 = CARTESIAN_POINT('NONE', (-0.0000000000000000008881784197001253, 0.005, 0.009499999999999995));
#157 = DIRECTION('NONE', (0, 0, 1));
#158 = AXIS2_PLACEMENT_3D('NONE', #156, #157, $);
#159 = PLANE('NONE', #158);
#160 = CARTESIAN_POINT('NONE', (0.008227241335952169, 0.005, 0.004749999999999997));
#161 = DIRECTION('NONE', (0.8660254037844386, 0, 0.5000000000000002));
#162 = AXIS2_PLACEMENT_3D('NONE', #160, #161, $);
#163 = PLANE('NONE', #162);
#164 = CARTESIAN_POINT('NONE', (0, 0.005, -0));
#165 = DIRECTION('NONE', (0, -1, 0));
#166 = DIRECTION('NONE', (1, 0, 0.00000000000000024492935982947064));
#167 = AXIS2_PLACEMENT_3D('NONE', #164, #165, #166);
#168 = CYLINDRICAL_SURFACE('NONE', #167, 0.006);
#169 = CARTESIAN_POINT('NONE', (0, 0, -0));
#170 = DIRECTION('NONE', (0, 1, 0));
#171 = AXIS2_PLACEMENT_3D('NONE', #169, #170, $);
#172 = PLANE('NONE', #171);
#173 = CARTESIAN_POINT('NONE', (0, 0.01, -0));
#174 = DIRECTION('NONE', (0, 1, 0));
#175 = AXIS2_PLACEMENT_3D('NONE', #173, #174, $);
#176 = PLANE('NONE', #175);
#177 = ORIENTED_EDGE('NONE', *, *, #119, .T.);
#178 = ORIENTED_EDGE('NONE', *, *, #120, .T.);
#179 = ORIENTED_EDGE('NONE', *, *, #121, .F.);
#180 = ORIENTED_EDGE('NONE', *, *, #122, .F.);
#181 = EDGE_LOOP('NONE', (#177, #178, #179, #180));
#182 = FACE_BOUND('NONE', #181, .T.);
#183 = ADVANCED_FACE('NONE', (#182), #143, .T.);
#184 = ORIENTED_EDGE('NONE', *, *, #123, .T.);
#185 = ORIENTED_EDGE('NONE', *, *, #124, .T.);
#186 = ORIENTED_EDGE('NONE', *, *, #125, .F.);
#187 = ORIENTED_EDGE('NONE', *, *, #120, .F.);
#188 = EDGE_LOOP('NONE', (#184, #185, #186, #187));
#189 = FACE_BOUND('NONE', #188, .T.);
#190 = ADVANCED_FACE('NONE', (#189), #147, .T.);
#191 = ORIENTED_EDGE('NONE', *, *, #126, .T.);
#192 = ORIENTED_EDGE('NONE', *, *, #127, .T.);
#193 = ORIENTED_EDGE('NONE', *, *, #128, .F.);
#194 = ORIENTED_EDGE('NONE', *, *, #124, .F.);
#195 = EDGE_LOOP('NONE', (#191, #192, #193, #194));
#196 = FACE_BOUND('NONE', #195, .T.);
#197 = ADVANCED_FACE('NONE', (#196), #151, .T.);
#198 = ORIENTED_EDGE('NONE', *, *, #129, .T.);
#199 = ORIENTED_EDGE('NONE', *, *, #130, .T.);
#200 = ORIENTED_EDGE('NONE', *, *, #131, .F.);
#201 = ORIENTED_EDGE('NONE', *, *, #127, .F.);
#202 = EDGE_LOOP('NONE', (#198, #199, #200, #201));
#203 = FACE_BOUND('NONE', #202, .T.);
#204 = ADVANCED_FACE('NONE', (#203), #155, .T.);
#205 = ORIENTED_EDGE('NONE', *, *, #132, .T.);
#206 = ORIENTED_EDGE('NONE', *, *, #133, .T.);
#207 = ORIENTED_EDGE('NONE', *, *, #134, .F.);
#208 = ORIENTED_EDGE('NONE', *, *, #130, .F.);
#209 = EDGE_LOOP('NONE', (#205, #206, #207, #208));
#210 = FACE_BOUND('NONE', #209, .T.);
#211 = ADVANCED_FACE('NONE', (#210), #159, .T.);
#212 = ORIENTED_EDGE('NONE', *, *, #135, .T.);
#213 = ORIENTED_EDGE('NONE', *, *, #122, .T.);
#214 = ORIENTED_EDGE('NONE', *, *, #136, .F.);
#215 = ORIENTED_EDGE('NONE', *, *, #133, .F.);
#216 = EDGE_LOOP('NONE', (#212, #213, #214, #215));
#217 = FACE_BOUND('NONE', #216, .T.);
#218 = ADVANCED_FACE('NONE', (#217), #163, .T.);
#219 = ORIENTED_EDGE('NONE', *, *, #137, .T.);
#220 = ORIENTED_EDGE('NONE', *, *, #139, .F.);
#221 = EDGE_LOOP('NONE', (#219));
#222 = FACE_BOUND('NONE', #221, .T.);
#223 = EDGE_LOOP('NONE', (#220));
#224 = FACE_BOUND('NONE', #223, .T.);
#225 = ADVANCED_FACE('NONE', (#222, #224), #168, .F.);
#226 = ORIENTED_EDGE('NONE', *, *, #135, .F.);
#227 = ORIENTED_EDGE('NONE', *, *, #132, .F.);
#228 = ORIENTED_EDGE('NONE', *, *, #129, .F.);
#229 = ORIENTED_EDGE('NONE', *, *, #126, .F.);
#230 = ORIENTED_EDGE('NONE', *, *, #123, .F.);
#231 = ORIENTED_EDGE('NONE', *, *, #119, .F.);
#232 = ORIENTED_EDGE('NONE', *, *, #137, .F.);
#233 = EDGE_LOOP('NONE', (#226, #227, #228, #229, #230, #231));
#234 = FACE_BOUND('NONE', #233, .T.);
#235 = EDGE_LOOP('NONE', (#232));
#236 = FACE_BOUND('NONE', #235, .T.);
#237 = ADVANCED_FACE('NONE', (#234, #236), #172, .F.);
#238 = ORIENTED_EDGE('NONE', *, *, #121, .T.);
#239 = ORIENTED_EDGE('NONE', *, *, #125, .T.);
#240 = ORIENTED_EDGE('NONE', *, *, #128, .T.);
#241 = ORIENTED_EDGE('NONE', *, *, #131, .T.);
#242 = ORIENTED_EDGE('NONE', *, *, #134, .T.);
#243 = ORIENTED_EDGE('NONE', *, *, #136, .T.);
#244 = ORIENTED_EDGE('NONE', *, *, #139, .T.);
#245 = EDGE_LOOP('NONE', (#238, #239, #240, #241, #242, #243));
#246 = FACE_BOUND('NONE', #245, .T.);
#247 = EDGE_LOOP('NONE', (#244));
#248 = FACE_BOUND('NONE', #247, .T.);
#249 = ADVANCED_FACE('NONE', (#246, #248), #176, .T.);
#250 = CLOSED_SHELL('NONE', (#183, #190, #197, #204, #211, #218, #225, #237, #249));
#251 = MANIFOLD_SOLID_BREP('NONE', #250);
#252 = APPLICATION_CONTEXT('configuration controlled 3D design of mechanical parts and assemblies');
#253 = PRODUCT_DEFINITION_CONTEXT('part definition', #252, 'design');
#254 = PRODUCT('UNIDENTIFIED_PRODUCT', 'NONE', $, ());
#255 = PRODUCT_DEFINITION_FORMATION('', $, #254);
#256 = PRODUCT_DEFINITION('design', $, #255, #253);
#257 = PRODUCT_DEFINITION_SHAPE('NONE', $, #256);
#258 = ADVANCED_BREP_SHAPE_REPRESENTATION('NONE', (#251), #4);
#259 = SHAPE_DEFINITION_REPRESENTATION(#257, #258);
#260 = COLOUR_RGB('NONE', 0.8999999761581421, 0.8999999761581421, 0.8999999761581421);
#261 = FILL_AREA_STYLE_COLOUR('NONE', #260);
#262 = FILL_AREA_STYLE('NONE', (#261));
#263 = SURFACE_STYLE_FILL_AREA(#262);
#264 = SURFACE_SIDE_STYLE('NONE', (#263));
#265 = SURFACE_STYLE_USAGE(.BOTH., #264);
#266 = PRESENTATION_STYLE_ASSIGNMENT((#265));
#267 = STYLED_ITEM('NONE', (#266), #251);
#268 = MECHANICAL_DESIGN_GEOMETRIC_PRESENTATION_REPRESENTATION('NONE', (#267), #4);
ENDSEC;
END-ISO-10303-21;
