ISO-10303-21;
HEADER;
FILE_DESCRIPTION(('Zoo Text-to-CAD'),'1');
FILE_NAME('dump.step', '2025-11-20T06:49:54.777620564+00:00', ('Author unknown'), ('Organization unknown'), 'zoo.dev beta', 'zoo.dev', 'Authorization unknown');
FILE_SCHEMA(('AP203_CONFIGURATION_CONTROLLED_3D_DESIGN_OF_MECHANICAL_PARTS_AND_ASSEMBLIES_MIM_LF'));
ENDSEC;
DATA;
#1 = (
  LENGTH_UNIT()
  NAMED_UNIT(*)
  SI_UNIT($, .METRE.)
);
#2 = (
  NAMED_UNIT(*)
  PLANE_ANGLE_UNIT()
  SI_UNIT($, .RADIAN.)
);
#3 = UNCERTAINTY_MEASURE_WITH_UNIT(LENGTH_MEASURE(0.00001), #1, 'DISTANCE_ACCURACY_VALUE', $);
#4 = (
  GEOMETRIC_REPRESENTATION_CONTEXT(3)
  GLOBAL_UNCERTAINTY_ASSIGNED_CONTEXT((#3))
  GLOBAL_UNIT_ASSIGNED_CONTEXT((#1, #2))
  REPRESENTATION_CONTEXT('', '3D')
);
#5 = CARTESIAN_POINT('NONE', (0.010969655114602888, 0, -0));
#6 = VERTEX_POINT('NONE', #5);
#7 = CARTESIAN_POINT('NONE', (0.005484827557301445, 0, -0.009499999999999998));
#8 = VERTEX_POINT('NONE', #7);
#9 = CARTESIAN_POINT('NONE', (0.005484827557301445, 0.0075, -0.009499999999999998));
#10 = VERTEX_POINT('NONE', #9);
#11 = CARTESIAN_POINT('NONE', (0.010969655114602888, 0.0075, -0));
#12 = VERTEX_POINT('NONE', #11);
#13 = CARTESIAN_POINT('NONE', (-0.005484827557301441, 0, -0.0095));
#14 = VERTEX_POINT('NONE', #13);
#15 = CARTESIAN_POINT('NONE', (-0.005484827557301441, 0.0075, -0.0095));
#16 = VERTEX_POINT('NONE', #15);
#17 = CARTESIAN_POINT('NONE', (-0.010969655114602888, 0, -0.000000000000000001343395302384882));
#18 = VERTEX_POINT('NONE', #17);
#19 = CARTESIAN_POINT('NONE', (-0.010969655114602888, 0.0075, -0.000000000000000001343395302384882));
#20 = VERTEX_POINT('NONE', #19);
#21 = CARTESIAN_POINT('NONE', (-0.005484827557301448, 0, 0.009499999999999996));
#22 = VERTEX_POINT('NONE', #21);
#23 = CARTESIAN_POINT('NONE', (-0.005484827557301448, 0.0075, 0.009499999999999996));
#24 = VERTEX_POINT('NONE', #23);
#25 = CARTESIAN_POINT('NONE', (0.005484827557301437, 0, 0.009500000000000003));
#26 = VERTEX_POINT('NONE', #25);
#27 = CARTESIAN_POINT('NONE', (0.005484827557301437, 0.0075, 0.009500000000000003));
#28 = VERTEX_POINT('NONE', #27);
#29 = CARTESIAN_POINT('NONE', (-0.006, -0.001, -0));
#30 = VERTEX_POINT('NONE', #29);
#31 = CARTESIAN_POINT('NONE', (-0.007, 0.0000000000000000006661338147750939, 0.00000000000000000005233641528945923));
#32 = VERTEX_POINT('NONE', #31);
#33 = CARTESIAN_POINT('NONE', (-0.006, -0.0394, -0));
#34 = VERTEX_POINT('NONE', #33);
#35 = CARTESIAN_POINT('NONE', (-0.0054, -0.04, -0.00000000000000000003140184917367549));
#36 = VERTEX_POINT('NONE', #35);
#37 = DIRECTION('NONE', (-0.5, 0, -0.8660254037844387));
#38 = VECTOR('NONE', #37, 1);
#39 = CARTESIAN_POINT('NONE', (0.010969655114602888, 0, -0));
#40 = LINE('NONE', #39, #38);
#41 = DIRECTION('NONE', (0, 1, 0));
#42 = VECTOR('NONE', #41, 1);
#43 = CARTESIAN_POINT('NONE', (0.005484827557301445, 0, -0.009499999999999998));
#44 = LINE('NONE', #43, #42);
#45 = DIRECTION('NONE', (-0.5, 0, -0.8660254037844387));
#46 = VECTOR('NONE', #45, 1);
#47 = CARTESIAN_POINT('NONE', (0.010969655114602888, 0.0075, -0));
#48 = LINE('NONE', #47, #46);
#49 = DIRECTION('NONE', (0, 1, 0));
#50 = VECTOR('NONE', #49, 1);
#51 = CARTESIAN_POINT('NONE', (0.010969655114602888, 0, -0));
#52 = LINE('NONE', #51, #50);
#53 = DIRECTION('NONE', (-1, 0, -0.00000000000000015813837881443787));
#54 = VECTOR('NONE', #53, 1);
#55 = CARTESIAN_POINT('NONE', (0.005484827557301445, 0, -0.009499999999999998));
#56 = LINE('NONE', #55, #54);
#57 = DIRECTION('NONE', (0, 1, 0));
#58 = VECTOR('NONE', #57, 1);
#59 = CARTESIAN_POINT('NONE', (-0.005484827557301441, 0, -0.0095));
#60 = LINE('NONE', #59, #58);
#61 = DIRECTION('NONE', (-1, 0, -0.00000000000000015813837881443787));
#62 = VECTOR('NONE', #61, 1);
#63 = CARTESIAN_POINT('NONE', (0.005484827557301445, 0.0075, -0.009499999999999998));
#64 = LINE('NONE', #63, #62);
#65 = DIRECTION('NONE', (-0.5000000000000002, 0, 0.8660254037844386));
#66 = VECTOR('NONE', #65, 1);
#67 = CARTESIAN_POINT('NONE', (-0.005484827557301441, 0, -0.0095));
#68 = LINE('NONE', #67, #66);
#69 = DIRECTION('NONE', (0, 1, 0));
#70 = VECTOR('NONE', #69, 1);
#71 = CARTESIAN_POINT('NONE', (-0.010969655114602888, 0, -0.000000000000000001343395302384882));
#72 = LINE('NONE', #71, #70);
#73 = DIRECTION('NONE', (-0.5000000000000002, 0, 0.8660254037844386));
#74 = VECTOR('NONE', #73, 1);
#75 = CARTESIAN_POINT('NONE', (-0.005484827557301441, 0.0075, -0.0095));
#76 = LINE('NONE', #75, #74);
#77 = DIRECTION('NONE', (0.4999999999999998, 0, 0.8660254037844388));
#78 = VECTOR('NONE', #77, 1);
#79 = CARTESIAN_POINT('NONE', (-0.010969655114602888, 0, -0.000000000000000001343395302384882));
#80 = LINE('NONE', #79, #78);
#81 = DIRECTION('NONE', (0, 1, 0));
#82 = VECTOR('NONE', #81, 1);
#83 = CARTESIAN_POINT('NONE', (-0.005484827557301448, 0, 0.009499999999999996));
#84 = LINE('NONE', #83, #82);
#85 = DIRECTION('NONE', (0.4999999999999998, 0, 0.8660254037844388));
#86 = VECTOR('NONE', #85, 1);
#87 = CARTESIAN_POINT('NONE', (-0.010969655114602888, 0.0075, -0.000000000000000001343395302384882));
#88 = LINE('NONE', #87, #86);
#89 = DIRECTION('NONE', (1, 0, 0.0000000000000006325535152577516));
#90 = VECTOR('NONE', #89, 1);
#91 = CARTESIAN_POINT('NONE', (-0.005484827557301448, 0, 0.009499999999999996));
#92 = LINE('NONE', #91, #90);
#93 = DIRECTION('NONE', (0, 1, 0));
#94 = VECTOR('NONE', #93, 1);
#95 = CARTESIAN_POINT('NONE', (0.005484827557301437, 0, 0.009500000000000003));
#96 = LINE('NONE', #95, #94);
#97 = DIRECTION('NONE', (1, 0, 0.0000000000000006325535152577516));
#98 = VECTOR('NONE', #97, 1);
#99 = CARTESIAN_POINT('NONE', (-0.005484827557301448, 0.0075, 0.009499999999999996));
#100 = LINE('NONE', #99, #98);
#101 = DIRECTION('NONE', (0.5000000000000003, 0, -0.8660254037844385));
#102 = VECTOR('NONE', #101, 1);
#103 = CARTESIAN_POINT('NONE', (0.005484827557301437, 0, 0.009500000000000003));
#104 = LINE('NONE', #103, #102);
#105 = DIRECTION('NONE', (0.5000000000000003, 0, -0.8660254037844385));
#106 = VECTOR('NONE', #105, 1);
#107 = CARTESIAN_POINT('NONE', (0.005484827557301437, 0.0075, 0.009500000000000003));
#108 = LINE('NONE', #107, #106);
#109 = DIRECTION('NONE', (-1, 0, -0));
#110 = DIRECTION('NONE', (0, -1, -0));
#111 = CARTESIAN_POINT('NONE', (0, -0.001, 0));
#112 = AXIS2_PLACEMENT_3D('NONE', #111, #110, #109);
#113 = CIRCLE('NONE', #112, 0.006);
#114 = DIRECTION('NONE', (1, 0.0000000000000008881784197001229, -0.000000000000000052336415289459285));
#115 = DIRECTION('NONE', (0.000000000000000052336415289459285, 0.00000000000000000000000000000007439369907072206, 1));
#116 = CARTESIAN_POINT('NONE', (-0.007000000000000003, -0.0010000000000000009, 0.00000000000000000005233641528945943));
#117 = AXIS2_PLACEMENT_3D('NONE', #116, #115, #114);
#118 = CIRCLE('NONE', #117, 0.0010000000000000026);
#119 = DIRECTION('NONE', (-1, 0, 0.000000000000000007476630755637033));
#120 = DIRECTION('NONE', (0, 1, -0));
#121 = CARTESIAN_POINT('NONE', (0, 0.0000000000000000006661338147750939, -0));
#122 = AXIS2_PLACEMENT_3D('NONE', #121, #120, #119);
#123 = CIRCLE('NONE', #122, 0.007);
#124 = DIRECTION('NONE', (-1, 0, -0));
#125 = DIRECTION('NONE', (0, -1, -0));
#126 = CARTESIAN_POINT('NONE', (0, -0.0394, 0));
#127 = AXIS2_PLACEMENT_3D('NONE', #126, #125, #124);
#128 = CIRCLE('NONE', #127, 0.006);
#129 = DIRECTION('NONE', (-1, 0, 0.00000000000000005233641528945936));
#130 = DIRECTION('NONE', (0.00000000000000005233641528945936, 0.00000000000000000000000000000016531933126827244, 1));
#131 = CARTESIAN_POINT('NONE', (-0.005399999999999998, -0.0394, -0.000000000000000000031401849173675737));
#132 = AXIS2_PLACEMENT_3D('NONE', #131, #130, #129);
#133 = CIRCLE('NONE', #132, 0.0006000000000000023);
#134 = DIRECTION('NONE', (-1, 0, -0.00000000000000000581515725438435));
#135 = DIRECTION('NONE', (0, 1, 0));
#136 = CARTESIAN_POINT('NONE', (0, -0.04, -0));
#137 = AXIS2_PLACEMENT_3D('NONE', #136, #135, #134);
#138 = CIRCLE('NONE', #137, 0.0054);
#139 = DIRECTION('NONE', (0.000000000000000022587545260114677, -1, 0));
#140 = VECTOR('NONE', #139, 1);
#141 = CARTESIAN_POINT('NONE', (-0.006000000000000001, -0.0010000000000000009, -0));
#142 = LINE('NONE', #141, #140);
#143 = EDGE_CURVE('NONE', #6, #8, #40, .T.);
#144 = EDGE_CURVE('NONE', #8, #10, #44, .T.);
#145 = EDGE_CURVE('NONE', #12, #10, #48, .T.);
#146 = EDGE_CURVE('NONE', #6, #12, #52, .T.);
#147 = EDGE_CURVE('NONE', #8, #14, #56, .T.);
#148 = EDGE_CURVE('NONE', #14, #16, #60, .T.);
#149 = EDGE_CURVE('NONE', #10, #16, #64, .T.);
#150 = EDGE_CURVE('NONE', #14, #18, #68, .T.);
#151 = EDGE_CURVE('NONE', #18, #20, #72, .T.);
#152 = EDGE_CURVE('NONE', #16, #20, #76, .T.);
#153 = EDGE_CURVE('NONE', #18, #22, #80, .T.);
#154 = EDGE_CURVE('NONE', #22, #24, #84, .T.);
#155 = EDGE_CURVE('NONE', #20, #24, #88, .T.);
#156 = EDGE_CURVE('NONE', #22, #26, #92, .T.);
#157 = EDGE_CURVE('NONE', #26, #28, #96, .T.);
#158 = EDGE_CURVE('NONE', #24, #28, #100, .T.);
#159 = EDGE_CURVE('NONE', #26, #6, #104, .T.);
#160 = EDGE_CURVE('NONE', #28, #12, #108, .T.);
#161 = EDGE_CURVE('NONE', #30, #30, #113, .T.);
#162 = EDGE_CURVE('NONE', #30, #32, #118, .T.);
#163 = EDGE_CURVE('NONE', #32, #32, #123, .T.);
#164 = EDGE_CURVE('NONE', #34, #34, #128, .T.);
#165 = EDGE_CURVE('NONE', #34, #36, #133, .T.);
#166 = EDGE_CURVE('NONE', #36, #36, #138, .T.);
#167 = EDGE_CURVE('NONE', #30, #34, #142, .T.);
#168 = CARTESIAN_POINT('NONE', (0.008227241335952167, 0.00375, -0.004749999999999999));
#169 = DIRECTION('NONE', (0.8660254037844385, -0, -0.5000000000000001));
#170 = AXIS2_PLACEMENT_3D('NONE', #168, #169, $);
#171 = PLANE('NONE', #170);
#172 = CARTESIAN_POINT('NONE', (0.0000000000000000017763568394002505, 0.00375, -0.0095));
#173 = DIRECTION('NONE', (0, -0, -1));
#174 = AXIS2_PLACEMENT_3D('NONE', #172, #173, $);
#175 = PLANE('NONE', #174);
#176 = CARTESIAN_POINT('NONE', (-0.008227241335952165, 0.00375, -0.00475));
#177 = DIRECTION('NONE', (-0.8660254037844386, 0, -0.5000000000000004));
#178 = AXIS2_PLACEMENT_3D('NONE', #176, #177, $);
#179 = PLANE('NONE', #178);
#180 = CARTESIAN_POINT('NONE', (-0.008227241335952169, 0.00375, 0.004749999999999997));
#181 = DIRECTION('NONE', (-0.8660254037844387, 0, 0.49999999999999983));
#182 = AXIS2_PLACEMENT_3D('NONE', #180, #181, $);
#183 = PLANE('NONE', #182);
#184 = CARTESIAN_POINT('NONE', (-0.000000000000000005773159728050814, 0.00375, 0.0095));
#185 = DIRECTION('NONE', (0, 0, 1));
#186 = AXIS2_PLACEMENT_3D('NONE', #184, #185, $);
#187 = PLANE('NONE', #186);
#188 = CARTESIAN_POINT('NONE', (0.008227241335952163, 0.00375, 0.004750000000000002));
#189 = DIRECTION('NONE', (0.8660254037844385, 0, 0.5000000000000002));
#190 = AXIS2_PLACEMENT_3D('NONE', #188, #189, $);
#191 = PLANE('NONE', #190);
#192 = CARTESIAN_POINT('NONE', (0, 0, -0));
#193 = DIRECTION('NONE', (0, 1, 0));
#194 = AXIS2_PLACEMENT_3D('NONE', #192, #193, $);
#195 = PLANE('NONE', #194);
#196 = CARTESIAN_POINT('NONE', (0, 0.0075, -0));
#197 = DIRECTION('NONE', (0, 1, 0));
#198 = AXIS2_PLACEMENT_3D('NONE', #196, #197, $);
#199 = PLANE('NONE', #198);
#200 = CARTESIAN_POINT('NONE', (0, -0.02, 0));
#201 = DIRECTION('NONE', (0, -1, -0));
#202 = DIRECTION('NONE', (-1, 0, -0));
#203 = AXIS2_PLACEMENT_3D('NONE', #200, #201, #202);
#204 = CYLINDRICAL_SURFACE('NONE', #203, 0.006);
#205 = CARTESIAN_POINT('NONE', (0, -0.04, -0));
#206 = DIRECTION('NONE', (0, -1, -0));
#207 = AXIS2_PLACEMENT_3D('NONE', #205, #206, $);
#208 = PLANE('NONE', #207);
#209 = CARTESIAN_POINT('NONE', (0, -0.0010000000000000009, -0));
#210 = DIRECTION('NONE', (-0, -1, 0));
#211 = DIRECTION('NONE', (-1, 0, 0.000000000000000002435919473328936));
#212 = AXIS2_PLACEMENT_3D('NONE', #209, #210, #211);
#213 = TOROIDAL_SURFACE('NONE', #212, 0.007000000000000003, 0.0010000000000000026);
#214 = CARTESIAN_POINT('NONE', (0, -0.0394, 0));
#215 = DIRECTION('NONE', (0, -1, -0));
#216 = DIRECTION('NONE', (-1, 0, -0.0000000000000000015791503566228957));
#217 = AXIS2_PLACEMENT_3D('NONE', #214, #215, #216);
#218 = TOROIDAL_SURFACE('NONE', #217, 0.005399999999999998, 0.0006000000000000023);
#219 = ORIENTED_EDGE('NONE', *, *, #143, .T.);
#220 = ORIENTED_EDGE('NONE', *, *, #144, .T.);
#221 = ORIENTED_EDGE('NONE', *, *, #145, .F.);
#222 = ORIENTED_EDGE('NONE', *, *, #146, .F.);
#223 = EDGE_LOOP('NONE', (#219, #220, #221, #222));
#224 = FACE_BOUND('NONE', #223, .T.);
#225 = ADVANCED_FACE('NONE', (#224), #171, .T.);
#226 = ORIENTED_EDGE('NONE', *, *, #147, .T.);
#227 = ORIENTED_EDGE('NONE', *, *, #148, .T.);
#228 = ORIENTED_EDGE('NONE', *, *, #149, .F.);
#229 = ORIENTED_EDGE('NONE', *, *, #144, .F.);
#230 = EDGE_LOOP('NONE', (#226, #227, #228, #229));
#231 = FACE_BOUND('NONE', #230, .T.);
#232 = ADVANCED_FACE('NONE', (#231), #175, .T.);
#233 = ORIENTED_EDGE('NONE', *, *, #150, .T.);
#234 = ORIENTED_EDGE('NONE', *, *, #151, .T.);
#235 = ORIENTED_EDGE('NONE', *, *, #152, .F.);
#236 = ORIENTED_EDGE('NONE', *, *, #148, .F.);
#237 = EDGE_LOOP('NONE', (#233, #234, #235, #236));
#238 = FACE_BOUND('NONE', #237, .T.);
#239 = ADVANCED_FACE('NONE', (#238), #179, .T.);
#240 = ORIENTED_EDGE('NONE', *, *, #153, .T.);
#241 = ORIENTED_EDGE('NONE', *, *, #154, .T.);
#242 = ORIENTED_EDGE('NONE', *, *, #155, .F.);
#243 = ORIENTED_EDGE('NONE', *, *, #151, .F.);
#244 = EDGE_LOOP('NONE', (#240, #241, #242, #243));
#245 = FACE_BOUND('NONE', #244, .T.);
#246 = ADVANCED_FACE('NONE', (#245), #183, .T.);
#247 = ORIENTED_EDGE('NONE', *, *, #156, .T.);
#248 = ORIENTED_EDGE('NONE', *, *, #157, .T.);
#249 = ORIENTED_EDGE('NONE', *, *, #158, .F.);
#250 = ORIENTED_EDGE('NONE', *, *, #154, .F.);
#251 = EDGE_LOOP('NONE', (#247, #248, #249, #250));
#252 = FACE_BOUND('NONE', #251, .T.);
#253 = ADVANCED_FACE('NONE', (#252), #187, .T.);
#254 = ORIENTED_EDGE('NONE', *, *, #159, .T.);
#255 = ORIENTED_EDGE('NONE', *, *, #146, .T.);
#256 = ORIENTED_EDGE('NONE', *, *, #160, .F.);
#257 = ORIENTED_EDGE('NONE', *, *, #157, .F.);
#258 = EDGE_LOOP('NONE', (#254, #255, #256, #257));
#259 = FACE_BOUND('NONE', #258, .T.);
#260 = ADVANCED_FACE('NONE', (#259), #191, .T.);
#261 = ORIENTED_EDGE('NONE', *, *, #159, .F.);
#262 = ORIENTED_EDGE('NONE', *, *, #156, .F.);
#263 = ORIENTED_EDGE('NONE', *, *, #153, .F.);
#264 = ORIENTED_EDGE('NONE', *, *, #150, .F.);
#265 = ORIENTED_EDGE('NONE', *, *, #147, .F.);
#266 = ORIENTED_EDGE('NONE', *, *, #143, .F.);
#267 = ORIENTED_EDGE('NONE', *, *, #163, .T.);
#268 = EDGE_LOOP('NONE', (#261, #262, #263, #264, #265, #266));
#269 = FACE_BOUND('NONE', #268, .T.);
#270 = EDGE_LOOP('NONE', (#267));
#271 = FACE_BOUND('NONE', #270, .T.);
#272 = ADVANCED_FACE('NONE', (#269, #271), #195, .F.);
#273 = ORIENTED_EDGE('NONE', *, *, #145, .T.);
#274 = ORIENTED_EDGE('NONE', *, *, #149, .T.);
#275 = ORIENTED_EDGE('NONE', *, *, #152, .T.);
#276 = ORIENTED_EDGE('NONE', *, *, #155, .T.);
#277 = ORIENTED_EDGE('NONE', *, *, #158, .T.);
#278 = ORIENTED_EDGE('NONE', *, *, #160, .T.);
#279 = EDGE_LOOP('NONE', (#273, #274, #275, #276, #277, #278));
#280 = FACE_BOUND('NONE', #279, .T.);
#281 = ADVANCED_FACE('NONE', (#280), #199, .T.);
#282 = ORIENTED_EDGE('NONE', *, *, #161, .T.);
#283 = ORIENTED_EDGE('NONE', *, *, #164, .F.);
#284 = EDGE_LOOP('NONE', (#282));
#285 = FACE_BOUND('NONE', #284, .T.);
#286 = EDGE_LOOP('NONE', (#283));
#287 = FACE_BOUND('NONE', #286, .T.);
#288 = ADVANCED_FACE('NONE', (#285, #287), #204, .T.);
#289 = ORIENTED_EDGE('NONE', *, *, #166, .F.);
#290 = EDGE_LOOP('NONE', (#289));
#291 = FACE_BOUND('NONE', #290, .T.);
#292 = ADVANCED_FACE('NONE', (#291), #208, .T.);
#293 = ORIENTED_EDGE('NONE', *, *, #161, .F.);
#294 = ORIENTED_EDGE('NONE', *, *, #163, .F.);
#295 = EDGE_LOOP('NONE', (#293));
#296 = FACE_BOUND('NONE', #295, .T.);
#297 = EDGE_LOOP('NONE', (#294));
#298 = FACE_BOUND('NONE', #297, .T.);
#299 = ADVANCED_FACE('NONE', (#296, #298), #213, .F.);
#300 = ORIENTED_EDGE('NONE', *, *, #164, .T.);
#301 = ORIENTED_EDGE('NONE', *, *, #166, .T.);
#302 = EDGE_LOOP('NONE', (#300));
#303 = FACE_BOUND('NONE', #302, .T.);
#304 = EDGE_LOOP('NONE', (#301));
#305 = FACE_BOUND('NONE', #304, .T.);
#306 = ADVANCED_FACE('NONE', (#303, #305), #218, .T.);
#307 = CLOSED_SHELL('NONE', (#225, #232, #239, #246, #253, #260, #272, #281, #288, #292, #299, #306));
#308 = MANIFOLD_SOLID_BREP('NONE', #307);
#309 = APPLICATION_CONTEXT('configuration controlled 3D design of mechanical parts and assemblies');
#310 = PRODUCT_DEFINITION_CONTEXT('part definition', #309, 'design');
#311 = PRODUCT('UNIDENTIFIED_PRODUCT', 'NONE', $, ());
#312 = PRODUCT_DEFINITION_FORMATION('', $, #311);
#313 = PRODUCT_DEFINITION('design', $, #312, #310);
#314 = PRODUCT_DEFINITION_SHAPE('NONE', $, #313);
#315 = ADVANCED_BREP_SHAPE_REPRESENTATION('NONE', (#308), #4);
#316 = SHAPE_DEFINITION_REPRESENTATION(#314, #315);
#317 = COLOUR_RGB('NONE', 0.6901960968971252, 0.6901960968971252, 0.6901960968971252);
#318 = FILL_AREA_STYLE_COLOUR('NONE', #317);
#319 = FILL_AREA_STYLE('NONE', (#318));
#320 = SURFACE_STYLE_FILL_AREA(#319);
#321 = SURFACE_SIDE_STYLE('NONE', (#320));
#322 = SURFACE_STYLE_USAGE(.BOTH., #321);
#323 = PRESENTATION_STYLE_ASSIGNMENT((#322));
#324 = STYLED_ITEM('NONE', (#323), #308);
#325 = MECHANICAL_DESIGN_GEOMETRIC_PRESENTATION_REPRESENTATION('NONE', (#324), #4);
ENDSEC;
END-ISO-10303-21;
