ISO-10303-21;
HEADER;
FILE_DESCRIPTION(('Zoo Text-to-CAD'),'1');
FILE_NAME('dump.step', '2025-11-20T08:09:47.847599680+00:00', ('Author unknown'), ('Organization unknown'), 'zoo.dev beta', 'zoo.dev', 'Authorization unknown');
FILE_SCHEMA(('AP203_CONFIGURATION_CONTROLLED_3D_DESIGN_OF_MECHANICAL_PARTS_AND_ASSEMBLIES_MIM_LF'));
ENDSEC;
DATA;
#1 = (
  LENGTH_UNIT()
  NAMED_UNIT(*)
  SI_UNIT($, .METRE.)
);
#2 = (
  NAMED_UNIT(*)
  PLANE_ANGLE_UNIT()
  SI_UNIT($, .RADIAN.)
);
#3 = UNCERTAINTY_MEASURE_WITH_UNIT(LENGTH_MEASURE(0.00001), #1, 'DISTANCE_ACCURACY_VALUE', $);
#4 = (
  GEOMETRIC_REPRESENTATION_CONTEXT(3)
  GLOBAL_UNCERTAINTY_ASSIGNED_CONTEXT((#3))
  GLOBAL_UNIT_ASSIGNED_CONTEXT((#1, #2))
  REPRESENTATION_CONTEXT('', '3D')
);
#5 = CARTESIAN_POINT('NONE', (0.05, 0.1, -0));
#6 = VERTEX_POINT('NONE', #5);
#7 = CARTESIAN_POINT('NONE', (0.05, 0.0915, -0));
#8 = VERTEX_POINT('NONE', #7);
#9 = CARTESIAN_POINT('NONE', (0.05, 0.0915, -1));
#10 = VERTEX_POINT('NONE', #9);
#11 = CARTESIAN_POINT('NONE', (0.05, 0.1, -1));
#12 = VERTEX_POINT('NONE', #11);
#13 = CARTESIAN_POINT('NONE', (0.0148, 0.0915, -0));
#14 = VERTEX_POINT('NONE', #13);
#15 = CARTESIAN_POINT('NONE', (0.0148, 0.0915, -1));
#16 = VERTEX_POINT('NONE', #15);
#17 = CARTESIAN_POINT('NONE', (0.0027999999999999974, 0.0795, -0));
#18 = VERTEX_POINT('NONE', #17);
#19 = CARTESIAN_POINT('NONE', (0.0027999999999999974, 0.0795, -1));
#20 = VERTEX_POINT('NONE', #19);
#21 = CARTESIAN_POINT('NONE', (0.0028000000000000034, -0.0795, -0));
#22 = VERTEX_POINT('NONE', #21);
#23 = CARTESIAN_POINT('NONE', (0.0028000000000000034, -0.0795, -1));
#24 = VERTEX_POINT('NONE', #23);
#25 = CARTESIAN_POINT('NONE', (0.014800000000000011, -0.0915, -0));
#26 = VERTEX_POINT('NONE', #25);
#27 = CARTESIAN_POINT('NONE', (0.014800000000000011, -0.0915, -1));
#28 = VERTEX_POINT('NONE', #27);
#29 = CARTESIAN_POINT('NONE', (0.05000000000000002, -0.0915, -0));
#30 = VERTEX_POINT('NONE', #29);
#31 = CARTESIAN_POINT('NONE', (0.05000000000000002, -0.0915, -1));
#32 = VERTEX_POINT('NONE', #31);
#33 = CARTESIAN_POINT('NONE', (0.05000000000000002, -0.1, -0));
#34 = VERTEX_POINT('NONE', #33);
#35 = CARTESIAN_POINT('NONE', (0.05000000000000002, -0.1, -1));
#36 = VERTEX_POINT('NONE', #35);
#37 = CARTESIAN_POINT('NONE', (-0.05000000000000002, -0.1, -0));
#38 = VERTEX_POINT('NONE', #37);
#39 = CARTESIAN_POINT('NONE', (-0.05000000000000002, -0.1, -1));
#40 = VERTEX_POINT('NONE', #39);
#41 = CARTESIAN_POINT('NONE', (-0.05000000000000002, -0.0915, -0));
#42 = VERTEX_POINT('NONE', #41);
#43 = CARTESIAN_POINT('NONE', (-0.05000000000000002, -0.0915, -1));
#44 = VERTEX_POINT('NONE', #43);
#45 = CARTESIAN_POINT('NONE', (-0.014800000000000011, -0.0915, -0));
#46 = VERTEX_POINT('NONE', #45);
#47 = CARTESIAN_POINT('NONE', (-0.014800000000000011, -0.0915, -1));
#48 = VERTEX_POINT('NONE', #47);
#49 = CARTESIAN_POINT('NONE', (-0.0028000000000000043, -0.0795, -0));
#50 = VERTEX_POINT('NONE', #49);
#51 = CARTESIAN_POINT('NONE', (-0.0028000000000000043, -0.0795, -1));
#52 = VERTEX_POINT('NONE', #51);
#53 = CARTESIAN_POINT('NONE', (-0.002800000000000001, 0.0795, -0));
#54 = VERTEX_POINT('NONE', #53);
#55 = CARTESIAN_POINT('NONE', (-0.002800000000000001, 0.0795, -1));
#56 = VERTEX_POINT('NONE', #55);
#57 = CARTESIAN_POINT('NONE', (-0.0148, 0.0915, -0));
#58 = VERTEX_POINT('NONE', #57);
#59 = CARTESIAN_POINT('NONE', (-0.0148, 0.0915, -1));
#60 = VERTEX_POINT('NONE', #59);
#61 = CARTESIAN_POINT('NONE', (-0.05, 0.0915, -0));
#62 = VERTEX_POINT('NONE', #61);
#63 = CARTESIAN_POINT('NONE', (-0.05, 0.0915, -1));
#64 = VERTEX_POINT('NONE', #63);
#65 = CARTESIAN_POINT('NONE', (-0.05, 0.1, -0));
#66 = VERTEX_POINT('NONE', #65);
#67 = CARTESIAN_POINT('NONE', (-0.05, 0.1, -1));
#68 = VERTEX_POINT('NONE', #67);
#69 = DIRECTION('NONE', (0, -1, 0));
#70 = VECTOR('NONE', #69, 1);
#71 = CARTESIAN_POINT('NONE', (0.05, 0.1, -0));
#72 = LINE('NONE', #71, #70);
#73 = DIRECTION('NONE', (0, 0, -1));
#74 = VECTOR('NONE', #73, 1);
#75 = CARTESIAN_POINT('NONE', (0.05, 0.0915, -0));
#76 = LINE('NONE', #75, #74);
#77 = DIRECTION('NONE', (0, -1, 0));
#78 = VECTOR('NONE', #77, 1);
#79 = CARTESIAN_POINT('NONE', (0.05, 0.1, -1));
#80 = LINE('NONE', #79, #78);
#81 = DIRECTION('NONE', (0, 0, -1));
#82 = VECTOR('NONE', #81, 1);
#83 = CARTESIAN_POINT('NONE', (0.05, 0.1, -0));
#84 = LINE('NONE', #83, #82);
#85 = DIRECTION('NONE', (-1, 0, 0));
#86 = VECTOR('NONE', #85, 1);
#87 = CARTESIAN_POINT('NONE', (0.05, 0.0915, -0));
#88 = LINE('NONE', #87, #86);
#89 = DIRECTION('NONE', (0, 0, -1));
#90 = VECTOR('NONE', #89, 1);
#91 = CARTESIAN_POINT('NONE', (0.0148, 0.0915, -0));
#92 = LINE('NONE', #91, #90);
#93 = DIRECTION('NONE', (-1, 0, 0));
#94 = VECTOR('NONE', #93, 1);
#95 = CARTESIAN_POINT('NONE', (0.05, 0.0915, -1));
#96 = LINE('NONE', #95, #94);
#97 = DIRECTION('NONE', (0.0000000000000032566542055671376, 1, -0));
#98 = DIRECTION('NONE', (0, 0, 1));
#99 = CARTESIAN_POINT('NONE', (0.014799999999999962, 0.07950000000000004, 0));
#100 = AXIS2_PLACEMENT_3D('NONE', #99, #98, #97);
#101 = CIRCLE('NONE', #100, 0.011999999999999957);
#102 = DIRECTION('NONE', (0, 0, -1));
#103 = VECTOR('NONE', #102, 1);
#104 = CARTESIAN_POINT('NONE', (0.0027999999999999974, 0.0795, -0));
#105 = LINE('NONE', #104, #103);
#106 = DIRECTION('NONE', (0.0000000000000032566542055671376, 1, -0.000000000000018947806286936073));
#107 = DIRECTION('NONE', (-0.00000000000002287202545756945, 0.00000000000001894780628693615, 1));
#108 = CARTESIAN_POINT('NONE', (0.014799999999999962, 0.07950000000000004, -0.9999999999999998));
#109 = AXIS2_PLACEMENT_3D('NONE', #108, #107, #106);
#110 = CIRCLE('NONE', #109, 0.011999999999999957);
#111 = DIRECTION('NONE', (0.000000000000000016365315811101955, -1, 0));
#112 = VECTOR('NONE', #111, 1);
#113 = CARTESIAN_POINT('NONE', (0.002800000000000001, 0.0795, -0));
#114 = LINE('NONE', #113, #112);
#115 = DIRECTION('NONE', (0, 0, -1));
#116 = VECTOR('NONE', #115, 1);
#117 = CARTESIAN_POINT('NONE', (0.0028000000000000034, -0.0795, -0));
#118 = LINE('NONE', #117, #116);
#119 = DIRECTION('NONE', (0.000000000000000016365315811101955, -1, 0));
#120 = VECTOR('NONE', #119, 1);
#121 = CARTESIAN_POINT('NONE', (0.002800000000000001, 0.0795, -1));
#122 = LINE('NONE', #121, #120);
#123 = DIRECTION('NONE', (-1, 0.000000000000003552713678800511, -0));
#124 = DIRECTION('NONE', (-0, 0, 1));
#125 = CARTESIAN_POINT('NONE', (0.01479999999999997, -0.07950000000000004, 0));
#126 = AXIS2_PLACEMENT_3D('NONE', #125, #124, #123);
#127 = CIRCLE('NONE', #126, 0.011999999999999964);
#128 = DIRECTION('NONE', (0, 0, -1));
#129 = VECTOR('NONE', #128, 1);
#130 = CARTESIAN_POINT('NONE', (0.014800000000000011, -0.0915, -0));
#131 = LINE('NONE', #130, #129);
#132 = DIRECTION('NONE', (-1, 0.000000000000003552713678800511, -0.00000000000001894780628693606));
#133 = DIRECTION('NONE', (-0.000000000000018947806286936143, -0.000000000000022872025457569472, 1));
#134 = CARTESIAN_POINT('NONE', (0.01479999999999997, -0.07950000000000004, -0.9999999999999998));
#135 = AXIS2_PLACEMENT_3D('NONE', #134, #133, #132);
#136 = CIRCLE('NONE', #135, 0.011999999999999964);
#137 = DIRECTION('NONE', (1, 0, 0));
#138 = VECTOR('NONE', #137, 1);
#139 = CARTESIAN_POINT('NONE', (0.014800000000000011, -0.0915, -0));
#140 = LINE('NONE', #139, #138);
#141 = DIRECTION('NONE', (0, 0, -1));
#142 = VECTOR('NONE', #141, 1);
#143 = CARTESIAN_POINT('NONE', (0.05000000000000002, -0.0915, -0));
#144 = LINE('NONE', #143, #142);
#145 = DIRECTION('NONE', (1, 0, 0));
#146 = VECTOR('NONE', #145, 1);
#147 = CARTESIAN_POINT('NONE', (0.014800000000000011, -0.0915, -1));
#148 = LINE('NONE', #147, #146);
#149 = DIRECTION('NONE', (0, -1, 0));
#150 = VECTOR('NONE', #149, 1);
#151 = CARTESIAN_POINT('NONE', (0.05000000000000002, -0.0915, -0));
#152 = LINE('NONE', #151, #150);
#153 = DIRECTION('NONE', (0, 0, -1));
#154 = VECTOR('NONE', #153, 1);
#155 = CARTESIAN_POINT('NONE', (0.05000000000000002, -0.1, -0));
#156 = LINE('NONE', #155, #154);
#157 = DIRECTION('NONE', (0, -1, 0));
#158 = VECTOR('NONE', #157, 1);
#159 = CARTESIAN_POINT('NONE', (0.05000000000000002, -0.0915, -1));
#160 = LINE('NONE', #159, #158);
#161 = DIRECTION('NONE', (-1, 0, 0));
#162 = VECTOR('NONE', #161, 1);
#163 = CARTESIAN_POINT('NONE', (0.05000000000000002, -0.1, -0));
#164 = LINE('NONE', #163, #162);
#165 = DIRECTION('NONE', (0, 0, -1));
#166 = VECTOR('NONE', #165, 1);
#167 = CARTESIAN_POINT('NONE', (-0.05000000000000002, -0.1, -0));
#168 = LINE('NONE', #167, #166);
#169 = DIRECTION('NONE', (-1, 0, 0));
#170 = VECTOR('NONE', #169, 1);
#171 = CARTESIAN_POINT('NONE', (0.05000000000000002, -0.1, -1));
#172 = LINE('NONE', #171, #170);
#173 = DIRECTION('NONE', (0, 1, 0));
#174 = VECTOR('NONE', #173, 1);
#175 = CARTESIAN_POINT('NONE', (-0.05000000000000002, -0.1, -0));
#176 = LINE('NONE', #175, #174);
#177 = DIRECTION('NONE', (0, 0, -1));
#178 = VECTOR('NONE', #177, 1);
#179 = CARTESIAN_POINT('NONE', (-0.05000000000000002, -0.0915, -0));
#180 = LINE('NONE', #179, #178);
#181 = DIRECTION('NONE', (0, 1, 0));
#182 = VECTOR('NONE', #181, 1);
#183 = CARTESIAN_POINT('NONE', (-0.05000000000000002, -0.1, -1));
#184 = LINE('NONE', #183, #182);
#185 = DIRECTION('NONE', (1, 0, 0));
#186 = VECTOR('NONE', #185, 1);
#187 = CARTESIAN_POINT('NONE', (-0.05000000000000002, -0.0915, -0));
#188 = LINE('NONE', #187, #186);
#189 = DIRECTION('NONE', (0, 0, -1));
#190 = VECTOR('NONE', #189, 1);
#191 = CARTESIAN_POINT('NONE', (-0.014800000000000011, -0.0915, -0));
#192 = LINE('NONE', #191, #190);
#193 = DIRECTION('NONE', (1, 0, 0));
#194 = VECTOR('NONE', #193, 1);
#195 = CARTESIAN_POINT('NONE', (-0.05000000000000002, -0.0915, -1));
#196 = LINE('NONE', #195, #194);
#197 = DIRECTION('NONE', (-0.0000000000000029605947323337576, -1, -0));
#198 = DIRECTION('NONE', (0, -0, 1));
#199 = CARTESIAN_POINT('NONE', (-0.014799999999999976, -0.07950000000000003, 0));
#200 = AXIS2_PLACEMENT_3D('NONE', #199, #198, #197);
#201 = CIRCLE('NONE', #200, 0.01199999999999997);
#202 = DIRECTION('NONE', (0, 0, -1));
#203 = VECTOR('NONE', #202, 1);
#204 = CARTESIAN_POINT('NONE', (-0.0028000000000000043, -0.0795, -0));
#205 = LINE('NONE', #204, #203);
#206 = DIRECTION('NONE', (-0.0000000000000029605947323337576, -1, -0.00000000000001894780628693605));
#207 = DIRECTION('NONE', (0.000000000000022872025457569462, -0.000000000000018947806286936118, 1));
#208 = CARTESIAN_POINT('NONE', (-0.014799999999999976, -0.07950000000000003, -0.9999999999999998));
#209 = AXIS2_PLACEMENT_3D('NONE', #208, #207, #206);
#210 = CIRCLE('NONE', #209, 0.01199999999999997);
#211 = DIRECTION('NONE', (0.000000000000000016365315811101955, 1, 0));
#212 = VECTOR('NONE', #211, 1);
#213 = CARTESIAN_POINT('NONE', (-0.0028000000000000034, -0.0795, -0));
#214 = LINE('NONE', #213, #212);
#215 = DIRECTION('NONE', (0, 0, -1));
#216 = VECTOR('NONE', #215, 1);
#217 = CARTESIAN_POINT('NONE', (-0.002800000000000001, 0.0795, -0));
#218 = LINE('NONE', #217, #216);
#219 = DIRECTION('NONE', (0.000000000000000016365315811101955, 1, 0));
#220 = VECTOR('NONE', #219, 1);
#221 = CARTESIAN_POINT('NONE', (-0.0028000000000000034, -0.0795, -1));
#222 = LINE('NONE', #221, #220);
#223 = DIRECTION('NONE', (1, -0.0000000000000035527136788005136, -0));
#224 = DIRECTION('NONE', (0, 0, 1));
#225 = CARTESIAN_POINT('NONE', (-0.014799999999999957, 0.07950000000000004, 0));
#226 = AXIS2_PLACEMENT_3D('NONE', #225, #224, #223);
#227 = CIRCLE('NONE', #226, 0.011999999999999957);
#228 = DIRECTION('NONE', (0, 0, -1));
#229 = VECTOR('NONE', #228, 1);
#230 = CARTESIAN_POINT('NONE', (-0.0148, 0.0915, -0));
#231 = LINE('NONE', #230, #229);
#232 = DIRECTION('NONE', (1, -0.0000000000000035527136788005136, -0.000000000000018947806286936073));
#233 = DIRECTION('NONE', (0.000000000000018947806286936155, 0.00000000000002287202545756944, 1));
#234 = CARTESIAN_POINT('NONE', (-0.014799999999999957, 0.07950000000000004, -0.9999999999999998));
#235 = AXIS2_PLACEMENT_3D('NONE', #234, #233, #232);
#236 = CIRCLE('NONE', #235, 0.011999999999999957);
#237 = DIRECTION('NONE', (-1, 0, 0));
#238 = VECTOR('NONE', #237, 1);
#239 = CARTESIAN_POINT('NONE', (-0.0148, 0.0915, -0));
#240 = LINE('NONE', #239, #238);
#241 = DIRECTION('NONE', (0, 0, -1));
#242 = VECTOR('NONE', #241, 1);
#243 = CARTESIAN_POINT('NONE', (-0.05, 0.0915, -0));
#244 = LINE('NONE', #243, #242);
#245 = DIRECTION('NONE', (-1, 0, 0));
#246 = VECTOR('NONE', #245, 1);
#247 = CARTESIAN_POINT('NONE', (-0.0148, 0.0915, -1));
#248 = LINE('NONE', #247, #246);
#249 = DIRECTION('NONE', (0, 1, 0));
#250 = VECTOR('NONE', #249, 1);
#251 = CARTESIAN_POINT('NONE', (-0.05, 0.0915, -0));
#252 = LINE('NONE', #251, #250);
#253 = DIRECTION('NONE', (0, 0, -1));
#254 = VECTOR('NONE', #253, 1);
#255 = CARTESIAN_POINT('NONE', (-0.05, 0.1, -0));
#256 = LINE('NONE', #255, #254);
#257 = DIRECTION('NONE', (0, 1, 0));
#258 = VECTOR('NONE', #257, 1);
#259 = CARTESIAN_POINT('NONE', (-0.05, 0.0915, -1));
#260 = LINE('NONE', #259, #258);
#261 = DIRECTION('NONE', (1, 0, 0));
#262 = VECTOR('NONE', #261, 1);
#263 = CARTESIAN_POINT('NONE', (-0.05, 0.1, -0));
#264 = LINE('NONE', #263, #262);
#265 = DIRECTION('NONE', (1, 0, 0));
#266 = VECTOR('NONE', #265, 1);
#267 = CARTESIAN_POINT('NONE', (-0.05, 0.1, -1));
#268 = LINE('NONE', #267, #266);
#269 = EDGE_CURVE('NONE', #6, #8, #72, .T.);
#270 = EDGE_CURVE('NONE', #8, #10, #76, .T.);
#271 = EDGE_CURVE('NONE', #12, #10, #80, .T.);
#272 = EDGE_CURVE('NONE', #6, #12, #84, .T.);
#273 = EDGE_CURVE('NONE', #8, #14, #88, .T.);
#274 = EDGE_CURVE('NONE', #14, #16, #92, .T.);
#275 = EDGE_CURVE('NONE', #10, #16, #96, .T.);
#276 = EDGE_CURVE('NONE', #14, #18, #101, .T.);
#277 = EDGE_CURVE('NONE', #18, #20, #105, .T.);
#278 = EDGE_CURVE('NONE', #16, #20, #110, .T.);
#279 = EDGE_CURVE('NONE', #18, #22, #114, .T.);
#280 = EDGE_CURVE('NONE', #22, #24, #118, .T.);
#281 = EDGE_CURVE('NONE', #20, #24, #122, .T.);
#282 = EDGE_CURVE('NONE', #22, #26, #127, .T.);
#283 = EDGE_CURVE('NONE', #26, #28, #131, .T.);
#284 = EDGE_CURVE('NONE', #24, #28, #136, .T.);
#285 = EDGE_CURVE('NONE', #26, #30, #140, .T.);
#286 = EDGE_CURVE('NONE', #30, #32, #144, .T.);
#287 = EDGE_CURVE('NONE', #28, #32, #148, .T.);
#288 = EDGE_CURVE('NONE', #30, #34, #152, .T.);
#289 = EDGE_CURVE('NONE', #34, #36, #156, .T.);
#290 = EDGE_CURVE('NONE', #32, #36, #160, .T.);
#291 = EDGE_CURVE('NONE', #34, #38, #164, .T.);
#292 = EDGE_CURVE('NONE', #38, #40, #168, .T.);
#293 = EDGE_CURVE('NONE', #36, #40, #172, .T.);
#294 = EDGE_CURVE('NONE', #38, #42, #176, .T.);
#295 = EDGE_CURVE('NONE', #42, #44, #180, .T.);
#296 = EDGE_CURVE('NONE', #40, #44, #184, .T.);
#297 = EDGE_CURVE('NONE', #42, #46, #188, .T.);
#298 = EDGE_CURVE('NONE', #46, #48, #192, .T.);
#299 = EDGE_CURVE('NONE', #44, #48, #196, .T.);
#300 = EDGE_CURVE('NONE', #46, #50, #201, .T.);
#301 = EDGE_CURVE('NONE', #50, #52, #205, .T.);
#302 = EDGE_CURVE('NONE', #48, #52, #210, .T.);
#303 = EDGE_CURVE('NONE', #50, #54, #214, .T.);
#304 = EDGE_CURVE('NONE', #54, #56, #218, .T.);
#305 = EDGE_CURVE('NONE', #52, #56, #222, .T.);
#306 = EDGE_CURVE('NONE', #54, #58, #227, .T.);
#307 = EDGE_CURVE('NONE', #58, #60, #231, .T.);
#308 = EDGE_CURVE('NONE', #56, #60, #236, .T.);
#309 = EDGE_CURVE('NONE', #58, #62, #240, .T.);
#310 = EDGE_CURVE('NONE', #62, #64, #244, .T.);
#311 = EDGE_CURVE('NONE', #60, #64, #248, .T.);
#312 = EDGE_CURVE('NONE', #62, #66, #252, .T.);
#313 = EDGE_CURVE('NONE', #66, #68, #256, .T.);
#314 = EDGE_CURVE('NONE', #64, #68, #260, .T.);
#315 = EDGE_CURVE('NONE', #66, #6, #264, .T.);
#316 = EDGE_CURVE('NONE', #68, #12, #268, .T.);
#317 = CARTESIAN_POINT('NONE', (0.05, 0.09575, -0.5));
#318 = DIRECTION('NONE', (1, 0, 0));
#319 = AXIS2_PLACEMENT_3D('NONE', #317, #318, $);
#320 = PLANE('NONE', #319);
#321 = CARTESIAN_POINT('NONE', (0.0324, 0.0915, -0.5));
#322 = DIRECTION('NONE', (0, -1, -0));
#323 = AXIS2_PLACEMENT_3D('NONE', #321, #322, $);
#324 = PLANE('NONE', #323);
#325 = CARTESIAN_POINT('NONE', (0.014799999999999962, 0.07950000000000004, -0.4999999999999999));
#326 = DIRECTION('NONE', (-0.000000000000011436012728784725, 0.000000000000009473903143468075, 1));
#327 = DIRECTION('NONE', (0.0000000000000032566542055671376, 1, -0.000000000000009473903143468037));
#328 = AXIS2_PLACEMENT_3D('NONE', #325, #326, #327);
#329 = CYLINDRICAL_SURFACE('NONE', #328, 0.011999999999999957);
#330 = CARTESIAN_POINT('NONE', (0.0028000000000000017, 0.000000000000000007105427357601002, -0.5));
#331 = DIRECTION('NONE', (1, 0, 0));
#332 = AXIS2_PLACEMENT_3D('NONE', #330, #331, $);
#333 = PLANE('NONE', #332);
#334 = CARTESIAN_POINT('NONE', (0.01479999999999997, -0.07950000000000004, -0.4999999999999999));
#335 = DIRECTION('NONE', (-0.000000000000009473903143468071, -0.000000000000011436012728784736, 1));
#336 = DIRECTION('NONE', (-1, 0.000000000000003552713678800511, -0.00000000000000947390314346803));
#337 = AXIS2_PLACEMENT_3D('NONE', #334, #335, #336);
#338 = CYLINDRICAL_SURFACE('NONE', #337, 0.011999999999999964);
#339 = CARTESIAN_POINT('NONE', (0.03240000000000001, -0.0915, -0.5));
#340 = DIRECTION('NONE', (0, 1, 0));
#341 = AXIS2_PLACEMENT_3D('NONE', #339, #340, $);
#342 = PLANE('NONE', #341);
#343 = CARTESIAN_POINT('NONE', (0.05000000000000002, -0.09575, -0.5));
#344 = DIRECTION('NONE', (1, 0, 0));
#345 = AXIS2_PLACEMENT_3D('NONE', #343, #344, $);
#346 = PLANE('NONE', #345);
#347 = CARTESIAN_POINT('NONE', (0, -0.1, -0.5));
#348 = DIRECTION('NONE', (0, -1, -0));
#349 = AXIS2_PLACEMENT_3D('NONE', #347, #348, $);
#350 = PLANE('NONE', #349);
#351 = CARTESIAN_POINT('NONE', (-0.05000000000000002, -0.09575, -0.5));
#352 = DIRECTION('NONE', (-1, 0, -0));
#353 = AXIS2_PLACEMENT_3D('NONE', #351, #352, $);
#354 = PLANE('NONE', #353);
#355 = CARTESIAN_POINT('NONE', (-0.032399999999999984, -0.0915, -0.5));
#356 = DIRECTION('NONE', (0, 1, 0));
#357 = AXIS2_PLACEMENT_3D('NONE', #355, #356, $);
#358 = PLANE('NONE', #357);
#359 = CARTESIAN_POINT('NONE', (-0.014799999999999976, -0.07950000000000003, -0.4999999999999999));
#360 = DIRECTION('NONE', (0.000000000000011436012728784731, -0.000000000000009473903143468059, 1));
#361 = DIRECTION('NONE', (-0.0000000000000029605947323337576, -1, -0.000000000000009473903143468026));
#362 = AXIS2_PLACEMENT_3D('NONE', #359, #360, #361);
#363 = CYLINDRICAL_SURFACE('NONE', #362, 0.01199999999999997);
#364 = CARTESIAN_POINT('NONE', (-0.0028000000000000017, -0.000000000000000021316282072803006, -0.5));
#365 = DIRECTION('NONE', (-1, 0, -0));
#366 = AXIS2_PLACEMENT_3D('NONE', #364, #365, $);
#367 = PLANE('NONE', #366);
#368 = CARTESIAN_POINT('NONE', (-0.014799999999999957, 0.07950000000000004, -0.4999999999999999));
#369 = DIRECTION('NONE', (0.000000000000009473903143468078, 0.00000000000001143601272878472, 1));
#370 = DIRECTION('NONE', (1, -0.0000000000000035527136788005136, -0.000000000000009473903143468037));
#371 = AXIS2_PLACEMENT_3D('NONE', #368, #369, #370);
#372 = CYLINDRICAL_SURFACE('NONE', #371, 0.011999999999999957);
#373 = CARTESIAN_POINT('NONE', (-0.0324, 0.0915, -0.5));
#374 = DIRECTION('NONE', (0, -1, -0));
#375 = AXIS2_PLACEMENT_3D('NONE', #373, #374, $);
#376 = PLANE('NONE', #375);
#377 = CARTESIAN_POINT('NONE', (-0.05, 0.09575, -0.5));
#378 = DIRECTION('NONE', (-1, 0, -0));
#379 = AXIS2_PLACEMENT_3D('NONE', #377, #378, $);
#380 = PLANE('NONE', #379);
#381 = CARTESIAN_POINT('NONE', (0, 0.1, -0.5));
#382 = DIRECTION('NONE', (0, 1, 0));
#383 = AXIS2_PLACEMENT_3D('NONE', #381, #382, $);
#384 = PLANE('NONE', #383);
#385 = CARTESIAN_POINT('NONE', (0, 0, -0));
#386 = DIRECTION('NONE', (0, -0, -1));
#387 = AXIS2_PLACEMENT_3D('NONE', #385, #386, $);
#388 = PLANE('NONE', #387);
#389 = CARTESIAN_POINT('NONE', (0, 0, -1));
#390 = DIRECTION('NONE', (0, -0, -1));
#391 = AXIS2_PLACEMENT_3D('NONE', #389, #390, $);
#392 = PLANE('NONE', #391);
#393 = ORIENTED_EDGE('NONE', *, *, #269, .T.);
#394 = ORIENTED_EDGE('NONE', *, *, #270, .T.);
#395 = ORIENTED_EDGE('NONE', *, *, #271, .F.);
#396 = ORIENTED_EDGE('NONE', *, *, #272, .F.);
#397 = EDGE_LOOP('NONE', (#393, #394, #395, #396));
#398 = FACE_BOUND('NONE', #397, .T.);
#399 = ADVANCED_FACE('NONE', (#398), #320, .T.);
#400 = ORIENTED_EDGE('NONE', *, *, #273, .T.);
#401 = ORIENTED_EDGE('NONE', *, *, #274, .T.);
#402 = ORIENTED_EDGE('NONE', *, *, #275, .F.);
#403 = ORIENTED_EDGE('NONE', *, *, #270, .F.);
#404 = EDGE_LOOP('NONE', (#400, #401, #402, #403));
#405 = FACE_BOUND('NONE', #404, .T.);
#406 = ADVANCED_FACE('NONE', (#405), #324, .T.);
#407 = ORIENTED_EDGE('NONE', *, *, #276, .T.);
#408 = ORIENTED_EDGE('NONE', *, *, #277, .T.);
#409 = ORIENTED_EDGE('NONE', *, *, #278, .F.);
#410 = ORIENTED_EDGE('NONE', *, *, #274, .F.);
#411 = EDGE_LOOP('NONE', (#407, #408, #409, #410));
#412 = FACE_BOUND('NONE', #411, .T.);
#413 = ADVANCED_FACE('NONE', (#412), #329, .F.);
#414 = ORIENTED_EDGE('NONE', *, *, #279, .T.);
#415 = ORIENTED_EDGE('NONE', *, *, #280, .T.);
#416 = ORIENTED_EDGE('NONE', *, *, #281, .F.);
#417 = ORIENTED_EDGE('NONE', *, *, #277, .F.);
#418 = EDGE_LOOP('NONE', (#414, #415, #416, #417));
#419 = FACE_BOUND('NONE', #418, .T.);
#420 = ADVANCED_FACE('NONE', (#419), #333, .T.);
#421 = ORIENTED_EDGE('NONE', *, *, #282, .T.);
#422 = ORIENTED_EDGE('NONE', *, *, #283, .T.);
#423 = ORIENTED_EDGE('NONE', *, *, #284, .F.);
#424 = ORIENTED_EDGE('NONE', *, *, #280, .F.);
#425 = EDGE_LOOP('NONE', (#421, #422, #423, #424));
#426 = FACE_BOUND('NONE', #425, .T.);
#427 = ADVANCED_FACE('NONE', (#426), #338, .F.);
#428 = ORIENTED_EDGE('NONE', *, *, #285, .T.);
#429 = ORIENTED_EDGE('NONE', *, *, #286, .T.);
#430 = ORIENTED_EDGE('NONE', *, *, #287, .F.);
#431 = ORIENTED_EDGE('NONE', *, *, #283, .F.);
#432 = EDGE_LOOP('NONE', (#428, #429, #430, #431));
#433 = FACE_BOUND('NONE', #432, .T.);
#434 = ADVANCED_FACE('NONE', (#433), #342, .T.);
#435 = ORIENTED_EDGE('NONE', *, *, #288, .T.);
#436 = ORIENTED_EDGE('NONE', *, *, #289, .T.);
#437 = ORIENTED_EDGE('NONE', *, *, #290, .F.);
#438 = ORIENTED_EDGE('NONE', *, *, #286, .F.);
#439 = EDGE_LOOP('NONE', (#435, #436, #437, #438));
#440 = FACE_BOUND('NONE', #439, .T.);
#441 = ADVANCED_FACE('NONE', (#440), #346, .T.);
#442 = ORIENTED_EDGE('NONE', *, *, #291, .T.);
#443 = ORIENTED_EDGE('NONE', *, *, #292, .T.);
#444 = ORIENTED_EDGE('NONE', *, *, #293, .F.);
#445 = ORIENTED_EDGE('NONE', *, *, #289, .F.);
#446 = EDGE_LOOP('NONE', (#442, #443, #444, #445));
#447 = FACE_BOUND('NONE', #446, .T.);
#448 = ADVANCED_FACE('NONE', (#447), #350, .T.);
#449 = ORIENTED_EDGE('NONE', *, *, #294, .T.);
#450 = ORIENTED_EDGE('NONE', *, *, #295, .T.);
#451 = ORIENTED_EDGE('NONE', *, *, #296, .F.);
#452 = ORIENTED_EDGE('NONE', *, *, #292, .F.);
#453 = EDGE_LOOP('NONE', (#449, #450, #451, #452));
#454 = FACE_BOUND('NONE', #453, .T.);
#455 = ADVANCED_FACE('NONE', (#454), #354, .T.);
#456 = ORIENTED_EDGE('NONE', *, *, #297, .T.);
#457 = ORIENTED_EDGE('NONE', *, *, #298, .T.);
#458 = ORIENTED_EDGE('NONE', *, *, #299, .F.);
#459 = ORIENTED_EDGE('NONE', *, *, #295, .F.);
#460 = EDGE_LOOP('NONE', (#456, #457, #458, #459));
#461 = FACE_BOUND('NONE', #460, .T.);
#462 = ADVANCED_FACE('NONE', (#461), #358, .T.);
#463 = ORIENTED_EDGE('NONE', *, *, #300, .T.);
#464 = ORIENTED_EDGE('NONE', *, *, #301, .T.);
#465 = ORIENTED_EDGE('NONE', *, *, #302, .F.);
#466 = ORIENTED_EDGE('NONE', *, *, #298, .F.);
#467 = EDGE_LOOP('NONE', (#463, #464, #465, #466));
#468 = FACE_BOUND('NONE', #467, .T.);
#469 = ADVANCED_FACE('NONE', (#468), #363, .F.);
#470 = ORIENTED_EDGE('NONE', *, *, #303, .T.);
#471 = ORIENTED_EDGE('NONE', *, *, #304, .T.);
#472 = ORIENTED_EDGE('NONE', *, *, #305, .F.);
#473 = ORIENTED_EDGE('NONE', *, *, #301, .F.);
#474 = EDGE_LOOP('NONE', (#470, #471, #472, #473));
#475 = FACE_BOUND('NONE', #474, .T.);
#476 = ADVANCED_FACE('NONE', (#475), #367, .T.);
#477 = ORIENTED_EDGE('NONE', *, *, #306, .T.);
#478 = ORIENTED_EDGE('NONE', *, *, #307, .T.);
#479 = ORIENTED_EDGE('NONE', *, *, #308, .F.);
#480 = ORIENTED_EDGE('NONE', *, *, #304, .F.);
#481 = EDGE_LOOP('NONE', (#477, #478, #479, #480));
#482 = FACE_BOUND('NONE', #481, .T.);
#483 = ADVANCED_FACE('NONE', (#482), #372, .F.);
#484 = ORIENTED_EDGE('NONE', *, *, #309, .T.);
#485 = ORIENTED_EDGE('NONE', *, *, #310, .T.);
#486 = ORIENTED_EDGE('NONE', *, *, #311, .F.);
#487 = ORIENTED_EDGE('NONE', *, *, #307, .F.);
#488 = EDGE_LOOP('NONE', (#484, #485, #486, #487));
#489 = FACE_BOUND('NONE', #488, .T.);
#490 = ADVANCED_FACE('NONE', (#489), #376, .T.);
#491 = ORIENTED_EDGE('NONE', *, *, #312, .T.);
#492 = ORIENTED_EDGE('NONE', *, *, #313, .T.);
#493 = ORIENTED_EDGE('NONE', *, *, #314, .F.);
#494 = ORIENTED_EDGE('NONE', *, *, #310, .F.);
#495 = EDGE_LOOP('NONE', (#491, #492, #493, #494));
#496 = FACE_BOUND('NONE', #495, .T.);
#497 = ADVANCED_FACE('NONE', (#496), #380, .T.);
#498 = ORIENTED_EDGE('NONE', *, *, #315, .T.);
#499 = ORIENTED_EDGE('NONE', *, *, #272, .T.);
#500 = ORIENTED_EDGE('NONE', *, *, #316, .F.);
#501 = ORIENTED_EDGE('NONE', *, *, #313, .F.);
#502 = EDGE_LOOP('NONE', (#498, #499, #500, #501));
#503 = FACE_BOUND('NONE', #502, .T.);
#504 = ADVANCED_FACE('NONE', (#503), #384, .T.);
#505 = ORIENTED_EDGE('NONE', *, *, #315, .F.);
#506 = ORIENTED_EDGE('NONE', *, *, #312, .F.);
#507 = ORIENTED_EDGE('NONE', *, *, #309, .F.);
#508 = ORIENTED_EDGE('NONE', *, *, #306, .F.);
#509 = ORIENTED_EDGE('NONE', *, *, #303, .F.);
#510 = ORIENTED_EDGE('NONE', *, *, #300, .F.);
#511 = ORIENTED_EDGE('NONE', *, *, #297, .F.);
#512 = ORIENTED_EDGE('NONE', *, *, #294, .F.);
#513 = ORIENTED_EDGE('NONE', *, *, #291, .F.);
#514 = ORIENTED_EDGE('NONE', *, *, #288, .F.);
#515 = ORIENTED_EDGE('NONE', *, *, #285, .F.);
#516 = ORIENTED_EDGE('NONE', *, *, #282, .F.);
#517 = ORIENTED_EDGE('NONE', *, *, #279, .F.);
#518 = ORIENTED_EDGE('NONE', *, *, #276, .F.);
#519 = ORIENTED_EDGE('NONE', *, *, #273, .F.);
#520 = ORIENTED_EDGE('NONE', *, *, #269, .F.);
#521 = EDGE_LOOP('NONE', (#505, #506, #507, #508, #509, #510, #511, #512, #513, #514, #515, #516, #517, #518, #519, #520));
#522 = FACE_BOUND('NONE', #521, .T.);
#523 = ADVANCED_FACE('NONE', (#522), #388, .F.);
#524 = ORIENTED_EDGE('NONE', *, *, #271, .T.);
#525 = ORIENTED_EDGE('NONE', *, *, #275, .T.);
#526 = ORIENTED_EDGE('NONE', *, *, #278, .T.);
#527 = ORIENTED_EDGE('NONE', *, *, #281, .T.);
#528 = ORIENTED_EDGE('NONE', *, *, #284, .T.);
#529 = ORIENTED_EDGE('NONE', *, *, #287, .T.);
#530 = ORIENTED_EDGE('NONE', *, *, #290, .T.);
#531 = ORIENTED_EDGE('NONE', *, *, #293, .T.);
#532 = ORIENTED_EDGE('NONE', *, *, #296, .T.);
#533 = ORIENTED_EDGE('NONE', *, *, #299, .T.);
#534 = ORIENTED_EDGE('NONE', *, *, #302, .T.);
#535 = ORIENTED_EDGE('NONE', *, *, #305, .T.);
#536 = ORIENTED_EDGE('NONE', *, *, #308, .T.);
#537 = ORIENTED_EDGE('NONE', *, *, #311, .T.);
#538 = ORIENTED_EDGE('NONE', *, *, #314, .T.);
#539 = ORIENTED_EDGE('NONE', *, *, #316, .T.);
#540 = EDGE_LOOP('NONE', (#524, #525, #526, #527, #528, #529, #530, #531, #532, #533, #534, #535, #536, #537, #538, #539));
#541 = FACE_BOUND('NONE', #540, .T.);
#542 = ADVANCED_FACE('NONE', (#541), #392, .T.);
#543 = CLOSED_SHELL('NONE', (#399, #406, #413, #420, #427, #434, #441, #448, #455, #462, #469, #476, #483, #490, #497, #504, #523, #542));
#544 = MANIFOLD_SOLID_BREP('NONE', #543);
#545 = APPLICATION_CONTEXT('configuration controlled 3D design of mechanical parts and assemblies');
#546 = PRODUCT_DEFINITION_CONTEXT('part definition', #545, 'design');
#547 = PRODUCT('UNIDENTIFIED_PRODUCT', 'NONE', $, ());
#548 = PRODUCT_DEFINITION_FORMATION('', $, #547);
#549 = PRODUCT_DEFINITION('design', $, #548, #546);
#550 = PRODUCT_DEFINITION_SHAPE('NONE', $, #549);
#551 = ADVANCED_BREP_SHAPE_REPRESENTATION('NONE', (#544), #4);
#552 = SHAPE_DEFINITION_REPRESENTATION(#550, #551);
#553 = COLOUR_RGB('NONE', 0.8999999761581421, 0.8999999761581421, 0.8999999761581421);
#554 = FILL_AREA_STYLE_COLOUR('NONE', #553);
#555 = FILL_AREA_STYLE('NONE', (#554));
#556 = SURFACE_STYLE_FILL_AREA(#555);
#557 = SURFACE_SIDE_STYLE('NONE', (#556));
#558 = SURFACE_STYLE_USAGE(.BOTH., #557);
#559 = PRESENTATION_STYLE_ASSIGNMENT((#558));
#560 = STYLED_ITEM('NONE', (#559), #544);
#561 = MECHANICAL_DESIGN_GEOMETRIC_PRESENTATION_REPRESENTATION('NONE', (#560), #4);
ENDSEC;
END-ISO-10303-21;
