ISO-10303-21;
HEADER;
FILE_DESCRIPTION(('Zoo Text-to-CAD'),'1');
FILE_NAME('dump.step', '2025-11-20T07:20:08.385173137+00:00', ('Author unknown'), ('Organization unknown'), 'zoo.dev beta', 'zoo.dev', 'Authorization unknown');
FILE_SCHEMA(('AP203_CONFIGURATION_CONTROLLED_3D_DESIGN_OF_MECHANICAL_PARTS_AND_ASSEMBLIES_MIM_LF'));
ENDSEC;
DATA;
#1 = (
  LENGTH_UNIT()
  NAMED_UNIT(*)
  SI_UNIT($, .METRE.)
);
#2 = (
  NAMED_UNIT(*)
  PLANE_ANGLE_UNIT()
  SI_UNIT($, .RADIAN.)
);
#3 = UNCERTAINTY_MEASURE_WITH_UNIT(LENGTH_MEASURE(0.00001), #1, 'DISTANCE_ACCURACY_VALUE', $);
#4 = (
  GEOMETRIC_REPRESENTATION_CONTEXT(3)
  GLOBAL_UNCERTAINTY_ASSIGNED_CONTEXT((#3))
  GLOBAL_UNIT_ASSIGNED_CONTEXT((#1, #2))
  REPRESENTATION_CONTEXT('', '3D')
);
#5 = CARTESIAN_POINT('NONE', (0.0825, 0.182, -0));
#6 = VERTEX_POINT('NONE', #5);
#7 = CARTESIAN_POINT('NONE', (0.0825, 0.2, -0));
#8 = VERTEX_POINT('NONE', #7);
#9 = CARTESIAN_POINT('NONE', (0.027399999999999997, 0.182, 0.000000000000000006711064459327495));
#10 = VERTEX_POINT('NONE', #9);
#11 = CARTESIAN_POINT('NONE', (0.027399999999999997, 0.2, 0.000000000000000006711064459327495));
#12 = VERTEX_POINT('NONE', #11);
#13 = CARTESIAN_POINT('NONE', (0.0715, 0.182, 0.000000000000000002204364238465236));
#14 = VERTEX_POINT('NONE', #13);
#15 = CARTESIAN_POINT('NONE', (0.0715, 0.2, 0.000000000000000002204364238465236));
#16 = VERTEX_POINT('NONE', #15);
#17 = CARTESIAN_POINT('NONE', (0.0000000000000000065824765454170236, 0.182, -0.0715));
#18 = VERTEX_POINT('NONE', #17);
#19 = CARTESIAN_POINT('NONE', (0.0000000000000000065824765454170236, 0.2, -0.0715));
#20 = VERTEX_POINT('NONE', #19);
#21 = CARTESIAN_POINT('NONE', (-0.0715, 0.182, -0.000000000000000010960588852368812));
#22 = VERTEX_POINT('NONE', #21);
#23 = CARTESIAN_POINT('NONE', (-0.0715, 0.2, -0.000000000000000010960588852368812));
#24 = VERTEX_POINT('NONE', #23);
#25 = CARTESIAN_POINT('NONE', (-0.0000000000000000153387011593206, 0.182, 0.0715));
#26 = VERTEX_POINT('NONE', #25);
#27 = CARTESIAN_POINT('NONE', (-0.0000000000000000153387011593206, 0.2, 0.0715));
#28 = VERTEX_POINT('NONE', #27);
#29 = CARTESIAN_POINT('NONE', (0.03015, 0, -0));
#30 = VERTEX_POINT('NONE', #29);
#31 = CARTESIAN_POINT('NONE', (0.03015, 0.2, -0));
#32 = VERTEX_POINT('NONE', #31);
#33 = CARTESIAN_POINT('NONE', (-0.027149999999999997, 0, -0));
#34 = VERTEX_POINT('NONE', #33);
#35 = CARTESIAN_POINT('NONE', (-0.027149999999999997, -0.2, -0));
#36 = VERTEX_POINT('NONE', #35);
#37 = DIRECTION('NONE', (1, 0, -0));
#38 = DIRECTION('NONE', (0, 1, 0));
#39 = CARTESIAN_POINT('NONE', (0, 0.182, 0));
#40 = AXIS2_PLACEMENT_3D('NONE', #39, #38, #37);
#41 = CIRCLE('NONE', #40, 0.0825);
#42 = DIRECTION('NONE', (0, 1, 0));
#43 = VECTOR('NONE', #42, 1);
#44 = CARTESIAN_POINT('NONE', (0.0825, 0.182, -0));
#45 = LINE('NONE', #44, #43);
#46 = DIRECTION('NONE', (1, 0, -0));
#47 = DIRECTION('NONE', (0, 1, 0));
#48 = CARTESIAN_POINT('NONE', (0, 0.2, 0));
#49 = AXIS2_PLACEMENT_3D('NONE', #48, #47, #46);
#50 = CIRCLE('NONE', #49, 0.0825);
#51 = DIRECTION('NONE', (1, 0, 0.00000000000000024492935982947064));
#52 = DIRECTION('NONE', (0, -1, 0));
#53 = CARTESIAN_POINT('NONE', (0, 0.182, -0));
#54 = AXIS2_PLACEMENT_3D('NONE', #53, #52, #51);
#55 = CIRCLE('NONE', #54, 0.027399999999999997);
#56 = DIRECTION('NONE', (0, 1, 0));
#57 = VECTOR('NONE', #56, 1);
#58 = CARTESIAN_POINT('NONE', (0.027399999999999997, 0.182, 0.000000000000000006711064459327495));
#59 = LINE('NONE', #58, #57);
#60 = DIRECTION('NONE', (1, 0, 0.00000000000000024492935982947064));
#61 = DIRECTION('NONE', (0, -1, 0));
#62 = CARTESIAN_POINT('NONE', (0, 0.2, -0));
#63 = AXIS2_PLACEMENT_3D('NONE', #62, #61, #60);
#64 = CIRCLE('NONE', #63, 0.027399999999999997);
#65 = DIRECTION('NONE', (1, 0, 0.0000000000000008031844562503684));
#66 = DIRECTION('NONE', (0, -1, 0));
#67 = CARTESIAN_POINT('NONE', (0.0625, 0.182, -0.000000000000000005024295867788081));
#68 = AXIS2_PLACEMENT_3D('NONE', #67, #66, #65);
#69 = CIRCLE('NONE', #68, 0.009);
#70 = DIRECTION('NONE', (0, 1, 0));
#71 = VECTOR('NONE', #70, 1);
#72 = CARTESIAN_POINT('NONE', (0.0715, 0.182, 0.000000000000000002204364238465236));
#73 = LINE('NONE', #72, #71);
#74 = DIRECTION('NONE', (1, 0, 0.0000000000000008031844562503684));
#75 = DIRECTION('NONE', (0, -1, 0));
#76 = CARTESIAN_POINT('NONE', (0.0625, 0.2, -0.000000000000000005024295867788081));
#77 = AXIS2_PLACEMENT_3D('NONE', #76, #75, #74);
#78 = CIRCLE('NONE', #77, 0.009);
#79 = DIRECTION('NONE', (0.00000000000000017313118640321604, 0, -1));
#80 = DIRECTION('NONE', (0, -1, 0));
#81 = CARTESIAN_POINT('NONE', (0.000000000000000005024295867788081, 0.182, -0.06250000000000001));
#82 = AXIS2_PLACEMENT_3D('NONE', #81, #80, #79);
#83 = CIRCLE('NONE', #82, 0.008999999999999992);
#84 = DIRECTION('NONE', (0, 1, 0));
#85 = VECTOR('NONE', #84, 1);
#86 = CARTESIAN_POINT('NONE', (0.0000000000000000065824765454170236, 0.182, -0.0715));
#87 = LINE('NONE', #86, #85);
#88 = DIRECTION('NONE', (0.00000000000000017313118640321604, 0, -1));
#89 = DIRECTION('NONE', (0, -1, 0));
#90 = CARTESIAN_POINT('NONE', (0.000000000000000005024295867788081, 0.2, -0.06250000000000001));
#91 = AXIS2_PLACEMENT_3D('NONE', #90, #89, #88);
#92 = CIRCLE('NONE', #91, 0.008999999999999992);
#93 = DIRECTION('NONE', (-1, 0, -0.0000000000000006595881093978595));
#94 = DIRECTION('NONE', (0, -1, -0));
#95 = CARTESIAN_POINT('NONE', (-0.06250000000000001, 0.182, -0.000000000000000005024295867788081));
#96 = AXIS2_PLACEMENT_3D('NONE', #95, #94, #93);
#97 = CIRCLE('NONE', #96, 0.008999999999999992);
#98 = DIRECTION('NONE', (0, 1, 0));
#99 = VECTOR('NONE', #98, 1);
#100 = CARTESIAN_POINT('NONE', (-0.0715, 0.182, -0.000000000000000010960588852368812));
#101 = LINE('NONE', #100, #99);
#102 = DIRECTION('NONE', (-1, 0, -0.0000000000000006595881093978595));
#103 = DIRECTION('NONE', (0, -1, -0));
#104 = CARTESIAN_POINT('NONE', (-0.06250000000000001, 0.2, -0.000000000000000005024295867788081));
#105 = AXIS2_PLACEMENT_3D('NONE', #104, #103, #102);
#106 = CIRCLE('NONE', #105, 0.008999999999999992);
#107 = DIRECTION('NONE', (-0.0000000000000005877899359716036, 0, 1));
#108 = DIRECTION('NONE', (-0, -1, 0));
#109 = CARTESIAN_POINT('NONE', (-0.000000000000000010048591735576163, 0.182, 0.06249999999999999));
#110 = AXIS2_PLACEMENT_3D('NONE', #109, #108, #107);
#111 = CIRCLE('NONE', #110, 0.009000000000000006);
#112 = DIRECTION('NONE', (0, 1, 0));
#113 = VECTOR('NONE', #112, 1);
#114 = CARTESIAN_POINT('NONE', (-0.0000000000000000153387011593206, 0.182, 0.0715));
#115 = LINE('NONE', #114, #113);
#116 = DIRECTION('NONE', (-0.0000000000000005877899359716036, 0, 1));
#117 = DIRECTION('NONE', (-0, -1, 0));
#118 = CARTESIAN_POINT('NONE', (-0.000000000000000010048591735576163, 0.2, 0.06249999999999999));
#119 = AXIS2_PLACEMENT_3D('NONE', #118, #117, #116);
#120 = CIRCLE('NONE', #119, 0.009000000000000006);
#121 = DIRECTION('NONE', (1, 0, -0));
#122 = DIRECTION('NONE', (0, 1, 0));
#123 = CARTESIAN_POINT('NONE', (-0, 0, 0));
#124 = AXIS2_PLACEMENT_3D('NONE', #123, #122, #121);
#125 = CIRCLE('NONE', #124, 0.03015);
#126 = DIRECTION('NONE', (0, 1, 0));
#127 = VECTOR('NONE', #126, 1);
#128 = CARTESIAN_POINT('NONE', (0.03015, 0, -0));
#129 = LINE('NONE', #128, #127);
#130 = DIRECTION('NONE', (1, 0, -0));
#131 = DIRECTION('NONE', (0, 1, 0));
#132 = CARTESIAN_POINT('NONE', (-0, 0.2, 0));
#133 = AXIS2_PLACEMENT_3D('NONE', #132, #131, #130);
#134 = CIRCLE('NONE', #133, 0.03015);
#135 = DIRECTION('NONE', (-1, 0, -0));
#136 = DIRECTION('NONE', (0, -1, -0));
#137 = CARTESIAN_POINT('NONE', (0, -0, 0));
#138 = AXIS2_PLACEMENT_3D('NONE', #137, #136, #135);
#139 = CIRCLE('NONE', #138, 0.027149999999999997);
#140 = DIRECTION('NONE', (0, -1, 0));
#141 = VECTOR('NONE', #140, 1);
#142 = CARTESIAN_POINT('NONE', (-0.027149999999999997, 0, -0));
#143 = LINE('NONE', #142, #141);
#144 = DIRECTION('NONE', (-1, 0, -0));
#145 = DIRECTION('NONE', (0, -1, -0));
#146 = CARTESIAN_POINT('NONE', (0, -0.2, 0));
#147 = AXIS2_PLACEMENT_3D('NONE', #146, #145, #144);
#148 = CIRCLE('NONE', #147, 0.027149999999999997);
#149 = EDGE_CURVE('NONE', #6, #6, #41, .T.);
#150 = EDGE_CURVE('NONE', #6, #8, #45, .T.);
#151 = EDGE_CURVE('NONE', #8, #8, #50, .T.);
#152 = EDGE_CURVE('NONE', #10, #10, #55, .T.);
#153 = EDGE_CURVE('NONE', #10, #12, #59, .T.);
#154 = EDGE_CURVE('NONE', #12, #12, #64, .T.);
#155 = EDGE_CURVE('NONE', #14, #14, #69, .T.);
#156 = EDGE_CURVE('NONE', #14, #16, #73, .T.);
#157 = EDGE_CURVE('NONE', #16, #16, #78, .T.);
#158 = EDGE_CURVE('NONE', #18, #18, #83, .T.);
#159 = EDGE_CURVE('NONE', #18, #20, #87, .T.);
#160 = EDGE_CURVE('NONE', #20, #20, #92, .T.);
#161 = EDGE_CURVE('NONE', #22, #22, #97, .T.);
#162 = EDGE_CURVE('NONE', #22, #24, #101, .T.);
#163 = EDGE_CURVE('NONE', #24, #24, #106, .T.);
#164 = EDGE_CURVE('NONE', #26, #26, #111, .T.);
#165 = EDGE_CURVE('NONE', #26, #28, #115, .T.);
#166 = EDGE_CURVE('NONE', #28, #28, #120, .T.);
#167 = EDGE_CURVE('NONE', #30, #30, #125, .T.);
#168 = EDGE_CURVE('NONE', #30, #32, #129, .T.);
#169 = EDGE_CURVE('NONE', #32, #32, #134, .T.);
#170 = EDGE_CURVE('NONE', #34, #34, #139, .T.);
#171 = EDGE_CURVE('NONE', #34, #36, #143, .T.);
#172 = EDGE_CURVE('NONE', #36, #36, #148, .T.);
#173 = CARTESIAN_POINT('NONE', (0, 0.191, 0));
#174 = DIRECTION('NONE', (0, 1, 0));
#175 = DIRECTION('NONE', (1, 0, -0));
#176 = AXIS2_PLACEMENT_3D('NONE', #173, #174, #175);
#177 = CYLINDRICAL_SURFACE('NONE', #176, 0.0825);
#178 = CARTESIAN_POINT('NONE', (0, 0.191, -0));
#179 = DIRECTION('NONE', (0, -1, 0));
#180 = DIRECTION('NONE', (1, 0, 0.00000000000000024492935982947064));
#181 = AXIS2_PLACEMENT_3D('NONE', #178, #179, #180);
#182 = CYLINDRICAL_SURFACE('NONE', #181, 0.027399999999999997);
#183 = CARTESIAN_POINT('NONE', (0.0625, 0.191, -0.000000000000000005024295867788081));
#184 = DIRECTION('NONE', (0, -1, 0));
#185 = DIRECTION('NONE', (1, 0, 0.0000000000000008031844562503684));
#186 = AXIS2_PLACEMENT_3D('NONE', #183, #184, #185);
#187 = CYLINDRICAL_SURFACE('NONE', #186, 0.009);
#188 = CARTESIAN_POINT('NONE', (0.000000000000000005024295867788081, 0.191, -0.06250000000000001));
#189 = DIRECTION('NONE', (0, -1, 0));
#190 = DIRECTION('NONE', (0.00000000000000017313118640321604, 0, -1));
#191 = AXIS2_PLACEMENT_3D('NONE', #188, #189, #190);
#192 = CYLINDRICAL_SURFACE('NONE', #191, 0.008999999999999992);
#193 = CARTESIAN_POINT('NONE', (-0.06250000000000001, 0.191, -0.000000000000000005024295867788081));
#194 = DIRECTION('NONE', (0, -1, -0));
#195 = DIRECTION('NONE', (-1, 0, -0.0000000000000006595881093978595));
#196 = AXIS2_PLACEMENT_3D('NONE', #193, #194, #195);
#197 = CYLINDRICAL_SURFACE('NONE', #196, 0.008999999999999992);
#198 = CARTESIAN_POINT('NONE', (-0.000000000000000010048591735576163, 0.191, 0.06249999999999999));
#199 = DIRECTION('NONE', (-0, -1, 0));
#200 = DIRECTION('NONE', (-0.0000000000000005877899359716036, 0, 1));
#201 = AXIS2_PLACEMENT_3D('NONE', #198, #199, #200);
#202 = CYLINDRICAL_SURFACE('NONE', #201, 0.009000000000000006);
#203 = CARTESIAN_POINT('NONE', (0, 0.182, -0));
#204 = DIRECTION('NONE', (0, 1, 0));
#205 = AXIS2_PLACEMENT_3D('NONE', #203, #204, $);
#206 = PLANE('NONE', #205);
#207 = CARTESIAN_POINT('NONE', (0, 0.2, -0));
#208 = DIRECTION('NONE', (0, 1, 0));
#209 = AXIS2_PLACEMENT_3D('NONE', #207, #208, $);
#210 = PLANE('NONE', #209);
#211 = CARTESIAN_POINT('NONE', (-0, 0.1, 0));
#212 = DIRECTION('NONE', (0, 1, 0));
#213 = DIRECTION('NONE', (1, 0, -0));
#214 = AXIS2_PLACEMENT_3D('NONE', #211, #212, #213);
#215 = CYLINDRICAL_SURFACE('NONE', #214, 0.03015);
#216 = CARTESIAN_POINT('NONE', (0, 0, -0));
#217 = DIRECTION('NONE', (0, 1, 0));
#218 = AXIS2_PLACEMENT_3D('NONE', #216, #217, $);
#219 = PLANE('NONE', #218);
#220 = CARTESIAN_POINT('NONE', (0, 0.2, -0));
#221 = DIRECTION('NONE', (0, 1, 0));
#222 = AXIS2_PLACEMENT_3D('NONE', #220, #221, $);
#223 = PLANE('NONE', #222);
#224 = CARTESIAN_POINT('NONE', (0, -0.1, 0));
#225 = DIRECTION('NONE', (0, -1, -0));
#226 = DIRECTION('NONE', (-1, 0, -0));
#227 = AXIS2_PLACEMENT_3D('NONE', #224, #225, #226);
#228 = CYLINDRICAL_SURFACE('NONE', #227, 0.027149999999999997);
#229 = CARTESIAN_POINT('NONE', (0, -0.2, -0));
#230 = DIRECTION('NONE', (0, -1, -0));
#231 = AXIS2_PLACEMENT_3D('NONE', #229, #230, $);
#232 = PLANE('NONE', #231);
#233 = ORIENTED_EDGE('NONE', *, *, #149, .T.);
#234 = ORIENTED_EDGE('NONE', *, *, #151, .F.);
#235 = EDGE_LOOP('NONE', (#233));
#236 = FACE_BOUND('NONE', #235, .T.);
#237 = EDGE_LOOP('NONE', (#234));
#238 = FACE_BOUND('NONE', #237, .T.);
#239 = ADVANCED_FACE('NONE', (#236, #238), #177, .T.);
#240 = ORIENTED_EDGE('NONE', *, *, #152, .T.);
#241 = ORIENTED_EDGE('NONE', *, *, #154, .F.);
#242 = EDGE_LOOP('NONE', (#240));
#243 = FACE_BOUND('NONE', #242, .T.);
#244 = EDGE_LOOP('NONE', (#241));
#245 = FACE_BOUND('NONE', #244, .T.);
#246 = ADVANCED_FACE('NONE', (#243, #245), #182, .F.);
#247 = ORIENTED_EDGE('NONE', *, *, #155, .T.);
#248 = ORIENTED_EDGE('NONE', *, *, #157, .F.);
#249 = EDGE_LOOP('NONE', (#247));
#250 = FACE_BOUND('NONE', #249, .T.);
#251 = EDGE_LOOP('NONE', (#248));
#252 = FACE_BOUND('NONE', #251, .T.);
#253 = ADVANCED_FACE('NONE', (#250, #252), #187, .F.);
#254 = ORIENTED_EDGE('NONE', *, *, #158, .T.);
#255 = ORIENTED_EDGE('NONE', *, *, #160, .F.);
#256 = EDGE_LOOP('NONE', (#254));
#257 = FACE_BOUND('NONE', #256, .T.);
#258 = EDGE_LOOP('NONE', (#255));
#259 = FACE_BOUND('NONE', #258, .T.);
#260 = ADVANCED_FACE('NONE', (#257, #259), #192, .F.);
#261 = ORIENTED_EDGE('NONE', *, *, #161, .T.);
#262 = ORIENTED_EDGE('NONE', *, *, #163, .F.);
#263 = EDGE_LOOP('NONE', (#261));
#264 = FACE_BOUND('NONE', #263, .T.);
#265 = EDGE_LOOP('NONE', (#262));
#266 = FACE_BOUND('NONE', #265, .T.);
#267 = ADVANCED_FACE('NONE', (#264, #266), #197, .F.);
#268 = ORIENTED_EDGE('NONE', *, *, #164, .T.);
#269 = ORIENTED_EDGE('NONE', *, *, #166, .F.);
#270 = EDGE_LOOP('NONE', (#268));
#271 = FACE_BOUND('NONE', #270, .T.);
#272 = EDGE_LOOP('NONE', (#269));
#273 = FACE_BOUND('NONE', #272, .T.);
#274 = ADVANCED_FACE('NONE', (#271, #273), #202, .F.);
#275 = ORIENTED_EDGE('NONE', *, *, #149, .F.);
#276 = ORIENTED_EDGE('NONE', *, *, #152, .F.);
#277 = ORIENTED_EDGE('NONE', *, *, #155, .F.);
#278 = ORIENTED_EDGE('NONE', *, *, #158, .F.);
#279 = ORIENTED_EDGE('NONE', *, *, #161, .F.);
#280 = ORIENTED_EDGE('NONE', *, *, #164, .F.);
#281 = EDGE_LOOP('NONE', (#275));
#282 = FACE_BOUND('NONE', #281, .T.);
#283 = EDGE_LOOP('NONE', (#276));
#284 = FACE_BOUND('NONE', #283, .T.);
#285 = EDGE_LOOP('NONE', (#277));
#286 = FACE_BOUND('NONE', #285, .T.);
#287 = EDGE_LOOP('NONE', (#278));
#288 = FACE_BOUND('NONE', #287, .T.);
#289 = EDGE_LOOP('NONE', (#279));
#290 = FACE_BOUND('NONE', #289, .T.);
#291 = EDGE_LOOP('NONE', (#280));
#292 = FACE_BOUND('NONE', #291, .T.);
#293 = ADVANCED_FACE('NONE', (#282, #284, #286, #288, #290, #292), #206, .F.);
#294 = ORIENTED_EDGE('NONE', *, *, #151, .T.);
#295 = ORIENTED_EDGE('NONE', *, *, #154, .T.);
#296 = ORIENTED_EDGE('NONE', *, *, #157, .T.);
#297 = ORIENTED_EDGE('NONE', *, *, #160, .T.);
#298 = ORIENTED_EDGE('NONE', *, *, #163, .T.);
#299 = ORIENTED_EDGE('NONE', *, *, #166, .T.);
#300 = EDGE_LOOP('NONE', (#294));
#301 = FACE_BOUND('NONE', #300, .T.);
#302 = EDGE_LOOP('NONE', (#295));
#303 = FACE_BOUND('NONE', #302, .T.);
#304 = EDGE_LOOP('NONE', (#296));
#305 = FACE_BOUND('NONE', #304, .T.);
#306 = EDGE_LOOP('NONE', (#297));
#307 = FACE_BOUND('NONE', #306, .T.);
#308 = EDGE_LOOP('NONE', (#298));
#309 = FACE_BOUND('NONE', #308, .T.);
#310 = EDGE_LOOP('NONE', (#299));
#311 = FACE_BOUND('NONE', #310, .T.);
#312 = ADVANCED_FACE('NONE', (#301, #303, #305, #307, #309, #311), #210, .T.);
#313 = ORIENTED_EDGE('NONE', *, *, #167, .T.);
#314 = ORIENTED_EDGE('NONE', *, *, #169, .F.);
#315 = EDGE_LOOP('NONE', (#313));
#316 = FACE_BOUND('NONE', #315, .T.);
#317 = EDGE_LOOP('NONE', (#314));
#318 = FACE_BOUND('NONE', #317, .T.);
#319 = ADVANCED_FACE('NONE', (#316, #318), #215, .T.);
#320 = ORIENTED_EDGE('NONE', *, *, #167, .F.);
#321 = ORIENTED_EDGE('NONE', *, *, #170, .F.);
#322 = EDGE_LOOP('NONE', (#320));
#323 = FACE_BOUND('NONE', #322, .T.);
#324 = EDGE_LOOP('NONE', (#321));
#325 = FACE_BOUND('NONE', #324, .T.);
#326 = ADVANCED_FACE('NONE', (#323, #325), #219, .F.);
#327 = ORIENTED_EDGE('NONE', *, *, #169, .T.);
#328 = EDGE_LOOP('NONE', (#327));
#329 = FACE_BOUND('NONE', #328, .T.);
#330 = ADVANCED_FACE('NONE', (#329), #223, .T.);
#331 = ORIENTED_EDGE('NONE', *, *, #170, .T.);
#332 = ORIENTED_EDGE('NONE', *, *, #172, .F.);
#333 = EDGE_LOOP('NONE', (#331));
#334 = FACE_BOUND('NONE', #333, .T.);
#335 = EDGE_LOOP('NONE', (#332));
#336 = FACE_BOUND('NONE', #335, .T.);
#337 = ADVANCED_FACE('NONE', (#334, #336), #228, .T.);
#338 = ORIENTED_EDGE('NONE', *, *, #172, .T.);
#339 = EDGE_LOOP('NONE', (#338));
#340 = FACE_BOUND('NONE', #339, .T.);
#341 = ADVANCED_FACE('NONE', (#340), #232, .T.);
#342 = CLOSED_SHELL('NONE', (#239, #246, #253, #260, #267, #274, #293, #312));
#343 = CLOSED_SHELL('NONE', (#319, #326, #330, #337, #341));
#344 = MANIFOLD_SOLID_BREP('NONE', #342);
#345 = MANIFOLD_SOLID_BREP('NONE', #343);
#346 = APPLICATION_CONTEXT('configuration controlled 3D design of mechanical parts and assemblies');
#347 = PRODUCT_DEFINITION_CONTEXT('part definition', #346, 'design');
#348 = PRODUCT('UNIDENTIFIED_PRODUCT', 'NONE', $, ());
#349 = PRODUCT_DEFINITION_FORMATION('', $, #348);
#350 = PRODUCT_DEFINITION('design', $, #349, #347);
#351 = PRODUCT_DEFINITION_SHAPE('NONE', $, #350);
#352 = ADVANCED_BREP_SHAPE_REPRESENTATION('NONE', (#345), #4);
#353 = SHAPE_DEFINITION_REPRESENTATION(#351, #352);
#354 = COLOUR_RGB('NONE', 0.7529411911964417, 0.7529411911964417, 0.7529411911964417);
#355 = FILL_AREA_STYLE_COLOUR('NONE', #354);
#356 = FILL_AREA_STYLE('NONE', (#355));
#357 = SURFACE_STYLE_FILL_AREA(#356);
#358 = SURFACE_SIDE_STYLE('NONE', (#357));
#359 = SURFACE_STYLE_USAGE(.BOTH., #358);
#360 = PRESENTATION_STYLE_ASSIGNMENT((#359));
#361 = STYLED_ITEM('NONE', (#360), #345);
#362 = MECHANICAL_DESIGN_GEOMETRIC_PRESENTATION_REPRESENTATION('NONE', (#361), #4);
#363 = PRODUCT('UNIDENTIFIED_PRODUCT', 'NONE', $, ());
#364 = PRODUCT_DEFINITION_FORMATION('', $, #363);
#365 = PRODUCT_DEFINITION('design', $, #364, #347);
#366 = PRODUCT_DEFINITION_SHAPE('NONE', $, #365);
#367 = ADVANCED_BREP_SHAPE_REPRESENTATION('NONE', (#344), #4);
#368 = SHAPE_DEFINITION_REPRESENTATION(#366, #367);
#369 = COLOUR_RGB('NONE', 0.7529411911964417, 0.7529411911964417, 0.7529411911964417);
#370 = FILL_AREA_STYLE_COLOUR('NONE', #369);
#371 = FILL_AREA_STYLE('NONE', (#370));
#372 = SURFACE_STYLE_FILL_AREA(#371);
#373 = SURFACE_SIDE_STYLE('NONE', (#372));
#374 = SURFACE_STYLE_USAGE(.BOTH., #373);
#375 = PRESENTATION_STYLE_ASSIGNMENT((#374));
#376 = STYLED_ITEM('NONE', (#375), #344);
#377 = MECHANICAL_DESIGN_GEOMETRIC_PRESENTATION_REPRESENTATION('NONE', (#376), #4);
ENDSEC;
END-ISO-10303-21;
