ISO-10303-21;
HEADER;
FILE_DESCRIPTION(('Zoo Text-to-CAD'),'1');
FILE_NAME('dump.step', '2025-11-20T06:52:27.509787092+00:00', ('Author unknown'), ('Organization unknown'), 'zoo.dev beta', 'zoo.dev', 'Authorization unknown');
FILE_SCHEMA(('AP203_CONFIGURATION_CONTROLLED_3D_DESIGN_OF_MECHANICAL_PARTS_AND_ASSEMBLIES_MIM_LF'));
ENDSEC;
DATA;
#1 = (
  LENGTH_UNIT()
  NAMED_UNIT(*)
  SI_UNIT($, .METRE.)
);
#2 = (
  NAMED_UNIT(*)
  PLANE_ANGLE_UNIT()
  SI_UNIT($, .RADIAN.)
);
#3 = UNCERTAINTY_MEASURE_WITH_UNIT(LENGTH_MEASURE(0.00001), #1, 'DISTANCE_ACCURACY_VALUE', $);
#4 = (
  GEOMETRIC_REPRESENTATION_CONTEXT(3)
  GLOBAL_UNCERTAINTY_ASSIGNED_CONTEXT((#3))
  GLOBAL_UNIT_ASSIGNED_CONTEXT((#1, #2))
  REPRESENTATION_CONTEXT('', '3D')
);
#5 = CARTESIAN_POINT('NONE', (0.027, 0.024, -0.009));
#6 = VERTEX_POINT('NONE', #5);
#7 = CARTESIAN_POINT('NONE', (0.039, 0.024, -0.009));
#8 = VERTEX_POINT('NONE', #7);
#9 = CARTESIAN_POINT('NONE', (0.003, 0.0455, -0));
#10 = VERTEX_POINT('NONE', #9);
#11 = CARTESIAN_POINT('NONE', (0.003, 0.065, -0));
#12 = VERTEX_POINT('NONE', #11);
#13 = CARTESIAN_POINT('NONE', (0.0025, 0.0655, -0.00000000000000000002616820764472948));
#14 = VERTEX_POINT('NONE', #13);
#15 = CARTESIAN_POINT('NONE', (0.029, 0, -0));
#16 = VERTEX_POINT('NONE', #15);
#17 = CARTESIAN_POINT('NONE', (0.029, 0.04, -0));
#18 = VERTEX_POINT('NONE', #17);
#19 = CARTESIAN_POINT('NONE', (0.029, 0.04, -0));
#20 = VERTEX_POINT('NONE', #19);
#21 = CARTESIAN_POINT('NONE', (0.029, 0.043, -0));
#22 = VERTEX_POINT('NONE', #21);
#23 = CARTESIAN_POINT('NONE', (0.02625, 0.039999, -0));
#24 = VERTEX_POINT('NONE', #23);
#25 = CARTESIAN_POINT('NONE', (0.02625, 0.043, -0));
#26 = VERTEX_POINT('NONE', #25);
#27 = CARTESIAN_POINT('NONE', (-0.013124999999999994, 0.039999, -0.022733166849341516));
#28 = VERTEX_POINT('NONE', #27);
#29 = CARTESIAN_POINT('NONE', (-0.013124999999999994, 0.043, -0.022733166849341516));
#30 = VERTEX_POINT('NONE', #29);
#31 = CARTESIAN_POINT('NONE', (-0.01312500000000001, 0.039999, 0.02273316684934151));
#32 = VERTEX_POINT('NONE', #31);
#33 = CARTESIAN_POINT('NONE', (-0.01312500000000001, 0.043, 0.02273316684934151));
#34 = VERTEX_POINT('NONE', #33);
#35 = CARTESIAN_POINT('NONE', (0.018, 0.043, -0));
#36 = VERTEX_POINT('NONE', #35);
#37 = CARTESIAN_POINT('NONE', (0.018, 0.0455, -0));
#38 = VERTEX_POINT('NONE', #37);
#39 = DIRECTION('NONE', (0, 0, -1));
#40 = DIRECTION('NONE', (1, -0, 0));
#41 = CARTESIAN_POINT('NONE', (0.027, 0.024, -0));
#42 = AXIS2_PLACEMENT_3D('NONE', #41, #40, #39);
#43 = CIRCLE('NONE', #42, 0.009);
#44 = DIRECTION('NONE', (1, 0, 0));
#45 = VECTOR('NONE', #44, 1);
#46 = CARTESIAN_POINT('NONE', (0.027, 0.024, -0.009));
#47 = LINE('NONE', #46, #45);
#48 = DIRECTION('NONE', (0, 0, -1));
#49 = DIRECTION('NONE', (1, -0, 0));
#50 = CARTESIAN_POINT('NONE', (0.039, 0.024, -0));
#51 = AXIS2_PLACEMENT_3D('NONE', #50, #49, #48);
#52 = CIRCLE('NONE', #51, 0.009);
#53 = DIRECTION('NONE', (1, 0, -0));
#54 = DIRECTION('NONE', (0, 1, 0));
#55 = CARTESIAN_POINT('NONE', (0, 0.0455, 0));
#56 = AXIS2_PLACEMENT_3D('NONE', #55, #54, #53);
#57 = CIRCLE('NONE', #56, 0.003);
#58 = DIRECTION('NONE', (1, 0, -0));
#59 = DIRECTION('NONE', (0, 1, 0));
#60 = CARTESIAN_POINT('NONE', (0, 0.065, 0));
#61 = AXIS2_PLACEMENT_3D('NONE', #60, #59, #58);
#62 = CIRCLE('NONE', #61, 0.003);
#63 = DIRECTION('NONE', (1, 0.00000000000005684341886080514, 0.000000000000000052336415289459045));
#64 = DIRECTION('NONE', (-0.000000000000000052336415289459045, -0.00000000000000000000000000000011902991851316033, 1));
#65 = CARTESIAN_POINT('NONE', (0.002499999999999975, 0.06499999999999997, -0.00000000000000000002616820764473085));
#66 = AXIS2_PLACEMENT_3D('NONE', #65, #64, #63);
#67 = CIRCLE('NONE', #66, 0.0005000000000000253);
#68 = DIRECTION('NONE', (1, 0, -0.000000000000000010467283057891792));
#69 = DIRECTION('NONE', (0, -1, 0));
#70 = CARTESIAN_POINT('NONE', (0, 0.0655, -0));
#71 = AXIS2_PLACEMENT_3D('NONE', #70, #69, #68);
#72 = CIRCLE('NONE', #71, 0.0025);
#73 = DIRECTION('NONE', (0.000000000000000022240044563805214, 1, 0));
#74 = VECTOR('NONE', #73, 1);
#75 = CARTESIAN_POINT('NONE', (0.003, 0.0455, -0));
#76 = LINE('NONE', #75, #74);
#77 = DIRECTION('NONE', (1, 0, -0));
#78 = DIRECTION('NONE', (0, 1, 0));
#79 = CARTESIAN_POINT('NONE', (0, 0, 0));
#80 = AXIS2_PLACEMENT_3D('NONE', #79, #78, #77);
#81 = CIRCLE('NONE', #80, 0.029);
#82 = DIRECTION('NONE', (0, 1, 0));
#83 = VECTOR('NONE', #82, 1);
#84 = CARTESIAN_POINT('NONE', (0.029, 0, -0));
#85 = LINE('NONE', #84, #83);
#86 = DIRECTION('NONE', (1, 0, -0));
#87 = DIRECTION('NONE', (0, 1, 0));
#88 = CARTESIAN_POINT('NONE', (0, 0.04, 0));
#89 = AXIS2_PLACEMENT_3D('NONE', #88, #87, #86);
#90 = CIRCLE('NONE', #89, 0.029);
#91 = DIRECTION('NONE', (1, 0, -0));
#92 = DIRECTION('NONE', (0, 1, 0));
#93 = CARTESIAN_POINT('NONE', (0, 0.04, 0));
#94 = AXIS2_PLACEMENT_3D('NONE', #93, #92, #91);
#95 = CIRCLE('NONE', #94, 0.029);
#96 = DIRECTION('NONE', (0, 1, 0));
#97 = VECTOR('NONE', #96, 1);
#98 = CARTESIAN_POINT('NONE', (0.029, 0.04, -0));
#99 = LINE('NONE', #98, #97);
#100 = DIRECTION('NONE', (1, 0, -0));
#101 = DIRECTION('NONE', (0, 1, 0));
#102 = CARTESIAN_POINT('NONE', (0, 0.043, 0));
#103 = AXIS2_PLACEMENT_3D('NONE', #102, #101, #100);
#104 = CIRCLE('NONE', #103, 0.029);
#105 = DIRECTION('NONE', (1, 0, -0));
#106 = DIRECTION('NONE', (0, 1, 0));
#107 = CARTESIAN_POINT('NONE', (0.024, 0.039999, 0));
#108 = AXIS2_PLACEMENT_3D('NONE', #107, #106, #105);
#109 = CIRCLE('NONE', #108, 0.00225);
#110 = DIRECTION('NONE', (0, 1, 0));
#111 = VECTOR('NONE', #110, 1);
#112 = CARTESIAN_POINT('NONE', (0.02625, 0.039999, -0));
#113 = LINE('NONE', #112, #111);
#114 = DIRECTION('NONE', (1, 0, -0));
#115 = DIRECTION('NONE', (0, 1, 0));
#116 = CARTESIAN_POINT('NONE', (0.024, 0.043, 0));
#117 = AXIS2_PLACEMENT_3D('NONE', #116, #115, #114);
#118 = CIRCLE('NONE', #117, 0.00225);
#119 = DIRECTION('NONE', (-0.4999999999999982, -0.000000000000003157967714489338, -0.8660254037844397));
#120 = DIRECTION('NONE', (-0.000000000000002946423989784093, 1, -0.0000000000000019453883364565194));
#121 = CARTESIAN_POINT('NONE', (-0.012, 0.03999900000000001, -0.020784609690826527));
#122 = AXIS2_PLACEMENT_3D('NONE', #121, #120, #119);
#123 = CIRCLE('NONE', #122, 0.0022499999999999972);
#124 = DIRECTION('NONE', (0, 1, 0));
#125 = VECTOR('NONE', #124, 1);
#126 = CARTESIAN_POINT('NONE', (-0.013124999999999994, 0.039999, -0.022733166849341516));
#127 = LINE('NONE', #126, #125);
#128 = DIRECTION('NONE', (-0.4999999999999982, -0.000000000000003157967714489338, -0.8660254037844397));
#129 = DIRECTION('NONE', (-0.000000000000002946423989784093, 1, -0.0000000000000019453883364565194));
#130 = CARTESIAN_POINT('NONE', (-0.012, 0.04300000000000001, -0.020784609690826527));
#131 = AXIS2_PLACEMENT_3D('NONE', #130, #129, #128);
#132 = CIRCLE('NONE', #131, 0.0022499999999999972);
#133 = DIRECTION('NONE', (-0.5000000000000013, 0, 0.8660254037844379));
#134 = DIRECTION('NONE', (0.0000000000000013674401325394257, 1, 0.0000000000000007894919286223376));
#135 = CARTESIAN_POINT('NONE', (-0.012000000000000009, 0.039999, 0.020784609690826523));
#136 = AXIS2_PLACEMENT_3D('NONE', #135, #134, #133);
#137 = CIRCLE('NONE', #136, 0.0022499999999999977);
#138 = DIRECTION('NONE', (0, 1, 0));
#139 = VECTOR('NONE', #138, 1);
#140 = CARTESIAN_POINT('NONE', (-0.01312500000000001, 0.039999, 0.02273316684934151));
#141 = LINE('NONE', #140, #139);
#142 = DIRECTION('NONE', (-0.5000000000000013, 0, 0.8660254037844379));
#143 = DIRECTION('NONE', (0.0000000000000013674401325394257, 1, 0.0000000000000007894919286223376));
#144 = CARTESIAN_POINT('NONE', (-0.012000000000000009, 0.043, 0.020784609690826523));
#145 = AXIS2_PLACEMENT_3D('NONE', #144, #143, #142);
#146 = CIRCLE('NONE', #145, 0.0022499999999999977);
#147 = DIRECTION('NONE', (1, 0, -0.000000000000000034890943526306116));
#148 = DIRECTION('NONE', (0, 1, 0));
#149 = CARTESIAN_POINT('NONE', (-0.0000000000000000006280369834735101, 0.043, 0.0000000000000000006280369834735101));
#150 = AXIS2_PLACEMENT_3D('NONE', #149, #148, #147);
#151 = CIRCLE('NONE', #150, 0.018);
#152 = DIRECTION('NONE', (0, 1, 0));
#153 = VECTOR('NONE', #152, 1);
#154 = CARTESIAN_POINT('NONE', (0.018, 0.043, -0));
#155 = LINE('NONE', #154, #153);
#156 = DIRECTION('NONE', (1, 0, -0.000000000000000034890943526306116));
#157 = DIRECTION('NONE', (0, 1, 0));
#158 = CARTESIAN_POINT('NONE', (-0.0000000000000000006280369834735101, 0.0455, 0.0000000000000000006280369834735101));
#159 = AXIS2_PLACEMENT_3D('NONE', #158, #157, #156);
#160 = CIRCLE('NONE', #159, 0.018);
#161 = EDGE_CURVE('NONE', #6, #6, #43, .T.);
#162 = EDGE_CURVE('NONE', #6, #8, #47, .T.);
#163 = EDGE_CURVE('NONE', #8, #8, #52, .T.);
#164 = EDGE_CURVE('NONE', #10, #10, #57, .T.);
#165 = EDGE_CURVE('NONE', #12, #12, #62, .T.);
#166 = EDGE_CURVE('NONE', #12, #14, #67, .T.);
#167 = EDGE_CURVE('NONE', #14, #14, #72, .T.);
#168 = EDGE_CURVE('NONE', #10, #12, #76, .T.);
#169 = EDGE_CURVE('NONE', #16, #16, #81, .T.);
#170 = EDGE_CURVE('NONE', #16, #18, #85, .T.);
#171 = EDGE_CURVE('NONE', #18, #18, #90, .T.);
#172 = EDGE_CURVE('NONE', #20, #20, #95, .T.);
#173 = EDGE_CURVE('NONE', #20, #22, #99, .T.);
#174 = EDGE_CURVE('NONE', #22, #22, #104, .T.);
#175 = EDGE_CURVE('NONE', #24, #24, #109, .T.);
#176 = EDGE_CURVE('NONE', #24, #26, #113, .T.);
#177 = EDGE_CURVE('NONE', #26, #26, #118, .T.);
#178 = EDGE_CURVE('NONE', #28, #28, #123, .T.);
#179 = EDGE_CURVE('NONE', #28, #30, #127, .T.);
#180 = EDGE_CURVE('NONE', #30, #30, #132, .T.);
#181 = EDGE_CURVE('NONE', #32, #32, #137, .T.);
#182 = EDGE_CURVE('NONE', #32, #34, #141, .T.);
#183 = EDGE_CURVE('NONE', #34, #34, #146, .T.);
#184 = EDGE_CURVE('NONE', #36, #36, #151, .T.);
#185 = EDGE_CURVE('NONE', #36, #38, #155, .T.);
#186 = EDGE_CURVE('NONE', #38, #38, #160, .T.);
#187 = CARTESIAN_POINT('NONE', (0.033, 0.024, -0));
#188 = DIRECTION('NONE', (1, -0, 0));
#189 = DIRECTION('NONE', (0, 0, -1));
#190 = AXIS2_PLACEMENT_3D('NONE', #187, #188, #189);
#191 = CYLINDRICAL_SURFACE('NONE', #190, 0.009);
#192 = CARTESIAN_POINT('NONE', (0.027, 0, -0));
#193 = DIRECTION('NONE', (1, 0, 0));
#194 = AXIS2_PLACEMENT_3D('NONE', #192, #193, $);
#195 = PLANE('NONE', #194);
#196 = CARTESIAN_POINT('NONE', (0.039, 0, -0));
#197 = DIRECTION('NONE', (1, 0, 0));
#198 = AXIS2_PLACEMENT_3D('NONE', #196, #197, $);
#199 = PLANE('NONE', #198);
#200 = CARTESIAN_POINT('NONE', (0, 0.0555, 0));
#201 = DIRECTION('NONE', (0, 1, 0));
#202 = DIRECTION('NONE', (1, 0, -0));
#203 = AXIS2_PLACEMENT_3D('NONE', #200, #201, #202);
#204 = CYLINDRICAL_SURFACE('NONE', #203, 0.003);
#205 = CARTESIAN_POINT('NONE', (0, 0.0455, -0));
#206 = DIRECTION('NONE', (0, 1, 0));
#207 = AXIS2_PLACEMENT_3D('NONE', #205, #206, $);
#208 = PLANE('NONE', #207);
#209 = CARTESIAN_POINT('NONE', (0, 0.0655, -0));
#210 = DIRECTION('NONE', (0, 1, 0));
#211 = AXIS2_PLACEMENT_3D('NONE', #209, #210, $);
#212 = PLANE('NONE', #211);
#213 = CARTESIAN_POINT('NONE', (0, 0.06499999999999997, -0));
#214 = DIRECTION('NONE', (0, 1, 0));
#215 = DIRECTION('NONE', (1, 0, -0.0000000000000000026859460884487336));
#216 = AXIS2_PLACEMENT_3D('NONE', #213, #214, #215);
#217 = TOROIDAL_SURFACE('NONE', #216, 0.002499999999999975, 0.0005000000000000253);
#218 = CARTESIAN_POINT('NONE', (0, 0.02, 0));
#219 = DIRECTION('NONE', (0, 1, 0));
#220 = DIRECTION('NONE', (1, 0, -0));
#221 = AXIS2_PLACEMENT_3D('NONE', #218, #219, #220);
#222 = CYLINDRICAL_SURFACE('NONE', #221, 0.029);
#223 = CARTESIAN_POINT('NONE', (0, 0, -0));
#224 = DIRECTION('NONE', (0, 1, 0));
#225 = AXIS2_PLACEMENT_3D('NONE', #223, #224, $);
#226 = PLANE('NONE', #225);
#227 = CARTESIAN_POINT('NONE', (0, 0.04, -0));
#228 = DIRECTION('NONE', (0, 1, 0));
#229 = AXIS2_PLACEMENT_3D('NONE', #227, #228, $);
#230 = PLANE('NONE', #229);
#231 = CARTESIAN_POINT('NONE', (0, 0.0415, 0));
#232 = DIRECTION('NONE', (0, 1, 0));
#233 = DIRECTION('NONE', (1, 0, -0));
#234 = AXIS2_PLACEMENT_3D('NONE', #231, #232, #233);
#235 = CYLINDRICAL_SURFACE('NONE', #234, 0.029);
#236 = CARTESIAN_POINT('NONE', (0, 0.04, -0));
#237 = DIRECTION('NONE', (0, 1, 0));
#238 = AXIS2_PLACEMENT_3D('NONE', #236, #237, $);
#239 = PLANE('NONE', #238);
#240 = CARTESIAN_POINT('NONE', (0, 0.043, -0));
#241 = DIRECTION('NONE', (0, 1, 0));
#242 = AXIS2_PLACEMENT_3D('NONE', #240, #241, $);
#243 = PLANE('NONE', #242);
#244 = CARTESIAN_POINT('NONE', (0.024, 0.041499499999999995, 0));
#245 = DIRECTION('NONE', (0, 1, 0));
#246 = DIRECTION('NONE', (1, 0, -0));
#247 = AXIS2_PLACEMENT_3D('NONE', #244, #245, #246);
#248 = CYLINDRICAL_SURFACE('NONE', #247, 0.00225);
#249 = CARTESIAN_POINT('NONE', (-0.012, 0.0414995, -0.020784609690826527));
#250 = DIRECTION('NONE', (-0.000000000000002946423989784093, 1, -0.0000000000000019453883364565194));
#251 = DIRECTION('NONE', (-0.4999999999999982, -0.000000000000003157967714489338, -0.8660254037844397));
#252 = AXIS2_PLACEMENT_3D('NONE', #249, #250, #251);
#253 = CYLINDRICAL_SURFACE('NONE', #252, 0.0022499999999999972);
#254 = CARTESIAN_POINT('NONE', (-0.012000000000000009, 0.041499499999999995, 0.020784609690826523));
#255 = DIRECTION('NONE', (0.0000000000000013674401325394257, 1, 0.0000000000000007894919286223376));
#256 = DIRECTION('NONE', (-0.5000000000000013, 0, 0.8660254037844379));
#257 = AXIS2_PLACEMENT_3D('NONE', #254, #255, #256);
#258 = CYLINDRICAL_SURFACE('NONE', #257, 0.0022499999999999977);
#259 = CARTESIAN_POINT('NONE', (-0.0000000000000000006280369834735101, 0.04425, 0.0000000000000000006280369834735101));
#260 = DIRECTION('NONE', (0, 1, 0));
#261 = DIRECTION('NONE', (1, 0, -0.000000000000000034890943526306116));
#262 = AXIS2_PLACEMENT_3D('NONE', #259, #260, #261);
#263 = CYLINDRICAL_SURFACE('NONE', #262, 0.018);
#264 = CARTESIAN_POINT('NONE', (0, 0.0455, -0));
#265 = DIRECTION('NONE', (0, 1, 0));
#266 = AXIS2_PLACEMENT_3D('NONE', #264, #265, $);
#267 = PLANE('NONE', #266);
#268 = ORIENTED_EDGE('NONE', *, *, #161, .T.);
#269 = ORIENTED_EDGE('NONE', *, *, #163, .F.);
#270 = EDGE_LOOP('NONE', (#268));
#271 = FACE_BOUND('NONE', #270, .T.);
#272 = EDGE_LOOP('NONE', (#269));
#273 = FACE_BOUND('NONE', #272, .T.);
#274 = ADVANCED_FACE('NONE', (#271, #273), #191, .T.);
#275 = ORIENTED_EDGE('NONE', *, *, #161, .F.);
#276 = EDGE_LOOP('NONE', (#275));
#277 = FACE_BOUND('NONE', #276, .T.);
#278 = ADVANCED_FACE('NONE', (#277), #195, .F.);
#279 = ORIENTED_EDGE('NONE', *, *, #163, .T.);
#280 = EDGE_LOOP('NONE', (#279));
#281 = FACE_BOUND('NONE', #280, .T.);
#282 = ADVANCED_FACE('NONE', (#281), #199, .T.);
#283 = ORIENTED_EDGE('NONE', *, *, #164, .T.);
#284 = ORIENTED_EDGE('NONE', *, *, #165, .F.);
#285 = EDGE_LOOP('NONE', (#283));
#286 = FACE_BOUND('NONE', #285, .T.);
#287 = EDGE_LOOP('NONE', (#284));
#288 = FACE_BOUND('NONE', #287, .T.);
#289 = ADVANCED_FACE('NONE', (#286, #288), #204, .T.);
#290 = ORIENTED_EDGE('NONE', *, *, #164, .F.);
#291 = EDGE_LOOP('NONE', (#290));
#292 = FACE_BOUND('NONE', #291, .T.);
#293 = ADVANCED_FACE('NONE', (#292), #208, .F.);
#294 = ORIENTED_EDGE('NONE', *, *, #167, .F.);
#295 = EDGE_LOOP('NONE', (#294));
#296 = FACE_BOUND('NONE', #295, .T.);
#297 = ADVANCED_FACE('NONE', (#296), #212, .T.);
#298 = ORIENTED_EDGE('NONE', *, *, #165, .T.);
#299 = ORIENTED_EDGE('NONE', *, *, #167, .T.);
#300 = EDGE_LOOP('NONE', (#298));
#301 = FACE_BOUND('NONE', #300, .T.);
#302 = EDGE_LOOP('NONE', (#299));
#303 = FACE_BOUND('NONE', #302, .T.);
#304 = ADVANCED_FACE('NONE', (#301, #303), #217, .T.);
#305 = ORIENTED_EDGE('NONE', *, *, #169, .T.);
#306 = ORIENTED_EDGE('NONE', *, *, #171, .F.);
#307 = EDGE_LOOP('NONE', (#305));
#308 = FACE_BOUND('NONE', #307, .T.);
#309 = EDGE_LOOP('NONE', (#306));
#310 = FACE_BOUND('NONE', #309, .T.);
#311 = ADVANCED_FACE('NONE', (#308, #310), #222, .T.);
#312 = ORIENTED_EDGE('NONE', *, *, #169, .F.);
#313 = EDGE_LOOP('NONE', (#312));
#314 = FACE_BOUND('NONE', #313, .T.);
#315 = ADVANCED_FACE('NONE', (#314), #226, .F.);
#316 = ORIENTED_EDGE('NONE', *, *, #171, .T.);
#317 = EDGE_LOOP('NONE', (#316));
#318 = FACE_BOUND('NONE', #317, .T.);
#319 = ADVANCED_FACE('NONE', (#318), #230, .T.);
#320 = ORIENTED_EDGE('NONE', *, *, #172, .T.);
#321 = ORIENTED_EDGE('NONE', *, *, #174, .F.);
#322 = EDGE_LOOP('NONE', (#320));
#323 = FACE_BOUND('NONE', #322, .T.);
#324 = EDGE_LOOP('NONE', (#321));
#325 = FACE_BOUND('NONE', #324, .T.);
#326 = ADVANCED_FACE('NONE', (#323, #325), #235, .T.);
#327 = ORIENTED_EDGE('NONE', *, *, #172, .F.);
#328 = ORIENTED_EDGE('NONE', *, *, #175, .T.);
#329 = ORIENTED_EDGE('NONE', *, *, #178, .T.);
#330 = ORIENTED_EDGE('NONE', *, *, #181, .T.);
#331 = EDGE_LOOP('NONE', (#327));
#332 = FACE_BOUND('NONE', #331, .T.);
#333 = EDGE_LOOP('NONE', (#328));
#334 = FACE_BOUND('NONE', #333, .T.);
#335 = EDGE_LOOP('NONE', (#329));
#336 = FACE_BOUND('NONE', #335, .T.);
#337 = EDGE_LOOP('NONE', (#330));
#338 = FACE_BOUND('NONE', #337, .T.);
#339 = ADVANCED_FACE('NONE', (#332, #334, #336, #338), #239, .F.);
#340 = ORIENTED_EDGE('NONE', *, *, #174, .T.);
#341 = ORIENTED_EDGE('NONE', *, *, #177, .F.);
#342 = ORIENTED_EDGE('NONE', *, *, #180, .F.);
#343 = ORIENTED_EDGE('NONE', *, *, #183, .F.);
#344 = ORIENTED_EDGE('NONE', *, *, #184, .F.);
#345 = EDGE_LOOP('NONE', (#340));
#346 = FACE_BOUND('NONE', #345, .T.);
#347 = EDGE_LOOP('NONE', (#341));
#348 = FACE_BOUND('NONE', #347, .T.);
#349 = EDGE_LOOP('NONE', (#342));
#350 = FACE_BOUND('NONE', #349, .T.);
#351 = EDGE_LOOP('NONE', (#343));
#352 = FACE_BOUND('NONE', #351, .T.);
#353 = EDGE_LOOP('NONE', (#344));
#354 = FACE_BOUND('NONE', #353, .T.);
#355 = ADVANCED_FACE('NONE', (#346, #348, #350, #352, #354), #243, .T.);
#356 = ORIENTED_EDGE('NONE', *, *, #175, .F.);
#357 = ORIENTED_EDGE('NONE', *, *, #177, .T.);
#358 = EDGE_LOOP('NONE', (#356));
#359 = FACE_BOUND('NONE', #358, .T.);
#360 = EDGE_LOOP('NONE', (#357));
#361 = FACE_BOUND('NONE', #360, .T.);
#362 = ADVANCED_FACE('NONE', (#359, #361), #248, .F.);
#363 = ORIENTED_EDGE('NONE', *, *, #178, .F.);
#364 = ORIENTED_EDGE('NONE', *, *, #180, .T.);
#365 = EDGE_LOOP('NONE', (#363));
#366 = FACE_BOUND('NONE', #365, .T.);
#367 = EDGE_LOOP('NONE', (#364));
#368 = FACE_BOUND('NONE', #367, .T.);
#369 = ADVANCED_FACE('NONE', (#366, #368), #253, .F.);
#370 = ORIENTED_EDGE('NONE', *, *, #181, .F.);
#371 = ORIENTED_EDGE('NONE', *, *, #183, .T.);
#372 = EDGE_LOOP('NONE', (#370));
#373 = FACE_BOUND('NONE', #372, .T.);
#374 = EDGE_LOOP('NONE', (#371));
#375 = FACE_BOUND('NONE', #374, .T.);
#376 = ADVANCED_FACE('NONE', (#373, #375), #258, .F.);
#377 = ORIENTED_EDGE('NONE', *, *, #184, .T.);
#378 = ORIENTED_EDGE('NONE', *, *, #186, .F.);
#379 = EDGE_LOOP('NONE', (#377));
#380 = FACE_BOUND('NONE', #379, .T.);
#381 = EDGE_LOOP('NONE', (#378));
#382 = FACE_BOUND('NONE', #381, .T.);
#383 = ADVANCED_FACE('NONE', (#380, #382), #263, .T.);
#384 = ORIENTED_EDGE('NONE', *, *, #186, .T.);
#385 = EDGE_LOOP('NONE', (#384));
#386 = FACE_BOUND('NONE', #385, .T.);
#387 = ADVANCED_FACE('NONE', (#386), #267, .T.);
#388 = CLOSED_SHELL('NONE', (#274, #278, #282));
#389 = CLOSED_SHELL('NONE', (#289, #293, #297, #304));
#390 = CLOSED_SHELL('NONE', (#311, #315, #319, #326, #339, #355, #362, #369, #376, #383, #387));
#391 = MANIFOLD_SOLID_BREP('NONE', #388);
#392 = MANIFOLD_SOLID_BREP('NONE', #389);
#393 = MANIFOLD_SOLID_BREP('NONE', #390);
#394 = APPLICATION_CONTEXT('configuration controlled 3D design of mechanical parts and assemblies');
#395 = PRODUCT_DEFINITION_CONTEXT('part definition', #394, 'design');
#396 = PRODUCT('UNIDENTIFIED_PRODUCT', 'NONE', $, ());
#397 = PRODUCT_DEFINITION_FORMATION('', $, #396);
#398 = PRODUCT_DEFINITION('design', $, #397, #395);
#399 = PRODUCT_DEFINITION_SHAPE('NONE', $, #398);
#400 = ADVANCED_BREP_SHAPE_REPRESENTATION('NONE', (#393), #4);
#401 = SHAPE_DEFINITION_REPRESENTATION(#399, #400);
#402 = COLOUR_RGB('NONE', 0.7529411911964417, 0.7529411911964417, 0.7529411911964417);
#403 = FILL_AREA_STYLE_COLOUR('NONE', #402);
#404 = FILL_AREA_STYLE('NONE', (#403));
#405 = SURFACE_STYLE_FILL_AREA(#404);
#406 = SURFACE_SIDE_STYLE('NONE', (#405));
#407 = SURFACE_STYLE_USAGE(.BOTH., #406);
#408 = PRESENTATION_STYLE_ASSIGNMENT((#407));
#409 = STYLED_ITEM('NONE', (#408), #393);
#410 = MECHANICAL_DESIGN_GEOMETRIC_PRESENTATION_REPRESENTATION('NONE', (#409), #4);
#411 = PRODUCT('UNIDENTIFIED_PRODUCT', 'NONE', $, ());
#412 = PRODUCT_DEFINITION_FORMATION('', $, #411);
#413 = PRODUCT_DEFINITION('design', $, #412, #395);
#414 = PRODUCT_DEFINITION_SHAPE('NONE', $, #413);
#415 = ADVANCED_BREP_SHAPE_REPRESENTATION('NONE', (#392), #4);
#416 = SHAPE_DEFINITION_REPRESENTATION(#414, #415);
#417 = COLOUR_RGB('NONE', 0.6274510025978088, 0.6274510025978088, 0.6274510025978088);
#418 = FILL_AREA_STYLE_COLOUR('NONE', #417);
#419 = FILL_AREA_STYLE('NONE', (#418));
#420 = SURFACE_STYLE_FILL_AREA(#419);
#421 = SURFACE_SIDE_STYLE('NONE', (#420));
#422 = SURFACE_STYLE_USAGE(.BOTH., #421);
#423 = PRESENTATION_STYLE_ASSIGNMENT((#422));
#424 = STYLED_ITEM('NONE', (#423), #392);
#425 = MECHANICAL_DESIGN_GEOMETRIC_PRESENTATION_REPRESENTATION('NONE', (#424), #4);
#426 = PRODUCT('UNIDENTIFIED_PRODUCT', 'NONE', $, ());
#427 = PRODUCT_DEFINITION_FORMATION('', $, #426);
#428 = PRODUCT_DEFINITION('design', $, #427, #395);
#429 = PRODUCT_DEFINITION_SHAPE('NONE', $, #428);
#430 = ADVANCED_BREP_SHAPE_REPRESENTATION('NONE', (#391), #4);
#431 = SHAPE_DEFINITION_REPRESENTATION(#429, #430);
#432 = COLOUR_RGB('NONE', 0.125490203499794, 0.125490203499794, 0.125490203499794);
#433 = FILL_AREA_STYLE_COLOUR('NONE', #432);
#434 = FILL_AREA_STYLE('NONE', (#433));
#435 = SURFACE_STYLE_FILL_AREA(#434);
#436 = SURFACE_SIDE_STYLE('NONE', (#435));
#437 = SURFACE_STYLE_USAGE(.BOTH., #436);
#438 = PRESENTATION_STYLE_ASSIGNMENT((#437));
#439 = STYLED_ITEM('NONE', (#438), #391);
#440 = MECHANICAL_DESIGN_GEOMETRIC_PRESENTATION_REPRESENTATION('NONE', (#439), #4);
ENDSEC;
END-ISO-10303-21;
