ISO-10303-21;
HEADER;
FILE_DESCRIPTION(('Zoo Text-to-CAD'),'1');
FILE_NAME('dump.step', '2025-11-20T06:43:10.041748639+00:00', ('Author unknown'), ('Organization unknown'), 'zoo.dev beta', 'zoo.dev', 'Authorization unknown');
FILE_SCHEMA(('AP203_CONFIGURATION_CONTROLLED_3D_DESIGN_OF_MECHANICAL_PARTS_AND_ASSEMBLIES_MIM_LF'));
ENDSEC;
DATA;
#1 = (
  LENGTH_UNIT()
  NAMED_UNIT(*)
  SI_UNIT($, .METRE.)
);
#2 = (
  NAMED_UNIT(*)
  PLANE_ANGLE_UNIT()
  SI_UNIT($, .RADIAN.)
);
#3 = UNCERTAINTY_MEASURE_WITH_UNIT(LENGTH_MEASURE(0.00001), #1, 'DISTANCE_ACCURACY_VALUE', $);
#4 = (
  GEOMETRIC_REPRESENTATION_CONTEXT(3)
  GLOBAL_UNCERTAINTY_ASSIGNED_CONTEXT((#3))
  GLOBAL_UNIT_ASSIGNED_CONTEXT((#1, #2))
  REPRESENTATION_CONTEXT('', '3D')
);
#5 = CARTESIAN_POINT('NONE', (0.0065, 0, 0.0004));
#6 = VERTEX_POINT('NONE', #5);
#7 = CARTESIAN_POINT('NONE', (0.0060999999999999995, 0.000000000000000000038648429752215914, -0.0000000000000000013877787807814458));
#8 = VERTEX_POINT('NONE', #7);
#9 = CARTESIAN_POINT('NONE', (0.0065, 0, 0.0076));
#10 = VERTEX_POINT('NONE', #9);
#11 = CARTESIAN_POINT('NONE', (0.0060999999999999995, 0.00000000000000000003864842975221601, 0.007999999999999998));
#12 = VERTEX_POINT('NONE', #11);
#13 = CARTESIAN_POINT('NONE', (0.0034641016151377543, 0, 0.0029989999999999995));
#14 = VERTEX_POINT('NONE', #13);
#15 = CARTESIAN_POINT('NONE', (0.0017320508075688776, 0.0029999999999999996, 0.0029989999999999995));
#16 = VERTEX_POINT('NONE', #15);
#17 = CARTESIAN_POINT('NONE', (0.0017320508075688776, 0.0029999999999999996, 0.008));
#18 = VERTEX_POINT('NONE', #17);
#19 = CARTESIAN_POINT('NONE', (0.0034641016151377543, 0, 0.008));
#20 = VERTEX_POINT('NONE', #19);
#21 = CARTESIAN_POINT('NONE', (-0.0017320508075688763, 0.003, 0.0029989999999999995));
#22 = VERTEX_POINT('NONE', #21);
#23 = CARTESIAN_POINT('NONE', (-0.0017320508075688763, 0.003, 0.008));
#24 = VERTEX_POINT('NONE', #23);
#25 = CARTESIAN_POINT('NONE', (-0.0034641016151377543, 0.0000000000000000004242300954899627, 0.0029989999999999995));
#26 = VERTEX_POINT('NONE', #25);
#27 = CARTESIAN_POINT('NONE', (-0.0034641016151377543, 0.0000000000000000004242300954899627, 0.008));
#28 = VERTEX_POINT('NONE', #27);
#29 = CARTESIAN_POINT('NONE', (-0.0017320508075688787, -0.002999999999999999, 0.0029989999999999995));
#30 = VERTEX_POINT('NONE', #29);
#31 = CARTESIAN_POINT('NONE', (-0.0017320508075688787, -0.002999999999999999, 0.008));
#32 = VERTEX_POINT('NONE', #31);
#33 = CARTESIAN_POINT('NONE', (0.001732050807568875, -0.0030000000000000014, 0.0029989999999999995));
#34 = VERTEX_POINT('NONE', #33);
#35 = CARTESIAN_POINT('NONE', (0.001732050807568875, -0.0030000000000000014, 0.008));
#36 = VERTEX_POINT('NONE', #35);
#37 = CARTESIAN_POINT('NONE', (-0.004, 0, -0));
#38 = VERTEX_POINT('NONE', #37);
#39 = CARTESIAN_POINT('NONE', (-0.004, 0, -0.0296));
#40 = VERTEX_POINT('NONE', #39);
#41 = CARTESIAN_POINT('NONE', (-0.0036, 0, -0.030000000000000002));
#42 = VERTEX_POINT('NONE', #41);
#43 = DIRECTION('NONE', (1, -0.000000000000000048310537190270003, -0));
#44 = DIRECTION('NONE', (0, 0, -1));
#45 = CARTESIAN_POINT('NONE', (-0.00000000000000000031401849173675505, 0.00000000000000000031401849173675505, 0.0004));
#46 = AXIS2_PLACEMENT_3D('NONE', #45, #44, #43);
#47 = CIRCLE('NONE', #46, 0.0065);
#48 = DIRECTION('NONE', (1, -0.00000000000000009662107438054107, -0.0000000000000069388939039071455));
#49 = DIRECTION('NONE', (0.00000000000000009662107438054107, 1, -0.0000000000000000000000000000010810334396214401));
#50 = CARTESIAN_POINT('NONE', (0.006099999999999995, 0.00000000000000000003864842975221689, 0.0004000000000000028));
#51 = AXIS2_PLACEMENT_3D('NONE', #50, #49, #48);
#52 = CIRCLE('NONE', #51, 0.0004000000000000048);
#53 = DIRECTION('NONE', (1, 0.000000000000000006335808156100992, -0));
#54 = DIRECTION('NONE', (0, 0, 1));
#55 = CARTESIAN_POINT('NONE', (-0.0000000000000000006280369834735101, -0.000000000000000000000000000000000139452223873684, -0.0000000000000000013877787807814458));
#56 = AXIS2_PLACEMENT_3D('NONE', #55, #54, #53);
#57 = CIRCLE('NONE', #56, 0.0061);
#58 = DIRECTION('NONE', (1, 0, -0));
#59 = DIRECTION('NONE', (0, 0, 1));
#60 = CARTESIAN_POINT('NONE', (0, -0, 0.0076));
#61 = AXIS2_PLACEMENT_3D('NONE', #60, #59, #58);
#62 = CIRCLE('NONE', #61, 0.0065);
#63 = DIRECTION('NONE', (1, -0.00000000000000009662107438054031, 0.000000000000002220446049250311));
#64 = DIRECTION('NONE', (-0.00000000000000009662107438054031, -1, -0.00000000000000000000000000000051145668111121395));
#65 = CARTESIAN_POINT('NONE', (0.0060999999999999995, 0.00000000000000000003864842975221616, 0.007599999999999999));
#66 = AXIS2_PLACEMENT_3D('NONE', #65, #64, #63);
#67 = CIRCLE('NONE', #66, 0.00040000000000000034);
#68 = DIRECTION('NONE', (1, 0.000000000000000006335808156100986, -0));
#69 = DIRECTION('NONE', (-0, 0, -1));
#70 = CARTESIAN_POINT('NONE', (0, 0, 0.007999999999999998));
#71 = AXIS2_PLACEMENT_3D('NONE', #70, #69, #68);
#72 = CIRCLE('NONE', #71, 0.0060999999999999995);
#73 = DIRECTION('NONE', (0, 0, 1));
#74 = VECTOR('NONE', #73, 1);
#75 = CARTESIAN_POINT('NONE', (0.0065, 0, 0.00040000000000000034));
#76 = LINE('NONE', #75, #74);
#77 = DIRECTION('NONE', (-0.49999999999999994, 0.8660254037844387, 0));
#78 = VECTOR('NONE', #77, 1);
#79 = CARTESIAN_POINT('NONE', (0.0034641016151377543, 0, 0.0029989999999999995));
#80 = LINE('NONE', #79, #78);
#81 = DIRECTION('NONE', (0, 0, 1));
#82 = VECTOR('NONE', #81, 1);
#83 = CARTESIAN_POINT('NONE', (0.0017320508075688776, 0.0029999999999999996, 0.0029989999999999995));
#84 = LINE('NONE', #83, #82);
#85 = DIRECTION('NONE', (-0.49999999999999994, 0.8660254037844387, 0));
#86 = VECTOR('NONE', #85, 1);
#87 = CARTESIAN_POINT('NONE', (0.0034641016151377543, 0, 0.008));
#88 = LINE('NONE', #87, #86);
#89 = DIRECTION('NONE', (0, 0, 1));
#90 = VECTOR('NONE', #89, 1);
#91 = CARTESIAN_POINT('NONE', (0.0034641016151377543, 0, 0.0029989999999999995));
#92 = LINE('NONE', #91, #90);
#93 = DIRECTION('NONE', (-1, 0.00000000000000012519288322809664, 0));
#94 = VECTOR('NONE', #93, 1);
#95 = CARTESIAN_POINT('NONE', (0.0017320508075688776, 0.0029999999999999996, 0.0029989999999999995));
#96 = LINE('NONE', #95, #94);
#97 = DIRECTION('NONE', (0, 0, 1));
#98 = VECTOR('NONE', #97, 1);
#99 = CARTESIAN_POINT('NONE', (-0.0017320508075688763, 0.003, 0.0029989999999999995));
#100 = LINE('NONE', #99, #98);
#101 = DIRECTION('NONE', (-1, 0.00000000000000012519288322809664, 0));
#102 = VECTOR('NONE', #101, 1);
#103 = CARTESIAN_POINT('NONE', (0.0017320508075688776, 0.0029999999999999996, 0.008));
#104 = LINE('NONE', #103, #102);
#105 = DIRECTION('NONE', (-0.5000000000000002, -0.8660254037844386, 0));
#106 = VECTOR('NONE', #105, 1);
#107 = CARTESIAN_POINT('NONE', (-0.0017320508075688763, 0.003, 0.0029989999999999995));
#108 = LINE('NONE', #107, #106);
#109 = DIRECTION('NONE', (0, 0, 1));
#110 = VECTOR('NONE', #109, 1);
#111 = CARTESIAN_POINT('NONE', (-0.0034641016151377543, 0.0000000000000000004242300954899627, 0.0029989999999999995));
#112 = LINE('NONE', #111, #110);
#113 = DIRECTION('NONE', (-0.5000000000000002, -0.8660254037844386, 0));
#114 = VECTOR('NONE', #113, 1);
#115 = CARTESIAN_POINT('NONE', (-0.0017320508075688763, 0.003, 0.008));
#116 = LINE('NONE', #115, #114);
#117 = DIRECTION('NONE', (0.49999999999999967, -0.8660254037844388, 0));
#118 = VECTOR('NONE', #117, 1);
#119 = CARTESIAN_POINT('NONE', (-0.0034641016151377543, 0.0000000000000000004242300954899627, 0.0029989999999999995));
#120 = LINE('NONE', #119, #118);
#121 = DIRECTION('NONE', (0, 0, 1));
#122 = VECTOR('NONE', #121, 1);
#123 = CARTESIAN_POINT('NONE', (-0.0017320508075688787, -0.002999999999999999, 0.0029989999999999995));
#124 = LINE('NONE', #123, #122);
#125 = DIRECTION('NONE', (0.49999999999999967, -0.8660254037844388, 0));
#126 = VECTOR('NONE', #125, 1);
#127 = CARTESIAN_POINT('NONE', (-0.0034641016151377543, 0.0000000000000000004242300954899627, 0.008));
#128 = LINE('NONE', #127, #126);
#129 = DIRECTION('NONE', (1, -0.0000000000000006259644161404832, 0));
#130 = VECTOR('NONE', #129, 1);
#131 = CARTESIAN_POINT('NONE', (-0.0017320508075688787, -0.002999999999999999, 0.0029989999999999995));
#132 = LINE('NONE', #131, #130);
#133 = DIRECTION('NONE', (0, 0, 1));
#134 = VECTOR('NONE', #133, 1);
#135 = CARTESIAN_POINT('NONE', (0.001732050807568875, -0.0030000000000000014, 0.0029989999999999995));
#136 = LINE('NONE', #135, #134);
#137 = DIRECTION('NONE', (1, -0.0000000000000006259644161404832, 0));
#138 = VECTOR('NONE', #137, 1);
#139 = CARTESIAN_POINT('NONE', (-0.0017320508075688787, -0.002999999999999999, 0.008));
#140 = LINE('NONE', #139, #138);
#141 = DIRECTION('NONE', (0.5000000000000003, 0.8660254037844385, 0));
#142 = VECTOR('NONE', #141, 1);
#143 = CARTESIAN_POINT('NONE', (0.001732050807568875, -0.0030000000000000014, 0.0029989999999999995));
#144 = LINE('NONE', #143, #142);
#145 = DIRECTION('NONE', (0.5000000000000003, 0.8660254037844385, 0));
#146 = VECTOR('NONE', #145, 1);
#147 = CARTESIAN_POINT('NONE', (0.001732050807568875, -0.0030000000000000014, 0.008));
#148 = LINE('NONE', #147, #146);
#149 = DIRECTION('NONE', (-1, -0.00000000000000007850462293418876, -0));
#150 = DIRECTION('NONE', (0, 0, -1));
#151 = CARTESIAN_POINT('NONE', (-0.00000000000000000000000000000000003486305596842099, 0.00000000000000000031401849173675505, -0));
#152 = AXIS2_PLACEMENT_3D('NONE', #151, #150, #149);
#153 = CIRCLE('NONE', #152, 0.004);
#154 = DIRECTION('NONE', (-1, 0.00000000000000007850462293418875, -0));
#155 = DIRECTION('NONE', (0, -0, -1));
#156 = CARTESIAN_POINT('NONE', (0.000000000000000000314018491736755, -0.000000000000000000314018491736755, -0.0296));
#157 = AXIS2_PLACEMENT_3D('NONE', #156, #155, #154);
#158 = CIRCLE('NONE', #157, 0.004);
#159 = DIRECTION('NONE', (-1, 0, 0.000000000000008881784197001293));
#160 = DIRECTION('NONE', (-0, -1, 0));
#161 = CARTESIAN_POINT('NONE', (-0.003600000000000002, -0, -0.029600000000000005));
#162 = AXIS2_PLACEMENT_3D('NONE', #161, #160, #159);
#163 = CIRCLE('NONE', #162, 0.0003999999999999981);
#164 = DIRECTION('NONE', (-1, -0.0000000000000001308410382236479, -0));
#165 = DIRECTION('NONE', (0, -0, 1));
#166 = CARTESIAN_POINT('NONE', (-0.0000000000000000001570092458683776, 0.0000000000000000004710277376051325, -0.030000000000000002));
#167 = AXIS2_PLACEMENT_3D('NONE', #166, #165, #164);
#168 = CIRCLE('NONE', #167, 0.0036);
#169 = DIRECTION('NONE', (0, 0, -1));
#170 = VECTOR('NONE', #169, 1);
#171 = CARTESIAN_POINT('NONE', (-0.004, 0, -0));
#172 = LINE('NONE', #171, #170);
#173 = EDGE_CURVE('NONE', #6, #6, #47, .T.);
#174 = EDGE_CURVE('NONE', #6, #8, #52, .T.);
#175 = EDGE_CURVE('NONE', #8, #8, #57, .T.);
#176 = EDGE_CURVE('NONE', #10, #10, #62, .T.);
#177 = EDGE_CURVE('NONE', #10, #12, #67, .T.);
#178 = EDGE_CURVE('NONE', #12, #12, #72, .T.);
#179 = EDGE_CURVE('NONE', #6, #10, #76, .T.);
#180 = EDGE_CURVE('NONE', #14, #16, #80, .T.);
#181 = EDGE_CURVE('NONE', #16, #18, #84, .T.);
#182 = EDGE_CURVE('NONE', #20, #18, #88, .T.);
#183 = EDGE_CURVE('NONE', #14, #20, #92, .T.);
#184 = EDGE_CURVE('NONE', #16, #22, #96, .T.);
#185 = EDGE_CURVE('NONE', #22, #24, #100, .T.);
#186 = EDGE_CURVE('NONE', #18, #24, #104, .T.);
#187 = EDGE_CURVE('NONE', #22, #26, #108, .T.);
#188 = EDGE_CURVE('NONE', #26, #28, #112, .T.);
#189 = EDGE_CURVE('NONE', #24, #28, #116, .T.);
#190 = EDGE_CURVE('NONE', #26, #30, #120, .T.);
#191 = EDGE_CURVE('NONE', #30, #32, #124, .T.);
#192 = EDGE_CURVE('NONE', #28, #32, #128, .T.);
#193 = EDGE_CURVE('NONE', #30, #34, #132, .T.);
#194 = EDGE_CURVE('NONE', #34, #36, #136, .T.);
#195 = EDGE_CURVE('NONE', #32, #36, #140, .T.);
#196 = EDGE_CURVE('NONE', #34, #14, #144, .T.);
#197 = EDGE_CURVE('NONE', #36, #20, #148, .T.);
#198 = EDGE_CURVE('NONE', #38, #38, #153, .T.);
#199 = EDGE_CURVE('NONE', #40, #40, #158, .T.);
#200 = EDGE_CURVE('NONE', #40, #42, #163, .T.);
#201 = EDGE_CURVE('NONE', #42, #42, #168, .T.);
#202 = EDGE_CURVE('NONE', #38, #40, #172, .T.);
#203 = CARTESIAN_POINT('NONE', (-0.00000000000000000031401849173675505, -0.000000000000000000314018491736755, 0.004));
#204 = DIRECTION('NONE', (0, 0, 1));
#205 = DIRECTION('NONE', (1, 0.00000000000000004831053719027, -0));
#206 = AXIS2_PLACEMENT_3D('NONE', #203, #204, #205);
#207 = CYLINDRICAL_SURFACE('NONE', #206, 0.0065);
#208 = CARTESIAN_POINT('NONE', (0, 0, -0));
#209 = DIRECTION('NONE', (0, 0, 1));
#210 = AXIS2_PLACEMENT_3D('NONE', #208, #209, $);
#211 = PLANE('NONE', #210);
#212 = CARTESIAN_POINT('NONE', (0, 0, 0.008));
#213 = DIRECTION('NONE', (0, 0, 1));
#214 = AXIS2_PLACEMENT_3D('NONE', #212, #213, $);
#215 = PLANE('NONE', #214);
#216 = CARTESIAN_POINT('NONE', (0, 0, 0.0004000000000000028));
#217 = DIRECTION('NONE', (-0, 0, -1));
#218 = DIRECTION('NONE', (1, 0.0000000000000000017734829921609356, -0));
#219 = AXIS2_PLACEMENT_3D('NONE', #216, #217, #218);
#220 = TOROIDAL_SURFACE('NONE', #219, 0.006099999999999995, 0.0004000000000000048);
#221 = CARTESIAN_POINT('NONE', (0, -0, 0.007599999999999999));
#222 = DIRECTION('NONE', (0, 0, 1));
#223 = DIRECTION('NONE', (1, 0.0000000000000000017734829921609413, -0));
#224 = AXIS2_PLACEMENT_3D('NONE', #221, #222, #223);
#225 = TOROIDAL_SURFACE('NONE', #224, 0.0060999999999999995, 0.00040000000000000034);
#226 = CARTESIAN_POINT('NONE', (0.002598076211353316, 0.0014999999999999998, 0.005499499999999999));
#227 = DIRECTION('NONE', (0.8660254037844387, 0.5, -0.00000000000000000000000000000001232595164407831));
#228 = AXIS2_PLACEMENT_3D('NONE', #226, #227, $);
#229 = PLANE('NONE', #228);
#230 = CARTESIAN_POINT('NONE', (0.0000000000000000004440892098500626, 0.0029999999999999996, 0.005499499999999999));
#231 = DIRECTION('NONE', (0, 1, 0));
#232 = AXIS2_PLACEMENT_3D('NONE', #230, #231, $);
#233 = PLANE('NONE', #232);
#234 = CARTESIAN_POINT('NONE', (-0.0025980762113533154, 0.0014999999999999996, 0.005499499999999999));
#235 = DIRECTION('NONE', (-0.8660254037844386, 0.5000000000000002, 0));
#236 = AXIS2_PLACEMENT_3D('NONE', #234, #235, $);
#237 = PLANE('NONE', #236);
#238 = CARTESIAN_POINT('NONE', (-0.0025980762113533163, -0.0014999999999999994, 0.005499499999999999));
#239 = DIRECTION('NONE', (-0.8660254037844388, -0.4999999999999997, 0));
#240 = AXIS2_PLACEMENT_3D('NONE', #238, #239, $);
#241 = PLANE('NONE', #240);
#242 = CARTESIAN_POINT('NONE', (-0.0000000000000000026645352591003758, -0.003, 0.005499499999999999));
#243 = DIRECTION('NONE', (0, -1, 0));
#244 = AXIS2_PLACEMENT_3D('NONE', #242, #243, $);
#245 = PLANE('NONE', #244);
#246 = CARTESIAN_POINT('NONE', (0.0025980762113533146, -0.0015000000000000007, 0.005499499999999999));
#247 = DIRECTION('NONE', (0.8660254037844385, -0.5000000000000003, 0));
#248 = AXIS2_PLACEMENT_3D('NONE', #246, #247, $);
#249 = PLANE('NONE', #248);
#250 = CARTESIAN_POINT('NONE', (0, 0, 0.0029989999999999995));
#251 = DIRECTION('NONE', (0, 0, 1));
#252 = AXIS2_PLACEMENT_3D('NONE', #250, #251, $);
#253 = PLANE('NONE', #252);
#254 = CARTESIAN_POINT('NONE', (-0.00000000000000000000000000000000003486305596842099, 0.00000000000000000031401849173675505, -0.015));
#255 = DIRECTION('NONE', (0, 0, -1));
#256 = DIRECTION('NONE', (-1, -0.00000000000000007850462293418876, -0));
#257 = AXIS2_PLACEMENT_3D('NONE', #254, #255, #256);
#258 = CYLINDRICAL_SURFACE('NONE', #257, 0.004);
#259 = CARTESIAN_POINT('NONE', (0, 0, -0.03));
#260 = DIRECTION('NONE', (0, -0, -1));
#261 = AXIS2_PLACEMENT_3D('NONE', #259, #260, $);
#262 = PLANE('NONE', #261);
#263 = CARTESIAN_POINT('NONE', (0.00000000000000000015700924586837748, 0.00000000000000000015700924586837755, -0.029600000000000005));
#264 = DIRECTION('NONE', (0, 0, -1));
#265 = DIRECTION('NONE', (-1, -0.00000000000000004043667423456153, -0));
#266 = AXIS2_PLACEMENT_3D('NONE', #263, #264, #265);
#267 = TOROIDAL_SURFACE('NONE', #266, 0.003600000000000002, 0.0003999999999999981);
#268 = ORIENTED_EDGE('NONE', *, *, #173, .F.);
#269 = ORIENTED_EDGE('NONE', *, *, #176, .F.);
#270 = EDGE_LOOP('NONE', (#268));
#271 = FACE_BOUND('NONE', #270, .T.);
#272 = EDGE_LOOP('NONE', (#269));
#273 = FACE_BOUND('NONE', #272, .T.);
#274 = ADVANCED_FACE('NONE', (#271, #273), #207, .T.);
#275 = ORIENTED_EDGE('NONE', *, *, #175, .F.);
#276 = ORIENTED_EDGE('NONE', *, *, #198, .F.);
#277 = EDGE_LOOP('NONE', (#275));
#278 = FACE_BOUND('NONE', #277, .T.);
#279 = EDGE_LOOP('NONE', (#276));
#280 = FACE_BOUND('NONE', #279, .T.);
#281 = ADVANCED_FACE('NONE', (#278, #280), #211, .F.);
#282 = ORIENTED_EDGE('NONE', *, *, #178, .F.);
#283 = ORIENTED_EDGE('NONE', *, *, #197, .F.);
#284 = ORIENTED_EDGE('NONE', *, *, #195, .F.);
#285 = ORIENTED_EDGE('NONE', *, *, #192, .F.);
#286 = ORIENTED_EDGE('NONE', *, *, #189, .F.);
#287 = ORIENTED_EDGE('NONE', *, *, #186, .F.);
#288 = ORIENTED_EDGE('NONE', *, *, #182, .F.);
#289 = EDGE_LOOP('NONE', (#282));
#290 = FACE_BOUND('NONE', #289, .T.);
#291 = EDGE_LOOP('NONE', (#283, #284, #285, #286, #287, #288));
#292 = FACE_BOUND('NONE', #291, .T.);
#293 = ADVANCED_FACE('NONE', (#290, #292), #215, .T.);
#294 = ORIENTED_EDGE('NONE', *, *, #173, .T.);
#295 = ORIENTED_EDGE('NONE', *, *, #175, .T.);
#296 = EDGE_LOOP('NONE', (#294));
#297 = FACE_BOUND('NONE', #296, .T.);
#298 = EDGE_LOOP('NONE', (#295));
#299 = FACE_BOUND('NONE', #298, .T.);
#300 = ADVANCED_FACE('NONE', (#297, #299), #220, .T.);
#301 = ORIENTED_EDGE('NONE', *, *, #176, .T.);
#302 = ORIENTED_EDGE('NONE', *, *, #178, .T.);
#303 = EDGE_LOOP('NONE', (#301));
#304 = FACE_BOUND('NONE', #303, .T.);
#305 = EDGE_LOOP('NONE', (#302));
#306 = FACE_BOUND('NONE', #305, .T.);
#307 = ADVANCED_FACE('NONE', (#304, #306), #225, .T.);
#308 = ORIENTED_EDGE('NONE', *, *, #183, .T.);
#309 = ORIENTED_EDGE('NONE', *, *, #182, .T.);
#310 = ORIENTED_EDGE('NONE', *, *, #181, .F.);
#311 = ORIENTED_EDGE('NONE', *, *, #180, .F.);
#312 = EDGE_LOOP('NONE', (#308, #309, #310, #311));
#313 = FACE_BOUND('NONE', #312, .T.);
#314 = ADVANCED_FACE('NONE', (#313), #229, .F.);
#315 = ORIENTED_EDGE('NONE', *, *, #181, .T.);
#316 = ORIENTED_EDGE('NONE', *, *, #186, .T.);
#317 = ORIENTED_EDGE('NONE', *, *, #185, .F.);
#318 = ORIENTED_EDGE('NONE', *, *, #184, .F.);
#319 = EDGE_LOOP('NONE', (#315, #316, #317, #318));
#320 = FACE_BOUND('NONE', #319, .T.);
#321 = ADVANCED_FACE('NONE', (#320), #233, .F.);
#322 = ORIENTED_EDGE('NONE', *, *, #185, .T.);
#323 = ORIENTED_EDGE('NONE', *, *, #189, .T.);
#324 = ORIENTED_EDGE('NONE', *, *, #188, .F.);
#325 = ORIENTED_EDGE('NONE', *, *, #187, .F.);
#326 = EDGE_LOOP('NONE', (#322, #323, #324, #325));
#327 = FACE_BOUND('NONE', #326, .T.);
#328 = ADVANCED_FACE('NONE', (#327), #237, .F.);
#329 = ORIENTED_EDGE('NONE', *, *, #188, .T.);
#330 = ORIENTED_EDGE('NONE', *, *, #192, .T.);
#331 = ORIENTED_EDGE('NONE', *, *, #191, .F.);
#332 = ORIENTED_EDGE('NONE', *, *, #190, .F.);
#333 = EDGE_LOOP('NONE', (#329, #330, #331, #332));
#334 = FACE_BOUND('NONE', #333, .T.);
#335 = ADVANCED_FACE('NONE', (#334), #241, .F.);
#336 = ORIENTED_EDGE('NONE', *, *, #191, .T.);
#337 = ORIENTED_EDGE('NONE', *, *, #195, .T.);
#338 = ORIENTED_EDGE('NONE', *, *, #194, .F.);
#339 = ORIENTED_EDGE('NONE', *, *, #193, .F.);
#340 = EDGE_LOOP('NONE', (#336, #337, #338, #339));
#341 = FACE_BOUND('NONE', #340, .T.);
#342 = ADVANCED_FACE('NONE', (#341), #245, .F.);
#343 = ORIENTED_EDGE('NONE', *, *, #194, .T.);
#344 = ORIENTED_EDGE('NONE', *, *, #197, .T.);
#345 = ORIENTED_EDGE('NONE', *, *, #183, .F.);
#346 = ORIENTED_EDGE('NONE', *, *, #196, .F.);
#347 = EDGE_LOOP('NONE', (#343, #344, #345, #346));
#348 = FACE_BOUND('NONE', #347, .T.);
#349 = ADVANCED_FACE('NONE', (#348), #249, .F.);
#350 = ORIENTED_EDGE('NONE', *, *, #180, .T.);
#351 = ORIENTED_EDGE('NONE', *, *, #184, .T.);
#352 = ORIENTED_EDGE('NONE', *, *, #187, .T.);
#353 = ORIENTED_EDGE('NONE', *, *, #190, .T.);
#354 = ORIENTED_EDGE('NONE', *, *, #193, .T.);
#355 = ORIENTED_EDGE('NONE', *, *, #196, .T.);
#356 = EDGE_LOOP('NONE', (#350, #351, #352, #353, #354, #355));
#357 = FACE_BOUND('NONE', #356, .T.);
#358 = ADVANCED_FACE('NONE', (#357), #253, .T.);
#359 = ORIENTED_EDGE('NONE', *, *, #198, .T.);
#360 = ORIENTED_EDGE('NONE', *, *, #199, .F.);
#361 = EDGE_LOOP('NONE', (#359));
#362 = FACE_BOUND('NONE', #361, .T.);
#363 = EDGE_LOOP('NONE', (#360));
#364 = FACE_BOUND('NONE', #363, .T.);
#365 = ADVANCED_FACE('NONE', (#362, #364), #258, .T.);
#366 = ORIENTED_EDGE('NONE', *, *, #201, .F.);
#367 = EDGE_LOOP('NONE', (#366));
#368 = FACE_BOUND('NONE', #367, .T.);
#369 = ADVANCED_FACE('NONE', (#368), #262, .T.);
#370 = ORIENTED_EDGE('NONE', *, *, #199, .T.);
#371 = ORIENTED_EDGE('NONE', *, *, #201, .T.);
#372 = EDGE_LOOP('NONE', (#370));
#373 = FACE_BOUND('NONE', #372, .T.);
#374 = EDGE_LOOP('NONE', (#371));
#375 = FACE_BOUND('NONE', #374, .T.);
#376 = ADVANCED_FACE('NONE', (#373, #375), #267, .T.);
#377 = CLOSED_SHELL('NONE', (#274, #281, #293, #300, #307, #314, #321, #328, #335, #342, #349, #358, #365, #369, #376));
#378 = MANIFOLD_SOLID_BREP('NONE', #377);
#379 = APPLICATION_CONTEXT('configuration controlled 3D design of mechanical parts and assemblies');
#380 = PRODUCT_DEFINITION_CONTEXT('part definition', #379, 'design');
#381 = PRODUCT('UNIDENTIFIED_PRODUCT', 'NONE', $, ());
#382 = PRODUCT_DEFINITION_FORMATION('', $, #381);
#383 = PRODUCT_DEFINITION('design', $, #382, #380);
#384 = PRODUCT_DEFINITION_SHAPE('NONE', $, #383);
#385 = ADVANCED_BREP_SHAPE_REPRESENTATION('NONE', (#378), #4);
#386 = SHAPE_DEFINITION_REPRESENTATION(#384, #385);
#387 = COLOUR_RGB('NONE', 0.5411764979362488, 0.5411764979362488, 0.5411764979362488);
#388 = FILL_AREA_STYLE_COLOUR('NONE', #387);
#389 = FILL_AREA_STYLE('NONE', (#388));
#390 = SURFACE_STYLE_FILL_AREA(#389);
#391 = SURFACE_SIDE_STYLE('NONE', (#390));
#392 = SURFACE_STYLE_USAGE(.BOTH., #391);
#393 = PRESENTATION_STYLE_ASSIGNMENT((#392));
#394 = STYLED_ITEM('NONE', (#393), #378);
#395 = MECHANICAL_DESIGN_GEOMETRIC_PRESENTATION_REPRESENTATION('NONE', (#394), #4);
ENDSEC;
END-ISO-10303-21;
