ISO-10303-21;
HEADER;
FILE_DESCRIPTION(('Zoo Text-to-CAD'),'1');
FILE_NAME('dump.step', '2025-11-20T08:00:57.518493004+00:00', ('Author unknown'), ('Organization unknown'), 'zoo.dev beta', 'zoo.dev', 'Authorization unknown');
FILE_SCHEMA(('AP203_CONFIGURATION_CONTROLLED_3D_DESIGN_OF_MECHANICAL_PARTS_AND_ASSEMBLIES_MIM_LF'));
ENDSEC;
DATA;
#1 = (
  LENGTH_UNIT()
  NAMED_UNIT(*)
  SI_UNIT($, .METRE.)
);
#2 = (
  NAMED_UNIT(*)
  PLANE_ANGLE_UNIT()
  SI_UNIT($, .RADIAN.)
);
#3 = UNCERTAINTY_MEASURE_WITH_UNIT(LENGTH_MEASURE(0.00001), #1, 'DISTANCE_ACCURACY_VALUE', $);
#4 = (
  GEOMETRIC_REPRESENTATION_CONTEXT(3)
  GLOBAL_UNCERTAINTY_ASSIGNED_CONTEXT((#3))
  GLOBAL_UNIT_ASSIGNED_CONTEXT((#1, #2))
  REPRESENTATION_CONTEXT('', '3D')
);
#5 = CARTESIAN_POINT('NONE', (0, 0, -0));
#6 = VERTEX_POINT('NONE', #5);
#7 = CARTESIAN_POINT('NONE', (0.05, 0, -0));
#8 = VERTEX_POINT('NONE', #7);
#9 = CARTESIAN_POINT('NONE', (0.05, 0.3, -0));
#10 = VERTEX_POINT('NONE', #9);
#11 = CARTESIAN_POINT('NONE', (0, 0.3, -0));
#12 = VERTEX_POINT('NONE', #11);
#13 = CARTESIAN_POINT('NONE', (0.05, 0, -0.005));
#14 = VERTEX_POINT('NONE', #13);
#15 = CARTESIAN_POINT('NONE', (0.05, 0.3, -0.005));
#16 = VERTEX_POINT('NONE', #15);
#17 = CARTESIAN_POINT('NONE', (0.005, 0, -0.005));
#18 = VERTEX_POINT('NONE', #17);
#19 = CARTESIAN_POINT('NONE', (0.005, 0.3, -0.005));
#20 = VERTEX_POINT('NONE', #19);
#21 = CARTESIAN_POINT('NONE', (0, 0, -0.05));
#22 = VERTEX_POINT('NONE', #21);
#23 = CARTESIAN_POINT('NONE', (0, 0.3, -0.05));
#24 = VERTEX_POINT('NONE', #23);
#25 = CARTESIAN_POINT('NONE', (0.005, 0, -0.048));
#26 = VERTEX_POINT('NONE', #25);
#27 = CARTESIAN_POINT('NONE', (0.005, 0.3, -0.048));
#28 = VERTEX_POINT('NONE', #27);
#29 = CARTESIAN_POINT('NONE', (0.003, 0.3, -0.05));
#30 = VERTEX_POINT('NONE', #29);
#31 = CARTESIAN_POINT('NONE', (0.003, 0, -0.05));
#32 = VERTEX_POINT('NONE', #31);
#33 = DIRECTION('NONE', (1, 0, 0));
#34 = VECTOR('NONE', #33, 1);
#35 = CARTESIAN_POINT('NONE', (0, 0, -0));
#36 = LINE('NONE', #35, #34);
#37 = DIRECTION('NONE', (0, 1, 0));
#38 = VECTOR('NONE', #37, 1);
#39 = CARTESIAN_POINT('NONE', (0.05, 0, -0));
#40 = LINE('NONE', #39, #38);
#41 = DIRECTION('NONE', (1, 0, 0));
#42 = VECTOR('NONE', #41, 1);
#43 = CARTESIAN_POINT('NONE', (0, 0.3, -0));
#44 = LINE('NONE', #43, #42);
#45 = DIRECTION('NONE', (0, 1, 0));
#46 = VECTOR('NONE', #45, 1);
#47 = CARTESIAN_POINT('NONE', (0, 0, -0));
#48 = LINE('NONE', #47, #46);
#49 = DIRECTION('NONE', (0, 0, -1));
#50 = VECTOR('NONE', #49, 1);
#51 = CARTESIAN_POINT('NONE', (0.05, 0, -0));
#52 = LINE('NONE', #51, #50);
#53 = DIRECTION('NONE', (0, 1, 0));
#54 = VECTOR('NONE', #53, 1);
#55 = CARTESIAN_POINT('NONE', (0.05, 0, -0.005));
#56 = LINE('NONE', #55, #54);
#57 = DIRECTION('NONE', (0, 0, -1));
#58 = VECTOR('NONE', #57, 1);
#59 = CARTESIAN_POINT('NONE', (0.05, 0.3, -0));
#60 = LINE('NONE', #59, #58);
#61 = DIRECTION('NONE', (-1, 0, 0));
#62 = VECTOR('NONE', #61, 1);
#63 = CARTESIAN_POINT('NONE', (0.05, 0, -0.005));
#64 = LINE('NONE', #63, #62);
#65 = DIRECTION('NONE', (0, 1, 0));
#66 = VECTOR('NONE', #65, 1);
#67 = CARTESIAN_POINT('NONE', (0.005, 0, -0.005));
#68 = LINE('NONE', #67, #66);
#69 = DIRECTION('NONE', (-1, 0, 0));
#70 = VECTOR('NONE', #69, 1);
#71 = CARTESIAN_POINT('NONE', (0.05, 0.3, -0.005));
#72 = LINE('NONE', #71, #70);
#73 = DIRECTION('NONE', (0, 1, 0));
#74 = VECTOR('NONE', #73, 1);
#75 = CARTESIAN_POINT('NONE', (0, 0, -0.05));
#76 = LINE('NONE', #75, #74);
#77 = DIRECTION('NONE', (0, 0, 1));
#78 = VECTOR('NONE', #77, 1);
#79 = CARTESIAN_POINT('NONE', (0, 0, -0.05));
#80 = LINE('NONE', #79, #78);
#81 = DIRECTION('NONE', (0, 0, 1));
#82 = VECTOR('NONE', #81, 1);
#83 = CARTESIAN_POINT('NONE', (0, 0.3, -0.05));
#84 = LINE('NONE', #83, #82);
#85 = DIRECTION('NONE', (0, 1, 0));
#86 = VECTOR('NONE', #85, 1);
#87 = CARTESIAN_POINT('NONE', (0.005, 0, -0.048));
#88 = LINE('NONE', #87, #86);
#89 = DIRECTION('NONE', (1, 0, 0.00000000000000710542735760104));
#90 = DIRECTION('NONE', (-0, 1, 0));
#91 = CARTESIAN_POINT('NONE', (0.0030000000000000105, 0.3, -0.048000000000000015));
#92 = AXIS2_PLACEMENT_3D('NONE', #91, #90, #89);
#93 = CIRCLE('NONE', #92, 0.001999999999999989);
#94 = DIRECTION('NONE', (0, -1, 0));
#95 = VECTOR('NONE', #94, 1);
#96 = CARTESIAN_POINT('NONE', (0.003, 0.3, -0.05));
#97 = LINE('NONE', #96, #95);
#98 = DIRECTION('NONE', (-0.000000000000005329070518200789, 0, -1));
#99 = DIRECTION('NONE', (0, -1, -0));
#100 = CARTESIAN_POINT('NONE', (0.0030000000000000105, -0, -0.048000000000000015));
#101 = AXIS2_PLACEMENT_3D('NONE', #100, #99, #98);
#102 = CIRCLE('NONE', #101, 0.0019999999999999857);
#103 = DIRECTION('NONE', (0.000000000000000020171203209031675, 0, -1));
#104 = VECTOR('NONE', #103, 1);
#105 = CARTESIAN_POINT('NONE', (0.005, 0, -0.005));
#106 = LINE('NONE', #105, #104);
#107 = DIRECTION('NONE', (-0.000000000000000020171203209031675, 0, 1));
#108 = VECTOR('NONE', #107, 1);
#109 = CARTESIAN_POINT('NONE', (0.005000000000000001, 0.3, -0.048000000000002055));
#110 = LINE('NONE', #109, #108);
#111 = DIRECTION('NONE', (-1, 0, 0));
#112 = VECTOR('NONE', #111, 1);
#113 = CARTESIAN_POINT('NONE', (0.0030000000000000005, 0, -0.05));
#114 = LINE('NONE', #113, #112);
#115 = DIRECTION('NONE', (1, 0, 0));
#116 = VECTOR('NONE', #115, 1);
#117 = CARTESIAN_POINT('NONE', (0, 0.3, -0.05));
#118 = LINE('NONE', #117, #116);
#119 = EDGE_CURVE('NONE', #6, #8, #36, .T.);
#120 = EDGE_CURVE('NONE', #8, #10, #40, .T.);
#121 = EDGE_CURVE('NONE', #12, #10, #44, .T.);
#122 = EDGE_CURVE('NONE', #6, #12, #48, .T.);
#123 = EDGE_CURVE('NONE', #8, #14, #52, .T.);
#124 = EDGE_CURVE('NONE', #14, #16, #56, .T.);
#125 = EDGE_CURVE('NONE', #10, #16, #60, .T.);
#126 = EDGE_CURVE('NONE', #14, #18, #64, .T.);
#127 = EDGE_CURVE('NONE', #18, #20, #68, .T.);
#128 = EDGE_CURVE('NONE', #16, #20, #72, .T.);
#129 = EDGE_CURVE('NONE', #22, #24, #76, .T.);
#130 = EDGE_CURVE('NONE', #22, #6, #80, .T.);
#131 = EDGE_CURVE('NONE', #24, #12, #84, .T.);
#132 = EDGE_CURVE('NONE', #26, #28, #88, .T.);
#133 = EDGE_CURVE('NONE', #28, #30, #93, .T.);
#134 = EDGE_CURVE('NONE', #30, #32, #97, .T.);
#135 = EDGE_CURVE('NONE', #32, #26, #102, .T.);
#136 = EDGE_CURVE('NONE', #18, #26, #106, .T.);
#137 = EDGE_CURVE('NONE', #28, #20, #110, .T.);
#138 = EDGE_CURVE('NONE', #32, #22, #114, .T.);
#139 = EDGE_CURVE('NONE', #24, #30, #118, .T.);
#140 = CARTESIAN_POINT('NONE', (0.025, 0.15, -0));
#141 = DIRECTION('NONE', (0, 0, 1));
#142 = AXIS2_PLACEMENT_3D('NONE', #140, #141, $);
#143 = PLANE('NONE', #142);
#144 = CARTESIAN_POINT('NONE', (0.05, 0.15, -0.0025));
#145 = DIRECTION('NONE', (1, 0, 0));
#146 = AXIS2_PLACEMENT_3D('NONE', #144, #145, $);
#147 = PLANE('NONE', #146);
#148 = CARTESIAN_POINT('NONE', (0.0275, 0.15, -0.005));
#149 = DIRECTION('NONE', (0, -0, -1));
#150 = AXIS2_PLACEMENT_3D('NONE', #148, #149, $);
#151 = PLANE('NONE', #150);
#152 = CARTESIAN_POINT('NONE', (0.005, 0.15, -0.0275));
#153 = DIRECTION('NONE', (1, 0, 0));
#154 = AXIS2_PLACEMENT_3D('NONE', #152, #153, $);
#155 = PLANE('NONE', #154);
#156 = CARTESIAN_POINT('NONE', (0.0025, 0.15, -0.05));
#157 = DIRECTION('NONE', (0, -0, -1));
#158 = AXIS2_PLACEMENT_3D('NONE', #156, #157, $);
#159 = PLANE('NONE', #158);
#160 = CARTESIAN_POINT('NONE', (0, 0.15, -0.025));
#161 = DIRECTION('NONE', (-1, 0, 0));
#162 = AXIS2_PLACEMENT_3D('NONE', #160, #161, $);
#163 = PLANE('NONE', #162);
#164 = CARTESIAN_POINT('NONE', (0, 0, -0));
#165 = DIRECTION('NONE', (0, 1, 0));
#166 = AXIS2_PLACEMENT_3D('NONE', #164, #165, $);
#167 = PLANE('NONE', #166);
#168 = CARTESIAN_POINT('NONE', (0, 0.3, -0));
#169 = DIRECTION('NONE', (0, 1, 0));
#170 = AXIS2_PLACEMENT_3D('NONE', #168, #169, $);
#171 = PLANE('NONE', #170);
#172 = CARTESIAN_POINT('NONE', (0.0030000000000000105, 0.15, -0.048000000000000015));
#173 = DIRECTION('NONE', (-0, 1, 0));
#174 = DIRECTION('NONE', (1, 0, 0.00000000000000710542735760104));
#175 = AXIS2_PLACEMENT_3D('NONE', #172, #173, #174);
#176 = CYLINDRICAL_SURFACE('NONE', #175, 0.001999999999999989);
#177 = ORIENTED_EDGE('NONE', *, *, #119, .T.);
#178 = ORIENTED_EDGE('NONE', *, *, #120, .T.);
#179 = ORIENTED_EDGE('NONE', *, *, #121, .F.);
#180 = ORIENTED_EDGE('NONE', *, *, #122, .F.);
#181 = EDGE_LOOP('NONE', (#177, #178, #179, #180));
#182 = FACE_BOUND('NONE', #181, .T.);
#183 = ADVANCED_FACE('NONE', (#182), #143, .T.);
#184 = ORIENTED_EDGE('NONE', *, *, #123, .T.);
#185 = ORIENTED_EDGE('NONE', *, *, #124, .T.);
#186 = ORIENTED_EDGE('NONE', *, *, #125, .F.);
#187 = ORIENTED_EDGE('NONE', *, *, #120, .F.);
#188 = EDGE_LOOP('NONE', (#184, #185, #186, #187));
#189 = FACE_BOUND('NONE', #188, .T.);
#190 = ADVANCED_FACE('NONE', (#189), #147, .T.);
#191 = ORIENTED_EDGE('NONE', *, *, #126, .T.);
#192 = ORIENTED_EDGE('NONE', *, *, #127, .T.);
#193 = ORIENTED_EDGE('NONE', *, *, #128, .F.);
#194 = ORIENTED_EDGE('NONE', *, *, #124, .F.);
#195 = EDGE_LOOP('NONE', (#191, #192, #193, #194));
#196 = FACE_BOUND('NONE', #195, .T.);
#197 = ADVANCED_FACE('NONE', (#196), #151, .T.);
#198 = ORIENTED_EDGE('NONE', *, *, #136, .T.);
#199 = ORIENTED_EDGE('NONE', *, *, #132, .T.);
#200 = ORIENTED_EDGE('NONE', *, *, #137, .T.);
#201 = ORIENTED_EDGE('NONE', *, *, #127, .F.);
#202 = EDGE_LOOP('NONE', (#198, #199, #200, #201));
#203 = FACE_BOUND('NONE', #202, .T.);
#204 = ADVANCED_FACE('NONE', (#203), #155, .T.);
#205 = ORIENTED_EDGE('NONE', *, *, #138, .T.);
#206 = ORIENTED_EDGE('NONE', *, *, #129, .T.);
#207 = ORIENTED_EDGE('NONE', *, *, #139, .T.);
#208 = ORIENTED_EDGE('NONE', *, *, #134, .T.);
#209 = EDGE_LOOP('NONE', (#205, #206, #207, #208));
#210 = FACE_BOUND('NONE', #209, .T.);
#211 = ADVANCED_FACE('NONE', (#210), #159, .T.);
#212 = ORIENTED_EDGE('NONE', *, *, #130, .T.);
#213 = ORIENTED_EDGE('NONE', *, *, #122, .T.);
#214 = ORIENTED_EDGE('NONE', *, *, #131, .F.);
#215 = ORIENTED_EDGE('NONE', *, *, #129, .F.);
#216 = EDGE_LOOP('NONE', (#212, #213, #214, #215));
#217 = FACE_BOUND('NONE', #216, .T.);
#218 = ADVANCED_FACE('NONE', (#217), #163, .T.);
#219 = ORIENTED_EDGE('NONE', *, *, #130, .F.);
#220 = ORIENTED_EDGE('NONE', *, *, #138, .F.);
#221 = ORIENTED_EDGE('NONE', *, *, #135, .T.);
#222 = ORIENTED_EDGE('NONE', *, *, #136, .F.);
#223 = ORIENTED_EDGE('NONE', *, *, #126, .F.);
#224 = ORIENTED_EDGE('NONE', *, *, #123, .F.);
#225 = ORIENTED_EDGE('NONE', *, *, #119, .F.);
#226 = EDGE_LOOP('NONE', (#219, #220, #221, #222, #223, #224, #225));
#227 = FACE_BOUND('NONE', #226, .T.);
#228 = ADVANCED_FACE('NONE', (#227), #167, .F.);
#229 = ORIENTED_EDGE('NONE', *, *, #121, .T.);
#230 = ORIENTED_EDGE('NONE', *, *, #125, .T.);
#231 = ORIENTED_EDGE('NONE', *, *, #128, .T.);
#232 = ORIENTED_EDGE('NONE', *, *, #137, .F.);
#233 = ORIENTED_EDGE('NONE', *, *, #133, .T.);
#234 = ORIENTED_EDGE('NONE', *, *, #139, .F.);
#235 = ORIENTED_EDGE('NONE', *, *, #131, .T.);
#236 = EDGE_LOOP('NONE', (#229, #230, #231, #232, #233, #234, #235));
#237 = FACE_BOUND('NONE', #236, .T.);
#238 = ADVANCED_FACE('NONE', (#237), #171, .T.);
#239 = ORIENTED_EDGE('NONE', *, *, #135, .F.);
#240 = ORIENTED_EDGE('NONE', *, *, #134, .F.);
#241 = ORIENTED_EDGE('NONE', *, *, #133, .F.);
#242 = ORIENTED_EDGE('NONE', *, *, #132, .F.);
#243 = EDGE_LOOP('NONE', (#239, #240, #241, #242));
#244 = FACE_BOUND('NONE', #243, .T.);
#245 = ADVANCED_FACE('NONE', (#244), #176, .T.);
#246 = CLOSED_SHELL('NONE', (#183, #190, #197, #204, #211, #218, #228, #238, #245));
#247 = MANIFOLD_SOLID_BREP('NONE', #246);
#248 = APPLICATION_CONTEXT('configuration controlled 3D design of mechanical parts and assemblies');
#249 = PRODUCT_DEFINITION_CONTEXT('part definition', #248, 'design');
#250 = PRODUCT('UNIDENTIFIED_PRODUCT', 'NONE', $, ());
#251 = PRODUCT_DEFINITION_FORMATION('', $, #250);
#252 = PRODUCT_DEFINITION('design', $, #251, #249);
#253 = PRODUCT_DEFINITION_SHAPE('NONE', $, #252);
#254 = ADVANCED_BREP_SHAPE_REPRESENTATION('NONE', (#247), #4);
#255 = SHAPE_DEFINITION_REPRESENTATION(#253, #254);
#256 = COLOUR_RGB('NONE', 0.47843137383461, 0.47843137383461, 0.47843137383461);
#257 = FILL_AREA_STYLE_COLOUR('NONE', #256);
#258 = FILL_AREA_STYLE('NONE', (#257));
#259 = SURFACE_STYLE_FILL_AREA(#258);
#260 = SURFACE_SIDE_STYLE('NONE', (#259));
#261 = SURFACE_STYLE_USAGE(.BOTH., #260);
#262 = PRESENTATION_STYLE_ASSIGNMENT((#261));
#263 = STYLED_ITEM('NONE', (#262), #247);
#264 = MECHANICAL_DESIGN_GEOMETRIC_PRESENTATION_REPRESENTATION('NONE', (#263), #4);
ENDSEC;
END-ISO-10303-21;
