ISO-10303-21;
HEADER;
FILE_DESCRIPTION(('Zoo Text-to-CAD'),'1');
FILE_NAME('dump.step', '2025-11-20T03:46:26.641696050+00:00', ('Author unknown'), ('Organization unknown'), 'zoo.dev beta', 'zoo.dev', 'Authorization unknown');
FILE_SCHEMA(('AP203_CONFIGURATION_CONTROLLED_3D_DESIGN_OF_MECHANICAL_PARTS_AND_ASSEMBLIES_MIM_LF'));
ENDSEC;
DATA;
#1 = (
  LENGTH_UNIT()
  NAMED_UNIT(*)
  SI_UNIT($, .METRE.)
);
#2 = (
  NAMED_UNIT(*)
  PLANE_ANGLE_UNIT()
  SI_UNIT($, .RADIAN.)
);
#3 = UNCERTAINTY_MEASURE_WITH_UNIT(LENGTH_MEASURE(0.00001), #1, 'DISTANCE_ACCURACY_VALUE', $);
#4 = (
  GEOMETRIC_REPRESENTATION_CONTEXT(3)
  GLOBAL_UNCERTAINTY_ASSIGNED_CONTEXT((#3))
  GLOBAL_UNIT_ASSIGNED_CONTEXT((#1, #2))
  REPRESENTATION_CONTEXT('', '3D')
);
#5 = CARTESIAN_POINT('NONE', (-0.0625, 0, 0.0075));
#6 = VERTEX_POINT('NONE', #5);
#7 = CARTESIAN_POINT('NONE', (0.0625, 0, 0.0075));
#8 = VERTEX_POINT('NONE', #7);
#9 = CARTESIAN_POINT('NONE', (0.0625, 0.003, 0.0075));
#10 = VERTEX_POINT('NONE', #9);
#11 = CARTESIAN_POINT('NONE', (-0.0625, 0.003, 0.0075));
#12 = VERTEX_POINT('NONE', #11);
#13 = CARTESIAN_POINT('NONE', (0.0625, 0, -0.0075));
#14 = VERTEX_POINT('NONE', #13);
#15 = CARTESIAN_POINT('NONE', (0.0625, 0.003, -0.0075));
#16 = VERTEX_POINT('NONE', #15);
#17 = CARTESIAN_POINT('NONE', (-0.0625, 0, -0.0075));
#18 = VERTEX_POINT('NONE', #17);
#19 = CARTESIAN_POINT('NONE', (-0.0625, 0.003, -0.0075));
#20 = VERTEX_POINT('NONE', #19);
#21 = CARTESIAN_POINT('NONE', (-0.0584, 0, 0.00000000000000000039188697572715304));
#22 = VERTEX_POINT('NONE', #21);
#23 = CARTESIAN_POINT('NONE', (-0.0584, 0.003, 0.00000000000000000039188697572715304));
#24 = VERTEX_POINT('NONE', #23);
#25 = CARTESIAN_POINT('NONE', (-0.0484, 0, 0.00000000000000000039188697572715304));
#26 = VERTEX_POINT('NONE', #25);
#27 = CARTESIAN_POINT('NONE', (-0.0484, 0.003, 0.00000000000000000039188697572715304));
#28 = VERTEX_POINT('NONE', #27);
#29 = CARTESIAN_POINT('NONE', (-0.0384, 0, 0.00000000000000000039188697572715304));
#30 = VERTEX_POINT('NONE', #29);
#31 = CARTESIAN_POINT('NONE', (-0.0384, 0.003, 0.00000000000000000039188697572715304));
#32 = VERTEX_POINT('NONE', #31);
#33 = CARTESIAN_POINT('NONE', (-0.028399999999999998, 0, 0.00000000000000000039188697572715304));
#34 = VERTEX_POINT('NONE', #33);
#35 = CARTESIAN_POINT('NONE', (-0.028399999999999998, 0.003, 0.00000000000000000039188697572715304));
#36 = VERTEX_POINT('NONE', #35);
#37 = CARTESIAN_POINT('NONE', (-0.0184, 0, 0.00000000000000000039188697572715304));
#38 = VERTEX_POINT('NONE', #37);
#39 = CARTESIAN_POINT('NONE', (-0.0184, 0.003, 0.00000000000000000039188697572715304));
#40 = VERTEX_POINT('NONE', #39);
#41 = CARTESIAN_POINT('NONE', (-0.008400000000000001, 0, 0.00000000000000000039188697572715304));
#42 = VERTEX_POINT('NONE', #41);
#43 = CARTESIAN_POINT('NONE', (-0.008400000000000001, 0.003, 0.00000000000000000039188697572715304));
#44 = VERTEX_POINT('NONE', #43);
#45 = CARTESIAN_POINT('NONE', (0.0016, 0, 0.00000000000000000039188697572715304));
#46 = VERTEX_POINT('NONE', #45);
#47 = CARTESIAN_POINT('NONE', (0.0016, 0.003, 0.00000000000000000039188697572715304));
#48 = VERTEX_POINT('NONE', #47);
#49 = CARTESIAN_POINT('NONE', (0.0116, 0, 0.00000000000000000039188697572715304));
#50 = VERTEX_POINT('NONE', #49);
#51 = CARTESIAN_POINT('NONE', (0.0116, 0.003, 0.00000000000000000039188697572715304));
#52 = VERTEX_POINT('NONE', #51);
#53 = CARTESIAN_POINT('NONE', (0.0216, 0, 0.00000000000000000039188697572715304));
#54 = VERTEX_POINT('NONE', #53);
#55 = CARTESIAN_POINT('NONE', (0.0216, 0.003, 0.00000000000000000039188697572715304));
#56 = VERTEX_POINT('NONE', #55);
#57 = CARTESIAN_POINT('NONE', (0.0316, 0, 0.00000000000000000039188697572715304));
#58 = VERTEX_POINT('NONE', #57);
#59 = CARTESIAN_POINT('NONE', (0.0316, 0.003, 0.00000000000000000039188697572715304));
#60 = VERTEX_POINT('NONE', #59);
#61 = CARTESIAN_POINT('NONE', (0.0416, 0, 0.00000000000000000039188697572715304));
#62 = VERTEX_POINT('NONE', #61);
#63 = CARTESIAN_POINT('NONE', (0.0416, 0.003, 0.00000000000000000039188697572715304));
#64 = VERTEX_POINT('NONE', #63);
#65 = CARTESIAN_POINT('NONE', (0.0516, 0, 0.00000000000000000039188697572715304));
#66 = VERTEX_POINT('NONE', #65);
#67 = CARTESIAN_POINT('NONE', (0.0516, 0.003, 0.00000000000000000039188697572715304));
#68 = VERTEX_POINT('NONE', #67);
#69 = CARTESIAN_POINT('NONE', (0.0616, 0, 0.00000000000000000039188697572715304));
#70 = VERTEX_POINT('NONE', #69);
#71 = CARTESIAN_POINT('NONE', (0.0616, 0.003, 0.00000000000000000039188697572715304));
#72 = VERTEX_POINT('NONE', #71);
#73 = CARTESIAN_POINT('NONE', (0.003, -0.0000009999999999998898, -0));
#74 = VERTEX_POINT('NONE', #73);
#75 = CARTESIAN_POINT('NONE', (0.003, 0.003, -0));
#76 = VERTEX_POINT('NONE', #75);
#77 = DIRECTION('NONE', (1, 0, 0));
#78 = VECTOR('NONE', #77, 1);
#79 = CARTESIAN_POINT('NONE', (-0.0625, 0, 0.0075));
#80 = LINE('NONE', #79, #78);
#81 = DIRECTION('NONE', (0, 1, 0));
#82 = VECTOR('NONE', #81, 1);
#83 = CARTESIAN_POINT('NONE', (0.0625, 0, 0.0075));
#84 = LINE('NONE', #83, #82);
#85 = DIRECTION('NONE', (1, 0, 0));
#86 = VECTOR('NONE', #85, 1);
#87 = CARTESIAN_POINT('NONE', (-0.0625, 0.003, 0.0075));
#88 = LINE('NONE', #87, #86);
#89 = DIRECTION('NONE', (0, 1, 0));
#90 = VECTOR('NONE', #89, 1);
#91 = CARTESIAN_POINT('NONE', (-0.0625, 0, 0.0075));
#92 = LINE('NONE', #91, #90);
#93 = DIRECTION('NONE', (0, 0, 1));
#94 = DIRECTION('NONE', (-0, 1, 0));
#95 = CARTESIAN_POINT('NONE', (0.0625, 0, -0));
#96 = AXIS2_PLACEMENT_3D('NONE', #95, #94, #93);
#97 = CIRCLE('NONE', #96, 0.0075);
#98 = DIRECTION('NONE', (0, 1, 0));
#99 = VECTOR('NONE', #98, 1);
#100 = CARTESIAN_POINT('NONE', (0.0625, 0, -0.0075));
#101 = LINE('NONE', #100, #99);
#102 = DIRECTION('NONE', (0, 0, 1));
#103 = DIRECTION('NONE', (-0, 1, 0));
#104 = CARTESIAN_POINT('NONE', (0.0625, 0.003, -0));
#105 = AXIS2_PLACEMENT_3D('NONE', #104, #103, #102);
#106 = CIRCLE('NONE', #105, 0.0075);
#107 = DIRECTION('NONE', (-1, 0, 0));
#108 = VECTOR('NONE', #107, 1);
#109 = CARTESIAN_POINT('NONE', (0.0625, 0, -0.0075));
#110 = LINE('NONE', #109, #108);
#111 = DIRECTION('NONE', (0, 1, 0));
#112 = VECTOR('NONE', #111, 1);
#113 = CARTESIAN_POINT('NONE', (-0.0625, 0, -0.0075));
#114 = LINE('NONE', #113, #112);
#115 = DIRECTION('NONE', (-1, 0, 0));
#116 = VECTOR('NONE', #115, 1);
#117 = CARTESIAN_POINT('NONE', (0.0625, 0.003, -0.0075));
#118 = LINE('NONE', #117, #116);
#119 = DIRECTION('NONE', (-0.000000000000001894780628693604, 0, -1));
#120 = DIRECTION('NONE', (0, -1, -0));
#121 = CARTESIAN_POINT('NONE', (-0.062499999999999986, -0, -0.000000000000000014210854715202004));
#122 = AXIS2_PLACEMENT_3D('NONE', #121, #120, #119);
#123 = CIRCLE('NONE', #122, 0.007499999999999986);
#124 = DIRECTION('NONE', (-0.000000000000001894780628693604, 0, -1));
#125 = DIRECTION('NONE', (0, -1, -0));
#126 = CARTESIAN_POINT('NONE', (-0.062499999999999986, 0.003, -0.000000000000000014210854715202004));
#127 = AXIS2_PLACEMENT_3D('NONE', #126, #125, #124);
#128 = CIRCLE('NONE', #127, 0.007499999999999986);
#129 = DIRECTION('NONE', (1, 0, 0.00000000000000024492935982947044));
#130 = DIRECTION('NONE', (0, -1, 0));
#131 = CARTESIAN_POINT('NONE', (-0.06, -0, -0));
#132 = AXIS2_PLACEMENT_3D('NONE', #131, #130, #129);
#133 = CIRCLE('NONE', #132, 0.0016000000000000014);
#134 = DIRECTION('NONE', (0, 1, 0));
#135 = VECTOR('NONE', #134, 1);
#136 = CARTESIAN_POINT('NONE', (-0.0584, 0, 0.00000000000000000039188697572715304));
#137 = LINE('NONE', #136, #135);
#138 = DIRECTION('NONE', (1, 0, 0.00000000000000024492935982947044));
#139 = DIRECTION('NONE', (0, -1, 0));
#140 = CARTESIAN_POINT('NONE', (-0.06, 0.003, -0));
#141 = AXIS2_PLACEMENT_3D('NONE', #140, #139, #138);
#142 = CIRCLE('NONE', #141, 0.0016000000000000014);
#143 = DIRECTION('NONE', (1, 0, 0.00000000000000024492935982946936));
#144 = DIRECTION('NONE', (0, -1, 0));
#145 = CARTESIAN_POINT('NONE', (-0.05000000000000001, -0, -0));
#146 = AXIS2_PLACEMENT_3D('NONE', #145, #144, #143);
#147 = CIRCLE('NONE', #146, 0.0016000000000000085);
#148 = DIRECTION('NONE', (0, 1, 0));
#149 = VECTOR('NONE', #148, 1);
#150 = CARTESIAN_POINT('NONE', (-0.0484, 0, 0.00000000000000000039188697572715304));
#151 = LINE('NONE', #150, #149);
#152 = DIRECTION('NONE', (1, 0, 0.00000000000000024492935982946936));
#153 = DIRECTION('NONE', (0, -1, 0));
#154 = CARTESIAN_POINT('NONE', (-0.05000000000000001, 0.003, -0));
#155 = AXIS2_PLACEMENT_3D('NONE', #154, #153, #152);
#156 = CIRCLE('NONE', #155, 0.0016000000000000085);
#157 = DIRECTION('NONE', (1, 0, 0.00000000000000024492935982947044));
#158 = DIRECTION('NONE', (0, -1, 0));
#159 = CARTESIAN_POINT('NONE', (-0.04, -0, -0));
#160 = AXIS2_PLACEMENT_3D('NONE', #159, #158, #157);
#161 = CIRCLE('NONE', #160, 0.0016000000000000014);
#162 = DIRECTION('NONE', (0, 1, 0));
#163 = VECTOR('NONE', #162, 1);
#164 = CARTESIAN_POINT('NONE', (-0.0384, 0, 0.00000000000000000039188697572715304));
#165 = LINE('NONE', #164, #163);
#166 = DIRECTION('NONE', (1, 0, 0.00000000000000024492935982947044));
#167 = DIRECTION('NONE', (0, -1, 0));
#168 = CARTESIAN_POINT('NONE', (-0.04, 0.003, -0));
#169 = AXIS2_PLACEMENT_3D('NONE', #168, #167, #166);
#170 = CIRCLE('NONE', #169, 0.0016000000000000014);
#171 = DIRECTION('NONE', (1, 0, 0.000000000000003385114277197027));
#172 = DIRECTION('NONE', (0, -1, 0));
#173 = CARTESIAN_POINT('NONE', (-0.029999999999999995, -0, -0.000000000000000005024295867788083));
#174 = AXIS2_PLACEMENT_3D('NONE', #173, #172, #171);
#175 = CIRCLE('NONE', #174, 0.001599999999999998);
#176 = DIRECTION('NONE', (0, 1, 0));
#177 = VECTOR('NONE', #176, 1);
#178 = CARTESIAN_POINT('NONE', (-0.028399999999999998, 0, 0.00000000000000000039188697572715304));
#179 = LINE('NONE', #178, #177);
#180 = DIRECTION('NONE', (1, 0, 0.000000000000003385114277197027));
#181 = DIRECTION('NONE', (0, -1, 0));
#182 = CARTESIAN_POINT('NONE', (-0.029999999999999995, 0.003, -0.000000000000000005024295867788083));
#183 = AXIS2_PLACEMENT_3D('NONE', #182, #181, #180);
#184 = CIRCLE('NONE', #183, 0.001599999999999998);
#185 = DIRECTION('NONE', (1, 0, 0.0000000000000010299755891713577));
#186 = DIRECTION('NONE', (0, -1, 0));
#187 = CARTESIAN_POINT('NONE', (-0.02, -0, -0.0000000000000000012560739669470208));
#188 = AXIS2_PLACEMENT_3D('NONE', #187, #186, #185);
#189 = CIRCLE('NONE', #188, 0.0016000000000000014);
#190 = DIRECTION('NONE', (0, 1, 0));
#191 = VECTOR('NONE', #190, 1);
#192 = CARTESIAN_POINT('NONE', (-0.0184, 0, 0.00000000000000000039188697572715304));
#193 = LINE('NONE', #192, #191);
#194 = DIRECTION('NONE', (1, 0, 0.0000000000000010299755891713577));
#195 = DIRECTION('NONE', (0, -1, 0));
#196 = CARTESIAN_POINT('NONE', (-0.02, 0.003, -0.0000000000000000012560739669470208));
#197 = AXIS2_PLACEMENT_3D('NONE', #196, #195, #194);
#198 = CIRCLE('NONE', #197, 0.0016000000000000014);
#199 = DIRECTION('NONE', (1, 0, -0.0000000000000008652936647956861));
#200 = DIRECTION('NONE', (0, -1, 0));
#201 = CARTESIAN_POINT('NONE', (-0.01, -0, 0.0000000000000000017763568394002505));
#202 = AXIS2_PLACEMENT_3D('NONE', #201, #200, #199);
#203 = CIRCLE('NONE', #202, 0.0015999999999999996);
#204 = DIRECTION('NONE', (0, 1, 0));
#205 = VECTOR('NONE', #204, 1);
#206 = CARTESIAN_POINT('NONE', (-0.008400000000000001, 0, 0.00000000000000000039188697572715304));
#207 = LINE('NONE', #206, #205);
#208 = DIRECTION('NONE', (1, 0, -0.0000000000000008652936647956861));
#209 = DIRECTION('NONE', (0, -1, 0));
#210 = CARTESIAN_POINT('NONE', (-0.01, 0.003, 0.0000000000000000017763568394002505));
#211 = AXIS2_PLACEMENT_3D('NONE', #210, #209, #208);
#212 = CIRCLE('NONE', #211, 0.0015999999999999996);
#213 = DIRECTION('NONE', (1, 0, 0.00000000000000029399474916333856));
#214 = DIRECTION('NONE', (0, -1, 0));
#215 = CARTESIAN_POINT('NONE', (0.00000000000000000007850462293418876, -0, -0.00000000000000000007850462293418875));
#216 = AXIS2_PLACEMENT_3D('NONE', #215, #214, #213);
#217 = CIRCLE('NONE', #216, 0.0016);
#218 = DIRECTION('NONE', (0, 1, 0));
#219 = VECTOR('NONE', #218, 1);
#220 = CARTESIAN_POINT('NONE', (0.0016, 0, 0.00000000000000000039188697572715304));
#221 = LINE('NONE', #220, #219);
#222 = DIRECTION('NONE', (1, 0, 0.00000000000000029399474916333856));
#223 = DIRECTION('NONE', (0, -1, 0));
#224 = CARTESIAN_POINT('NONE', (0.00000000000000000007850462293418876, 0.003, -0.00000000000000000007850462293418875));
#225 = AXIS2_PLACEMENT_3D('NONE', #224, #223, #222);
#226 = CIRCLE('NONE', #225, 0.0016);
#227 = DIRECTION('NONE', (1, 0, 0.000000000000001355152384454629));
#228 = DIRECTION('NONE', (0, -1, 0));
#229 = CARTESIAN_POINT('NONE', (0.010000000000000002, -0, -0.0000000000000000017763568394002505));
#230 = AXIS2_PLACEMENT_3D('NONE', #229, #228, #227);
#231 = CIRCLE('NONE', #230, 0.001599999999999998);
#232 = DIRECTION('NONE', (0, 1, 0));
#233 = VECTOR('NONE', #232, 1);
#234 = CARTESIAN_POINT('NONE', (0.0116, 0, 0.00000000000000000039188697572715304));
#235 = LINE('NONE', #234, #233);
#236 = DIRECTION('NONE', (1, 0, 0.000000000000001355152384454629));
#237 = DIRECTION('NONE', (0, -1, 0));
#238 = CARTESIAN_POINT('NONE', (0.010000000000000002, 0.003, -0.0000000000000000017763568394002505));
#239 = AXIS2_PLACEMENT_3D('NONE', #238, #237, #236);
#240 = CIRCLE('NONE', #239, 0.001599999999999998);
#241 = DIRECTION('NONE', (1, 0, 0.0000000000000010299755891713577));
#242 = DIRECTION('NONE', (0, -1, 0));
#243 = CARTESIAN_POINT('NONE', (0.02, -0, -0.0000000000000000012560739669470208));
#244 = AXIS2_PLACEMENT_3D('NONE', #243, #242, #241);
#245 = CIRCLE('NONE', #244, 0.0016000000000000014);
#246 = DIRECTION('NONE', (0, 1, 0));
#247 = VECTOR('NONE', #246, 1);
#248 = CARTESIAN_POINT('NONE', (0.0216, 0, 0.00000000000000000039188697572715304));
#249 = LINE('NONE', #248, #247);
#250 = DIRECTION('NONE', (1, 0, 0.0000000000000010299755891713577));
#251 = DIRECTION('NONE', (0, -1, 0));
#252 = CARTESIAN_POINT('NONE', (0.02, 0.003, -0.0000000000000000012560739669470208));
#253 = AXIS2_PLACEMENT_3D('NONE', #252, #251, #250);
#254 = CIRCLE('NONE', #253, 0.0016000000000000014);
#255 = DIRECTION('NONE', (1, 0, 0.000000000000001815021818513245));
#256 = DIRECTION('NONE', (0, -1, 0));
#257 = CARTESIAN_POINT('NONE', (0.03, -0, -0.0000000000000000025121479338940416));
#258 = AXIS2_PLACEMENT_3D('NONE', #257, #256, #255);
#259 = CIRCLE('NONE', #258, 0.0016000000000000014);
#260 = DIRECTION('NONE', (0, 1, 0));
#261 = VECTOR('NONE', #260, 1);
#262 = CARTESIAN_POINT('NONE', (0.0316, 0, 0.00000000000000000039188697572715304));
#263 = LINE('NONE', #262, #261);
#264 = DIRECTION('NONE', (1, 0, 0.000000000000001815021818513245));
#265 = DIRECTION('NONE', (0, -1, 0));
#266 = CARTESIAN_POINT('NONE', (0.03, 0.003, -0.0000000000000000025121479338940416));
#267 = AXIS2_PLACEMENT_3D('NONE', #266, #265, #264);
#268 = CIRCLE('NONE', #267, 0.0016000000000000014);
#269 = DIRECTION('NONE', (1, 0, 0.00000000000000024492935982947044));
#270 = DIRECTION('NONE', (0, -1, 0));
#271 = CARTESIAN_POINT('NONE', (0.04, -0, -0));
#272 = AXIS2_PLACEMENT_3D('NONE', #271, #270, #269);
#273 = CIRCLE('NONE', #272, 0.0016000000000000014);
#274 = DIRECTION('NONE', (0, 1, 0));
#275 = VECTOR('NONE', #274, 1);
#276 = CARTESIAN_POINT('NONE', (0.0416, 0, 0.00000000000000000039188697572715304));
#277 = LINE('NONE', #276, #275);
#278 = DIRECTION('NONE', (1, 0, 0.00000000000000024492935982947044));
#279 = DIRECTION('NONE', (0, -1, 0));
#280 = CARTESIAN_POINT('NONE', (0.04, 0.003, -0));
#281 = AXIS2_PLACEMENT_3D('NONE', #280, #279, #278);
#282 = CIRCLE('NONE', #281, 0.0016000000000000014);
#283 = DIRECTION('NONE', (1, 0, -0.0000000000000028952555575380788));
#284 = DIRECTION('NONE', (0, -1, 0));
#285 = CARTESIAN_POINT('NONE', (0.05, -0, 0.000000000000000005024295867788083));
#286 = AXIS2_PLACEMENT_3D('NONE', #285, #284, #283);
#287 = CIRCLE('NONE', #286, 0.0016000000000000014);
#288 = DIRECTION('NONE', (0, 1, 0));
#289 = VECTOR('NONE', #288, 1);
#290 = CARTESIAN_POINT('NONE', (0.0516, 0, 0.00000000000000000039188697572715304));
#291 = LINE('NONE', #290, #289);
#292 = DIRECTION('NONE', (1, 0, -0.0000000000000028952555575380788));
#293 = DIRECTION('NONE', (0, -1, 0));
#294 = CARTESIAN_POINT('NONE', (0.05, 0.003, 0.000000000000000005024295867788083));
#295 = AXIS2_PLACEMENT_3D('NONE', #294, #293, #292);
#296 = CIRCLE('NONE', #295, 0.0016000000000000014);
#297 = DIRECTION('NONE', (1, 0, 0.00000000000000024492935982947044));
#298 = DIRECTION('NONE', (0, -1, 0));
#299 = CARTESIAN_POINT('NONE', (0.06, -0, -0));
#300 = AXIS2_PLACEMENT_3D('NONE', #299, #298, #297);
#301 = CIRCLE('NONE', #300, 0.0016000000000000014);
#302 = DIRECTION('NONE', (0, 1, 0));
#303 = VECTOR('NONE', #302, 1);
#304 = CARTESIAN_POINT('NONE', (0.0616, 0, 0.00000000000000000039188697572715304));
#305 = LINE('NONE', #304, #303);
#306 = DIRECTION('NONE', (1, 0, 0.00000000000000024492935982947044));
#307 = DIRECTION('NONE', (0, -1, 0));
#308 = CARTESIAN_POINT('NONE', (0.06, 0.003, -0));
#309 = AXIS2_PLACEMENT_3D('NONE', #308, #307, #306);
#310 = CIRCLE('NONE', #309, 0.0016000000000000014);
#311 = DIRECTION('NONE', (1, 0, -0));
#312 = DIRECTION('NONE', (0, 1, 0));
#313 = CARTESIAN_POINT('NONE', (0, -0.0000009999999999998898, 0));
#314 = AXIS2_PLACEMENT_3D('NONE', #313, #312, #311);
#315 = CIRCLE('NONE', #314, 0.003);
#316 = DIRECTION('NONE', (0, 1, 0));
#317 = VECTOR('NONE', #316, 1);
#318 = CARTESIAN_POINT('NONE', (0.003, -0.0000009999999999998898, -0));
#319 = LINE('NONE', #318, #317);
#320 = DIRECTION('NONE', (1, 0, -0));
#321 = DIRECTION('NONE', (0, 1, 0));
#322 = CARTESIAN_POINT('NONE', (0, 0.003, 0));
#323 = AXIS2_PLACEMENT_3D('NONE', #322, #321, #320);
#324 = CIRCLE('NONE', #323, 0.003);
#325 = EDGE_CURVE('NONE', #6, #8, #80, .T.);
#326 = EDGE_CURVE('NONE', #8, #10, #84, .T.);
#327 = EDGE_CURVE('NONE', #12, #10, #88, .T.);
#328 = EDGE_CURVE('NONE', #6, #12, #92, .T.);
#329 = EDGE_CURVE('NONE', #8, #14, #97, .T.);
#330 = EDGE_CURVE('NONE', #14, #16, #101, .T.);
#331 = EDGE_CURVE('NONE', #10, #16, #106, .T.);
#332 = EDGE_CURVE('NONE', #14, #18, #110, .T.);
#333 = EDGE_CURVE('NONE', #18, #20, #114, .T.);
#334 = EDGE_CURVE('NONE', #16, #20, #118, .T.);
#335 = EDGE_CURVE('NONE', #18, #6, #123, .T.);
#336 = EDGE_CURVE('NONE', #20, #12, #128, .T.);
#337 = EDGE_CURVE('NONE', #22, #22, #133, .T.);
#338 = EDGE_CURVE('NONE', #22, #24, #137, .T.);
#339 = EDGE_CURVE('NONE', #24, #24, #142, .T.);
#340 = EDGE_CURVE('NONE', #26, #26, #147, .T.);
#341 = EDGE_CURVE('NONE', #26, #28, #151, .T.);
#342 = EDGE_CURVE('NONE', #28, #28, #156, .T.);
#343 = EDGE_CURVE('NONE', #30, #30, #161, .T.);
#344 = EDGE_CURVE('NONE', #30, #32, #165, .T.);
#345 = EDGE_CURVE('NONE', #32, #32, #170, .T.);
#346 = EDGE_CURVE('NONE', #34, #34, #175, .T.);
#347 = EDGE_CURVE('NONE', #34, #36, #179, .T.);
#348 = EDGE_CURVE('NONE', #36, #36, #184, .T.);
#349 = EDGE_CURVE('NONE', #38, #38, #189, .T.);
#350 = EDGE_CURVE('NONE', #38, #40, #193, .T.);
#351 = EDGE_CURVE('NONE', #40, #40, #198, .T.);
#352 = EDGE_CURVE('NONE', #42, #42, #203, .T.);
#353 = EDGE_CURVE('NONE', #42, #44, #207, .T.);
#354 = EDGE_CURVE('NONE', #44, #44, #212, .T.);
#355 = EDGE_CURVE('NONE', #46, #46, #217, .T.);
#356 = EDGE_CURVE('NONE', #46, #48, #221, .T.);
#357 = EDGE_CURVE('NONE', #48, #48, #226, .T.);
#358 = EDGE_CURVE('NONE', #50, #50, #231, .T.);
#359 = EDGE_CURVE('NONE', #50, #52, #235, .T.);
#360 = EDGE_CURVE('NONE', #52, #52, #240, .T.);
#361 = EDGE_CURVE('NONE', #54, #54, #245, .T.);
#362 = EDGE_CURVE('NONE', #54, #56, #249, .T.);
#363 = EDGE_CURVE('NONE', #56, #56, #254, .T.);
#364 = EDGE_CURVE('NONE', #58, #58, #259, .T.);
#365 = EDGE_CURVE('NONE', #58, #60, #263, .T.);
#366 = EDGE_CURVE('NONE', #60, #60, #268, .T.);
#367 = EDGE_CURVE('NONE', #62, #62, #273, .T.);
#368 = EDGE_CURVE('NONE', #62, #64, #277, .T.);
#369 = EDGE_CURVE('NONE', #64, #64, #282, .T.);
#370 = EDGE_CURVE('NONE', #66, #66, #287, .T.);
#371 = EDGE_CURVE('NONE', #66, #68, #291, .T.);
#372 = EDGE_CURVE('NONE', #68, #68, #296, .T.);
#373 = EDGE_CURVE('NONE', #70, #70, #301, .T.);
#374 = EDGE_CURVE('NONE', #70, #72, #305, .T.);
#375 = EDGE_CURVE('NONE', #72, #72, #310, .T.);
#376 = EDGE_CURVE('NONE', #74, #74, #315, .T.);
#377 = EDGE_CURVE('NONE', #74, #76, #319, .T.);
#378 = EDGE_CURVE('NONE', #76, #76, #324, .T.);
#379 = CARTESIAN_POINT('NONE', (0, 0.0015, 0.0075));
#380 = DIRECTION('NONE', (0, 0, 1));
#381 = AXIS2_PLACEMENT_3D('NONE', #379, #380, $);
#382 = PLANE('NONE', #381);
#383 = CARTESIAN_POINT('NONE', (0.0625, 0.0015, -0));
#384 = DIRECTION('NONE', (-0, 1, 0));
#385 = DIRECTION('NONE', (0, 0, 1));
#386 = AXIS2_PLACEMENT_3D('NONE', #383, #384, #385);
#387 = CYLINDRICAL_SURFACE('NONE', #386, 0.0075);
#388 = CARTESIAN_POINT('NONE', (0, 0.0015, -0.0075));
#389 = DIRECTION('NONE', (0, -0, -1));
#390 = AXIS2_PLACEMENT_3D('NONE', #388, #389, $);
#391 = PLANE('NONE', #390);
#392 = CARTESIAN_POINT('NONE', (-0.062499999999999986, 0.0015, -0.000000000000000014210854715202004));
#393 = DIRECTION('NONE', (0, -1, -0));
#394 = DIRECTION('NONE', (-0.000000000000001894780628693604, 0, -1));
#395 = AXIS2_PLACEMENT_3D('NONE', #392, #393, #394);
#396 = CYLINDRICAL_SURFACE('NONE', #395, 0.007499999999999986);
#397 = CARTESIAN_POINT('NONE', (-0.06, 0.0015, -0));
#398 = DIRECTION('NONE', (0, -1, 0));
#399 = DIRECTION('NONE', (1, 0, 0.00000000000000024492935982947044));
#400 = AXIS2_PLACEMENT_3D('NONE', #397, #398, #399);
#401 = CYLINDRICAL_SURFACE('NONE', #400, 0.0016000000000000014);
#402 = CARTESIAN_POINT('NONE', (-0.05000000000000001, 0.0015, -0));
#403 = DIRECTION('NONE', (0, -1, 0));
#404 = DIRECTION('NONE', (1, 0, 0.00000000000000024492935982946936));
#405 = AXIS2_PLACEMENT_3D('NONE', #402, #403, #404);
#406 = CYLINDRICAL_SURFACE('NONE', #405, 0.0016000000000000085);
#407 = CARTESIAN_POINT('NONE', (-0.04, 0.0015, -0));
#408 = DIRECTION('NONE', (0, -1, 0));
#409 = DIRECTION('NONE', (1, 0, 0.00000000000000024492935982947044));
#410 = AXIS2_PLACEMENT_3D('NONE', #407, #408, #409);
#411 = CYLINDRICAL_SURFACE('NONE', #410, 0.0016000000000000014);
#412 = CARTESIAN_POINT('NONE', (-0.029999999999999995, 0.0015, -0.000000000000000005024295867788083));
#413 = DIRECTION('NONE', (0, -1, 0));
#414 = DIRECTION('NONE', (1, 0, 0.000000000000003385114277197027));
#415 = AXIS2_PLACEMENT_3D('NONE', #412, #413, #414);
#416 = CYLINDRICAL_SURFACE('NONE', #415, 0.001599999999999998);
#417 = CARTESIAN_POINT('NONE', (-0.02, 0.0015, -0.0000000000000000012560739669470208));
#418 = DIRECTION('NONE', (0, -1, 0));
#419 = DIRECTION('NONE', (1, 0, 0.0000000000000010299755891713577));
#420 = AXIS2_PLACEMENT_3D('NONE', #417, #418, #419);
#421 = CYLINDRICAL_SURFACE('NONE', #420, 0.0016000000000000014);
#422 = CARTESIAN_POINT('NONE', (-0.01, 0.0015, 0.0000000000000000017763568394002505));
#423 = DIRECTION('NONE', (0, -1, 0));
#424 = DIRECTION('NONE', (1, 0, -0.0000000000000008652936647956861));
#425 = AXIS2_PLACEMENT_3D('NONE', #422, #423, #424);
#426 = CYLINDRICAL_SURFACE('NONE', #425, 0.0015999999999999996);
#427 = CARTESIAN_POINT('NONE', (0.00000000000000000007850462293418876, 0.0015, -0.00000000000000000007850462293418875));
#428 = DIRECTION('NONE', (0, -1, 0));
#429 = DIRECTION('NONE', (1, 0, 0.00000000000000029399474916333856));
#430 = AXIS2_PLACEMENT_3D('NONE', #427, #428, #429);
#431 = CYLINDRICAL_SURFACE('NONE', #430, 0.0016);
#432 = CARTESIAN_POINT('NONE', (0.010000000000000002, 0.0015, -0.0000000000000000017763568394002505));
#433 = DIRECTION('NONE', (0, -1, 0));
#434 = DIRECTION('NONE', (1, 0, 0.000000000000001355152384454629));
#435 = AXIS2_PLACEMENT_3D('NONE', #432, #433, #434);
#436 = CYLINDRICAL_SURFACE('NONE', #435, 0.001599999999999998);
#437 = CARTESIAN_POINT('NONE', (0.02, 0.0015, -0.0000000000000000012560739669470208));
#438 = DIRECTION('NONE', (0, -1, 0));
#439 = DIRECTION('NONE', (1, 0, 0.0000000000000010299755891713577));
#440 = AXIS2_PLACEMENT_3D('NONE', #437, #438, #439);
#441 = CYLINDRICAL_SURFACE('NONE', #440, 0.0016000000000000014);
#442 = CARTESIAN_POINT('NONE', (0.03, 0.0015, -0.0000000000000000025121479338940416));
#443 = DIRECTION('NONE', (0, -1, 0));
#444 = DIRECTION('NONE', (1, 0, 0.000000000000001815021818513245));
#445 = AXIS2_PLACEMENT_3D('NONE', #442, #443, #444);
#446 = CYLINDRICAL_SURFACE('NONE', #445, 0.0016000000000000014);
#447 = CARTESIAN_POINT('NONE', (0.04, 0.0015, -0));
#448 = DIRECTION('NONE', (0, -1, 0));
#449 = DIRECTION('NONE', (1, 0, 0.00000000000000024492935982947044));
#450 = AXIS2_PLACEMENT_3D('NONE', #447, #448, #449);
#451 = CYLINDRICAL_SURFACE('NONE', #450, 0.0016000000000000014);
#452 = CARTESIAN_POINT('NONE', (0.05, 0.0015, 0.000000000000000005024295867788083));
#453 = DIRECTION('NONE', (0, -1, 0));
#454 = DIRECTION('NONE', (1, 0, -0.0000000000000028952555575380788));
#455 = AXIS2_PLACEMENT_3D('NONE', #452, #453, #454);
#456 = CYLINDRICAL_SURFACE('NONE', #455, 0.0016000000000000014);
#457 = CARTESIAN_POINT('NONE', (0.06, 0.0015, -0));
#458 = DIRECTION('NONE', (0, -1, 0));
#459 = DIRECTION('NONE', (1, 0, 0.00000000000000024492935982947044));
#460 = AXIS2_PLACEMENT_3D('NONE', #457, #458, #459);
#461 = CYLINDRICAL_SURFACE('NONE', #460, 0.0016000000000000014);
#462 = CARTESIAN_POINT('NONE', (0, 0, -0));
#463 = DIRECTION('NONE', (0, 1, 0));
#464 = AXIS2_PLACEMENT_3D('NONE', #462, #463, $);
#465 = PLANE('NONE', #464);
#466 = CARTESIAN_POINT('NONE', (0, 0.003, -0));
#467 = DIRECTION('NONE', (0, 1, 0));
#468 = AXIS2_PLACEMENT_3D('NONE', #466, #467, $);
#469 = PLANE('NONE', #468);
#470 = CARTESIAN_POINT('NONE', (0, 0.0014995, 0));
#471 = DIRECTION('NONE', (0, 1, 0));
#472 = DIRECTION('NONE', (1, 0, -0));
#473 = AXIS2_PLACEMENT_3D('NONE', #470, #471, #472);
#474 = CYLINDRICAL_SURFACE('NONE', #473, 0.003);
#475 = ORIENTED_EDGE('NONE', *, *, #325, .T.);
#476 = ORIENTED_EDGE('NONE', *, *, #326, .T.);
#477 = ORIENTED_EDGE('NONE', *, *, #327, .F.);
#478 = ORIENTED_EDGE('NONE', *, *, #328, .F.);
#479 = EDGE_LOOP('NONE', (#475, #476, #477, #478));
#480 = FACE_BOUND('NONE', #479, .T.);
#481 = ADVANCED_FACE('NONE', (#480), #382, .T.);
#482 = ORIENTED_EDGE('NONE', *, *, #329, .T.);
#483 = ORIENTED_EDGE('NONE', *, *, #330, .T.);
#484 = ORIENTED_EDGE('NONE', *, *, #331, .F.);
#485 = ORIENTED_EDGE('NONE', *, *, #326, .F.);
#486 = EDGE_LOOP('NONE', (#482, #483, #484, #485));
#487 = FACE_BOUND('NONE', #486, .T.);
#488 = ADVANCED_FACE('NONE', (#487), #387, .T.);
#489 = ORIENTED_EDGE('NONE', *, *, #332, .T.);
#490 = ORIENTED_EDGE('NONE', *, *, #333, .T.);
#491 = ORIENTED_EDGE('NONE', *, *, #334, .F.);
#492 = ORIENTED_EDGE('NONE', *, *, #330, .F.);
#493 = EDGE_LOOP('NONE', (#489, #490, #491, #492));
#494 = FACE_BOUND('NONE', #493, .T.);
#495 = ADVANCED_FACE('NONE', (#494), #391, .T.);
#496 = ORIENTED_EDGE('NONE', *, *, #335, .T.);
#497 = ORIENTED_EDGE('NONE', *, *, #328, .T.);
#498 = ORIENTED_EDGE('NONE', *, *, #336, .F.);
#499 = ORIENTED_EDGE('NONE', *, *, #333, .F.);
#500 = EDGE_LOOP('NONE', (#496, #497, #498, #499));
#501 = FACE_BOUND('NONE', #500, .T.);
#502 = ADVANCED_FACE('NONE', (#501), #396, .F.);
#503 = ORIENTED_EDGE('NONE', *, *, #337, .T.);
#504 = ORIENTED_EDGE('NONE', *, *, #339, .F.);
#505 = EDGE_LOOP('NONE', (#503));
#506 = FACE_BOUND('NONE', #505, .T.);
#507 = EDGE_LOOP('NONE', (#504));
#508 = FACE_BOUND('NONE', #507, .T.);
#509 = ADVANCED_FACE('NONE', (#506, #508), #401, .F.);
#510 = ORIENTED_EDGE('NONE', *, *, #340, .T.);
#511 = ORIENTED_EDGE('NONE', *, *, #342, .F.);
#512 = EDGE_LOOP('NONE', (#510));
#513 = FACE_BOUND('NONE', #512, .T.);
#514 = EDGE_LOOP('NONE', (#511));
#515 = FACE_BOUND('NONE', #514, .T.);
#516 = ADVANCED_FACE('NONE', (#513, #515), #406, .F.);
#517 = ORIENTED_EDGE('NONE', *, *, #343, .T.);
#518 = ORIENTED_EDGE('NONE', *, *, #345, .F.);
#519 = EDGE_LOOP('NONE', (#517));
#520 = FACE_BOUND('NONE', #519, .T.);
#521 = EDGE_LOOP('NONE', (#518));
#522 = FACE_BOUND('NONE', #521, .T.);
#523 = ADVANCED_FACE('NONE', (#520, #522), #411, .F.);
#524 = ORIENTED_EDGE('NONE', *, *, #346, .T.);
#525 = ORIENTED_EDGE('NONE', *, *, #348, .F.);
#526 = EDGE_LOOP('NONE', (#524));
#527 = FACE_BOUND('NONE', #526, .T.);
#528 = EDGE_LOOP('NONE', (#525));
#529 = FACE_BOUND('NONE', #528, .T.);
#530 = ADVANCED_FACE('NONE', (#527, #529), #416, .F.);
#531 = ORIENTED_EDGE('NONE', *, *, #349, .T.);
#532 = ORIENTED_EDGE('NONE', *, *, #351, .F.);
#533 = EDGE_LOOP('NONE', (#531));
#534 = FACE_BOUND('NONE', #533, .T.);
#535 = EDGE_LOOP('NONE', (#532));
#536 = FACE_BOUND('NONE', #535, .T.);
#537 = ADVANCED_FACE('NONE', (#534, #536), #421, .F.);
#538 = ORIENTED_EDGE('NONE', *, *, #352, .T.);
#539 = ORIENTED_EDGE('NONE', *, *, #354, .F.);
#540 = EDGE_LOOP('NONE', (#538));
#541 = FACE_BOUND('NONE', #540, .T.);
#542 = EDGE_LOOP('NONE', (#539));
#543 = FACE_BOUND('NONE', #542, .T.);
#544 = ADVANCED_FACE('NONE', (#541, #543), #426, .F.);
#545 = ORIENTED_EDGE('NONE', *, *, #355, .T.);
#546 = ORIENTED_EDGE('NONE', *, *, #357, .F.);
#547 = EDGE_LOOP('NONE', (#545));
#548 = FACE_BOUND('NONE', #547, .T.);
#549 = EDGE_LOOP('NONE', (#546));
#550 = FACE_BOUND('NONE', #549, .T.);
#551 = ADVANCED_FACE('NONE', (#548, #550), #431, .F.);
#552 = ORIENTED_EDGE('NONE', *, *, #358, .T.);
#553 = ORIENTED_EDGE('NONE', *, *, #360, .F.);
#554 = EDGE_LOOP('NONE', (#552));
#555 = FACE_BOUND('NONE', #554, .T.);
#556 = EDGE_LOOP('NONE', (#553));
#557 = FACE_BOUND('NONE', #556, .T.);
#558 = ADVANCED_FACE('NONE', (#555, #557), #436, .F.);
#559 = ORIENTED_EDGE('NONE', *, *, #361, .T.);
#560 = ORIENTED_EDGE('NONE', *, *, #363, .F.);
#561 = EDGE_LOOP('NONE', (#559));
#562 = FACE_BOUND('NONE', #561, .T.);
#563 = EDGE_LOOP('NONE', (#560));
#564 = FACE_BOUND('NONE', #563, .T.);
#565 = ADVANCED_FACE('NONE', (#562, #564), #441, .F.);
#566 = ORIENTED_EDGE('NONE', *, *, #364, .T.);
#567 = ORIENTED_EDGE('NONE', *, *, #366, .F.);
#568 = EDGE_LOOP('NONE', (#566));
#569 = FACE_BOUND('NONE', #568, .T.);
#570 = EDGE_LOOP('NONE', (#567));
#571 = FACE_BOUND('NONE', #570, .T.);
#572 = ADVANCED_FACE('NONE', (#569, #571), #446, .F.);
#573 = ORIENTED_EDGE('NONE', *, *, #367, .T.);
#574 = ORIENTED_EDGE('NONE', *, *, #369, .F.);
#575 = EDGE_LOOP('NONE', (#573));
#576 = FACE_BOUND('NONE', #575, .T.);
#577 = EDGE_LOOP('NONE', (#574));
#578 = FACE_BOUND('NONE', #577, .T.);
#579 = ADVANCED_FACE('NONE', (#576, #578), #451, .F.);
#580 = ORIENTED_EDGE('NONE', *, *, #370, .T.);
#581 = ORIENTED_EDGE('NONE', *, *, #372, .F.);
#582 = EDGE_LOOP('NONE', (#580));
#583 = FACE_BOUND('NONE', #582, .T.);
#584 = EDGE_LOOP('NONE', (#581));
#585 = FACE_BOUND('NONE', #584, .T.);
#586 = ADVANCED_FACE('NONE', (#583, #585), #456, .F.);
#587 = ORIENTED_EDGE('NONE', *, *, #373, .T.);
#588 = ORIENTED_EDGE('NONE', *, *, #375, .F.);
#589 = EDGE_LOOP('NONE', (#587));
#590 = FACE_BOUND('NONE', #589, .T.);
#591 = EDGE_LOOP('NONE', (#588));
#592 = FACE_BOUND('NONE', #591, .T.);
#593 = ADVANCED_FACE('NONE', (#590, #592), #461, .F.);
#594 = ORIENTED_EDGE('NONE', *, *, #335, .F.);
#595 = ORIENTED_EDGE('NONE', *, *, #332, .F.);
#596 = ORIENTED_EDGE('NONE', *, *, #329, .F.);
#597 = ORIENTED_EDGE('NONE', *, *, #325, .F.);
#598 = ORIENTED_EDGE('NONE', *, *, #337, .F.);
#599 = ORIENTED_EDGE('NONE', *, *, #340, .F.);
#600 = ORIENTED_EDGE('NONE', *, *, #343, .F.);
#601 = ORIENTED_EDGE('NONE', *, *, #346, .F.);
#602 = ORIENTED_EDGE('NONE', *, *, #349, .F.);
#603 = ORIENTED_EDGE('NONE', *, *, #352, .F.);
#604 = ORIENTED_EDGE('NONE', *, *, #355, .F.);
#605 = ORIENTED_EDGE('NONE', *, *, #358, .F.);
#606 = ORIENTED_EDGE('NONE', *, *, #361, .F.);
#607 = ORIENTED_EDGE('NONE', *, *, #364, .F.);
#608 = ORIENTED_EDGE('NONE', *, *, #367, .F.);
#609 = ORIENTED_EDGE('NONE', *, *, #370, .F.);
#610 = ORIENTED_EDGE('NONE', *, *, #373, .F.);
#611 = ORIENTED_EDGE('NONE', *, *, #376, .T.);
#612 = EDGE_LOOP('NONE', (#594, #595, #596, #597));
#613 = FACE_BOUND('NONE', #612, .T.);
#614 = EDGE_LOOP('NONE', (#598));
#615 = FACE_BOUND('NONE', #614, .T.);
#616 = EDGE_LOOP('NONE', (#599));
#617 = FACE_BOUND('NONE', #616, .T.);
#618 = EDGE_LOOP('NONE', (#600));
#619 = FACE_BOUND('NONE', #618, .T.);
#620 = EDGE_LOOP('NONE', (#601));
#621 = FACE_BOUND('NONE', #620, .T.);
#622 = EDGE_LOOP('NONE', (#602));
#623 = FACE_BOUND('NONE', #622, .T.);
#624 = EDGE_LOOP('NONE', (#603));
#625 = FACE_BOUND('NONE', #624, .T.);
#626 = EDGE_LOOP('NONE', (#604));
#627 = FACE_BOUND('NONE', #626, .T.);
#628 = EDGE_LOOP('NONE', (#605));
#629 = FACE_BOUND('NONE', #628, .T.);
#630 = EDGE_LOOP('NONE', (#606));
#631 = FACE_BOUND('NONE', #630, .T.);
#632 = EDGE_LOOP('NONE', (#607));
#633 = FACE_BOUND('NONE', #632, .T.);
#634 = EDGE_LOOP('NONE', (#608));
#635 = FACE_BOUND('NONE', #634, .T.);
#636 = EDGE_LOOP('NONE', (#609));
#637 = FACE_BOUND('NONE', #636, .T.);
#638 = EDGE_LOOP('NONE', (#610));
#639 = FACE_BOUND('NONE', #638, .T.);
#640 = EDGE_LOOP('NONE', (#611));
#641 = FACE_BOUND('NONE', #640, .T.);
#642 = ADVANCED_FACE('NONE', (#613, #615, #617, #619, #621, #623, #625, #627, #629, #631, #633, #635, #637, #639, #641), #465, .F.);
#643 = ORIENTED_EDGE('NONE', *, *, #327, .T.);
#644 = ORIENTED_EDGE('NONE', *, *, #331, .T.);
#645 = ORIENTED_EDGE('NONE', *, *, #334, .T.);
#646 = ORIENTED_EDGE('NONE', *, *, #336, .T.);
#647 = ORIENTED_EDGE('NONE', *, *, #339, .T.);
#648 = ORIENTED_EDGE('NONE', *, *, #342, .T.);
#649 = ORIENTED_EDGE('NONE', *, *, #345, .T.);
#650 = ORIENTED_EDGE('NONE', *, *, #348, .T.);
#651 = ORIENTED_EDGE('NONE', *, *, #351, .T.);
#652 = ORIENTED_EDGE('NONE', *, *, #354, .T.);
#653 = ORIENTED_EDGE('NONE', *, *, #357, .T.);
#654 = ORIENTED_EDGE('NONE', *, *, #360, .T.);
#655 = ORIENTED_EDGE('NONE', *, *, #363, .T.);
#656 = ORIENTED_EDGE('NONE', *, *, #366, .T.);
#657 = ORIENTED_EDGE('NONE', *, *, #369, .T.);
#658 = ORIENTED_EDGE('NONE', *, *, #372, .T.);
#659 = ORIENTED_EDGE('NONE', *, *, #375, .T.);
#660 = ORIENTED_EDGE('NONE', *, *, #378, .F.);
#661 = EDGE_LOOP('NONE', (#643, #644, #645, #646));
#662 = FACE_BOUND('NONE', #661, .T.);
#663 = EDGE_LOOP('NONE', (#647));
#664 = FACE_BOUND('NONE', #663, .T.);
#665 = EDGE_LOOP('NONE', (#648));
#666 = FACE_BOUND('NONE', #665, .T.);
#667 = EDGE_LOOP('NONE', (#649));
#668 = FACE_BOUND('NONE', #667, .T.);
#669 = EDGE_LOOP('NONE', (#650));
#670 = FACE_BOUND('NONE', #669, .T.);
#671 = EDGE_LOOP('NONE', (#651));
#672 = FACE_BOUND('NONE', #671, .T.);
#673 = EDGE_LOOP('NONE', (#652));
#674 = FACE_BOUND('NONE', #673, .T.);
#675 = EDGE_LOOP('NONE', (#653));
#676 = FACE_BOUND('NONE', #675, .T.);
#677 = EDGE_LOOP('NONE', (#654));
#678 = FACE_BOUND('NONE', #677, .T.);
#679 = EDGE_LOOP('NONE', (#655));
#680 = FACE_BOUND('NONE', #679, .T.);
#681 = EDGE_LOOP('NONE', (#656));
#682 = FACE_BOUND('NONE', #681, .T.);
#683 = EDGE_LOOP('NONE', (#657));
#684 = FACE_BOUND('NONE', #683, .T.);
#685 = EDGE_LOOP('NONE', (#658));
#686 = FACE_BOUND('NONE', #685, .T.);
#687 = EDGE_LOOP('NONE', (#659));
#688 = FACE_BOUND('NONE', #687, .T.);
#689 = EDGE_LOOP('NONE', (#660));
#690 = FACE_BOUND('NONE', #689, .T.);
#691 = ADVANCED_FACE('NONE', (#662, #664, #666, #668, #670, #672, #674, #676, #678, #680, #682, #684, #686, #688, #690), #469, .T.);
#692 = ORIENTED_EDGE('NONE', *, *, #376, .F.);
#693 = ORIENTED_EDGE('NONE', *, *, #378, .T.);
#694 = EDGE_LOOP('NONE', (#692));
#695 = FACE_BOUND('NONE', #694, .T.);
#696 = EDGE_LOOP('NONE', (#693));
#697 = FACE_BOUND('NONE', #696, .T.);
#698 = ADVANCED_FACE('NONE', (#695, #697), #474, .F.);
#699 = CLOSED_SHELL('NONE', (#481, #488, #495, #502, #509, #516, #523, #530, #537, #544, #551, #558, #565, #572, #579, #586, #593, #642, #691, #698));
#700 = MANIFOLD_SOLID_BREP('NONE', #699);
#701 = APPLICATION_CONTEXT('configuration controlled 3D design of mechanical parts and assemblies');
#702 = PRODUCT_DEFINITION_CONTEXT('part definition', #701, 'design');
#703 = PRODUCT('UNIDENTIFIED_PRODUCT', 'NONE', $, ());
#704 = PRODUCT_DEFINITION_FORMATION('', $, #703);
#705 = PRODUCT_DEFINITION('design', $, #704, #702);
#706 = PRODUCT_DEFINITION_SHAPE('NONE', $, #705);
#707 = ADVANCED_BREP_SHAPE_REPRESENTATION('NONE', (#700), #4);
#708 = SHAPE_DEFINITION_REPRESENTATION(#706, #707);
#709 = COLOUR_RGB('NONE', 0.4313725531101227, 0.4313725531101227, 0.4313725531101227);
#710 = FILL_AREA_STYLE_COLOUR('NONE', #709);
#711 = FILL_AREA_STYLE('NONE', (#710));
#712 = SURFACE_STYLE_FILL_AREA(#711);
#713 = SURFACE_SIDE_STYLE('NONE', (#712));
#714 = SURFACE_STYLE_USAGE(.BOTH., #713);
#715 = PRESENTATION_STYLE_ASSIGNMENT((#714));
#716 = STYLED_ITEM('NONE', (#715), #700);
#717 = MECHANICAL_DESIGN_GEOMETRIC_PRESENTATION_REPRESENTATION('NONE', (#716), #4);
ENDSEC;
END-ISO-10303-21;
